<?xml version="1.0" encoding="UTF-8"?>
<svg id="Layer_1" data-name="Layer 1" xmlns="http://www.w3.org/2000/svg" viewBox="0 0 216 216">
  <defs>
    <style>
      .cls-1 {
        stroke-width: 0px;
      }
    </style>
  </defs>
  <path class="cls-1" d="M138.94,60.71c-3.52,3.36-5.83,3.43-9.85.03,4.9-4.55,5.51-8.93,1.75-14.65-4.25-6.45-10.46-9.82-18.75-11.18,2.93,1.32,5.25,2.12,7.3,3.36,2.23,1.36,4.44,2.93,6.2,4.83.89.96,1.09,2.88.95,4.3-.05.5-2.04.81-3.42,1.3-.42,1.51-1,3.59-1.79,6.41-12.04-19.59-20.69-20.89-41.27-7.11,6.03-10.94,23.94-13.96,38.33-5.82-3.86-4.61-8.03-7.24-12.89-7.75-11.02-1.16-20.18,2.96-27.52,11.21-1.23,1.38-2.43,2.78-3.73,4.26,1.31-5.99,10.52-14.95,20.4-20.34,9.13-4.98,18.84-5.45,28.9-4.68,10.26.78,19.05,4.69,26.51,11.86.19-.26.38-.53.57-.79-2.2-2.28-4.41-4.57-6.49-6.73,4.33.77,8.96,1.82,13.64,2.39,12.25,1.48,23.21-4.57,28.16-15.48.69-1.53.71-3.36,1.12-5.46,3.94-1.57,5.43-.99,7.86,3.7,4.76-4.02,9.94-6.26,17.15-3.17-7.02,1.7-11.96,5.41-15.09,10.62-6.54,10.9-16.58,15.2-28.1,16.75-.78,1.21-1.52,2.34-2.63,4.06,1.03,1.93,2.55,4.77,4.05,7.59-5.62,3.86-12.75,2.96-17.33-2.77-5.2-6.51-10.88-12.34-18.56-15.73-4.14-1.83-8.6-2.94-13.14-3.78,8.5,2.68,16.15,6.75,22.92,12.54,6.85,5.86,8.54,21.21,2.31,28.34-2.57-2.75-5.08-5.43-7.58-8.1ZM121.55,32.67c5.23,2.74,10.81,5.67,16.63,8.72-4.67-5.46-10.4-8.08-16.63-8.72ZM159.24,34.71c6.36,1.45,13.6.46,17.22-2.16-5.48.69-11.43,1.43-17.22,2.16Z"/>
  <path class="cls-1" d="M19.07,47.34c4.77-.61,7.77.9,9.46,4.51,1.78,3.81.7,7.32-2.11,10.17-3.76,3.81-8.33,4.97-13.47,3.23-5.51-1.86-8.25-6.04-8.88-11.56-.69-6.09,1.17-11.44,6.54-14.73,6.17-3.79,12.68-3.41,18.8.27,6.77,4.07,9.89,12.28,8.28,20.78-2.14,11.29-10.65,19.94-22.43,22.44,4.49,1.03,7.78-.69,10.98-2.74,11.06-7.11,16.06-21.56,11.52-33.31-4.57-11.84-17.23-15.98-30.34-9.94-1.43-4.59,1.79-8.91,7.24-8.11,4.76.69,9.9,2.46,13.71,5.31,15.42,11.5,18.06,28.3,7.57,44.79-3.4,5.34-7.37,10.32-10.67,15.71-4.92,8.04-6.06,16.99-5.97,26.3.04,4.65,3.26,9.78-1.45,14.07-.38.35.39,1.96.62,2.98,1.18,5.29,0,9.56-3.57,13-9.86-6.3-11.14-30.59-2.56-48.31-7.16-2.9-8.94-7.92-5.47-15.14.43-.9.65-2.21.34-3.1-1.61-4.51-.99-7.05,3.04-10.58,3.42,2.71,7.19,3.31,11.8.98-1.86-.22-3.13-.37-4.46-.52,1.59-4.3,5.23-5.35,8.71-6.89,6.79-3,10.2-10.36,7.86-16.19-2.62-6.53-10.03-9.84-17.11-7.64-5.74,1.79-9.35,8.26-7.71,13.82,1.08,3.64,3.97,5.76,7.66,5.61,3.59-.14,6.9-2.63,7.59-5.91.76-3.63-.21-6.55-3.89-8.12-.33-.14-.6-.44-1.59-1.19ZM14.86,95.46c1.24-.39,2.93-.39,3.63-1.23,4.13-4.89,8.02-9.97,12.41-15.51-10.41,7.13-15.03,11.51-16.04,16.74Z"/>
  <path class="cls-1" d="M46.94,22.49c.94.57,2.58,1.65,4.3,2.58,3.43,1.87,7.5.67,9.65-2.76,2.32-3.71,1.6-8.15-1.73-10.63-4.32-3.23-10.39-2.23-14.16,2.32-4.95,5.97-3.82,15.49,2.33,19.72,5.95,4.08,14.5,1.88,18.39-4.96,2.04-3.6,2.84-8.05,7.74-9.46.13.77.31,1.83.5,2.96.2-.08.51-.16.5-.21-.24-2.75-.56-5.5-.76-8.25-.07-.91-.16-2.49.23-2.65,2.45-1.03,5.19-2.71,7.51-2.31,2.55.44,4.42.64,6.87-.53,6.2-2.96,11.22-.62,13.9,6.22,11.27-6.69,23.35-6.83,35.65-3.95,3.18.74,6.28,2.08,9.18,3.6,1.47.77,2.41,2.55,3.59,3.87-1.47,1.02-2.86,2.74-4.43,2.93-3.68.44-7.45.14-12.1.14-1.38,2.55-4.7,1.52-7.86.89-10.83-2.17-21.44-1.63-31.23,3.76-5.64,3.11-10.79,7.13-16.05,10.89-17.52,12.54-39.56,7.47-48.57-11.6-1.64-3.46-1.87-7.91-1.65-11.84.23-4.04,3.43-5.57,7.48-4.83-.96,3.2-2.46,6.38-2.81,9.68-1.22,11.36,5.48,20.02,16.79,22.26,13.29,2.63,28.11-5.94,31.78-18.46.5-1.71.57-3.55.45-5.47-1.75,8.61-6.41,15.05-13.77,19.58-7.99,4.92-18.94,4.62-25.79-.69-5.99-4.65-8.32-13.05-5.65-20.38,2.25-6.18,8.11-10.15,14.81-9.78,5.2.29,9.56,2.37,11.93,7.25,2.23,4.6,2.28,9.41-1.04,13.46-1.64,2.01-4.19,3.81-6.67,4.49-5.92,1.63-10.32-3.22-9.29-7.82ZM78.67,31.32l.44.46c4.76-3.63,9.6-7.16,14.21-10.96.93-.76,1-2.56,1.47-3.87-1.34.19-3.19-.11-3.92.66-4.21,4.43-8.16,9.12-12.2,13.72Z"/>
  <path class="cls-1" d="M34.78,117.02c.73,6.02,3.78,10.63,8.72,14,5.76,3.93,9.99,3.6,15.16-1.02,3.44,2.54,3.4,5.16-.04,9.36,2.09,1.73,4.37,3.27,6.19,5.23,1.62,1.76,1.47,3.69-1.21,4.55-1.63.52-3.31,1.12-4.98,1.19-9.65.35-18.71-.75-23.74-10.72-3.01-5.96-6.06-11.89-8.68-17.03.19,1.04.34,3.25.98,5.3,3.04,9.71,8.07,18,16.78,23.79,6.72,4.46,8.14,10.54,4.46,18.13-1.74-.83-3.51-1.6-5.22-2.5-1.62-.86-3.18-1.84-5.21-3.03.2,1.57.35,2.75.53,4.16h-2.84c-.65,2.87-1.17,5.71-1.94,8.47-2.35,8.44-8,14.42-14.77,19.57-4.9,3.73-9.37,7.82-10.57,14.43-3.91-4.94-2.76-10.04,3.62-16.8-5.04-2.24-5.32-2.71-4.55-6.73,3.19-1.18,6.38-1.63,8.6-3.35,3.86-2.99,8.05-6.23,10.35-10.35,2-3.58,1.81-8.5,2.15-12.86.23-3-.15-6.07-.51-9.08-.34-2.87-1-5.7-1.61-9.03,2.24,2.48,4.22,4.67,6.21,6.87.31-.13.62-.26.93-.39-13.88-16.38-13.61-34.33-5.89-52.73,4.36-10.37,14.33-19.68,21.56-21.91-2.65,2.48-5.72,5.13-8.54,8.03-7.56,7.74-9.05,17.32-7.99,27.58.09.84.77,1.62,1.18,2.42.28,1.49.56,2.98.85,4.46ZM31.5,157.42c-.7,5.91-1.53,12.99-2.33,19.79,3.12-5.34,3.85-12.31,2.33-19.79ZM38.78,138.64c-2.9-6.23-5.42-11.62-7.87-16.87.4,6.11,2.6,11.65,7.87,16.87Z"/>
  <path class="cls-1" d="M34.78,117.02c-.28-1.49-.56-2.98-.85-4.46-.29-.97-.57-1.94-.86-2.9.19-.09.38-.19.58-.28,1.47,2.46,2.93,4.92,4.4,7.39-7.29-14.42-1.37-25.64,8.3-36.76-2.74,5.44-5.72,10.09-7.49,15.15-3.75,10.67,1.1,20.63,11.5,24.95,3.9,1.62,7.27-.84,6.97-4.98-.19-2.65-1.66-2.79-3.46-1.79-3.69,2.06-6.17,1.63-8.69-2.2-4.18-6.34-4.65-13.39-1.65-20.06,2.26-5.03,6.06-9.36,9.85-13.63-2.92,6.09-6.43,11.82-4.44,18.94-.91,4.41,1.32,7.12,7.57,9.24.5-.9,1-1.79,1.51-2.71-4.61.51-7.28-1.34-8.93-6.14,3.23,1.14,6.46,2.31,9.71,3.39,1.08.36,2.82.1,3.27.79,2.21,3.3,5.12,5.41,8.84,6.68.52.18,1.08,1.98.77,2.56-1.65,3.06-3.57,5.97-5.52,9.13-1.39-2.23-2.5-4.01-3.61-5.78-.56,4.43-2.36,7.16-6.48,8.11-3.42.79-6.84,1.57-10.55,2.43-.06.47-.19,1.59-.37,3.11-6.61-.48-7.59-6.26-10.35-10.18ZM46.73,90.56c-2.23,5.03-2.31,10.3,0,15.34v-15.34Z"/>
  <path class="cls-1" d="M92.73,82.53c.74,4.98,1.41,9.53,2.24,15.12-5.56-1.23-9.99-2.22-14.67-3.26-3.49,4.25-7.31,4.4-8.87-.17-.39-1.16-.09-2.57-.03-3.86.22-5.03.46-10.05.69-14.99,1.04.28,3.07.83,5.24,1.42-.91-1.18-1.89-2.45-2.2-2.85,4.6-.19,9.67-.67,14.73-.47,1.74.07,3.97,1.4,4.99,2.85,1.57,2.23.41,4.32-2.12,6.21Z"/>
  <path class="cls-1" d="M95.14,50.35c-6.99-1.72-12.78,1.06-18.77,5.62,7.09-10.7,20.7-15.51,30.43-11.32,6.27,2.71,7.61,5.49,5.92,12.14-.53,2.09.57,3.3,2.48,2.83,1.9-.48,3.61-1.73,5.3-2.58.16,5.19-2.23,7.26-8.28,7,1.66,1.48,3.32,2.96,5.22,4.66-3.03,1.85-6.43,3.93-10.2,6.24-.93-1.62-1.76-2.91-2.44-4.27-2.68-5.4-7.75-9.81-6.75-16.79.13-.94-1.4-2.12-2.17-3.18,5.29.94,6.64,4.75,6.47,10.29,2.54-3.41,1.29-5.67-.33-7.68-1.71-2.11-3.64-4.17-6.87-2.96ZM88.39,48.15h15.45c-5.14-2.5-9.93-2.24-15.45,0Z"/>
  <path class="cls-1" d="M69.25,70.14c-8.63-2.63-16.44-4.13-24.78,1.04,3.05-9.62,5.21-18.46-1.46-26.87,8.72,4.93,17.46,5.15,27.27.97-3.9,8.66-4.76,16.37-1.02,24.87Z"/>
  <path class="cls-1" d="M4.37,5.63c5.01.5,9.09.7,13.08,1.38,3.31.57,5.95,2.44,6.53,6.05.73,4.51,1.22,9.05,1.77,13.27-4.25-.55-8.88-.65-13.16-1.91-2.26-.67-4.86-3.02-5.66-5.21-1.45-4.01-1.68-8.46-2.57-13.57Z"/>
  <path class="cls-1" d="M22.65,162.6c.76-4.29,1.53-8.59,2.29-12.88,1.29,7.17,2.9,14.36-2.65,20.69-.25.29-.16.89-.2,1.35-.28,2.76-2.37,3.89-5.11,2.9-.77-.28-1.74-.25-2.57-.11-4.48.71-7.16-.43-8.54-3.75-1.45-3.5.15-8.13,3.11-10.16,1.24,1.6,2.76,4.6,3.57,4.42,2.32-.52,5.61-1.88,6.26-3.71,1.63-4.6,2.07-9.64,2.86-14.52.18-1.12-.12-2.31.06-3.48,1.84,6.27,1.92,12.55-.43,18.81.45.15.9.3,1.34.44Z"/>
  <path class="cls-1" d="M166.64,22.28c-7.41,4.64-15.24,4.28-23.44,2.27,4.82-.38,9.46-.58,14.04-1.18,1.9-.25,4.08-.93,5.41-2.18,1.49-1.41,3-3.73,2.89-5.56-.08-1.29-2.84-2.42-5.01-4.09,2.51-.91,5.16-2.31,7.97-2.76,3-.48,5.77,1.2,6.45,4.13.73,3.16.64,6.59.35,9.86-.11,1.2-.85,4.09-3.58,1.92-.21-.17-1,.2-1.39.49-5.52,4.15-13.36,5.11-21.62,2.07,7.12-.02,13.16-.47,17.94-4.96Z"/>
  <path class="cls-1" d="M61.17,71.18c6.04.36,8.6,2.88,9.56,7.25,1.06,4.83,1.19,9.48-2.88,13.13-2.5,2.24-4.51,1.92-5.03-1.38-.97-6.12-1.12-12.37-1.65-19Z"/>
  <path class="cls-1" d="M70.33,62.75c5.37.33,10.77.39,16.08,1.13,1.77.25,3.29,2.22,4.93,3.4-1.66,1.73-3.24,4.83-4.98,4.93-4.45.24-9.17-.31-13.39-1.71-1.72-.57-2.42-4.18-3.59-6.4.32-.45.63-.9.95-1.35Z"/>
</svg>