<svg width="22087" height="10845" viewBox="0 0 22087 10845" fill="none" xmlns="http://www.w3.org/2000/svg">
<mask id="mask0_1202_3878" style="mask-type:luminance" maskUnits="userSpaceOnUse" x="285" y="1239" width="21503" height="9383">
<path d="M21788 10621.5H285V1239H5724.39V1275.27H374.984V10585.3H21698V1275.27H16383.8V1239H21788V10621.5Z" fill="white"/>
</mask>
<g mask="url(#mask0_1202_3878)">
<path d="M21788 10621.5H285V1239H5724.39V1275.27H374.984V10585.3H21698V1275.27H16383.8V1239H21788V10621.5Z" fill="url(#paint0_linear_1202_3878)"/>
</g>
<mask id="mask1_1202_3878" style="mask-type:luminance" maskUnits="userSpaceOnUse" x="0" y="1014" width="22087" height="9831">
<path d="M22087 10844.8H0V1014.97H5847.75V1086.93H174.413V10772.9H21912.6V1086.93H16261.1V1014.97H22087V10844.8Z" fill="white"/>
</mask>
<g mask="url(#mask1_1202_3878)">
<path d="M22087 10844.8H0V1014.97H5847.75V1086.93H174.413V10772.9H21912.6V1086.93H16261.1V1014.97H22087V10844.8Z" fill="url(#paint1_linear_1202_3878)"/>
</g>
<mask id="mask2_1202_3878" style="mask-type:luminance" maskUnits="userSpaceOnUse" x="5816" y="0" width="10455" height="1239">
<path d="M7410.58 657.988C7764.45 580.1 8112.18 648.504 8760.2 829.057C8743.67 833.562 8727.33 838.067 8711.29 842.335C8622.98 866.4 8546.59 887.147 8486.15 902.796C8442.93 914.058 8394.48 925.084 8342.47 935.279C8300.87 926.151 8261.43 917.614 8228.23 909.909L8180.02 898.646C7952.38 845.891 7615.51 766.7 7229.07 731.016C7264.19 702.09 7324.72 676.838 7410.58 657.988ZM7531.98 973.333C7351.35 947.134 7212.7 880.152 7194.87 810.089C7192.16 799.775 7192.28 789.461 7194.87 779.385C7572.39 812.816 7894.31 890.23 8124.24 943.578L8140.06 947.252C8157.65 951.283 8176.15 955.669 8195.11 960.293C7986.5 990.523 7744.58 1004.04 7531.98 973.333ZM10591.2 322.726C10762.8 388.522 10904.6 482.296 10892.9 534.814C10889.6 549.87 10873.2 559.472 10842.7 563.977C10810.7 568.719 10780.9 566.822 10751.8 557.813C10634.6 521.655 10572.7 392.553 10591.2 322.726ZM11335.2 557.813C11306.1 566.822 11276.4 568.719 11244.3 563.977C11213.8 559.472 11197.4 549.87 11194.1 534.814C11182.4 482.415 11324.2 388.522 11495.8 322.726C11514.3 392.553 11452.4 521.655 11335.2 557.813ZM14676.4 657.988C14762.4 676.838 14822.8 702.09 14857.9 731.016C14471.5 766.7 14134.6 845.891 13907 898.646L13858.8 909.909C13825.5 917.614 13786.1 926.151 13744.5 935.279C13692.5 925.084 13644.1 914.058 13600.8 902.796C13540.4 887.147 13464 866.4 13375.7 842.335C13359.6 838.067 13343.4 833.562 13326.8 829.057C13974.8 648.504 14322.4 580.1 14676.4 657.988ZM14892.1 810.089C14874.2 880.152 14735.6 947.134 14555.1 973.333C14342.5 1004.04 14100.5 990.523 13891.9 960.293C13910.8 955.669 13929.3 951.283 13946.9 947.252L13962.8 943.578C14192.6 890.23 14514.6 812.816 14892.2 779.385C14894.7 789.461 14894.8 799.775 14892.1 810.089ZM12448.7 792.663C12320.2 798.472 12221.3 789.106 12162.6 765.396C12106.9 742.871 12101 714.3 12106.3 700.904C12114.1 681.106 12152.9 662.374 12210.4 650.875C12267 639.494 12390 625.743 12576.5 662.019C12648.2 676.127 12731.5 695.094 12819.8 716.671C12725.2 758.993 12597.4 785.787 12448.7 792.663ZM9510.5 662.019C9697.03 625.743 9819.98 639.494 9876.73 650.875C9934.01 662.374 9972.84 681.106 9980.63 700.904C9986.05 714.3 9980.02 742.871 9924.42 765.396C9865.72 789.106 9766.78 798.472 9638.29 792.663C9489.53 785.787 9361.83 758.993 9267.31 716.671C9355.5 695.094 9438.77 676.127 9510.5 662.019ZM5818.04 1033.79C5829.05 1096.74 5934.05 1156.26 6088.71 1190.52C6266.23 1229.76 6482 1226.2 6696.16 1180.2C6706.69 1177.95 6710.46 1172.85 6704.71 1168.7C6698.99 1164.67 6685.72 1163.13 6675.31 1165.39C6474.79 1208.42 6274.05 1212.09 6110.2 1175.82C5970.54 1144.88 5873.52 1086.19 5868.65 1029.76C5861.56 946.304 5934.05 814.238 6589.37 770.967C6785.6 757.926 6973.95 761.839 7150.65 775.591C7148.27 787.564 7148.55 799.656 7151.56 811.867C7171.16 887.976 7321.32 960.885 7516.88 989.1C7750.73 1023.01 8017.35 1006.17 8241.13 971.555C8291.16 983.884 8344.48 997.4 8399.96 1011.39C8752.56 1100.78 9238 1218.62 9645.32 1236.64C9943.14 1249.79 10176.1 1200 10288.6 1164.79C10421.1 1123.3 10509.4 1063.43 10525 1004.63C10526.2 1000.01 10517.6 995.859 10505.6 995.384C10493.8 994.91 10483.1 998.348 10481.9 1002.97C10467.4 1057.27 10395.7 1103.98 10272 1142.74C10165.9 1175.94 9965.6 1207.95 9684 1191.59C9298.44 1169.06 8856.89 1062.25 8507.79 973.689C8468.74 963.849 8427.44 954.246 8387.09 945.237C8431.31 936.108 8472.85 926.625 8510.19 916.904C8571.06 901.136 8647.54 880.39 8736.1 856.205C8756.18 850.752 8776.82 845.181 8797.66 839.49C8822.71 846.603 8848.09 853.715 8874.14 861.065C9613.94 1070.31 10258 1012.69 10501.4 888.807C10690.5 792.425 10633.3 699.6 10582.4 652.891C10503.7 580.693 10333.9 521.3 10187.8 514.661C10175.9 514.068 10165.2 517.506 10163.7 522.129C10162.3 526.753 10171 531.02 10182.9 531.494C10314.7 537.422 10469.4 592.429 10542.5 659.529C10589.7 702.919 10642.7 788.987 10466.9 878.493C10235.9 996.214 9680.04 1013.29 8960.94 812.223C8950.53 809.378 8940.52 806.533 8930.29 803.688C9029.47 777.132 9131.67 750.221 9228.84 726.155C9342.51 770.848 9486.49 802.62 9633.24 809.378C9813.13 817.558 9907.9 796.337 9955.65 777.132C10014.7 753.303 10032.3 720.346 10023.6 698.295C10013.7 673.281 9966.15 649.927 9896.64 635.938C9832.64 623.016 9694.83 607.249 9491.17 646.963C9416.89 661.426 9330.94 681.105 9239.83 703.393C9200.78 683.121 9168.4 659.885 9144.02 633.922C9047.95 530.902 9100.75 413.181 9275.62 341.102C9582.84 214.371 10055.3 185.682 10424.8 271.157C10467.4 281.115 10510.4 293.8 10552.3 308.5C10551.4 310.753 10550.2 313.124 10549.4 315.495C10525.3 387.337 10589.8 529.479 10724.9 571.09C10765.8 583.657 10811.9 586.62 10858.1 579.744C10904.5 572.869 10931.4 557.812 10936.1 536.236C10949.8 475.301 10790.6 368.843 10601.8 296.883C10645.2 216.149 10789.8 114.788 11035.8 53.2606C11039.4 52.3122 11043 51.3631 11043 51.3631C11043 51.3631 11047.6 52.3122 11051.3 53.2606C11297.2 114.788 11441.8 216.149 11485.2 296.883C11296.4 368.843 11137.3 475.301 11150.9 536.236C11155.7 557.812 11182.6 572.869 11228.8 579.744C11275.1 586.62 11321.1 583.657 11362.1 571.09C11497.1 529.479 11561.7 387.337 11537.6 315.495C11536.9 313.124 11535.6 310.753 11534.7 308.5C11576.6 293.8 11619.6 281.115 11662.2 271.157C12031.6 185.682 12504.2 214.371 12811.4 341.102C12986.2 413.181 13039 530.902 12942.9 633.922C12918.7 659.885 12886.3 683.121 12847.1 703.393C12756.1 681.105 12670.1 661.426 12595.9 646.963C12392.3 607.249 12254.4 623.016 12190.4 635.938C12120.8 649.927 12073.3 673.281 12063.5 698.295C12054.7 720.346 12072.4 753.303 12131.4 777.132C12179.1 796.337 12273.8 817.558 12453.7 809.378C12600.5 802.62 12744.5 770.848 12858.1 726.155C12955.3 750.221 13057.5 777.132 13156.7 803.688C13146.5 806.533 13136.6 809.378 13126.1 812.223C12407 1013.29 11851.1 996.214 11620.2 878.493C11444.3 788.987 11497.4 702.919 11544.5 659.529C11617.7 592.429 11772.4 537.422 11904.2 531.494C11916.1 531.02 11924.6 526.753 11923.2 522.129C11921.9 517.506 11911.1 514.068 11899.2 514.661C11753 521.3 11583.4 580.693 11504.6 652.891C11453.7 699.6 11396.5 792.425 11585.7 888.807C11829 1012.69 12473.1 1070.31 13212.8 861.065C13238.8 853.715 13264.3 846.603 13289.4 839.49C13310.2 845.181 13330.8 850.752 13350.9 856.205C13439.5 880.39 13516 901.136 13576.8 916.904C13614.2 926.625 13655.8 936.108 13699.9 945.237C13659.6 954.246 13618.3 963.849 13579.2 973.689C13230.1 1062.25 12788.6 1169.06 12403 1191.59C12121.4 1207.95 11921.2 1175.94 11814.9 1142.74C11691.4 1103.98 11619.6 1057.27 11605.2 1002.97C11603.9 998.348 11593.2 994.91 11581.3 995.384C11569.4 995.859 11560.8 1000.01 11562 1004.63C11577.6 1063.43 11666 1123.3 11798.3 1164.79C11911 1200 12143.8 1249.79 12441.6 1236.64C12849 1218.62 13334.4 1100.78 13687.1 1011.39C13742.5 997.4 13795.7 983.884 13845.9 971.555C14069.7 1006.17 14336.3 1023.01 14570.1 989.1C14765.6 960.885 14915.9 887.976 14935.3 811.867C14938.4 799.656 14938.8 787.564 14936.4 775.591C15113.1 761.839 15301.3 757.926 15497.7 770.967C16152.9 814.238 16225.5 946.304 16218.3 1029.76C16213.5 1086.19 16116.5 1144.88 15976.7 1175.82C15812.9 1212.09 15612.3 1208.42 15411.7 1165.39C15401.3 1163.13 15388.1 1164.67 15382.2 1168.7C15376.5 1172.85 15380.3 1177.95 15390.8 1180.2C15605.1 1226.2 15820.8 1229.76 15998.2 1190.52C16152.9 1156.26 16257.9 1096.74 16269 1033.79C16297.9 868.534 16018.3 759.705 15517 722.125C15307.7 706.476 15102.8 710.743 14909.4 726.51C14876.1 690.826 14813.2 659.055 14716.8 635.701C14310.6 537.778 13965.4 580.575 13194.3 793.255C13093 765.989 12988.3 738.485 12888.5 713.589C12952.1 685.848 13004.4 654.077 13039.3 620.764C13164.7 500.553 13070.8 374.415 12885.1 297.713C12563.7 165.173 12009.2 151.065 11622.2 252.663C11588.6 261.555 11555 271.987 11522 283.605C11470.3 200.975 11321.2 69.5016 11074.7 7.73661C11064.6 5.12849 11041.6 -0.443398 11041.2 0.0308058C11040.7 -0.443398 11022.4 5.12849 11012.3 7.73661C10765.8 69.5016 10616.7 200.975 10565 283.605C10532 271.987 10498.4 261.555 10464.9 252.663C10077.8 151.065 9523.25 165.173 9202 297.713C9016.23 374.415 8922.32 500.553 9047.73 620.764C9082.55 654.077 9134.89 685.848 9198.62 713.589C9098.71 738.485 8994.05 765.989 8892.67 793.255C8121.53 580.575 7776.44 537.778 7370.25 635.701C7273.75 659.055 7210.84 690.826 7177.67 726.51C6984.12 710.743 6779.33 706.476 6570.07 722.125C6068.65 759.705 5789.16 868.534 5818.04 1033.79Z" fill="white"/>
</mask>
<g mask="url(#mask2_1202_3878)">
<path d="M7410.58 657.992C7764.45 580.104 8112.18 648.508 8760.2 829.061C8743.67 833.566 8727.33 838.071 8711.29 842.339C8622.98 866.404 8546.59 887.151 8486.15 902.799C8442.93 914.062 8394.48 925.087 8342.47 935.283C8300.87 926.154 8261.43 917.618 8228.23 909.913L8180.02 898.65C7952.38 845.895 7615.51 766.704 7229.07 731.02C7264.19 702.094 7324.72 676.842 7410.58 657.992ZM7531.98 973.337C7351.35 947.137 7212.7 880.156 7194.87 810.092C7192.16 799.779 7192.28 789.465 7194.87 779.388C7572.39 812.82 7894.31 890.234 8124.24 943.581L8140.06 947.256C8157.65 951.287 8176.15 955.673 8195.11 960.297C7986.5 990.527 7744.58 1004.04 7531.98 973.337ZM10591.2 322.73C10762.8 388.526 10904.6 482.3 10892.9 534.818C10889.6 549.874 10873.2 559.476 10842.7 563.981C10810.7 568.723 10780.9 566.826 10751.8 557.816C10634.6 521.658 10572.7 392.557 10591.2 322.73ZM11335.2 557.816C11306.1 566.826 11276.4 568.723 11244.3 563.981C11213.8 559.476 11197.4 549.874 11194.1 534.818C11182.4 482.419 11324.2 388.526 11495.8 322.73C11514.3 392.557 11452.4 521.658 11335.2 557.816ZM14676.4 657.992C14762.4 676.842 14822.8 702.094 14857.9 731.02C14471.5 766.704 14134.6 845.895 13907 898.65L13858.8 909.913C13825.5 917.618 13786.1 926.154 13744.5 935.283C13692.5 925.087 13644.1 914.062 13600.8 902.799C13540.4 887.151 13464 866.404 13375.7 842.339C13359.6 838.071 13343.4 833.566 13326.8 829.061C13974.8 648.508 14322.4 580.104 14676.4 657.992ZM14892.1 810.092C14874.2 880.156 14735.6 947.137 14555.1 973.337C14342.5 1004.04 14100.5 990.527 13891.9 960.297C13910.8 955.673 13929.3 951.287 13946.9 947.256L13962.8 943.581C14192.6 890.234 14514.6 812.82 14892.2 779.388C14894.7 789.465 14894.8 799.779 14892.1 810.092ZM12448.7 792.666C12320.2 798.475 12221.3 789.11 12162.6 765.4C12106.9 742.875 12101 714.304 12106.3 700.908C12114.1 681.11 12152.9 662.378 12210.4 650.879C12267 639.498 12390 625.747 12576.5 662.023C12648.2 676.131 12731.5 695.098 12819.8 716.675C12725.2 758.997 12597.4 785.79 12448.7 792.666ZM9510.5 662.023C9697.03 625.747 9819.98 639.498 9876.73 650.879C9934.01 662.378 9972.84 681.11 9980.63 700.908C9986.05 714.304 9980.02 742.875 9924.42 765.4C9865.72 789.11 9766.78 798.475 9638.29 792.666C9489.53 785.79 9361.83 758.997 9267.31 716.675C9355.5 695.098 9438.77 676.131 9510.5 662.023ZM5818.04 1033.8C5829.05 1096.75 5934.05 1156.26 6088.71 1190.52C6266.23 1229.76 6482 1226.21 6696.16 1180.21C6706.69 1177.96 6710.46 1172.86 6704.71 1168.71C6698.99 1164.68 6685.72 1163.14 6675.31 1165.39C6474.79 1208.42 6274.05 1212.1 6110.2 1175.82C5970.54 1144.88 5873.52 1086.2 5868.65 1029.77C5861.56 946.308 5934.05 814.242 6589.37 770.971C6785.6 757.93 6973.95 761.843 7150.65 775.595C7148.27 787.568 7148.55 799.66 7151.56 811.871C7171.16 887.98 7321.32 960.889 7516.88 989.104C7750.73 1023.01 8017.35 1006.18 8241.13 971.559C8291.16 983.888 8344.48 997.404 8399.96 1011.39C8752.56 1100.78 9238 1218.62 9645.32 1236.64C9943.14 1249.8 10176.1 1200.01 10288.6 1164.8C10421.1 1123.3 10509.4 1063.44 10525 1004.64C10526.2 1000.01 10517.6 995.863 10505.6 995.388C10493.8 994.914 10483.1 998.351 10481.9 1002.97C10467.4 1057.27 10395.7 1103.98 10272 1142.75C10165.9 1175.94 9965.6 1207.95 9684 1191.59C9298.44 1169.07 8856.89 1062.25 8507.79 973.693C8468.74 963.853 8427.44 954.25 8387.09 945.24C8431.31 936.112 8472.85 926.629 8510.19 916.907C8571.06 901.14 8647.54 880.394 8736.1 856.209C8756.18 850.756 8776.82 845.184 8797.66 839.494C8822.71 846.607 8848.09 853.719 8874.14 861.069C9613.94 1070.31 10258 1012.7 10501.4 888.811C10690.5 792.429 10633.3 699.604 10582.4 652.895C10503.7 580.697 10333.9 521.303 10187.8 514.665C10175.9 514.072 10165.2 517.51 10163.7 522.133C10162.3 526.757 10171 531.024 10182.9 531.498C10314.7 537.425 10469.4 592.433 10542.5 659.533C10589.7 702.922 10642.7 788.991 10466.9 878.497C10235.9 996.218 9680.04 1013.29 8960.94 812.227C8950.53 809.382 8940.52 806.537 8930.29 803.691C9029.47 777.136 9131.67 750.225 9228.84 726.159C9342.51 770.852 9486.49 802.624 9633.24 809.382C9813.13 817.562 9907.9 796.341 9955.65 777.136C10014.7 753.307 10032.3 720.35 10023.6 698.299C10013.7 673.285 9966.15 649.931 9896.64 635.942C9832.64 623.02 9694.83 607.252 9491.17 646.967C9416.89 661.43 9330.94 681.109 9239.83 703.397C9200.78 683.125 9168.4 659.889 9144.02 633.926C9047.95 530.906 9100.75 413.185 9275.62 341.106C9582.84 214.375 10055.3 185.686 10424.8 271.161C10467.4 281.119 10510.4 293.804 10552.3 308.504C10551.4 310.757 10550.2 313.128 10549.4 315.499C10525.3 387.341 10589.8 529.483 10724.9 571.094C10765.8 583.661 10811.9 586.624 10858.1 579.748C10904.5 572.872 10931.4 557.816 10936.1 536.24C10949.8 475.305 10790.6 368.847 10601.8 296.887C10645.2 216.153 10789.8 114.792 11035.8 53.2645C11039.4 52.3161 11043 51.367 11043 51.367C11043 51.367 11047.6 52.3161 11051.3 53.2645C11297.2 114.792 11441.8 216.153 11485.2 296.887C11296.4 368.847 11137.3 475.305 11150.9 536.24C11155.7 557.816 11182.6 572.872 11228.8 579.748C11275.1 586.624 11321.1 583.661 11362.1 571.094C11497.1 529.483 11561.7 387.341 11537.6 315.499C11536.9 313.128 11535.6 310.757 11534.7 308.504C11576.6 293.804 11619.6 281.119 11662.2 271.161C12031.6 185.686 12504.2 214.375 12811.4 341.106C12986.2 413.185 13039 530.906 12942.9 633.926C12918.7 659.889 12886.3 683.125 12847.1 703.397C12756.1 681.109 12670.1 661.43 12595.9 646.967C12392.3 607.252 12254.4 623.02 12190.4 635.942C12120.8 649.931 12073.3 673.285 12063.5 698.299C12054.7 720.35 12072.4 753.307 12131.4 777.136C12179.1 796.341 12273.8 817.562 12453.7 809.382C12600.5 802.624 12744.5 770.852 12858.1 726.159C12955.3 750.225 13057.5 777.136 13156.7 803.691C13146.5 806.537 13136.6 809.382 13126.1 812.227C12407 1013.29 11851.1 996.218 11620.2 878.497C11444.3 788.991 11497.4 702.922 11544.5 659.533C11617.7 592.433 11772.4 537.425 11904.2 531.498C11916.1 531.024 11924.6 526.757 11923.2 522.133C11921.9 517.51 11911.1 514.072 11899.2 514.665C11753 521.303 11583.4 580.697 11504.6 652.895C11453.7 699.604 11396.5 792.429 11585.7 888.811C11829 1012.7 12473.1 1070.31 13212.8 861.069C13238.8 853.719 13264.3 846.607 13289.4 839.494C13310.2 845.184 13330.8 850.756 13350.9 856.209C13439.5 880.394 13516 901.14 13576.8 916.907C13614.2 926.629 13655.8 936.112 13699.9 945.24C13659.6 954.25 13618.3 963.853 13579.2 973.693C13230.1 1062.25 12788.6 1169.07 12403 1191.59C12121.4 1207.95 11921.2 1175.94 11814.9 1142.75C11691.4 1103.98 11619.6 1057.27 11605.2 1002.97C11603.9 998.351 11593.2 994.914 11581.3 995.388C11569.4 995.863 11560.8 1000.01 11562 1004.64C11577.6 1063.44 11666 1123.3 11798.3 1164.8C11911 1200.01 12143.8 1249.8 12441.6 1236.64C12849 1218.62 13334.4 1100.78 13687.1 1011.39C13742.5 997.404 13795.7 983.888 13845.9 971.559C14069.7 1006.18 14336.3 1023.01 14570.1 989.104C14765.6 960.889 14915.9 887.98 14935.3 811.871C14938.4 799.66 14938.8 787.568 14936.4 775.595C15113.1 761.843 15301.3 757.93 15497.7 770.971C16152.9 814.242 16225.5 946.308 16218.3 1029.77C16213.5 1086.2 16116.5 1144.88 15976.7 1175.82C15812.9 1212.1 15612.3 1208.42 15411.7 1165.39C15401.3 1163.14 15388.1 1164.68 15382.2 1168.71C15376.5 1172.86 15380.3 1177.96 15390.8 1180.21C15605.1 1226.21 15820.8 1229.76 15998.2 1190.52C16152.9 1156.26 16257.9 1096.75 16269 1033.8C16297.9 868.538 16018.3 759.709 15517 722.129C15307.7 706.48 15102.8 710.747 14909.4 726.514C14876.1 690.83 14813.2 659.059 14716.8 635.705C14310.6 537.782 13965.4 580.579 13194.3 793.259C13093 765.992 12988.3 738.488 12888.5 713.593C12952.1 685.852 13004.4 654.08 13039.3 620.768C13164.7 500.557 13070.8 374.419 12885.1 297.717C12563.7 165.177 12009.2 151.069 11622.2 252.667C11588.6 261.559 11555 271.991 11522 283.609C11470.3 200.979 11321.2 69.5055 11074.7 7.74052C11064.6 5.1324 11041.6 -0.439491 11041.2 0.034712C11040.7 -0.439491 11022.4 5.1324 11012.3 7.74052C10765.8 69.5055 10616.7 200.979 10565 283.609C10532 271.991 10498.4 261.559 10464.9 252.667C10077.8 151.069 9523.25 165.177 9202 297.717C9016.23 374.419 8922.32 500.557 9047.73 620.768C9082.55 654.08 9134.89 685.852 9198.62 713.593C9098.71 738.488 8994.05 765.992 8892.67 793.259C8121.53 580.579 7776.44 537.782 7370.25 635.705C7273.75 659.059 7210.84 690.83 7177.67 726.514C6984.12 710.747 6779.33 706.48 6570.07 722.129C6068.65 759.709 5789.16 868.538 5818.04 1033.8Z" fill="url(#paint2_linear_1202_3878)"/>
</g>
<defs>
<linearGradient id="paint0_linear_1202_3878" x1="285" y1="5930.27" x2="21788" y2="5930.27" gradientUnits="userSpaceOnUse">
<stop stop-color="#968428"/>
<stop offset="0.503741" stop-color="#CDC577"/>
<stop offset="1" stop-color="#968428"/>
</linearGradient>
<linearGradient id="paint1_linear_1202_3878" x1="0" y1="5929.85" x2="22087" y2="5929.85" gradientUnits="userSpaceOnUse">
<stop stop-color="#968428"/>
<stop offset="0.503741" stop-color="#CDC577"/>
<stop offset="1" stop-color="#968428"/>
</linearGradient>
<linearGradient id="paint2_linear_1202_3878" x1="5816" y1="619.345" x2="16271" y2="619.345" gradientUnits="userSpaceOnUse">
<stop stop-color="#968428"/>
<stop offset="0.503741" stop-color="#CDC577"/>
<stop offset="1" stop-color="#968428"/>
</linearGradient>
</defs>
</svg>
