<svg width="22735" height="10614" viewBox="0 0 22735 10614" fill="none" xmlns="http://www.w3.org/2000/svg">
<mask id="mask0_1202_3879" style="mask-type:luminance" maskUnits="userSpaceOnUse" x="323" y="238" width="22089" height="10138">
<path d="M372.855 10339.6H22361.8V10306.4C22359.8 6228 22356 1836.13 22351.8 1741.02L22349.7 1712.52L22309 1711.02C21691.2 1689.52 21197.9 1407.66 21109.5 1025.93L21103.1 998.308H16121.1L16109.7 886.566C16074.9 543.336 15613.2 274.351 15058.7 274.351H7675.44C7120.99 274.351 6659.29 543.336 6624.47 886.566L6613.09 998.308H1520.82L1514.53 1025.93C1432.65 1381.04 979.96 1657.39 413.623 1698.02L372.855 1701.02V10339.6ZM22411.1 10375.8H323.763V1668.15L408.869 1662.02C953.123 1623.02 1387.81 1358.92 1465.95 1019.81L1479.37 962.06H6567.57L6575.55 883.939C6612.24 521.836 7095.34 238.23 7675.44 238.23H15058.7C15638.8 238.23 16121.9 521.836 16158.8 883.939L16166.6 962.06H21144.5L21158 1019.81C21242.4 1384.79 21716.6 1654.14 22311.3 1674.89L22396.5 1677.89L22400.9 1739.52C22405.3 1835.39 22408.9 6227.75 22410.9 10306.4L22411.1 10375.8Z" fill="white"/>
</mask>
<g mask="url(#mask0_1202_3879)">
<path d="M372.855 10339.6H22361.8V10306.4C22359.8 6228 22356 1836.13 22351.8 1741.02L22349.7 1712.52L22309 1711.02C21691.2 1689.52 21197.9 1407.66 21109.5 1025.93L21103.1 998.308H16121.1L16109.7 886.566C16074.9 543.336 15613.2 274.351 15058.7 274.351H7675.44C7120.99 274.351 6659.29 543.336 6624.47 886.566L6613.09 998.308H1520.82L1514.53 1025.93C1432.65 1381.04 979.96 1657.39 413.623 1698.02L372.855 1701.02V10339.6ZM22411.1 10375.8H323.763V1668.15L408.869 1662.02C953.123 1623.02 1387.81 1358.92 1465.95 1019.81L1479.37 962.06H6567.57L6575.55 883.939C6612.24 521.836 7095.34 238.23 7675.44 238.23H15058.7C15638.8 238.23 16121.9 521.836 16158.8 883.939L16166.6 962.06H21144.5L21158 1019.81C21242.4 1384.79 21716.6 1654.14 22311.3 1674.89L22396.5 1677.89L22400.9 1739.52C22405.3 1835.39 22408.9 6227.75 22410.9 10306.4L22411.1 10375.8Z" fill="url(#paint0_linear_1202_3879)"/>
</g>
<mask id="mask1_1202_3879" style="mask-type:luminance" maskUnits="userSpaceOnUse" x="0" y="0" width="22735" height="10614">
<path d="M139.291 10511.5H22595.4L22568.5 1548.03L22320 1539.41C21812.8 1521.66 21409.7 1298.67 21339.7 997.065L21300.3 826.45H16337.3L16326.1 785.203C16274.8 597.089 16120.4 424.602 15891.2 299.484C15658.3 172.492 15362.8 102.494 15058.7 102.494H7675.44C7371.38 102.494 7075.81 172.492 6842.92 299.484C6613.94 424.602 6459.36 597.089 6408.06 785.203L6396.85 826.45H1323.61L1284.19 997.192C1219.98 1275.93 852.562 1493.79 390.863 1526.91L139.291 1545.04V10511.5ZM22735 10614H0V1452.04L377.446 1424.92C776.634 1396.29 1093.09 1213.31 1146.77 980.069L1205.89 723.834H6284.06C6429.47 301.984 7004.64 0.000142458 7675.44 0.000142458H15058.7C15729.5 0.000142458 16304.7 301.984 16450.1 723.834H21417.9L21477.1 979.82C21535.9 1233.56 21885.3 1421.54 22326.6 1436.92L22707.7 1450.29L22735 10614Z" fill="white"/>
</mask>
<g mask="url(#mask1_1202_3879)">
<path d="M139.291 10511.5H22595.4L22568.5 1548.03L22320 1539.41C21812.8 1521.66 21409.7 1298.67 21339.7 997.065L21300.3 826.45H16337.3L16326.1 785.203C16274.8 597.089 16120.4 424.602 15891.2 299.484C15658.3 172.492 15362.8 102.494 15058.7 102.494H7675.44C7371.38 102.494 7075.81 172.492 6842.92 299.484C6613.94 424.602 6459.36 597.089 6408.06 785.203L6396.85 826.45H1323.61L1284.19 997.192C1219.98 1275.93 852.562 1493.79 390.863 1526.91L139.291 1545.04V10511.5ZM22735 10614H0V1452.04L377.446 1424.92C776.634 1396.29 1093.09 1213.31 1146.77 980.069L1205.89 723.834H6284.06C6429.47 301.984 7004.64 0.000142458 7675.44 0.000142458H15058.7C15729.5 0.000142458 16304.7 301.984 16450.1 723.834H21417.9L21477.1 979.82C21535.9 1233.56 21885.3 1421.54 22326.6 1436.92L22707.7 1450.29L22735 10614Z" fill="url(#paint1_linear_1202_3879)"/>
</g>
<defs>
<linearGradient id="paint0_linear_1202_3879" x1="323.763" y1="5307.06" x2="22411.1" y2="5307.06" gradientUnits="userSpaceOnUse">
<stop stop-color="#968428"/>
<stop offset="0.503741" stop-color="#CDC577"/>
<stop offset="1" stop-color="#968428"/>
</linearGradient>
<linearGradient id="paint1_linear_1202_3879" x1="0" y1="5307.06" x2="22735.2" y2="5307.06" gradientUnits="userSpaceOnUse">
<stop stop-color="#968428"/>
<stop offset="0.503741" stop-color="#CDC577"/>
<stop offset="1" stop-color="#968428"/>
</linearGradient>
</defs>
</svg>
