<svg width="124" height="20" viewBox="0 0 124 20" fill="none" xmlns="http://www.w3.org/2000/svg">
<path fill-rule="evenodd" clip-rule="evenodd" d="M63.8106 5.19633C64.6539 5.19633 65.421 5.41251 66.112 5.84473C66.8146 6.26494 67.3651 6.85919 67.7633 7.62756C68.1615 8.39593 68.3604 9.27839 68.3604 10.2749C68.3604 11.2714 68.1615 12.166 67.7633 12.9584C67.3651 13.7388 66.8146 14.3511 66.112 14.7953C65.421 15.2275 64.6539 15.4437 63.8106 15.4437C63.0728 15.4437 62.4169 15.2936 61.8431 14.9935C61.2692 14.6813 60.8009 14.297 60.4379 13.8407V20H58.4351V11.7273C57.3691 13.5113 56.0006 15.5037 54.2308 15.5037C53.2775 15.5037 52.4325 14.8596 52.4324 13.7268C52.4324 12.6162 53.8625 9.55087 53.8625 7.70732C53.8625 7.08545 53.6241 6.75232 53.0608 6.75232C51.8475 6.75233 49.5942 9.28443 48.5759 15.3259C48.186 15.2815 47.7093 15.2816 47.341 15.2816C46.9726 15.2816 46.5176 15.2815 46.106 15.3259L45.8243 14.9929C47.6223 10.5956 48.2291 7.06425 48.2293 6.81905C48.2293 6.48589 48.1642 6.50797 47.5793 6.50798H46.8642L47.0593 5.84167C47.3843 5.86388 47.8393 5.84167 48.2077 5.84167C49.4209 5.84167 50.3526 5.70842 51.0676 5.57515L50.2875 8.32926C51.4574 6.5968 52.6707 5.57518 54.079 5.57515C55.4223 5.57515 56.3541 6.5968 56.3541 7.55188C56.3541 9.21774 55.054 11.8609 55.054 13.5268C55.054 13.9266 55.2274 14.2153 55.5524 14.2153C55.9962 14.2153 57.7046 12.263 58.4351 10.6698V5.35848H60.4379V6.81722C60.7775 6.36099 61.24 5.97663 61.8256 5.66447C62.4111 5.35233 63.0729 5.19633 63.8106 5.19633ZM63.3714 6.97917C62.8679 6.97917 62.3876 7.11135 61.9309 7.37549C61.4859 7.63962 61.1228 8.0238 60.8417 8.52804C60.5724 9.03227 60.4379 9.62657 60.4379 10.3109C60.4379 10.9952 60.5724 11.5956 60.8417 12.1118C61.1228 12.6161 61.4859 13.0004 61.9309 13.2646C62.3876 13.5287 62.8679 13.6607 63.3714 13.6607C63.8867 13.6607 64.367 13.5287 64.812 13.2646C65.2688 12.9884 65.6318 12.5921 65.9012 12.0758C66.1822 11.5596 66.3227 10.9592 66.3227 10.2749C66.3227 9.5906 66.1822 9.00234 65.9012 8.51013C65.6319 8.0059 65.2687 7.62762 64.812 7.37549C64.367 7.11135 63.8867 6.97917 63.3714 6.97917Z" fill="#2E1A05"/>
<path fill-rule="evenodd" clip-rule="evenodd" d="M10.2046 0C12.3929 0 14.2129 1.02178 15.1012 2.77649C15.5995 3.75376 15.6862 4.66438 15.6862 5.66386C15.6862 7.68511 14.6678 10.706 12.6962 12.8605C10.9629 14.7485 8.94795 15.548 6.43472 15.7257C8.21133 16.592 9.40306 18.0357 11.3313 18.0357C12.003 18.0357 12.8479 17.8359 13.6495 17.325L14.0613 17.947C12.7614 19.2575 11.4397 19.9459 10.053 19.9459C8.55809 19.9459 7.32312 19.0131 5.00487 17.4583C4.15989 16.8808 3.3582 16.5476 2.57822 16.5476C1.73326 16.5477 1.0832 16.814 0.454898 17.1472L0 16.5255C0.974969 15.7481 1.79829 15.3483 3.14158 15.1261C1.32165 14.2155 0.454918 12.594 0.454898 10.1508C0.454898 7.46318 1.97162 3.97594 4.41986 1.9991C6.08812 0.644221 7.97305 1.84687e-05 10.2046 0ZM10.2265 0.6663C8.66651 0.6663 7.45312 1.19942 6.28315 2.55432C4.44154 4.68662 3.07662 8.61806 3.07662 11.6166C3.07662 13.86 4.11659 15.0816 6.2182 15.0816C7.43147 15.0816 8.96972 14.4153 10.118 12.9494C11.8296 10.7727 13.0647 6.77457 13.0647 4.17582C13.0647 1.84365 12.068 0.666339 10.2265 0.6663Z" fill="#2E1A05"/>
<path d="M26.4731 5.93038C25.0431 9.63971 24.3499 12.6606 24.3499 13.6379C24.35 13.9044 24.4799 14.2153 24.8482 14.2153C25.2815 14.2153 25.8666 13.5046 26.5599 12.3496L27.0797 12.7273C25.8881 14.7706 24.9132 15.5035 23.4833 15.5035C22.53 15.5035 21.8583 14.8372 21.8583 14.2153C21.8583 13.4157 21.9232 13.1935 22.0532 12.6827C20.9482 14.4596 19.8433 15.5035 18.305 15.5035C16.8101 15.5035 16.0084 14.5263 16.0084 13.2825C16.0084 12.5273 16.2901 11.6388 16.6367 10.4838C17.2867 8.30709 17.5251 6.95219 17.5251 6.7745C17.5251 6.41913 17.4384 6.41907 16.8751 6.41907H16.1819L16.3551 5.79712C16.7017 5.81933 17.1784 5.84167 17.5467 5.84167C18.76 5.84167 19.6266 5.70838 20.2332 5.59733L20.5149 5.93038C19.1499 9.61749 18.5 12.4163 18.5 13.3492C18.5001 13.9045 18.8251 14.3264 19.3884 14.3264C20.58 14.3263 22.7466 11.5499 23.7866 5.70841C23.83 5.70845 24.0466 5.75277 24.1116 5.75277C24.5016 5.75277 25.1949 5.81937 26.2782 5.50842L26.4731 5.93038Z" fill="#2E1A05"/>
<path fill-rule="evenodd" clip-rule="evenodd" d="M45.3903 5.93038C43.917 9.52864 43.2669 12.7272 43.2669 13.6601C43.2669 13.9932 43.4403 14.2153 43.8087 14.2153C44.2203 14.2153 44.8052 13.549 45.4985 12.3496L46.0402 12.7273C44.9136 14.7706 43.8953 15.5035 42.4221 15.5035C41.9671 15.5035 41.447 15.3037 41.1436 14.9705C40.7321 14.5041 40.7753 14.0155 40.7753 13.6157C40.7753 13.438 40.8837 13.0381 40.9921 12.6827C39.8004 14.6373 38.6522 15.4813 37.1356 15.4814C35.7923 15.4814 34.7089 14.593 34.7089 12.3718C34.7089 9.30666 36.9405 5.64175 39.8653 5.64168C41.187 5.64168 41.8805 6.10819 42.4221 7.12992L42.7254 5.73059C42.7906 5.73061 43.0288 5.75277 43.0937 5.75277C43.7003 5.75277 44.372 5.73054 45.1952 5.48625L45.3903 5.93038ZM40.5588 6.53015C38.6739 6.53015 37.2006 10.9057 37.2005 12.816C37.2005 13.7932 37.5688 14.3042 38.2837 14.3042C39.6487 14.3042 41.9453 10.6615 41.9454 8.28491C41.9454 7.06332 41.3171 6.53019 40.5588 6.53015Z" fill="#2E1A05"/>
<path fill-rule="evenodd" clip-rule="evenodd" d="M73.1859 5.19633C73.9471 5.19633 74.6088 5.35232 75.171 5.66447C75.7448 5.96462 76.2016 6.34288 76.5412 6.79911V5.35848H78.5615V15.2816H76.5412V13.8047C76.2016 14.273 75.739 14.6632 75.1535 14.9754C74.5679 15.2875 73.9003 15.4437 73.1508 15.4437C72.3193 15.4437 71.5581 15.2275 70.8671 14.7953C70.1762 14.3511 69.6257 13.7388 69.2158 12.9584C68.8176 12.166 68.6185 11.2714 68.6185 10.2749C68.6185 9.27838 68.8176 8.39594 69.2158 7.62756C69.6257 6.85918 70.1762 6.26494 70.8671 5.84473C71.5698 5.41251 72.3427 5.19633 73.1859 5.19633ZM73.6074 6.97917C73.0922 6.97918 72.6121 7.11137 72.1671 7.37549C71.722 7.62762 71.359 8.00587 71.0779 8.51013C70.8086 9.00235 70.6739 9.59057 70.6739 10.2749C70.6739 10.9592 70.8085 11.5595 71.0779 12.0758C71.359 12.5921 71.722 12.9884 72.1671 13.2646C72.6238 13.5287 73.1039 13.6607 73.6074 13.6607C74.1227 13.6607 74.603 13.5287 75.048 13.2646C75.493 13.0004 75.8502 12.6161 76.1195 12.1118C76.4006 11.5956 76.5412 10.9952 76.5412 10.3109C76.5412 9.62656 76.4006 9.03227 76.1195 8.52804C75.8502 8.02381 75.493 7.63962 75.048 7.37549C74.603 7.11135 74.1227 6.97917 73.6074 6.97917Z" fill="#2E1A05"/>
<path fill-rule="evenodd" clip-rule="evenodd" d="M95.2669 5.19633C96.1804 5.19633 96.9945 5.4005 97.7089 5.80872C98.4232 6.21691 98.9795 6.79311 99.3777 7.53743C99.7759 8.26981 99.975 9.11641 99.975 10.0769C99.975 10.4491 99.9516 10.7853 99.9047 11.0854H92.5089C92.5675 11.8778 92.8546 12.5141 93.3699 12.9944C93.8851 13.4746 94.5175 13.7148 95.2669 13.7148C96.3444 13.7148 97.1057 13.2525 97.5508 12.3281H99.7114C99.4186 13.2405 98.8859 13.991 98.1129 14.5793C97.3517 15.1556 96.4029 15.4437 95.2669 15.4437C94.3418 15.4437 93.5103 15.2334 92.7726 14.8132C92.0464 14.381 91.4725 13.7807 91.0509 13.0123C90.641 12.2319 90.4361 11.3314 90.4361 10.3109C90.4361 9.29038 90.6352 8.39594 91.0334 7.62756C91.4433 6.84717 92.0113 6.24683 92.7374 5.82662C93.4752 5.40642 94.3184 5.19634 95.2669 5.19633ZM95.1791 6.92525C94.4882 6.92526 93.8967 7.15343 93.4048 7.60966C92.913 8.05388 92.6203 8.66016 92.5266 9.42851H97.8845C97.8728 8.67216 97.6093 8.06589 97.0941 7.60966C96.5788 7.15342 95.9404 6.92525 95.1791 6.92525Z" fill="#2E1A05"/>
<path d="M120.135 5.19633C121.236 5.19633 122.12 5.48449 122.788 6.06079C123.467 6.62507 123.83 7.39953 123.877 8.38399H121.874C121.839 7.93981 121.663 7.58569 121.347 7.32157C121.031 7.05744 120.604 6.92525 120.065 6.92525C119.538 6.92526 119.134 7.02735 118.853 7.23145C118.572 7.43553 118.431 7.70567 118.431 8.04179C118.431 8.30593 118.525 8.5282 118.712 8.70829C118.9 8.88836 119.128 9.03237 119.397 9.14042C119.667 9.23647 120.065 9.36257 120.592 9.51864C121.295 9.71074 121.868 9.90881 122.313 10.1129C122.77 10.305 123.163 10.5932 123.49 10.9774C123.818 11.3616 123.988 11.8718 124 12.5081C124 13.0724 123.848 13.5768 123.543 14.021C123.239 14.4652 122.805 14.8134 122.243 15.0655C121.693 15.3176 121.043 15.4437 120.293 15.4437C119.532 15.4437 118.847 15.3056 118.238 15.0295C117.641 14.7414 117.166 14.3572 116.815 13.877C116.464 13.3847 116.276 12.8384 116.253 12.2382H118.326C118.361 12.6583 118.554 13.0124 118.906 13.3006C119.269 13.5767 119.719 13.7148 120.258 13.7148C120.82 13.7148 121.254 13.6068 121.558 13.3907C121.874 13.1626 122.032 12.8744 122.032 12.5262C122.032 12.1541 121.857 11.8779 121.505 11.6978C121.166 11.5177 120.621 11.3196 119.872 11.1035C119.146 10.8994 118.554 10.7013 118.097 10.5092C117.641 10.3171 117.242 10.0229 116.903 9.62667C116.575 9.23047 116.411 8.70821 116.411 8.0599C116.411 7.53162 116.563 7.05128 116.868 6.61906C117.172 6.17486 117.605 5.82667 118.168 5.57454C118.741 5.32241 119.397 5.19633 120.135 5.19633Z" fill="#2E1A05"/>
<path d="M31.3987 8.28491C32.3953 6.86337 33.5437 5.64168 35.3203 5.64168C35.8186 5.64169 36.1002 5.84161 36.1002 6.26363C36.1002 6.90777 35.797 8.01844 35.2554 9.39555H34.4753C34.4536 7.97401 34.2153 7.21863 33.587 7.21863C32.3087 7.21877 30.4021 10.3507 29.6438 15.3259C29.2322 15.3037 28.7989 15.2816 28.4089 15.2816C27.9972 15.2816 27.5205 15.3037 27.1739 15.3481L26.8489 15.0151C28.7339 10.595 29.3189 6.97436 29.3189 6.79667C29.3189 6.46354 29.2538 6.50797 28.6689 6.50798H27.9756L28.1488 5.81929C28.5605 5.84151 29.0588 5.84167 29.4704 5.84167C30.6621 5.84167 31.5288 5.70839 32.1788 5.59733L31.3987 8.28491Z" fill="#2E1A05"/>
<path d="M82.4724 5.35828H85.9332V2.89103H87.9534V5.35828H90.3074V7.03328H87.9534V12.526C87.9534 12.8982 88.0354 13.1685 88.1993 13.3366C88.375 13.4927 88.6679 13.5706 89.0778 13.5706H90.3074V15.2816H88.7263C87.8246 15.2816 87.1336 15.0654 86.6535 14.6332C86.1733 14.201 85.9332 13.4985 85.9332 12.526V7.03328H82.4724V12.526C82.4724 12.8982 82.5544 13.1685 82.7183 13.3366C82.894 13.4927 83.1868 13.5706 83.5967 13.5706H84.8263V15.2816H83.2453C82.3436 15.2816 81.6526 15.0654 81.1725 14.6332C80.6923 14.201 80.4522 13.4985 80.4522 12.526V7.03328H79.3103V5.35828H80.4522V2.89103H82.4724V5.35828Z" fill="#2E1A05"/>
<path d="M105.788 7.32137H105.278C104.494 7.32137 103.896 7.52554 103.486 7.93376C103.088 8.34197 102.889 9.05033 102.889 10.0588V15.2816H100.886V5.35848H102.889V6.79911C103.182 6.29485 103.568 5.9046 104.048 5.62846C104.54 5.34032 105.12 5.19633 105.788 5.19633V7.32137Z" fill="#2E1A05"/>
<path d="M111.457 5.19633C112.218 5.19634 112.897 5.35842 113.495 5.68258C114.104 6.00674 114.578 6.48708 114.918 7.12341C115.257 7.75973 115.427 8.52807 115.427 9.42851V15.2816H113.442V9.7347C113.442 8.84624 113.225 8.16783 112.792 7.69958C112.359 7.21934 111.767 6.97917 111.018 6.97917C110.268 6.97917 109.671 7.21938 109.226 7.69958C108.793 8.16783 108.576 8.84624 108.576 9.7347V15.2816H106.573V5.35848H108.576V6.49292C108.904 6.08477 109.32 5.76663 109.823 5.53853C110.338 5.31041 110.883 5.19633 111.457 5.19633Z" fill="#2E1A05"/>
</svg>
