<?xml version="1.0" standalone="no"?>
<!DOCTYPE svg PUBLIC "-//W3C//DTD SVG 20010904//EN"
 "http://www.w3.org/TR/2001/REC-SVG-20010904/DTD/svg10.dtd">
<svg version="1.0" xmlns="http://www.w3.org/2000/svg"
 width="4200.000000pt" height="3000.000000pt" viewBox="0 0 4200.000000 3000.000000"
 preserveAspectRatio="xMidYMid meet">
<metadata>
Created by potrace 1.16, written by Peter Selinger 2001-2019
</metadata>
<g transform="translate(4200, 0) rotate(90)">
<g transform="translate(0.000000,4200.000000) scale(0.100000,-0.100000)"
fill="#000000" stroke="#000000" stroke-width="160" stroke-linejoin="round">
<path d="M3080 41861 c-24 -25 -45 -60 -54 -91 -8 -27 -13 -61 -10 -76 3 -15
11 -38 19 -53 25 -48 103 -120 192 -178 l88 -58 -135 -6 c-114 -6 -262 -24
-346 -43 -100 -22 -424 -132 -554 -188 -52 -23 -109 -52 -127 -65 -17 -12 -34
-23 -38 -23 -3 0 1 13 9 29 9 16 18 47 22 70 5 31 3 41 -7 41 -8 0 -28 -16
-46 -37 -31 -35 -35 -37 -132 -49 -55 -7 -112 -21 -125 -29 -14 -9 -30 -14
-35 -11 -6 4 -13 22 -17 42 -3 19 -14 38 -23 43 -10 6 -34 2 -66 -10 -56 -22
-92 -46 -82 -55 3 -4 25 -2 49 4 32 8 44 8 50 -1 16 -24 28 -87 22 -112 -4
-15 -2 -25 4 -25 6 0 21 14 33 31 12 17 38 38 58 46 20 9 81 18 139 21 83 4
102 2 102 -9 0 -8 -20 -48 -44 -90 -24 -41 -62 -91 -84 -111 -42 -38 -93 -58
-150 -58 -35 0 -72 -15 -72 -29 0 -5 24 -12 53 -15 53 -7 97 -28 97 -47 0 -21
-56 -84 -112 -125 -45 -33 -76 -46 -135 -59 -43 -10 -84 -19 -91 -21 -10 -3
-9 -11 4 -36 9 -18 32 -52 51 -75 19 -24 30 -43 26 -43 -5 0 -23 15 -39 33
-58 61 -123 167 -143 231 -11 35 -27 108 -36 162 -9 55 -32 152 -51 216 -18
64 -55 163 -82 220 -51 111 -72 148 -84 148 -15 0 -8 -27 17 -73 38 -67 82
-207 110 -343 13 -67 42 -176 63 -243 l40 -121 -27 0 c-70 0 -273 -74 -320
-117 l-26 -24 25 4 c14 3 66 20 115 37 74 27 106 33 180 34 85 1 90 0 93 -21
5 -34 -43 -117 -94 -162 -52 -45 -129 -86 -186 -96 -31 -6 -39 -4 -44 10 -4 9
0 41 10 69 9 29 16 57 16 61 0 5 -19 -10 -42 -32 -24 -23 -56 -47 -71 -52 -32
-12 -84 -14 -140 -5 -33 6 -37 10 -37 37 0 34 64 149 102 183 12 12 53 31 91
44 37 12 67 26 67 31 0 5 -12 11 -27 14 -16 4 -37 8 -48 11 -11 2 -28 15 -38
29 -14 19 -15 29 -7 45 13 25 93 66 146 75 83 14 94 17 94 29 0 7 -26 29 -57
49 -32 19 -70 48 -84 64 -15 15 -50 68 -78 118 -46 81 -50 91 -35 102 21 15
96 27 129 21 14 -3 25 -1 25 5 0 5 -16 28 -36 50 -59 65 -74 109 -93 282 -3
33 -5 68 -3 78 2 9 8 17 14 17 5 0 42 -17 81 -37 76 -40 164 -119 191 -171 9
-17 22 -55 30 -84 11 -43 17 -53 34 -53 12 0 30 14 44 34 26 39 75 61 88 41 4
-7 13 -39 20 -72 8 -37 11 -92 7 -148 -4 -66 -3 -90 6 -90 17 0 39 38 47 82 9
46 -4 138 -32 234 -15 52 -26 74 -37 74 -9 0 -38 -14 -66 -30 -27 -16 -53 -30
-57 -30 -4 0 -14 13 -23 29 -14 29 -14 30 13 49 47 34 157 90 238 122 42 17
123 42 178 56 84 21 135 26 297 31 221 6 324 -4 428 -44 36 -13 86 -31 110
-39 25 -8 52 -21 62 -30 10 -9 31 -23 47 -32 16 -10 51 -32 77 -49 27 -18 50
-31 53 -29 8 9 -14 35 -58 69 -54 41 -193 116 -280 151 -35 14 -97 33 -138 41
-108 23 -308 27 -417 9 -134 -21 -271 -53 -350 -82 -78 -28 -189 -81 -246
-119 -24 -16 -43 -22 -51 -16 -8 4 -38 27 -68 49 -30 23 -77 54 -104 68 -27
15 -90 45 -140 66 -118 50 -250 74 -368 66 -48 -3 -102 -11 -120 -19 -43 -18
-124 -91 -143 -128 -8 -15 -15 -41 -15 -57 0 -15 6 -37 14 -47 7 -10 20 -16
28 -13 8 4 23 34 32 67 10 35 30 76 47 95 16 19 46 42 66 51 50 24 161 25 236
2 42 -13 71 -30 101 -60 31 -32 48 -60 64 -112 13 -39 27 -95 32 -125 5 -30
12 -65 16 -77 5 -17 -4 -33 -40 -71 -25 -27 -46 -54 -46 -61 0 -6 -6 -11 -14
-11 -15 0 -94 -93 -181 -215 -102 -142 -178 -315 -220 -500 -26 -111 -28 -136
-28 -335 -1 -170 3 -230 17 -285 9 -38 27 -99 40 -135 38 -104 101 -233 129
-262 14 -16 33 -28 42 -28 11 0 4 20 -29 83 -25 45 -55 107 -67 137 -12 30
-35 100 -51 155 -27 92 -30 115 -34 285 -3 156 0 202 17 295 11 61 34 153 51
205 17 52 51 138 77 190 26 52 72 133 103 180 31 47 82 109 112 139 43 42 58
52 68 43 8 -6 25 -37 38 -69 26 -65 48 -101 97 -156 18 -20 33 -44 33 -52 0
-8 -16 -19 -40 -25 -21 -6 -60 -26 -85 -45 -25 -19 -49 -35 -53 -35 -4 0 -16
-7 -27 -15 -18 -15 -18 -17 24 -59 l42 -43 -35 -31 c-20 -17 -50 -53 -66 -79
-48 -76 -70 -162 -77 -302 -5 -104 -4 -123 8 -119 8 3 16 24 19 54 3 27 11 59
18 70 6 12 26 28 44 37 18 8 61 18 95 22 54 6 67 4 96 -14 22 -13 51 -21 81
-21 25 0 46 -4 46 -9 0 -10 -24 -21 -49 -21 -9 0 -32 -15 -50 -32 -83 -81
-191 -296 -312 -621 -59 -158 -102 -314 -113 -417 -3 -30 -7 -81 -8 -113 -1
-32 -4 -60 -8 -62 -3 -2 -30 21 -59 51 -29 30 -70 63 -91 74 -22 11 -56 20
-76 20 -20 0 -54 -5 -76 -12 -44 -13 -96 -61 -105 -96 -3 -13 -1 -28 5 -34 8
-8 26 2 62 35 60 54 108 66 166 42 71 -29 112 -65 130 -111 13 -34 15 -60 10
-121 -12 -128 -26 -203 -43 -229 -10 -15 -57 -45 -117 -74 -56 -26 -109 -56
-118 -67 -30 -32 -58 -106 -58 -153 0 -40 5 -49 41 -82 32 -29 40 -43 36 -60
-3 -13 -16 -50 -27 -83 -18 -49 -21 -73 -16 -133 3 -42 14 -89 26 -112 26 -51
105 -134 119 -125 6 3 11 11 11 16 0 5 -18 29 -39 52 -22 24 -49 66 -60 95
-12 29 -21 74 -21 100 0 54 16 118 31 128 6 3 26 -8 44 -26 29 -28 41 -33 84
-33 27 0 56 5 64 11 8 7 17 9 20 5 4 -3 4 -81 0 -172 -5 -149 -4 -168 11 -184
17 -16 51 -21 126 -17 19 1 40 7 47 13 8 9 15 150 22 487 6 261 13 502 16 535
2 33 7 96 11 140 3 44 8 82 9 85 2 3 6 30 10 60 7 61 44 227 74 335 41 147 96
285 181 459 49 100 111 215 138 256 27 42 76 108 110 147 91 105 182 193 201
193 9 0 48 -24 86 -53 39 -28 102 -69 140 -89 39 -20 97 -41 129 -47 72 -13
313 -15 320 -2 7 10 -21 17 -109 26 -98 10 -138 16 -180 26 -53 13 -140 48
-190 76 -44 24 -85 59 -85 72 0 23 264 241 390 322 141 92 292 173 435 234
216 93 289 113 650 180 l70 12 44 -33 c51 -39 254 -145 324 -168 58 -19 198
-45 287 -53 36 -3 105 0 153 6 70 8 108 20 180 54 51 24 112 58 135 75 24 17
56 47 73 68 21 27 29 47 29 78 0 22 -4 47 -9 55 -7 11 -41 12 -182 7 -96 -3
-257 -8 -359 -11 -102 -3 -232 -8 -290 -11 -203 -10 -455 -34 -565 -54 -27 -5
-61 -12 -75 -14 -57 -10 -229 -59 -343 -97 -210 -70 -563 -252 -700 -361 -27
-21 -52 -37 -54 -34 -2 2 14 28 37 57 22 30 43 64 46 76 4 14 16 24 34 28 15
3 61 29 102 57 72 50 357 186 492 235 111 40 303 92 421 113 61 11 177 25 259
31 82 5 163 12 180 14 50 8 635 25 832 25 136 0 183 3 187 13 2 6 5 52 6 101
l2 89 -195 -5 c-108 -3 -196 -5 -196 -3 0 1 9 24 21 49 23 53 20 90 -13 131
-11 14 -17 33 -14 42 5 13 17 15 64 10 61 -6 179 -48 225 -80 16 -11 42 -42
59 -68 16 -27 34 -49 39 -49 21 0 20 32 -4 73 -14 24 -46 62 -72 86 -25 23
-67 51 -93 63 -41 17 -61 19 -152 15 -58 -3 -113 -8 -122 -12 -13 -5 -18 1
-23 28 -4 20 -18 46 -32 59 -21 20 -35 23 -96 23 -55 -1 -83 -6 -117 -24 -25
-12 -88 -67 -140 -120 -62 -64 -112 -106 -145 -122 -40 -19 -66 -24 -135 -24
-72 0 -91 4 -125 24 -22 13 -51 34 -63 45 -13 12 -33 38 -43 58 -10 21 -19 57
-19 82 0 33 7 52 25 75 14 16 35 33 45 36 11 4 20 15 20 25 0 11 -9 24 -21 30
-18 10 -26 6 -59 -29z m817 -123 c21 -17 15 -64 -12 -96 -14 -17 -45 -38 -70
-49 -44 -18 -61 -36 -49 -54 3 -6 15 -7 27 -3 12 3 45 18 72 31 84 42 102 45
151 21 60 -28 65 -54 23 -113 -18 -25 -47 -54 -63 -64 -33 -20 -112 -47 -159
-55 -74 -13 -167 -16 -212 -8 -80 15 -204 51 -244 71 l-36 19 30 7 c59 14 121
39 165 69 25 16 91 74 147 128 62 59 114 101 135 107 35 10 75 6 95 -11z m513
-628 c0 -12 -20 -43 -45 -69 -60 -64 -182 -125 -295 -147 -61 -12 -108 -15
-170 -10 -47 3 -123 13 -170 22 -47 9 -125 31 -173 50 -88 34 -190 87 -236
123 l-25 19 65 7 c130 13 392 22 717 24 330 1 332 1 332 -19z m-2685 -630
c-21 -22 -43 -40 -47 -40 -16 0 -7 23 21 51 16 16 37 29 47 29 14 0 9 -10 -21
-40z m-996 -2000 c0 -58 -6 -136 -14 -175 -8 -38 -28 -98 -45 -131 -20 -42
-45 -73 -77 -98 -26 -20 -58 -39 -72 -43 -18 -4 -29 0 -43 17 -18 23 -18 52 1
87 5 11 28 41 50 68 23 27 41 55 41 62 0 7 -6 13 -13 13 -7 0 -37 -18 -66 -40
-29 -22 -64 -43 -77 -46 -31 -8 -72 18 -80 50 -3 13 1 37 10 54 8 16 29 41 46
56 17 14 70 46 118 71 48 24 100 57 116 71 26 25 53 75 61 113 2 9 9 30 16 46
l13 30 7 -50 c4 -27 8 -97 8 -155z"/>
<path d="M26871 41887 c-19 -19 -12 -42 19 -61 17 -9 38 -28 46 -42 12 -17 15
-40 12 -79 -4 -42 -12 -64 -35 -93 -16 -20 -52 -50 -78 -67 -44 -27 -56 -30
-134 -30 -70 0 -95 5 -136 24 -33 16 -83 58 -145 122 -52 53 -115 107 -140
120 -34 18 -62 23 -117 24 -62 0 -75 -3 -97 -24 -14 -13 -28 -39 -32 -57 -6
-31 -8 -33 -38 -26 -17 4 -79 7 -138 7 l-106 0 -58 -40 c-31 -22 -75 -61 -96
-86 -38 -45 -54 -98 -32 -106 6 -2 25 19 43 46 17 28 45 59 60 70 39 28 201
81 245 81 23 0 39 -5 42 -15 3 -8 -3 -26 -14 -40 -32 -41 -36 -78 -13 -130 13
-30 16 -45 8 -45 -7 -1 -94 0 -195 0 l-183 1 3 -98 3 -98 370 -7 c204 -3 449
-12 545 -18 96 -6 234 -15 305 -20 180 -11 336 -41 555 -107 87 -26 289 -110
440 -182 47 -22 119 -63 160 -91 41 -27 83 -50 92 -50 10 0 30 -19 44 -42 15
-24 40 -60 57 -81 16 -21 27 -40 25 -43 -3 -2 -28 13 -55 35 -85 67 -226 149
-405 236 -165 79 -320 137 -493 184 -44 12 -93 26 -110 31 -39 12 -299 47
-445 59 -146 13 -276 19 -520 26 -107 3 -272 8 -367 11 -161 6 -171 5 -176
-12 -4 -17 -5 -17 -6 -1 -1 16 -510 17 -10546 17 l-10545 0 0 -25 0 -25 10546
0 c9698 0 10546 -1 10540 -16 -3 -9 3 -31 14 -49 37 -60 110 -116 215 -166 85
-41 119 -52 192 -60 48 -6 120 -8 158 -4 39 4 117 15 175 26 89 16 127 31 247
90 78 38 161 86 184 105 23 19 48 33 55 30 7 -3 70 -14 141 -26 151 -26 303
-62 393 -95 100 -36 248 -100 321 -138 164 -86 295 -165 382 -231 121 -92 265
-214 283 -241 16 -24 15 -26 -7 -45 -13 -11 -64 -40 -114 -65 -93 -46 -181
-68 -310 -80 -95 -8 -125 -15 -125 -27 0 -15 324 -4 375 13 49 16 174 89 239
141 27 21 57 38 68 38 23 0 141 -118 234 -234 36 -45 90 -124 120 -178 96
-170 202 -405 245 -543 28 -87 86 -320 98 -390 29 -171 39 -338 52 -860 7
-297 15 -485 21 -492 7 -8 37 -13 84 -13 55 0 77 4 90 17 15 16 16 35 11 185
l-7 168 43 -7 c23 -4 55 -7 70 -7 17 1 41 13 61 33 17 17 37 31 43 31 14 0 33
-77 33 -133 0 -24 -7 -64 -16 -90 -9 -26 -36 -69 -61 -97 -28 -31 -43 -56 -39
-66 4 -11 10 -12 25 -4 28 15 88 90 106 135 9 21 19 67 22 104 4 53 1 78 -17
126 -12 33 -24 72 -27 86 -4 21 2 32 36 58 38 30 41 36 41 82 0 33 -8 66 -24
97 -13 26 -32 54 -42 63 -11 10 -62 38 -114 63 -52 25 -103 56 -112 70 -10 13
-23 57 -29 98 -6 40 -12 111 -13 158 -1 73 2 90 22 122 16 25 42 47 84 67 34
17 71 31 84 31 12 0 34 -4 47 -9 13 -5 45 -28 71 -50 26 -23 52 -39 57 -36 19
12 8 46 -26 84 -24 26 -49 42 -80 50 -24 6 -56 11 -71 11 -45 0 -113 -39 -170
-98 -50 -52 -53 -54 -58 -31 -3 13 -7 62 -10 109 -10 166 -57 334 -178 630
-28 69 -71 165 -95 213 -53 108 -121 215 -159 251 -16 14 -36 26 -46 26 -26 0
-48 11 -42 21 3 5 22 9 42 9 20 1 55 9 77 20 22 11 52 19 67 20 50 0 123 -20
151 -43 22 -18 29 -34 35 -81 4 -37 12 -61 21 -64 12 -4 13 16 8 119 -6 125
-22 200 -59 274 -11 22 -43 63 -70 92 l-51 51 37 32 c20 18 36 40 36 50 0 11
-10 22 -22 25 -13 4 -34 17 -48 30 -29 26 -73 49 -112 59 -16 3 -28 13 -28 20
0 8 20 38 44 67 24 30 61 90 83 133 21 44 44 81 50 83 7 3 33 -17 58 -44 70
-74 150 -190 205 -300 27 -55 65 -147 85 -205 19 -58 44 -158 55 -223 22 -126
25 -271 11 -421 -6 -62 -23 -132 -51 -215 -22 -68 -63 -166 -90 -216 -42 -79
-47 -93 -31 -93 10 0 25 8 33 18 25 29 85 143 117 223 37 91 58 171 68 253 5
34 7 144 6 246 -1 130 -6 207 -18 260 -9 41 -19 86 -21 99 -12 59 -49 155
-104 266 -39 80 -92 163 -157 250 -54 72 -108 134 -121 140 -12 5 -25 18 -28
27 -3 10 -24 35 -46 56 l-41 39 13 54 c30 132 45 187 62 225 39 90 137 140
269 137 49 0 89 -7 113 -18 20 -9 49 -32 65 -51 17 -18 35 -53 42 -76 18 -69
28 -88 43 -88 9 0 20 9 26 19 14 27 13 67 -4 100 -20 38 -100 109 -144 129
-28 12 -69 16 -167 16 -149 0 -203 -12 -358 -80 -89 -39 -183 -96 -260 -156
-23 -18 -31 -20 -45 -10 -49 34 -152 88 -227 118 -101 41 -302 89 -441 105
-73 8 -134 8 -225 1 -68 -6 -153 -19 -189 -28 -36 -9 -108 -36 -160 -61 -110
-52 -255 -145 -264 -169 -4 -9 -5 -19 -3 -21 2 -2 34 17 70 42 36 25 70 45 75
45 5 0 17 9 27 20 9 10 38 26 64 34 25 8 76 26 112 39 104 40 208 51 428 44
152 -4 216 -10 285 -27 133 -32 295 -99 404 -167 l52 -33 -15 -30 c-9 -17 -20
-30 -25 -30 -5 0 -31 14 -57 30 -26 17 -55 30 -65 30 -12 0 -20 -12 -27 -37
-36 -133 -41 -165 -42 -225 -1 -48 4 -76 17 -97 10 -17 25 -31 32 -31 12 0 13
11 7 58 -4 31 -7 78 -6 103 2 44 24 146 35 156 2 3 17 1 33 -4 15 -5 38 -25
51 -44 14 -20 32 -34 44 -34 17 0 23 10 34 53 8 29 26 73 40 98 14 24 47 62
72 84 53 46 187 118 198 107 11 -10 5 -106 -11 -198 -14 -83 -44 -146 -89
-188 -14 -14 -26 -29 -26 -35 0 -7 24 -11 58 -12 31 0 70 -6 85 -12 l29 -12
-42 -78 c-23 -42 -57 -95 -75 -118 -19 -22 -61 -58 -94 -79 -34 -22 -61 -45
-61 -52 0 -7 1 -13 3 -14 1 0 25 -3 52 -5 59 -7 171 -58 186 -85 7 -15 5 -25
-8 -44 -10 -14 -27 -27 -38 -29 -11 -3 -32 -7 -47 -11 -16 -3 -28 -9 -28 -14
0 -6 32 -20 71 -32 56 -18 77 -30 105 -62 41 -49 84 -132 84 -164 0 -16 -8
-27 -26 -33 -35 -14 -117 -13 -151 2 -15 6 -48 30 -72 52 -40 38 -43 39 -38
16 3 -14 12 -44 18 -67 10 -33 10 -46 1 -55 -9 -9 -25 -8 -69 6 -32 10 -79 31
-105 48 -26 16 -62 46 -81 67 -39 43 -73 122 -63 147 6 14 18 16 94 12 63 -4
112 -14 177 -37 50 -18 101 -35 115 -38 23 -6 24 -5 11 11 -8 10 -36 28 -62
42 -63 32 -188 72 -248 80 l-48 6 38 114 c21 63 46 154 55 202 19 100 56 239
85 317 11 29 30 69 43 88 15 22 21 39 15 48 -7 11 -11 10 -23 -6 -25 -34 -82
-155 -120 -257 -20 -53 -45 -141 -56 -195 -54 -260 -63 -300 -78 -328 -25 -49
-93 -148 -125 -182 -17 -18 -35 -33 -39 -33 -4 0 8 21 27 46 20 26 42 59 51
75 14 28 14 29 -13 34 -89 19 -120 28 -157 47 -58 29 -121 82 -147 125 l-22
36 21 17 c12 10 46 21 77 25 52 6 67 16 45 30 -6 4 -41 11 -77 16 -38 5 -85
20 -109 34 -27 16 -56 46 -82 87 -21 35 -49 83 -61 107 l-23 44 109 -5 c65 -3
123 -12 146 -21 21 -9 45 -30 55 -47 9 -16 23 -30 30 -30 9 0 11 9 7 33 -4 21
0 48 11 76 10 26 21 40 30 37 7 -3 29 -8 48 -12 54 -10 45 13 -16 41 -29 14
-65 25 -79 25 -22 0 -29 -7 -43 -45 -10 -25 -19 -45 -22 -45 -2 0 -20 9 -41
19 -23 12 -72 22 -121 26 -83 7 -84 8 -127 53 -39 40 -45 44 -51 27 -5 -11 1
-43 13 -77 11 -32 18 -58 16 -58 -2 0 -19 11 -36 23 -18 13 -77 43 -132 67
-111 48 -409 150 -525 180 -99 25 -303 50 -413 50 -77 0 -88 2 -77 15 6 7 35
27 63 43 77 44 148 105 186 161 26 40 33 60 33 95 -2 73 -53 161 -103 179 -9
3 -22 0 -28 -6z m-626 -150 c10 -5 69 -58 130 -117 62 -59 132 -116 157 -127
24 -12 71 -29 103 -38 l59 -18 -45 -23 c-24 -12 -64 -26 -89 -30 -25 -4 -62
-13 -82 -20 -61 -21 -149 -27 -229 -15 -113 17 -195 48 -235 87 -18 19 -41 48
-49 65 -9 16 -13 38 -10 49 6 20 67 53 100 53 11 0 50 -14 86 -31 35 -18 75
-33 89 -34 15 -2 25 3 27 13 3 10 -13 23 -48 39 -28 13 -62 37 -75 53 -26 31
-32 78 -11 95 27 22 78 22 122 -1z m165 -618 c91 -4 199 -10 240 -14 l75 -7
-28 -23 c-46 -36 -176 -101 -261 -130 -43 -14 -111 -33 -150 -40 -39 -8 -116
-17 -171 -20 -73 -5 -119 -3 -170 9 -39 8 -93 24 -120 36 -74 31 -156 88 -187
128 -16 19 -28 44 -28 54 0 18 14 18 318 17 174 -1 391 -6 482 -10z m1873
-601 c36 -21 67 -50 67 -65 0 -7 -4 -13 -8 -13 -4 0 -28 20 -52 45 -24 25 -41
45 -37 45 4 0 17 -6 30 -12z m1054 -1916 c17 -50 33 -77 66 -107 24 -22 82
-59 129 -82 87 -43 142 -93 154 -138 8 -32 -18 -73 -51 -81 -17 -4 -38 2 -67
20 -24 15 -59 38 -78 52 -30 22 -36 23 -38 9 -2 -9 9 -32 25 -51 48 -60 83
-117 83 -135 0 -9 -8 -27 -18 -39 -14 -17 -25 -21 -44 -17 -13 4 -45 22 -71
42 -31 24 -55 54 -76 97 -17 35 -38 96 -46 137 -16 73 -19 205 -8 314 3 32 8
55 11 52 3 -3 16 -35 29 -73z"/>
<path d="M4490 41335 l0 -105 10530 0 10530 0 0 105 0 105 -10530 0 -10530 0
0 -105z"/>
<path d="M2946 41013 c-3 -10 -10 -65 -16 -123 -6 -58 -17 -129 -25 -159 -8
-30 -24 -65 -37 -77 -13 -12 -66 -36 -118 -54 -52 -18 -124 -49 -160 -70 -65
-38 -194 -160 -249 -235 -16 -22 -43 -87 -61 -145 -18 -58 -44 -130 -57 -160
-13 -30 -33 -65 -45 -77 l-21 -22 -38 19 c-21 11 -49 20 -62 20 -27 0 -86 -41
-104 -73 -7 -12 -12 -31 -13 -43 0 -11 15 -34 33 -51 29 -29 54 -37 99 -34 29
2 89 63 110 111 19 45 45 80 58 80 4 0 19 -30 34 -67 29 -74 60 -122 72 -110
4 4 -2 28 -14 55 -35 77 -54 157 -46 196 3 20 10 36 15 36 5 0 12 -7 16 -16 3
-9 36 -36 72 -60 36 -24 76 -51 88 -60 16 -12 33 -14 58 -10 19 4 48 18 65 32
22 19 30 34 30 59 0 18 -8 43 -18 55 -21 26 -87 36 -122 18 -14 -7 -29 -23
-35 -36 -5 -12 -17 -22 -25 -22 -28 0 -77 38 -93 73 -9 19 -17 46 -17 60 0 22
6 26 43 32 65 10 217 88 299 153 40 32 99 87 131 121 32 35 75 97 96 139 21
43 48 109 60 147 12 39 25 109 28 156 6 89 -1 159 -17 159 -5 0 -11 -8 -14
-17z m-126 -460 c0 -21 -52 -94 -108 -150 -26 -27 -80 -72 -120 -100 -40 -29
-109 -66 -154 -82 -44 -17 -84 -31 -89 -31 -5 0 -9 5 -9 10 0 21 67 115 116
165 27 28 79 72 114 99 36 27 101 66 144 87 60 29 83 36 93 28 7 -6 13 -18 13
-26z m-310 -599 c0 -16 -36 -19 -45 -4 -4 6 -1 17 5 26 10 11 16 12 26 3 8 -6
14 -18 14 -25z m-375 -129 c0 -22 -31 -33 -47 -17 -6 6 -8 18 -4 27 3 10 15
15 28 13 15 -2 23 -10 23 -23z"/>
<path d="M27044 40994 c-4 -21 -4 -76 -1 -124 4 -58 16 -117 35 -176 17 -49
47 -120 68 -157 25 -44 67 -96 119 -146 44 -42 114 -99 155 -127 80 -53 182
-99 242 -109 20 -3 38 -12 41 -19 6 -16 -34 -106 -55 -123 -8 -7 -29 -16 -46
-19 -27 -6 -32 -4 -32 13 0 12 -13 25 -35 36 -20 9 -49 17 -65 17 -16 0 -41
-10 -56 -23 -20 -18 -27 -32 -26 -58 1 -24 9 -42 31 -61 17 -15 46 -30 66 -34
25 -4 42 -2 58 10 12 9 52 37 88 61 37 24 69 52 73 60 3 9 10 14 15 11 5 -4
12 -20 16 -36 7 -33 -14 -116 -46 -186 -10 -23 -19 -46 -19 -52 0 -6 6 -9 13
-6 15 5 62 95 72 137 4 15 11 30 17 33 15 10 40 -18 64 -71 12 -27 35 -62 51
-78 40 -38 81 -48 122 -31 18 8 41 24 51 36 11 13 19 32 20 43 0 11 -9 34 -20
52 -21 34 -66 63 -100 63 -11 0 -38 -9 -59 -20 l-38 -19 -20 22 c-30 33 -57
92 -87 192 -15 50 -35 107 -43 128 -9 21 -27 52 -40 70 -13 18 -60 69 -104
113 -61 62 -102 93 -167 127 -48 25 -119 55 -158 67 -40 12 -81 31 -92 43 -11
12 -27 46 -36 76 -8 29 -20 101 -26 160 -6 58 -13 114 -16 124 -3 9 -9 17 -14
17 -5 0 -12 -16 -16 -36z m286 -455 c87 -47 164 -104 232 -172 52 -52 118
-144 118 -164 0 -7 -6 -13 -12 -13 -27 1 -176 67 -228 102 -69 47 -133 107
-193 181 -44 54 -56 85 -40 100 14 15 52 5 123 -34z m223 -585 c-7 -18 -43
-19 -43 -1 0 7 5 18 12 25 8 8 15 8 24 1 7 -6 10 -17 7 -25z m381 -113 c4 -5
3 -16 0 -25 -7 -18 -39 -22 -49 -6 -11 18 3 40 24 40 11 0 22 -4 25 -9z"/>
<path d="M1735 40923 c-27 -14 -84 -60 -125 -102 -56 -56 -80 -89 -93 -126
-19 -55 -22 -105 -7 -105 5 0 16 15 24 34 21 50 102 171 139 209 18 18 56 47
85 66 50 32 65 52 40 51 -7 -1 -35 -13 -63 -27z"/>
<path d="M28210 40942 c0 -5 31 -29 68 -55 37 -25 79 -61 92 -79 38 -50 119
-180 126 -200 3 -10 10 -18 16 -18 16 0 2 81 -23 134 -11 25 -50 73 -85 106
-85 79 -194 142 -194 112z"/>
<path d="M1514 40248 c-146 -152 -253 -305 -354 -508 -53 -106 -144 -337 -186
-475 -15 -49 -29 -94 -30 -100 -35 -148 -56 -311 -74 -565 -6 -80 -13 -328
-17 -551 -5 -318 -3 -408 6 -414 7 -4 18 -2 24 4 7 7 13 137 18 383 7 355 15
576 24 698 2 30 7 91 11 136 3 44 9 87 14 94 4 7 12 10 18 6 6 -3 31 -41 56
-84 25 -42 63 -132 86 -199 23 -68 45 -161 52 -210 6 -51 8 -157 5 -253 -4
-123 -11 -182 -26 -233 -11 -37 -31 -91 -44 -120 -13 -28 -52 -88 -86 -132
-34 -44 -57 -81 -51 -83 5 -2 25 6 44 18 22 13 53 52 86 106 28 47 58 104 66
127 9 23 26 83 40 132 23 84 24 102 20 275 -3 102 -9 210 -15 240 -6 30 -13
64 -15 75 -2 11 -13 43 -25 72 -26 66 -101 219 -130 267 -17 26 -30 36 -48 36
-25 0 -25 2 -19 46 5 42 50 207 81 299 14 44 60 168 74 200 27 67 99 212 139
280 57 98 169 261 231 335 25 30 48 57 51 60 3 3 20 22 38 43 31 37 34 57 9
57 -7 0 -40 -28 -73 -62z"/>
<path d="M28416 40301 c-4 -5 26 -46 65 -91 146 -170 258 -339 354 -535 35
-71 79 -173 99 -225 51 -139 116 -357 123 -412 6 -46 5 -48 -20 -48 -19 0 -32
-11 -54 -47 -31 -52 -69 -129 -114 -235 -26 -60 -36 -96 -54 -193 -3 -16 -9
-109 -12 -205 -5 -160 -4 -183 17 -265 12 -49 32 -117 45 -150 12 -33 45 -96
71 -140 37 -60 59 -85 87 -99 21 -10 40 -16 43 -14 2 3 -23 41 -57 84 -34 43
-74 106 -89 139 -15 33 -36 92 -46 130 -16 59 -19 105 -19 285 0 193 3 223 23
295 12 44 36 115 53 158 33 83 90 192 115 217 13 13 16 13 24 0 5 -8 10 -28
11 -45 0 -16 2 -39 4 -50 8 -44 25 -439 30 -710 7 -382 13 -497 24 -508 5 -5
15 -6 22 -2 9 6 11 95 6 409 -4 221 -11 471 -17 556 -17 243 -47 465 -80 580
-57 202 -140 422 -217 575 -59 118 -146 254 -219 346 -72 91 -186 209 -201
209 -7 0 -14 -4 -17 -9z"/>
<path d="M1509 39837 c-36 -24 -55 -55 -65 -103 -4 -23 2 -37 27 -67 30 -36
35 -38 73 -33 23 2 52 6 66 8 20 2 29 -4 42 -32 24 -47 23 -136 -2 -203 -26
-69 -104 -148 -185 -187 -38 -18 -99 -35 -166 -47 -94 -15 -116 -15 -188 -4
-45 8 -84 11 -87 9 -2 -3 -2 -13 2 -22 11 -30 96 -38 258 -26 113 8 126 12
206 51 105 53 181 126 230 223 33 66 35 76 35 170 0 84 -4 109 -23 151 -13 28
-35 63 -50 78 -15 16 -39 35 -54 43 -15 8 -40 14 -56 14 -16 0 -44 -10 -63
-23z m110 -32 c16 -8 40 -28 54 -44 25 -30 64 -118 56 -126 -3 -2 -18 16 -34
40 -17 24 -39 49 -49 55 -17 11 -23 7 -50 -24 -30 -34 -32 -35 -63 -21 -40 17
-58 48 -43 74 14 28 59 61 82 61 10 0 32 -7 47 -15z"/>
<path d="M28395 39849 c-40 -23 -77 -65 -102 -113 -33 -66 -41 -169 -19 -254
9 -35 28 -84 43 -110 44 -75 124 -146 216 -192 78 -39 90 -42 208 -50 68 -5
133 -7 144 -5 11 2 34 4 52 4 35 1 70 28 55 43 -6 6 -37 5 -85 -3 -65 -11 -90
-10 -184 5 -64 10 -129 27 -161 42 -29 14 -80 51 -112 81 -44 40 -64 69 -80
110 -14 37 -20 76 -19 113 3 72 25 130 49 130 11 0 22 -4 25 -10 3 -5 25 -10
47 -10 34 0 46 6 75 37 30 31 34 42 29 71 -3 19 -12 45 -21 58 -8 13 -26 31
-40 40 -32 21 -95 28 -120 13z m99 -50 c14 -11 31 -30 37 -40 8 -15 7 -26 -5
-44 -16 -24 -67 -47 -82 -36 -5 3 -17 18 -27 34 -10 15 -22 27 -28 27 -14 0
-58 -49 -80 -90 -13 -26 -18 -30 -18 -15 -1 11 10 43 23 70 32 68 85 114 132
115 12 0 33 -9 48 -21z"/>
<path d="M2352 39694 c-18 -12 -22 -25 -22 -64 0 -38 6 -56 27 -82 30 -35 58
-59 83 -69 8 -4 27 2 43 13 32 23 57 67 57 100 0 33 -35 85 -69 103 -17 8 -45
15 -63 15 -19 0 -44 -7 -56 -16z m63 -60 c0 -22 -5 -29 -20 -29 -11 0 -21 8
-23 18 -4 21 16 49 32 44 6 -2 11 -17 11 -33z"/>
<path d="M27525 39676 c-19 -20 -37 -52 -40 -70 -5 -22 -1 -44 9 -64 9 -17 26
-38 38 -46 12 -9 32 -16 44 -16 13 0 40 20 68 50 42 45 46 54 46 98 0 32 -5
54 -15 62 -9 7 -38 15 -65 18 -47 4 -52 3 -85 -32z m115 -21 c6 -8 10 -22 8
-32 -4 -24 -42 -23 -46 0 -5 22 4 47 16 47 5 0 15 -7 22 -15z"/>
<path d="M29110 21000 l0 -16620 25 0 25 0 0 16620 0 16620 -25 0 -25 0 0
-16620z"/>
<path d="M29200 21000 l0 -16620 105 0 105 0 0 16620 0 16620 -105 0 -105 0 0
-16620z"/>
<path d="M600 20990 l0 -16620 43 -1 42 -1 -42 -10 c-34 -7 -44 -15 -49 -35
-4 -15 -4 -91 -1 -170 4 -78 4 -150 1 -158 -5 -12 -9 -13 -21 -3 -8 6 -37 11
-65 11 -42 -1 -55 -6 -83 -33 -18 -18 -38 -30 -43 -26 -13 8 -32 86 -32 129 0
18 7 57 16 86 10 36 30 69 61 102 29 31 43 54 39 64 -4 13 -10 14 -26 5 -20
-11 -88 -96 -110 -138 -6 -13 -14 -56 -17 -95 -4 -58 -1 -84 17 -132 11 -33
24 -70 27 -83 4 -17 -4 -31 -36 -60 -33 -30 -41 -44 -41 -72 0 -57 20 -112 55
-155 25 -30 51 -47 110 -70 42 -16 92 -44 109 -62 18 -17 36 -45 39 -63 4 -17
12 -83 18 -145 11 -103 10 -119 -6 -160 -11 -31 -29 -54 -54 -70 -54 -36 -121
-57 -160 -50 -20 4 -52 24 -80 50 -32 30 -51 41 -60 35 -20 -12 -6 -52 30 -88
31 -30 93 -52 146 -52 15 0 46 9 68 19 22 10 66 44 97 76 54 55 57 57 62 34 2
-13 7 -64 10 -114 4 -49 15 -129 26 -178 24 -108 64 -227 142 -422 66 -164
153 -345 198 -410 46 -67 89 -103 131 -110 22 -4 37 -11 33 -16 -3 -5 -26 -9
-51 -9 -29 0 -58 -8 -80 -21 -29 -18 -43 -20 -96 -14 -34 3 -76 13 -93 20 -18
7 -38 24 -45 37 -7 12 -14 42 -15 66 -2 23 -6 47 -9 52 -3 6 -10 10 -16 10
-14 0 -11 -159 6 -245 8 -42 26 -101 39 -131 14 -30 48 -78 75 -107 l51 -53
-39 -38 c-22 -21 -37 -45 -34 -52 3 -7 15 -16 26 -20 12 -4 36 -19 54 -34 17
-15 54 -35 82 -45 28 -9 51 -23 51 -30 0 -8 -17 -34 -38 -58 -48 -55 -74 -98
-97 -159 -10 -26 -24 -53 -33 -60 -12 -10 -25 -1 -79 56 -36 37 -85 99 -109
137 -25 38 -65 108 -89 156 -46 92 -115 296 -135 398 -19 101 -24 313 -10 436
9 81 23 145 51 226 41 119 67 177 113 256 27 45 27 47 7 47 -12 0 -31 -16 -49
-42 -16 -24 -39 -63 -52 -87 -40 -80 -91 -223 -105 -296 -8 -39 -17 -123 -20
-186 -7 -122 6 -342 25 -424 26 -110 63 -216 110 -314 28 -57 76 -140 107
-185 81 -115 164 -215 185 -222 10 -3 18 -9 18 -14 0 -5 21 -33 46 -61 34 -39
44 -57 39 -73 -3 -11 -10 -46 -15 -76 -16 -93 -52 -189 -87 -229 -22 -26 -51
-45 -90 -59 -32 -12 -77 -24 -99 -27 -23 -4 -68 -2 -100 4 -67 13 -120 49
-146 102 -10 19 -23 53 -29 77 -5 24 -17 46 -25 49 -23 9 -44 -17 -44 -54 0
-19 7 -47 15 -62 18 -36 100 -109 142 -127 47 -20 187 -28 275 -15 42 6 105
20 140 32 99 33 246 108 313 159 34 26 67 50 74 54 6 4 41 -11 79 -33 37 -22
105 -57 152 -77 46 -20 134 -49 196 -64 62 -16 168 -36 236 -46 107 -15 141
-16 264 -6 110 9 162 19 229 41 151 52 385 191 385 230 0 6 -3 11 -7 11 -3 0
-30 -18 -59 -40 -29 -22 -57 -40 -62 -40 -5 0 -26 -14 -47 -30 -21 -17 -44
-30 -52 -30 -8 0 -46 -13 -84 -30 -38 -16 -104 -36 -147 -45 -59 -11 -129 -14
-302 -11 -205 3 -234 6 -324 30 -54 15 -137 43 -185 62 -93 38 -206 97 -233
121 -16 14 -16 18 -2 44 8 16 17 29 21 29 3 0 30 -13 60 -30 29 -16 59 -30 67
-30 7 0 19 19 26 43 32 115 40 157 41 219 1 48 -4 76 -17 97 -10 17 -24 31
-31 31 -9 0 -10 -23 -6 -90 4 -56 1 -111 -7 -148 -7 -33 -16 -65 -20 -73 -7
-11 -15 -10 -44 3 -19 10 -42 31 -51 48 -11 21 -23 30 -40 30 -19 0 -25 -5
-25 -23 0 -39 -29 -110 -65 -159 -36 -49 -123 -120 -137 -112 -5 3 -8 1 -8 -4
0 -6 -20 -19 -45 -31 -25 -12 -49 -21 -55 -21 -14 0 -12 111 5 203 7 43 25 97
38 120 14 23 39 55 56 71 17 17 31 32 31 35 0 3 -28 6 -63 7 -34 1 -74 6 -90
12 l-27 12 29 59 c41 81 86 145 122 175 17 15 51 38 75 52 24 14 44 32 44 39
0 8 -16 17 -37 20 -83 14 -100 18 -138 37 -47 24 -75 47 -75 62 0 6 9 22 19
35 13 17 32 26 61 30 24 3 45 11 47 18 3 7 -22 20 -64 32 -44 13 -79 31 -95
48 -15 16 -43 55 -62 87 -35 58 -46 109 -26 121 18 11 108 18 145 11 24 -5 55
-24 88 -54 43 -41 49 -44 43 -22 -24 81 -28 101 -22 116 5 13 15 15 40 11 52
-8 139 -53 190 -98 51 -45 99 -128 94 -162 -3 -19 -10 -22 -56 -25 -30 -2 -87
4 -127 12 -41 8 -102 27 -136 41 -34 14 -70 25 -78 25 -12 -1 -9 -7 10 -24 39
-34 172 -87 267 -105 66 -13 81 -19 76 -31 -4 -8 -22 -60 -41 -115 -19 -55
-43 -149 -54 -209 -23 -126 -78 -301 -114 -365 -14 -23 -25 -50 -25 -58 0 -27
21 -8 49 42 37 68 105 235 130 320 11 39 31 131 45 205 13 74 32 157 41 185
18 51 86 156 139 213 16 17 34 32 39 32 4 0 -7 -19 -26 -42 -19 -24 -42 -58
-51 -76 -13 -25 -14 -33 -4 -36 7 -2 46 -11 86 -20 44 -9 94 -29 125 -49 51
-33 127 -115 127 -137 0 -16 -79 -50 -117 -50 -18 0 -33 -4 -33 -10 0 -15 36
-30 73 -30 48 0 118 -26 151 -56 30 -29 80 -103 116 -173 l22 -44 -109 6 c-61
3 -126 12 -145 20 -19 8 -45 29 -57 46 -12 17 -26 31 -31 31 -5 0 -7 -14 -3
-30 3 -18 -1 -48 -12 -76 -12 -33 -21 -44 -33 -40 -10 2 -32 7 -50 11 -50 10
-39 -13 21 -40 28 -14 64 -25 78 -25 22 0 29 7 43 45 10 25 19 45 22 45 2 0
20 -9 41 -19 23 -12 71 -22 121 -26 82 -7 83 -8 127 -53 37 -37 45 -42 51 -28
6 15 1 38 -22 116 l-8 25 35 -26 c38 -28 179 -91 309 -137 239 -85 345 -115
477 -138 48 -8 151 -17 228 -21 77 -3 142 -7 143 -9 2 -1 -34 -27 -80 -57 -89
-57 -170 -132 -194 -179 -18 -34 -20 -102 -5 -142 7 -16 26 -46 43 -68 24 -30
36 -38 57 -36 17 2 27 10 28 23 2 13 -10 29 -36 46 -27 19 -41 38 -48 66 -7
28 -6 51 4 85 10 35 26 58 66 93 28 25 68 50 87 55 49 14 116 12 179 -4 29 -8
71 -27 93 -42 21 -15 70 -62 108 -104 40 -45 90 -88 122 -105 45 -25 64 -30
125 -30 64 0 75 3 97 25 14 14 27 38 30 54 3 16 6 30 8 31 2 2 23 -1 48 -5 25
-5 79 -9 120 -9 49 0 90 6 119 18 24 10 68 39 98 65 29 26 63 66 74 88 20 38
20 68 0 68 -5 0 -21 -20 -35 -45 -15 -24 -41 -55 -59 -69 -17 -13 -72 -38
-120 -55 -96 -34 -164 -40 -173 -17 -3 8 4 28 17 45 15 21 22 45 22 74 0 25
-7 54 -16 68 -10 13 -17 26 -17 29 0 3 88 4 195 2 l195 -4 0 78 c0 135 48 120
-398 128 -213 3 -450 11 -527 16 -77 5 -192 12 -255 15 -215 11 -443 58 -690
142 -125 42 -437 191 -502 239 -34 25 -75 48 -91 51 -19 4 -37 19 -54 47 -14
23 -39 58 -56 79 -16 21 -27 40 -25 43 3 2 34 -18 69 -44 35 -26 98 -69 139
-94 121 -75 415 -213 550 -258 204 -67 347 -102 515 -124 235 -31 397 -40
1087 -61 194 -6 207 -5 211 12 4 16 5 16 6 1 1 -17 510 -18 10546 -18 l10545
0 0 25 0 25 -10546 0 c-6704 0 -10543 3 -10539 10 8 13 -19 71 -49 102 -14 15
-40 38 -58 51 -42 32 -159 90 -220 111 -26 9 -88 18 -137 22 -61 4 -125 0
-203 -11 -62 -9 -141 -25 -176 -36 -81 -24 -290 -131 -343 -175 -24 -20 -48
-32 -58 -29 -9 2 -85 16 -169 30 -85 15 -199 40 -255 56 -211 63 -441 168
-663 304 -106 65 -315 225 -397 303 -26 26 -47 51 -47 58 0 16 62 57 150 99
80 37 176 60 300 70 41 3 85 8 98 11 13 2 20 9 17 14 -8 14 -247 13 -320 -1
-33 -6 -85 -24 -118 -40 -57 -29 -133 -79 -190 -126 -16 -13 -37 -23 -47 -23
-10 0 -47 28 -81 63 -74 72 -193 213 -233 276 -45 70 -180 340 -226 452 -50
121 -101 289 -136 444 -27 120 -50 289 -59 430 -3 50 -10 297 -16 550 -7 253
-12 466 -12 473 0 13 -17 18 -72 25 -16 2 -2 5 33 6 l62 1 0 16620 0 16620
-105 0 -105 0 0 -16620z m-63 -17043 c34 -19 102 -86 117 -116 8 -14 24 -55
36 -91 17 -50 23 -96 27 -195 2 -71 0 -157 -4 -190 l-9 -60 -28 82 c-18 54
-38 92 -58 112 -18 17 -72 52 -122 77 -50 26 -106 60 -123 77 -18 17 -37 45
-43 63 -8 24 -8 39 0 54 6 12 23 25 37 31 14 5 35 7 47 3 11 -4 43 -24 70 -45
27 -22 55 -39 62 -39 8 0 14 6 14 13 0 7 -18 35 -41 62 -44 53 -69 96 -69 117
0 22 30 58 48 58 9 -1 27 -6 39 -13z m1183 -2443 c43 -43 44 -45 15 -34 -36
14 -75 48 -75 67 0 7 4 13 8 13 4 0 28 -21 52 -46z m2354 -409 c39 -8 106 -33
151 -55 44 -22 98 -57 119 -77 36 -35 56 -69 56 -95 0 -8 -123 -9 -432 -4
-238 3 -453 8 -478 11 -25 2 -81 7 -125 11 l-80 6 30 24 c43 35 197 108 285
137 66 21 158 39 255 51 72 8 155 5 219 -9z m-313 -455 c43 -6 103 -19 133
-30 30 -10 69 -29 86 -42 34 -24 80 -94 80 -120 0 -20 -65 -59 -99 -60 -14 0
-57 14 -94 31 -38 17 -78 33 -90 34 -40 4 -24 -27 28 -55 28 -15 60 -39 73
-53 12 -14 22 -39 22 -55 0 -23 -7 -33 -32 -46 -26 -13 -38 -14 -70 -5 -27 9
-73 45 -155 122 -82 78 -134 119 -177 140 -34 16 -81 34 -106 40 l-45 12 55
25 c30 14 75 29 100 33 25 5 66 15 92 22 26 7 64 14 84 15 19 2 71 -2 115 -8z"/>
<path d="M850 20990 l0 -16620 25 0 25 0 0 16620 0 16620 -25 0 -25 0 0
-16620z"/>
<path d="M29285 4362 c-52 -5 -72 -11 -72 -24 0 -7 -5 -220 -12 -473 -6 -253
-13 -500 -16 -550 -9 -141 -32 -310 -59 -430 -35 -155 -86 -323 -136 -444 -46
-112 -181 -382 -226 -452 -40 -63 -157 -201 -232 -276 -35 -34 -72 -63 -82
-63 -10 0 -31 10 -47 23 -57 47 -133 97 -190 125 -32 16 -82 35 -111 41 -65
14 -318 15 -327 1 -3 -5 4 -12 17 -14 13 -3 57 -8 98 -11 124 -10 220 -33 300
-70 88 -42 150 -83 150 -99 0 -7 -21 -32 -47 -58 -82 -78 -291 -238 -397 -303
-222 -136 -452 -241 -663 -304 -56 -16 -170 -41 -255 -56 -84 -14 -160 -28
-169 -30 -10 -3 -34 9 -58 29 -53 44 -262 151 -343 175 -35 11 -114 27 -176
36 -78 11 -142 15 -203 11 -49 -4 -111 -13 -137 -22 -61 -21 -178 -79 -220
-111 -48 -36 -82 -74 -97 -107 -9 -21 -10 -39 -2 -68 l10 -40 206 7 c464 14
752 26 851 35 333 32 485 62 750 150 135 45 429 183 550 258 41 25 104 68 139
94 35 26 66 46 69 44 2 -3 -9 -22 -25 -43 -17 -21 -42 -56 -56 -79 -17 -28
-35 -43 -54 -47 -16 -3 -57 -26 -91 -51 -65 -48 -377 -197 -502 -239 -111 -38
-277 -84 -345 -96 -33 -6 -71 -13 -85 -16 -45 -9 -192 -24 -345 -35 -203 -15
-646 -29 -891 -30 l-202 0 -1 -101 -2 -101 195 4 c108 2 196 1 196 -2 0 -3 -7
-16 -17 -29 -9 -14 -16 -43 -16 -68 0 -29 7 -53 22 -74 13 -17 20 -37 17 -45
-9 -23 -74 -17 -176 18 -76 26 -104 41 -137 75 -24 23 -43 49 -43 57 0 7 -7
19 -15 26 -12 10 -19 10 -27 2 -19 -19 21 -89 83 -146 32 -29 79 -59 106 -69
52 -19 158 -22 233 -7 25 4 46 7 48 5 2 -1 5 -15 8 -31 3 -16 16 -40 30 -54
22 -22 33 -25 97 -25 61 0 80 5 125 30 32 17 82 60 122 105 38 42 87 89 108
104 22 15 64 34 93 42 63 16 130 18 179 4 19 -5 59 -30 87 -55 40 -35 56 -58
66 -93 10 -34 11 -57 4 -85 -7 -28 -21 -47 -48 -66 -26 -17 -38 -33 -36 -46 1
-13 11 -21 28 -23 21 -2 33 6 57 36 17 22 36 52 43 68 15 40 13 108 -5 142
-24 47 -105 122 -194 179 -46 30 -82 56 -80 57 1 2 66 6 143 9 244 11 366 39
705 159 130 46 271 109 309 137 l35 26 -8 -25 c-23 -78 -28 -101 -22 -116 6
-14 14 -9 51 28 44 45 45 46 127 53 50 4 98 14 121 26 21 10 39 19 41 19 3 0
12 -20 22 -45 14 -38 21 -45 43 -45 14 0 50 11 79 25 59 27 70 50 20 40 -18
-4 -40 -9 -50 -11 -12 -4 -21 7 -33 40 -11 28 -15 58 -12 76 4 16 2 30 -3 30
-5 0 -19 -14 -31 -31 -12 -17 -38 -38 -57 -46 -19 -8 -84 -17 -145 -20 l-109
-6 22 44 c36 70 86 144 116 173 33 30 103 56 151 56 37 0 73 15 73 30 0 6 -15
10 -32 10 -39 0 -118 34 -118 50 0 22 76 104 127 137 31 20 81 40 125 49 40 9
79 18 86 20 10 3 9 11 -4 36 -9 18 -32 52 -51 76 -19 23 -30 42 -26 42 5 0 23
-15 39 -32 53 -57 121 -162 139 -213 9 -28 28 -111 41 -185 14 -74 34 -166 45
-205 25 -85 93 -252 130 -320 28 -50 49 -69 49 -42 0 8 -11 35 -25 58 -36 64
-91 239 -114 365 -11 60 -35 154 -54 209 -19 55 -37 107 -41 115 -5 12 10 18
76 31 95 18 228 71 267 105 19 17 22 23 10 24 -8 0 -44 -11 -78 -25 -34 -14
-95 -33 -136 -41 -40 -8 -97 -14 -127 -12 -46 3 -53 6 -56 25 -5 34 43 117 94
162 51 45 138 90 190 98 25 4 35 2 40 -11 6 -15 2 -35 -22 -116 -6 -22 0 -19
43 22 33 30 64 49 88 54 37 7 127 0 145 -11 20 -12 9 -63 -26 -121 -19 -32
-47 -71 -62 -87 -16 -17 -51 -35 -95 -48 -42 -12 -67 -25 -64 -32 2 -7 23 -15
47 -18 29 -4 48 -13 61 -30 10 -13 19 -29 19 -35 0 -6 -8 -18 -17 -26 -29 -25
-96 -56 -138 -63 -85 -14 -95 -17 -95 -30 0 -7 20 -25 44 -39 24 -14 58 -37
75 -52 36 -30 81 -94 122 -175 l29 -59 -27 -12 c-16 -6 -56 -11 -90 -12 -35
-1 -63 -4 -63 -7 0 -3 14 -18 31 -35 17 -16 42 -48 56 -71 13 -23 31 -77 38
-120 17 -92 19 -203 5 -203 -6 0 -30 9 -55 21 -25 12 -45 25 -45 31 0 5 -3 7
-8 4 -14 -8 -101 63 -137 112 -36 49 -65 120 -65 159 0 18 -6 23 -25 23 -17 0
-29 -9 -40 -30 -9 -17 -32 -38 -51 -48 -29 -13 -37 -14 -44 -3 -4 8 -13 40
-20 73 -8 37 -11 92 -7 148 4 67 3 90 -6 90 -7 0 -21 -14 -31 -31 -13 -21 -18
-49 -17 -97 1 -62 9 -104 41 -219 7 -24 19 -43 26 -43 8 0 38 14 67 30 30 17
57 30 60 30 4 0 13 -13 21 -29 14 -26 14 -30 -2 -44 -27 -24 -140 -83 -233
-121 -48 -19 -131 -47 -185 -62 -90 -24 -119 -27 -324 -30 -173 -3 -243 0
-302 11 -43 9 -109 29 -147 45 -38 17 -77 30 -85 30 -8 0 -28 11 -44 25 -16
13 -40 29 -53 35 -13 5 -46 26 -74 46 -28 20 -51 31 -53 25 -11 -34 227 -179
383 -232 67 -22 119 -32 229 -41 123 -10 157 -9 264 6 68 10 174 30 236 46 62
15 150 44 196 64 47 20 115 55 152 77 38 22 73 37 79 33 7 -4 40 -28 74 -54
67 -51 214 -126 313 -159 35 -12 98 -26 140 -32 88 -13 228 -5 275 15 42 18
124 91 142 127 8 15 15 43 15 62 0 37 -21 63 -44 54 -8 -3 -20 -25 -25 -49 -6
-24 -19 -58 -29 -77 -26 -53 -79 -89 -146 -102 -32 -6 -77 -8 -100 -4 -22 3
-67 15 -99 27 -39 14 -68 33 -90 59 -35 40 -71 136 -87 229 -5 30 -12 65 -15
76 -5 16 5 34 39 73 25 28 46 56 46 61 0 5 8 11 18 14 10 3 43 36 73 74 174
213 271 404 329 647 19 82 32 302 25 424 -3 63 -12 147 -20 186 -14 73 -65
216 -105 296 -13 24 -36 63 -52 87 -18 26 -37 42 -49 42 -20 0 -20 -2 7 -47
46 -79 72 -137 113 -256 28 -81 42 -145 51 -226 14 -123 9 -335 -10 -436 -20
-102 -89 -306 -135 -398 -24 -48 -64 -118 -89 -156 -24 -38 -73 -100 -109
-137 -54 -57 -67 -66 -79 -56 -9 7 -23 34 -33 60 -23 61 -49 104 -97 159 -21
24 -38 50 -38 58 0 7 23 21 51 30 28 10 65 30 82 45 18 15 42 30 54 34 11 4
23 13 26 20 3 7 -12 31 -34 52 l-39 38 51 53 c27 29 61 77 75 107 13 30 31 89
39 131 17 86 20 245 6 245 -6 0 -13 -4 -16 -10 -3 -5 -7 -29 -9 -52 -1 -24 -8
-54 -15 -66 -7 -13 -27 -30 -45 -37 -17 -7 -59 -17 -93 -20 -53 -6 -67 -4 -96
14 -22 13 -51 21 -80 21 -25 0 -48 4 -51 9 -4 5 11 12 33 16 42 7 85 43 131
110 45 65 132 246 198 410 78 195 118 314 142 422 11 49 22 129 26 178 3 50 8
101 10 114 5 23 8 21 62 -34 31 -32 75 -66 97 -76 22 -10 53 -19 68 -19 53 0
115 22 146 52 36 36 50 76 30 88 -9 6 -28 -5 -60 -35 -28 -26 -60 -46 -80 -50
-39 -7 -106 14 -160 50 -25 16 -43 39 -54 70 -16 41 -17 57 -6 160 6 62 14
128 18 145 3 18 21 46 39 63 17 18 67 46 109 62 59 23 85 40 110 70 35 43 55
98 55 155 0 28 -8 42 -41 72 -32 29 -40 43 -36 60 3 13 16 50 27 83 18 48 21
74 17 132 -3 39 -11 82 -17 95 -22 42 -90 127 -110 138 -16 9 -22 8 -26 -5 -4
-10 10 -33 39 -64 31 -33 51 -66 61 -102 9 -29 16 -68 16 -86 0 -43 -19 -121
-32 -129 -5 -4 -25 8 -43 26 -28 27 -41 32 -83 33 -28 0 -57 -5 -65 -12 -12
-9 -16 -9 -20 1 -3 7 -3 85 0 173 5 148 4 161 -13 176 -20 18 -61 26 -109 21z
m254 -433 c12 -21 12 -32 2 -56 -6 -16 -32 -54 -56 -84 -25 -29 -45 -60 -45
-66 0 -7 6 -13 14 -13 7 0 35 17 62 39 27 21 59 41 70 45 12 4 33 2 47 -3 14
-6 31 -19 37 -31 8 -15 8 -30 0 -54 -6 -18 -25 -46 -43 -63 -17 -17 -73 -51
-123 -77 -50 -25 -104 -60 -122 -77 -20 -20 -40 -58 -58 -112 l-28 -82 -9 60
c-4 33 -6 119 -3 190 3 90 10 149 24 190 10 33 26 74 35 91 18 34 84 101 120
121 12 7 31 12 42 10 10 -1 26 -14 34 -28z m-1199 -2392 c0 -19 -39 -53 -75
-67 -29 -11 -28 -9 15 34 24 25 48 46 52 46 4 0 8 -6 8 -13z m-2068 -452 c43
-8 105 -24 140 -36 80 -26 234 -101 273 -133 l30 -24 -80 -6 c-44 -4 -100 -9
-125 -11 -25 -3 -240 -8 -477 -11 -310 -5 -433 -4 -433 4 0 26 20 60 56 95 21
20 75 55 120 77 45 23 110 47 145 55 44 10 97 13 169 10 58 -3 140 -12 182
-20z m158 -451 c36 -8 83 -18 105 -23 22 -4 65 -19 95 -33 l55 -25 -45 -12
c-25 -6 -72 -24 -106 -40 -43 -21 -95 -62 -177 -140 -82 -77 -128 -113 -155
-122 -32 -9 -44 -8 -70 5 -25 13 -32 23 -32 46 0 16 10 41 23 55 12 14 45 38
72 53 52 28 68 59 28 55 -12 -1 -52 -17 -90 -34 -37 -17 -80 -31 -94 -31 -34
1 -99 40 -99 60 0 29 49 98 87 124 21 14 61 33 88 42 56 18 148 33 210 35 22
0 69 -6 105 -15z"/>
<path d="M843 4345 c-9 -24 4 -764 17 -950 5 -82 12 -170 15 -195 17 -156 28
-235 45 -313 23 -103 93 -319 151 -462 54 -132 124 -272 184 -365 26 -41 74
-109 105 -150 71 -92 175 -207 202 -221 13 -7 24 -7 30 -1 5 5 -16 39 -59 88
-38 43 -102 126 -144 184 -124 171 -197 301 -277 490 -64 154 -162 468 -162
521 0 23 5 28 28 31 24 3 35 18 94 133 37 72 78 164 91 205 16 47 29 121 36
200 6 69 13 156 15 193 1 38 -4 106 -11 150 -8 45 -28 123 -44 172 -17 50 -54
128 -82 174 -38 62 -62 89 -90 104 -21 11 -40 17 -43 15 -2 -3 23 -41 57 -84
33 -43 70 -96 81 -118 28 -54 57 -150 68 -221 5 -33 7 -145 5 -250 -3 -157 -7
-203 -25 -265 -11 -41 -31 -102 -43 -135 -23 -65 -100 -210 -123 -235 -12 -13
-16 -13 -23 -1 -19 31 -39 387 -47 846 -4 198 -9 384 -13 414 -6 55 -25 78
-38 46z"/>
<path d="M29124 4349 c-4 -7 -11 -186 -15 -398 -8 -362 -22 -697 -36 -837 -3
-34 -9 -68 -14 -75 -7 -12 -11 -11 -23 1 -23 24 -100 170 -124 235 -12 33 -31
94 -43 135 -17 61 -21 110 -24 265 -2 105 0 217 5 250 11 71 40 167 68 221 11
22 48 75 81 118 34 43 59 81 57 84 -3 2 -22 -4 -43 -15 -28 -15 -51 -41 -87
-99 -27 -43 -60 -108 -73 -144 -14 -36 -35 -114 -48 -175 -24 -116 -24 -153
-4 -375 7 -79 20 -153 36 -200 13 -41 54 -133 91 -205 59 -115 70 -130 95
-133 22 -3 27 -8 27 -31 0 -53 -98 -367 -162 -521 -80 -189 -153 -319 -277
-490 -42 -58 -106 -141 -144 -184 -43 -49 -64 -83 -59 -88 6 -6 17 -6 30 1 27
14 131 129 202 221 80 105 145 209 201 320 64 129 119 267 178 446 51 153 84
303 96 434 4 41 9 82 10 91 2 9 9 103 16 210 6 107 12 362 13 568 1 276 -2
375 -11 378 -6 2 -15 -2 -19 -8z"/>
<path d="M1066 2860 c-39 -7 -62 -28 -47 -43 5 -5 43 -3 86 4 67 12 90 11 183
-5 59 -10 127 -26 151 -37 67 -29 157 -108 188 -164 25 -44 28 -61 28 -135 0
-66 -4 -92 -18 -114 -15 -22 -23 -26 -40 -21 -12 4 -40 10 -63 12 -37 4 -43 1
-72 -31 -18 -20 -32 -46 -32 -57 0 -30 37 -97 63 -113 31 -21 73 -29 103 -22
14 4 45 25 69 47 60 55 80 116 80 239 0 88 -3 100 -35 165 -48 97 -127 173
-232 224 -46 22 -101 43 -123 45 -70 10 -249 13 -289 6z m639 -555 c-9 -25
-28 -59 -42 -76 -27 -32 -72 -59 -98 -59 -24 0 -75 39 -85 64 -4 11 -4 29 1
38 5 10 23 25 40 33 30 16 31 16 63 -20 22 -24 38 -33 49 -29 10 3 31 28 49
55 17 27 33 47 36 44 3 -2 -3 -25 -13 -50z"/>
<path d="M28720 2861 c-96 -6 -112 -10 -193 -49 -110 -54 -189 -129 -237 -227
-32 -65 -35 -77 -35 -165 0 -123 20 -184 80 -239 24 -22 55 -43 69 -47 30 -7
72 1 103 22 26 16 63 83 63 113 0 11 -14 37 -32 57 -29 32 -35 35 -72 31 -23
-2 -51 -8 -63 -12 -17 -5 -25 -1 -40 21 -14 22 -18 48 -18 114 0 74 3 91 28
135 31 56 121 135 188 164 24 11 92 27 151 37 93 16 116 17 183 5 83 -14 109
-6 80 23 -9 9 -24 16 -33 16 -9 0 -39 2 -67 4 -27 2 -97 1 -155 -3z m-402
-550 c18 -27 39 -52 49 -55 11 -4 27 5 49 29 32 36 33 36 63 20 17 -8 35 -23
40 -33 5 -9 5 -27 1 -38 -10 -25 -61 -64 -85 -64 -23 0 -66 24 -92 52 -31 33
-77 138 -60 138 2 0 18 -22 35 -49z"/>
<path d="M2404 2497 c-70 -53 -84 -77 -84 -141 0 -35 5 -48 22 -60 12 -9 38
-16 58 -16 19 0 49 9 66 19 38 23 68 83 59 119 -10 40 -32 70 -64 87 -27 13
-31 13 -57 -8z m1 -142 c0 -19 -5 -30 -14 -30 -19 0 -35 29 -28 49 4 10 15 16
24 14 13 -2 18 -13 18 -33z"/>
<path d="M27529 2497 c-21 -14 -39 -38 -48 -63 -13 -36 -12 -44 4 -78 10 -21
32 -47 49 -57 17 -10 47 -19 66 -19 20 0 46 7 58 16 17 12 22 25 22 60 0 25
-5 55 -11 67 -12 23 -62 71 -90 87 -12 7 -26 3 -50 -13z m109 -133 c3 -23 -21
-49 -38 -39 -11 7 -14 48 -3 59 13 13 38 1 41 -20z"/>
<path d="M1979 2245 c-14 -8 -32 -27 -38 -43 -7 -16 -9 -41 -5 -56 8 -33 77
-86 111 -86 12 0 40 9 60 20 35 19 38 19 56 2 28 -25 62 -96 87 -182 36 -126
52 -163 91 -216 60 -82 179 -192 248 -230 35 -19 105 -49 155 -66 50 -17 100
-39 112 -49 11 -11 28 -43 37 -72 9 -28 21 -101 27 -162 6 -60 13 -118 16
-127 3 -10 9 -18 14 -18 24 0 27 145 5 252 -8 40 -27 102 -42 138 -14 36 -45
94 -68 130 -23 36 -73 94 -111 131 -38 36 -108 91 -156 123 -98 64 -176 96
-260 105 -15 2 -8 52 12 91 20 38 62 70 95 70 8 0 15 -8 15 -19 0 -27 63 -55
108 -48 19 4 43 14 53 23 12 11 19 31 19 54 0 27 -7 43 -29 64 -17 17 -44 30
-67 33 -33 4 -45 0 -79 -27 -22 -18 -64 -47 -92 -66 -29 -19 -53 -39 -53 -46
-1 -8 -7 -5 -15 6 -8 11 -15 31 -15 45 0 29 22 102 53 173 11 27 17 51 13 55
-12 12 -43 -36 -67 -102 -12 -33 -26 -64 -30 -69 -13 -15 -40 15 -65 70 -12
27 -38 65 -58 82 -28 24 -46 32 -74 32 -20 -1 -49 -7 -63 -15z m146 -80 c0
-22 -31 -33 -47 -17 -6 6 -8 18 -4 27 3 10 15 15 28 13 15 -2 23 -10 23 -23z
m375 -129 c0 -7 -6 -19 -14 -25 -10 -9 -16 -8 -26 3 -6 9 -9 20 -5 26 9 15 45
12 45 -4z m-65 -269 c44 -18 106 -50 138 -71 66 -44 169 -144 211 -205 16 -23
26 -47 22 -56 -3 -8 -13 -18 -22 -22 -21 -8 -130 45 -209 102 -71 51 -127 103
-176 165 -33 41 -69 101 -69 115 0 11 27 4 105 -28z"/>
<path d="M27884 2228 c-20 -18 -45 -52 -55 -75 -22 -52 -56 -91 -68 -77 -4 5
-18 36 -30 69 -24 66 -55 114 -67 102 -4 -4 2 -28 13 -55 31 -71 53 -144 53
-173 0 -14 -7 -34 -15 -45 -8 -11 -14 -14 -15 -6 0 7 -24 27 -52 46 -29 19
-71 48 -93 66 -34 27 -46 31 -79 27 -23 -3 -50 -16 -67 -33 -22 -21 -29 -37
-29 -64 0 -23 7 -43 19 -54 10 -9 34 -19 53 -23 45 -7 108 21 108 48 0 44 81
6 110 -51 20 -39 27 -89 13 -91 -85 -9 -163 -41 -261 -105 -48 -32 -118 -87
-156 -123 -38 -37 -88 -95 -111 -131 -23 -36 -54 -94 -68 -130 -15 -36 -34
-98 -42 -138 -22 -107 -19 -252 5 -252 5 0 11 8 14 18 3 9 10 67 16 127 6 61
18 134 27 162 9 29 26 61 37 72 12 10 62 32 112 49 50 17 120 47 155 66 69 38
188 148 248 230 39 53 55 90 91 216 25 86 59 157 87 182 18 17 21 17 56 -2 20
-11 48 -20 60 -20 34 0 103 53 111 86 4 15 2 40 -5 56 -6 16 -24 35 -40 43
-15 8 -44 15 -63 15 -25 0 -46 -9 -72 -32z m41 -63 c0 -22 -31 -33 -47 -17 -6
6 -8 18 -4 27 3 10 15 15 28 13 15 -2 23 -10 23 -23z m-380 -125 c4 -6 1 -17
-5 -26 -10 -11 -16 -12 -26 -3 -8 6 -14 18 -14 25 0 16 36 19 45 4z m125 -245
c0 -14 -36 -74 -69 -115 -49 -62 -105 -114 -176 -165 -79 -57 -188 -110 -209
-102 -9 4 -19 14 -22 22 -4 9 6 33 22 56 42 61 145 161 211 205 32 21 94 53
138 71 78 32 105 39 105 28z"/>
<path d="M1490 1371 c0 -16 10 -54 21 -85 17 -43 38 -72 90 -121 87 -82 199
-148 199 -117 0 4 -23 23 -52 42 -28 19 -70 54 -92 77 -23 23 -66 85 -96 137
-30 52 -58 95 -62 96 -5 0 -8 -13 -8 -29z"/>
<path d="M28440 1304 c-30 -52 -73 -114 -96 -137 -22 -23 -64 -58 -92 -77 -29
-19 -52 -38 -52 -42 0 -31 112 35 199 117 52 49 73 78 90 121 21 55 28 114 14
114 -5 -1 -33 -44 -63 -96z"/>
<path d="M4460 655 l0 -105 10530 0 10530 0 0 105 0 105 -10530 0 -10530 0 0
-105z"/>
</g>
</g>
</svg>
