<?xml version="1.0" standalone="no"?>
<!DOCTYPE svg PUBLIC "-//W3C//DTD SVG 20010904//EN"
 "http://www.w3.org/TR/2001/REC-SVG-20010904/DTD/svg10.dtd">
<svg version="1.0" xmlns="http://www.w3.org/2000/svg"
 width="2956.000000pt" height="976.000000pt" viewBox="0 0 2956.000000 976.000000"
 preserveAspectRatio="xMidYMid meet">
<metadata>
Created by potrace 1.16, written by Peter Selinger 2001-2019
</metadata>
<g transform="translate(0.000000,976.000000) scale(0.100000,-0.100000)"
fill="#000000" stroke="none">
<path d="M955 9753 c-22 -2 -92 -12 -155 -23 -191 -32 -401 -53 -465 -46 -65
7 -62 6 -177 30 -42 9 -89 16 -104 16 -30 0 -30 11 1 -125 9 -38 18 -115 21
-170 6 -102 -1 -163 -56 -455 -18 -96 -21 -139 -17 -265 2 -82 7 -160 10 -172
23 -92 43 -154 60 -188 26 -53 88 -130 130 -163 52 -40 125 -83 187 -109 57
-24 80 -28 80 -15 0 4 -12 25 -25 47 -15 24 -25 55 -25 78 0 20 8 65 17 98 11
40 28 73 49 95 18 18 57 45 86 60 59 30 134 52 160 46 9 -1 19 -14 22 -27 5
-21 36 -533 36 -606 0 -20 -9 -29 -47 -48 -84 -40 -178 -109 -252 -182 -39
-39 -95 -107 -125 -152 -55 -83 -78 -132 -123 -267 -22 -63 -26 -99 -30 -228
-3 -90 0 -185 6 -231 19 -131 89 -321 156 -426 34 -54 126 -152 188 -200 l38
-30 -12 -70 c-7 -39 -13 -167 -14 -285 -1 -118 -2 -221 -3 -227 -3 -23 -31
-13 -72 25 l-40 39 0 80 c0 44 -3 95 -6 112 -4 17 -12 31 -19 31 -19 0 -52
-41 -74 -93 -12 -27 -21 -70 -21 -97 0 -27 10 -75 21 -107 15 -40 36 -72 67
-101 25 -23 67 -50 94 -59 l48 -18 0 -445 0 -445 -48 -18 c-27 -9 -69 -36 -94
-59 -31 -29 -52 -61 -67 -101 -11 -32 -21 -80 -21 -107 0 -27 9 -70 21 -97 22
-52 55 -93 74 -93 7 0 15 14 19 31 3 17 6 68 6 112 l0 80 40 39 c41 38 69 48
72 26 1 -7 2 -110 3 -228 1 -118 7 -246 14 -285 l12 -70 -38 -30 c-62 -48
-154 -146 -188 -200 -67 -105 -137 -295 -156 -426 -6 -46 -9 -141 -6 -231 4
-129 8 -165 30 -228 45 -135 68 -184 123 -267 30 -45 86 -113 125 -152 74 -73
168 -142 252 -182 38 -19 47 -28 47 -48 0 -73 -31 -585 -36 -606 -3 -13 -13
-26 -22 -27 -26 -6 -101 16 -160 46 -29 15 -68 42 -86 60 -21 22 -38 55 -49
95 -9 33 -17 78 -17 98 0 23 10 54 25 78 13 22 25 43 25 48 0 12 -23 8 -80
-16 -62 -26 -135 -69 -187 -109 -42 -33 -104 -110 -130 -163 -17 -34 -37 -96
-60 -188 -3 -12 -8 -89 -10 -172 -4 -126 -1 -169 17 -265 55 -292 62 -353 56
-455 -3 -55 -12 -131 -21 -170 -31 -136 -31 -125 -1 -125 15 0 62 7 104 16
115 24 112 23 177 30 65 7 280 -15 463 -46 62 -11 161 -23 221 -26 80 -5 110
-4 116 5 4 7 5 14 3 16 -4 4 -125 19 -233 30 -91 8 -139 15 -270 36 -151 24
-388 26 -461 4 -27 -8 -55 -15 -61 -15 -7 0 -13 11 -13 24 0 14 7 55 15 91 25
105 18 243 -20 433 -27 132 -34 195 -38 325 -2 89 -1 196 4 237 6 57 18 96 50
160 33 66 59 102 120 163 43 42 82 77 87 77 5 0 15 -28 21 -61 7 -34 24 -86
38 -115 14 -30 41 -67 59 -84 61 -53 160 -96 248 -106 28 -4 55 -9 60 -12 15
-8 -3 -137 -28 -207 -13 -35 -35 -81 -50 -100 -28 -36 -56 -46 -56 -21 0 8 5
27 10 42 9 22 6 34 -16 71 -14 24 -40 53 -57 64 -18 10 -45 19 -62 19 -39 0
-103 -30 -136 -64 -15 -14 -29 -40 -33 -57 -3 -18 -6 -50 -6 -74 0 -30 9 -55
31 -88 23 -35 46 -54 93 -77 48 -24 76 -31 123 -31 42 -1 75 6 109 22 27 13
76 50 109 84 40 39 73 86 97 136 35 71 43 103 69 276 6 40 16 76 22 81 7 5 34
17 61 27 62 22 168 122 228 212 24 38 56 95 71 128 14 33 31 90 38 126 9 52 9
108 1 250 -10 154 -16 195 -38 254 -14 38 -40 97 -57 130 -18 33 -64 92 -102
131 -80 80 -159 124 -270 151 -38 9 -73 21 -77 27 -9 13 -11 418 -2 441 4 9
43 40 88 69 45 29 105 77 135 107 39 39 68 84 107 164 30 61 58 134 64 164 6
30 10 95 11 145 0 100 -14 207 -37 276 -26 77 -77 162 -133 223 -30 32 -72 69
-95 82 -26 15 -61 25 -95 27 -32 2 -56 -1 -58 -7 -2 -6 16 -21 39 -32 l43 -22
-137 0 c-112 -1 -148 -5 -190 -21 l-52 -20 20 21 c11 11 47 31 80 44 32 13 59
28 59 32 0 4 -20 11 -45 14 -31 4 -10 6 63 7 l107 2 0 440 0 440 -107 2 c-73
1 -94 3 -63 7 25 3 43 10 40 16 -3 6 -29 20 -59 32 -30 12 -64 31 -75 42 l-20
21 52 -20 c42 -16 78 -20 190 -21 l137 0 -43 -22 c-23 -11 -41 -26 -39 -32 2
-6 26 -9 58 -7 34 2 69 12 95 27 23 13 65 50 95 82 56 61 107 146 133 223 23
69 37 176 37 276 -1 50 -5 115 -11 145 -6 30 -34 104 -64 164 -39 80 -68 125
-107 164 -30 30 -90 78 -135 107 -45 29 -84 60 -88 69 -9 23 -7 428 2 441 4 6
39 18 77 27 111 27 190 71 270 151 38 39 84 98 102 131 17 33 43 92 57 130 22
59 28 100 38 254 8 142 8 198 -1 250 -7 36 -24 93 -38 126 -15 33 -47 90 -71
128 -60 90 -166 190 -228 212 -27 10 -54 22 -61 27 -6 5 -16 41 -22 81 -26
173 -34 205 -69 276 -24 50 -57 97 -97 136 -33 34 -82 71 -109 84 -34 16 -67
23 -109 22 -47 0 -75 -7 -123 -31 -47 -23 -70 -42 -93 -77 -22 -33 -31 -58
-31 -88 0 -24 3 -56 6 -74 4 -17 18 -43 33 -57 33 -34 97 -64 136 -64 17 0 44
9 62 19 17 11 43 40 57 64 22 37 25 49 16 71 -5 15 -10 34 -10 42 0 25 28 15
56 -21 15 -19 37 -65 50 -100 25 -70 43 -199 28 -207 -5 -3 -32 -8 -60 -12
-88 -10 -187 -53 -248 -106 -18 -17 -45 -54 -59 -84 -14 -29 -31 -81 -38 -115
-6 -33 -16 -61 -21 -61 -5 0 -44 35 -87 78 -61 60 -87 96 -120 162 -32 64 -44
103 -50 160 -5 41 -6 148 -4 237 4 130 11 193 38 325 38 190 45 328 20 433 -8
36 -15 77 -15 91 0 13 6 24 13 24 6 0 34 -7 61 -15 73 -22 310 -20 461 4 131
21 179 28 270 36 108 11 229 26 233 30 2 2 1 8 -3 14 -6 10 -90 12 -180 4z
m56 -1346 c32 -8 134 -105 177 -168 35 -51 71 -129 96 -203 19 -55 35 -169 30
-207 -1 -13 -8 -64 -14 -114 -23 -190 -29 -216 -64 -289 -23 -48 -58 -97 -98
-139 -35 -36 -81 -76 -103 -90 -42 -26 -115 -52 -175 -62 -19 -3 -59 -8 -87
-12 l-53 -6 0 -276 c0 -152 4 -281 8 -288 4 -7 48 -32 97 -56 67 -33 104 -59
146 -103 30 -33 69 -80 87 -105 17 -26 43 -80 56 -122 14 -41 29 -106 32 -145
4 -43 2 -96 -6 -138 -15 -77 -54 -179 -100 -260 -31 -54 -78 -98 -139 -128
-18 -10 -57 -20 -87 -23 -49 -5 -53 -4 -50 14 3 11 6 184 8 385 2 298 0 368
-11 381 -7 10 -21 17 -31 17 -29 0 -95 55 -154 128 -31 38 -69 98 -85 134 -44
97 -64 211 -65 373 -1 103 4 160 17 214 10 41 31 108 47 150 48 123 102 196
215 286 58 47 129 84 229 120 l49 18 -6 91 c-15 232 -29 615 -23 631 4 12 10
14 19 8 6 -6 24 -13 38 -16z m-110 -4143 c61 -30 108 -74 139 -128 46 -81 85
-183 100 -260 8 -42 10 -95 6 -138 -3 -39 -18 -104 -32 -145 -13 -42 -39 -96
-56 -122 -18 -25 -57 -72 -87 -105 -42 -44 -79 -70 -146 -103 -49 -24 -93 -49
-97 -56 -4 -7 -8 -136 -8 -288 l0 -276 53 -6 c28 -4 68 -9 87 -12 60 -10 133
-36 175 -62 22 -14 68 -54 103 -90 40 -42 75 -91 98 -139 35 -73 41 -99 64
-289 6 -49 13 -101 14 -114 5 -38 -11 -152 -30 -207 -25 -74 -61 -152 -96
-203 -43 -63 -145 -160 -177 -168 -14 -3 -32 -10 -38 -16 -9 -6 -15 -4 -19 8
-6 16 8 399 23 631 l6 91 -49 18 c-100 36 -171 73 -229 120 -113 90 -167 163
-215 286 -16 42 -37 109 -47 150 -13 54 -18 111 -17 214 1 162 21 276 65 373
16 36 54 96 85 134 59 73 125 128 154 128 10 0 24 7 31 17 11 13 13 83 11 381
-2 201 -5 374 -8 385 -3 18 1 19 50 14 30 -3 69 -13 87 -23z"/>
<path d="M28425 9751 c-4 -7 -5 -14 -3 -16 2 -3 89 -14 194 -25 104 -12 245
-30 314 -41 100 -17 157 -20 285 -16 115 3 172 8 203 20 l42 16 0 -23 c0 -13
-7 -59 -16 -102 -12 -58 -15 -109 -11 -194 3 -70 17 -172 35 -260 24 -114 32
-179 35 -305 3 -88 1 -194 -4 -235 -6 -56 -19 -96 -49 -156 -22 -45 -59 -105
-82 -133 -24 -27 -62 -64 -85 -81 -24 -16 -45 -30 -47 -30 -2 0 -7 17 -10 38
-14 77 -48 161 -82 200 -46 54 -158 109 -255 126 l-74 13 2 66 c2 104 55 239
105 271 9 6 20 7 24 3 4 -4 3 -23 -3 -42 -9 -29 -8 -41 10 -77 12 -24 37 -53
56 -65 19 -13 49 -23 68 -23 59 0 146 55 163 103 5 17 10 55 10 87 0 43 -5 63
-23 88 -13 17 -36 41 -50 52 -14 11 -45 29 -69 40 -28 13 -65 20 -106 20 -49
0 -76 -6 -119 -27 -35 -18 -75 -49 -109 -88 -30 -33 -69 -91 -88 -130 -34 -71
-50 -131 -62 -240 -3 -33 -12 -73 -19 -90 -9 -23 -24 -34 -64 -48 -36 -13 -73
-38 -123 -85 -39 -37 -86 -91 -106 -122 -58 -90 -100 -187 -112 -259 -10 -52
-10 -111 -1 -255 10 -179 13 -193 45 -273 19 -46 47 -105 62 -131 15 -26 57
-76 93 -112 36 -36 91 -78 121 -95 30 -16 93 -39 140 -50 l85 -22 2 -218 c1
-129 -2 -226 -8 -237 -5 -10 -36 -33 -67 -50 -31 -18 -89 -64 -129 -101 -62
-59 -81 -85 -128 -180 -31 -64 -60 -138 -66 -172 -14 -76 -5 -301 14 -372 25
-88 88 -203 145 -265 30 -32 73 -70 96 -83 27 -16 60 -25 98 -27 34 -2 58 1
57 7 0 6 -19 20 -42 32 l-42 22 137 1 c114 0 146 3 190 21 l53 20 -21 -21
c-11 -11 -45 -31 -75 -43 -30 -12 -55 -26 -57 -32 -1 -6 23 -11 53 -13 38 -2
68 3 98 16 24 11 59 33 79 50 19 18 46 56 59 84 17 40 23 72 24 129 0 67 -3
81 -30 124 -31 50 -59 74 -71 62 -4 -4 -10 -56 -13 -116 -5 -90 -10 -113 -26
-131 -24 -27 -74 -54 -83 -45 -4 4 -7 106 -8 228 0 126 -6 252 -13 291 l-12
69 38 30 c66 53 164 160 197 217 47 80 101 212 128 310 20 75 23 107 23 280 0
179 -2 201 -24 270 -42 128 -71 192 -126 275 -30 44 -80 107 -112 139 -70 72
-193 165 -260 196 -48 24 -65 38 -58 51 3 3 11 135 20 293 8 158 18 298 21
311 3 12 15 25 26 28 22 6 101 -19 168 -53 25 -12 59 -38 76 -57 34 -38 64
-128 64 -190 0 -22 -11 -57 -25 -82 -14 -23 -25 -45 -25 -47 0 -10 31 -2 76
17 79 35 181 98 222 139 83 80 120 155 157 324 14 61 16 108 12 234 -4 120
-12 195 -36 317 -17 88 -34 205 -37 260 -5 78 -2 125 15 215 11 63 24 125 27
138 6 19 3 22 -22 22 -16 0 -85 -12 -154 -26 -107 -22 -139 -25 -225 -19 -109
7 -267 27 -387 50 -42 8 -128 17 -191 21 -84 5 -116 4 -122 -5z m176 -1606
c-6 -143 -15 -303 -18 -356 l-6 -96 49 -18 c102 -37 161 -68 227 -118 38 -29
89 -77 114 -107 25 -30 56 -76 69 -103 41 -80 82 -217 95 -314 10 -71 10 -121
1 -220 -12 -130 -28 -203 -64 -283 -30 -67 -75 -128 -140 -192 -37 -38 -70
-61 -96 -68 -38 -10 -40 -12 -46 -60 -4 -28 -4 -193 -1 -368 4 -174 8 -330 10
-346 l4 -29 -54 6 c-29 3 -68 13 -86 22 -19 10 -53 33 -75 51 -30 24 -55 60
-88 126 -25 51 -54 127 -66 168 -11 41 -20 102 -20 136 0 34 11 103 24 154 18
69 35 109 70 160 69 101 143 165 240 210 46 21 86 46 90 55 3 9 6 139 6 289
l0 272 -85 12 c-47 7 -112 21 -145 31 -32 10 -82 36 -110 56 -29 21 -75 65
-102 99 -28 33 -64 88 -79 120 -16 33 -33 83 -38 110 -16 82 -35 287 -33 341
4 73 27 165 62 241 16 36 50 95 75 130 50 70 146 154 176 154 11 0 22 7 26 16
5 14 7 14 16 -2 7 -12 7 -101 -2 -279z"/>
<path d="M1212 9739 c2 -8 31 -20 64 -27 32 -8 102 -27 154 -43 68 -20 106
-38 132 -61 21 -18 54 -63 74 -101 29 -55 34 -70 24 -82 -7 -8 -25 -15 -41
-15 -16 0 -54 -14 -83 -30 -30 -17 -80 -55 -110 -85 -31 -29 -64 -71 -73 -92
-8 -21 -22 -65 -29 -98 -8 -33 -19 -72 -25 -87 -10 -25 -17 -28 -56 -28 -24 0
-71 9 -103 20 -33 11 -83 34 -110 51 -28 17 -57 44 -65 60 -8 15 -15 39 -15
53 0 24 0 24 32 9 17 -9 47 -16 66 -15 18 1 50 11 69 23 21 13 43 39 54 63 10
23 19 51 19 64 0 12 -9 41 -20 63 -34 66 -122 107 -203 95 -25 -4 -65 -20 -89
-36 -24 -16 -53 -46 -65 -67 -11 -21 -24 -57 -28 -79 -3 -23 -2 -66 4 -95 5
-30 19 -81 32 -114 17 -46 38 -76 93 -131 39 -39 94 -83 123 -97 28 -15 91
-33 140 -42 48 -9 99 -19 112 -23 16 -5 37 -31 63 -77 22 -38 62 -93 90 -121
27 -28 84 -71 125 -95 42 -23 110 -55 152 -70 42 -15 111 -33 153 -40 66 -11
91 -10 185 4 95 15 123 25 231 78 103 51 131 70 177 121 57 64 117 176 154
290 13 38 29 69 39 73 9 4 116 9 237 12 l220 5 35 -63 c19 -34 62 -90 95 -124
33 -34 80 -74 104 -90 56 -35 160 -71 242 -84 35 -6 119 -11 185 -11 95 0 142
5 216 24 52 13 117 35 144 49 72 37 162 110 205 167 21 28 50 76 65 107 25 55
26 61 20 168 -4 60 -10 128 -13 150 -3 22 -12 52 -19 66 -21 42 -80 87 -136
104 -28 8 -79 15 -112 15 -44 0 -76 -7 -116 -26 -30 -14 -63 -33 -72 -41 -21
-19 -24 -53 -5 -54 6 0 51 -1 98 -2 74 -2 92 -7 126 -29 22 -14 47 -41 56 -59
8 -18 13 -37 11 -41 -3 -4 -56 -8 -117 -8 -62 0 -183 -5 -269 -11 -87 -6 -173
-8 -193 -5 -24 5 -39 15 -49 34 -8 15 -30 44 -49 64 -49 52 -159 134 -226 167
-62 32 -193 74 -286 91 -33 7 -123 14 -200 16 -112 3 -157 0 -225 -15 -127
-29 -248 -69 -309 -103 -29 -16 -59 -34 -65 -39 -6 -5 -46 -36 -88 -69 -43
-33 -105 -95 -139 -138 -34 -42 -73 -101 -86 -129 -20 -44 -29 -53 -51 -54
-15 0 -36 -2 -47 -4 -11 -3 -110 -7 -220 -11 -110 -3 -218 -2 -240 3 l-40 9 3
50 c2 27 14 72 27 99 13 28 43 69 67 93 23 24 64 55 92 69 27 14 64 25 81 25
18 0 42 -5 53 -11 30 -16 72 -14 78 4 11 29 -6 81 -54 159 -26 42 -53 89 -61
103 -7 14 -32 45 -55 67 -32 32 -58 47 -116 65 -41 12 -115 25 -164 28 -73 5
-88 3 -84 -8z m1949 -412 c52 -18 108 -42 125 -53 16 -10 54 -37 84 -60 60
-45 101 -108 120 -186 l12 -47 342 5 c187 2 351 2 364 -2 14 -4 22 -14 22 -28
-1 -11 -6 -31 -13 -43 -22 -40 -91 -106 -151 -144 -32 -21 -95 -53 -140 -71
-73 -29 -91 -32 -186 -32 -63 0 -135 7 -180 17 -41 10 -106 34 -143 55 -38 21
-96 65 -128 98 -37 35 -71 83 -89 119 -15 33 -31 68 -34 78 -6 18 -21 18 -279
15 -198 -2 -278 -6 -294 -16 -16 -9 -23 -22 -23 -43 0 -44 -28 -145 -57 -206
-13 -29 -58 -89 -100 -133 -65 -69 -90 -88 -167 -125 -50 -24 -116 -49 -147
-55 -35 -8 -108 -11 -200 -8 -113 4 -156 9 -201 25 -32 12 -85 38 -119 58 -33
21 -85 63 -116 94 -60 62 -108 135 -98 151 4 6 127 10 356 10 l349 0 0 28 c1
37 38 124 83 195 21 33 59 82 85 109 26 28 75 70 108 94 34 24 86 55 115 69
62 28 158 52 262 65 40 5 133 7 207 5 124 -3 143 -6 231 -38z m1177 -77 c23
-38 27 -59 30 -142 4 -84 1 -103 -17 -142 -12 -24 -29 -47 -38 -50 -12 -5 -13
-2 -7 11 4 10 9 53 12 95 3 59 -2 101 -22 186 -14 59 -26 112 -26 117 0 16 42
-30 68 -75z"/>
<path d="M28155 9734 c-38 -9 -89 -24 -113 -36 -23 -11 -58 -39 -77 -62 -19
-24 -35 -46 -35 -49 0 -4 -22 -40 -49 -82 -27 -41 -55 -91 -61 -110 -16 -50
-10 -79 18 -83 13 -2 37 2 54 9 16 6 42 12 58 11 42 -1 121 -45 168 -94 24
-24 54 -65 67 -93 14 -28 26 -72 27 -99 l3 -50 -40 -9 c-22 -5 -128 -6 -235
-3 -107 4 -219 9 -247 13 -52 6 -53 7 -76 57 -13 28 -52 86 -85 128 -65 82
-169 171 -268 230 -69 41 -165 78 -284 109 -70 19 -113 23 -240 23 -89 1 -187
-5 -230 -13 -99 -18 -239 -64 -310 -102 -78 -41 -218 -155 -242 -196 l-20 -33
-314 0 c-294 0 -313 1 -307 18 14 38 45 71 86 91 34 16 63 21 130 21 79 0 87
2 87 19 0 22 -38 52 -102 81 -53 24 -144 26 -217 4 -33 -9 -69 -30 -96 -55
-36 -33 -46 -50 -54 -92 -5 -29 -13 -104 -16 -167 l-7 -115 41 -80 c22 -44 59
-100 83 -124 55 -56 174 -135 236 -155 119 -39 174 -46 337 -42 125 3 175 8
228 24 37 11 93 33 123 49 31 15 84 55 119 88 34 33 83 93 109 133 l46 72 162
-1 c90 0 194 -3 231 -8 42 -4 72 -13 77 -21 5 -8 20 -51 34 -95 27 -85 80
-183 134 -246 19 -22 53 -53 77 -69 76 -52 202 -110 272 -124 37 -8 100 -17
138 -21 47 -4 93 -2 141 9 38 8 100 26 136 39 37 13 101 44 143 68 42 24 98
65 124 91 26 26 65 79 86 119 22 39 49 75 60 79 11 4 43 11 70 14 79 11 136
27 190 54 28 14 82 57 121 96 55 55 76 85 93 131 13 33 27 84 32 114 11 58 4
121 -17 163 -22 43 -75 87 -128 104 -28 10 -64 14 -87 11 -21 -3 -59 -17 -84
-31 -28 -17 -52 -41 -65 -66 -11 -22 -20 -50 -20 -62 1 -41 38 -107 72 -128
40 -24 114 -27 146 -4 21 15 22 14 22 -13 0 -29 -21 -67 -50 -91 -8 -7 -47
-29 -86 -48 -48 -24 -90 -36 -136 -41 l-66 -6 -15 49 c-8 27 -25 82 -37 122
-19 66 -28 80 -87 137 -36 36 -75 67 -87 71 -11 4 -32 15 -45 25 -13 11 -38
19 -56 19 -18 0 -37 6 -43 13 -9 10 -4 28 17 73 16 32 41 73 57 91 16 18 54
44 85 58 31 14 96 35 145 47 110 26 144 38 144 49 0 14 -117 9 -195 -7z
m-1201 -394 c49 -11 113 -31 144 -45 30 -14 82 -45 116 -69 33 -24 82 -66 108
-94 26 -27 64 -76 85 -109 45 -71 82 -158 83 -195 l0 -28 353 -2 352 -3 -2
-23 c-2 -13 -27 -54 -57 -91 -56 -70 -132 -128 -229 -175 -28 -14 -76 -30
-106 -36 -82 -15 -287 -12 -356 5 -33 8 -96 33 -141 55 -64 31 -96 56 -155
117 -45 48 -85 101 -102 137 -31 65 -57 156 -57 197 0 15 -7 34 -15 43 -8 8
-39 17 -67 21 -29 3 -156 5 -282 3 l-228 -3 -17 -46 c-10 -25 -32 -66 -48 -90
-47 -68 -120 -135 -185 -169 -32 -18 -88 -40 -124 -50 -36 -10 -106 -22 -157
-26 -71 -5 -107 -3 -157 10 -36 9 -101 35 -146 56 -44 22 -103 59 -131 83 -28
23 -63 60 -77 82 -14 21 -26 49 -26 61 0 20 7 23 58 30 31 4 194 4 362 0 l305
-6 19 60 c10 33 30 79 45 102 38 60 162 144 270 181 47 16 102 34 121 38 19 5
107 6 195 4 108 -3 189 -11 249 -25z m-1664 -17 c0 -4 -12 -54 -26 -111 -21
-83 -25 -121 -22 -185 3 -45 8 -90 13 -101 6 -14 5 -18 -5 -14 -8 2 -25 24
-38 49 -21 40 -23 54 -20 144 3 72 9 110 22 135 32 61 76 108 76 83z"/>
<path d="M411 9463 c-19 -9 -47 -37 -62 -62 -16 -25 -29 -52 -29 -60 0 -38 23
-92 50 -120 16 -16 49 -35 72 -43 30 -10 55 -12 83 -6 21 5 50 19 64 31 13 12
32 41 43 64 10 23 19 58 20 78 1 26 -7 45 -29 73 -16 20 -41 43 -54 49 -34 18
-118 15 -158 -4z"/>
<path d="M28984 9461 c-17 -10 -41 -33 -53 -49 -12 -17 -21 -45 -21 -65 0 -20
8 -55 19 -79 10 -24 29 -53 42 -65 13 -12 42 -26 64 -31 22 -5 53 -5 69 -1 47
13 95 52 116 95 11 22 20 52 20 65 0 14 -14 46 -30 73 -19 30 -43 52 -65 62
-49 20 -124 18 -161 -5z"/>
<path d="M4450 9090 l0 -110 10330 0 10330 0 0 110 0 110 -10330 0 -10330 0 0
-110z"/>
<path d="M1240 8523 c0 -23 30 -56 161 -183 l162 -155 -2 -88 c-2 -79 0 -93
24 -133 17 -28 41 -52 68 -66 34 -18 59 -22 130 -23 88 0 89 0 118 33 16 18
29 38 29 45 0 7 -6 22 -14 32 -13 18 -15 18 -51 -10 -20 -17 -50 -38 -65 -48
-28 -17 -31 -18 -65 -1 -20 9 -43 28 -52 40 -9 15 -13 34 -9 49 4 14 26 45 49
70 38 39 49 45 85 45 34 0 42 4 42 18 0 29 -26 57 -70 77 -40 18 -44 18 -107
1 l-66 -17 -141 139 c-144 142 -209 202 -220 202 -3 0 -6 -12 -6 -27z"/>
<path d="M28138 8393 c-90 -87 -169 -164 -177 -171 -8 -8 -23 -11 -35 -7 -12
4 -40 12 -63 17 -36 10 -49 8 -83 -7 -44 -20 -70 -48 -70 -77 0 -14 8 -18 40
-18 29 0 48 -7 73 -29 18 -16 42 -45 52 -65 17 -31 17 -38 5 -61 -8 -15 -27
-33 -42 -41 -15 -8 -38 -14 -52 -14 -15 0 -44 16 -71 40 -25 22 -50 40 -55 40
-15 0 -32 -39 -25 -59 3 -10 17 -29 31 -42 23 -22 34 -24 112 -23 69 0 96 5
129 22 27 14 51 38 68 65 22 38 25 55 25 134 l0 91 160 154 c129 124 160 160
160 181 0 15 -4 27 -9 27 -6 0 -83 -71 -173 -157z"/>
<path d="M1990 8098 l0 -26 5528 -6 c3040 -3 8800 -9 12800 -12 l7272 -6 0 24
0 25 -5532 7 c-3043 3 -8803 9 -12800 12 l-7268 7 0 -25z"/>
<path d="M1895 8040 c3 -5 8 -10 11 -10 2 0 4 5 4 10 0 6 -5 10 -11 10 -5 0
-7 -4 -4 -10z"/>
<path d="M27640 8040 c0 -5 4 -10 9 -10 6 0 13 5 16 10 3 6 -1 10 -9 10 -9 0
-16 -4 -16 -10z"/>
<path d="M1693 4880 l0 -2900 22 0 22 0 6 917 c4 504 7 1396 7 1983 0 587 -3
1479 -7 1983 l-6 917 -22 0 -22 0 0 -2900z"/>
<path d="M27734 4880 l0 -2900 21 0 22 0 6 917 c4 504 7 1396 7 1983 0 587 -3
1479 -7 1983 l-6 917 -22 0 -21 0 0 -2900z"/>
<path d="M28800 4880 l0 -440 110 0 110 0 0 440 0 440 -110 0 -110 0 0 -440z"/>
<path d="M28680 4420 c-25 -3 -62 -16 -82 -28 -20 -13 -61 -49 -90 -81 -57
-61 -120 -176 -145 -264 -19 -71 -28 -296 -14 -372 6 -34 35 -108 66 -172 47
-95 66 -121 128 -180 40 -37 98 -83 129 -101 31 -17 62 -40 67 -50 6 -11 9
-108 8 -237 l-2 -218 -85 -22 c-47 -11 -110 -34 -140 -50 -30 -17 -85 -59
-121 -95 -36 -36 -78 -86 -93 -112 -15 -26 -43 -85 -62 -131 -32 -80 -35 -94
-45 -273 -9 -144 -9 -203 1 -255 12 -72 54 -169 112 -259 20 -31 67 -85 106
-122 50 -47 87 -72 123 -85 40 -14 55 -25 64 -48 7 -16 16 -57 19 -90 12 -109
28 -169 62 -240 19 -38 58 -97 88 -130 34 -39 74 -70 109 -88 43 -21 70 -27
119 -27 41 0 78 7 106 20 24 11 55 29 69 40 14 11 37 35 50 52 18 25 23 45 23
88 0 32 -5 70 -10 87 -17 48 -104 103 -163 103 -19 0 -49 -10 -68 -23 -19 -12
-44 -41 -56 -65 -18 -36 -19 -48 -10 -77 6 -19 7 -38 3 -42 -4 -4 -15 -3 -24
3 -50 32 -103 167 -105 271 l-2 66 74 13 c97 17 209 72 255 126 34 39 68 123
82 201 3 20 8 37 10 37 2 0 23 -14 47 -30 23 -17 61 -54 85 -81 23 -28 60 -88
82 -133 30 -60 43 -100 49 -156 5 -41 7 -147 4 -235 -3 -126 -11 -191 -35
-305 -18 -88 -32 -190 -35 -260 -4 -85 -1 -136 11 -194 9 -43 16 -89 16 -102
l0 -23 -42 16 c-31 12 -88 17 -203 20 -128 4 -185 1 -285 -16 -69 -11 -210
-29 -314 -41 -105 -11 -192 -22 -194 -25 -2 -2 -1 -9 3 -16 6 -9 38 -10 122
-5 63 4 149 13 191 21 120 23 278 43 387 50 86 6 118 3 225 -19 69 -14 138
-26 154 -26 25 0 28 3 22 22 -3 13 -16 75 -27 138 -17 90 -20 137 -15 215 3
55 20 172 37 260 24 122 32 197 36 317 4 126 2 173 -12 234 -26 116 -54 193
-87 242 -17 25 -48 62 -70 82 -41 41 -143 104 -222 139 -45 19 -76 27 -76 17
0 -2 11 -24 25 -47 14 -25 25 -60 25 -82 0 -62 -30 -152 -64 -190 -17 -19 -51
-45 -76 -57 -67 -34 -146 -59 -168 -53 -11 3 -23 16 -26 28 -3 13 -13 153 -21
311 -9 158 -17 290 -20 293 -7 13 10 27 58 51 67 31 190 124 260 196 32 32 82
95 112 139 55 83 84 147 126 275 22 69 24 91 24 270 0 173 -3 205 -23 280 -27
98 -81 230 -128 310 -33 57 -131 164 -197 217 l-38 30 12 69 c7 39 13 165 13
291 1 122 4 224 8 228 9 9 59 -18 83 -45 16 -18 21 -41 26 -131 3 -60 9 -112
13 -116 12 -12 40 12 71 62 27 43 30 57 30 124 -1 57 -7 89 -24 129 -13 28
-40 66 -59 84 -20 17 -55 39 -79 50 -30 13 -60 18 -98 16 -30 -2 -54 -7 -53
-13 2 -5 27 -20 57 -32 30 -12 64 -32 75 -43 l21 -21 -53 20 c-44 18 -76 21
-190 21 l-137 1 42 22 c42 22 52 40 23 42 -8 0 -35 -2 -60 -5z m115 -157 c-2
-16 -6 -171 -10 -345 -3 -175 -3 -340 1 -368 6 -48 8 -50 46 -60 26 -7 59 -30
96 -68 65 -64 110 -125 140 -192 36 -80 52 -153 64 -283 9 -99 9 -149 -1 -220
-13 -97 -54 -234 -95 -314 -13 -27 -44 -73 -69 -103 -25 -30 -76 -78 -114
-107 -66 -50 -125 -81 -227 -118 l-49 -18 6 -101 c19 -302 29 -596 23 -622 -7
-25 -9 -26 -17 -11 -6 9 -18 17 -29 17 -29 0 -125 85 -175 154 -25 35 -59 94
-75 130 -35 76 -58 168 -62 241 -2 54 17 259 33 341 5 27 22 77 38 110 15 32
51 87 79 120 27 34 73 78 102 99 28 20 78 46 110 56 33 10 98 24 145 31 l85
12 0 272 c0 150 -3 280 -6 289 -4 9 -44 34 -90 55 -97 45 -171 109 -240 210
-35 51 -52 91 -70 160 -13 51 -24 120 -24 154 0 34 9 95 20 136 12 41 41 117
66 168 33 66 58 102 88 126 67 54 113 74 178 75 34 1 36 -1 33 -26z"/>
<path d="M1705 1881 c-57 -15 -94 -41 -120 -86 -24 -39 -26 -53 -24 -132 l2
-88 -162 -155 c-131 -127 -161 -160 -161 -182 0 -16 3 -28 6 -28 11 0 76 60
220 202 l141 139 66 -17 c63 -17 67 -17 107 1 44 20 70 48 70 77 0 14 -8 18
-42 18 -36 0 -47 6 -85 45 -23 25 -45 56 -49 70 -4 15 0 34 9 49 9 12 32 31
52 40 34 17 37 16 65 -1 15 -10 45 -31 65 -48 36 -28 38 -28 51 -10 8 10 14
25 14 32 0 7 -13 27 -28 44 -26 29 -34 32 -98 35 -38 2 -82 0 -99 -5z"/>
<path d="M27703 1884 c-23 -5 -73 -57 -73 -75 0 -16 20 -49 30 -49 5 0 30 18
55 40 27 24 56 40 71 40 14 0 37 -6 52 -14 15 -8 34 -26 42 -41 12 -23 12 -30
-5 -61 -10 -20 -34 -49 -52 -65 -25 -22 -44 -29 -73 -29 -32 0 -40 -4 -40 -18
0 -29 26 -57 70 -77 34 -15 47 -17 83 -7 23 5 52 13 64 17 19 6 44 -15 165
-133 149 -145 211 -202 222 -202 3 0 6 12 6 27 0 21 -31 57 -160 181 l-160
154 0 91 c0 79 -3 96 -25 134 -16 27 -41 51 -65 63 -25 13 -66 22 -112 24 -40
3 -83 2 -95 0z"/>
<path d="M1895 1720 c-3 -5 -1 -10 4 -10 6 0 11 5 11 10 0 6 -2 10 -4 10 -3 0
-8 -4 -11 -10z"/>
<path d="M27640 1720 c0 -5 7 -10 16 -10 8 0 12 5 9 10 -3 6 -10 10 -16 10 -5
0 -9 -4 -9 -10z"/>
<path d="M13120 1699 c-3963 -3 -8088 -7 -9167 -8 l-1963 -1 0 -26 0 -27 7268
7 c3997 3 9757 9 12800 12 l5532 7 0 23 0 24 -3632 -2 c-1998 -1 -6875 -5
-10838 -9z"/>
<path d="M1835 1365 c-90 -20 -185 -57 -269 -105 -41 -23 -97 -66 -124 -94
-28 -28 -68 -82 -90 -121 -26 -46 -47 -72 -63 -77 -13 -4 -64 -14 -112 -23
-49 -9 -112 -27 -140 -42 -29 -14 -84 -58 -123 -97 -55 -55 -76 -85 -93 -131
-13 -33 -27 -84 -32 -114 -6 -29 -7 -72 -4 -95 4 -22 17 -58 28 -79 12 -21 41
-51 65 -67 24 -16 64 -32 89 -36 49 -7 100 5 150 35 35 22 73 86 73 123 0 13
-9 41 -19 64 -11 24 -33 50 -54 63 -19 12 -51 22 -69 23 -19 1 -49 -6 -66 -15
-32 -15 -32 -15 -32 9 0 14 7 38 15 53 8 16 37 43 65 60 27 17 77 40 110 51
32 11 79 20 103 20 39 0 46 -3 56 -27 6 -16 17 -55 25 -88 7 -33 21 -77 29
-98 9 -21 42 -63 73 -92 30 -30 80 -68 110 -85 29 -16 67 -30 83 -30 16 0 34
-7 41 -15 10 -12 5 -27 -24 -82 -20 -38 -53 -83 -74 -101 -26 -23 -64 -41
-132 -61 -52 -16 -122 -35 -154 -43 -33 -7 -62 -19 -64 -27 -4 -11 11 -13 84
-8 49 3 123 16 164 28 58 18 84 33 116 65 23 22 48 53 55 67 8 14 35 61 61
103 48 78 65 130 54 159 -6 18 -48 20 -78 4 -11 -6 -35 -11 -53 -11 -17 0 -54
11 -81 25 -28 14 -69 45 -92 69 -24 24 -54 66 -67 93 -13 28 -25 72 -27 99
l-3 50 40 9 c22 5 130 6 240 3 110 -4 209 -8 220 -11 11 -2 32 -4 47 -4 22 -1
31 -10 51 -53 13 -29 52 -88 86 -130 34 -43 96 -105 139 -138 42 -33 82 -64
88 -69 6 -5 36 -23 65 -39 61 -34 182 -74 309 -103 68 -15 113 -18 225 -15 77
2 167 9 200 16 93 17 224 59 286 91 67 33 177 115 226 167 19 20 41 49 49 64
10 19 25 29 49 34 20 3 106 1 193 -5 86 -6 207 -11 269 -11 61 0 114 -4 117
-8 2 -4 -3 -23 -11 -41 -9 -18 -34 -45 -56 -59 -34 -22 -52 -27 -126 -29 -47
-1 -92 -2 -98 -2 -19 -1 -16 -35 5 -54 9 -8 42 -27 72 -41 40 -19 72 -26 116
-26 33 0 84 7 112 15 56 17 115 62 136 104 7 14 16 44 19 66 3 22 9 90 13 150
6 107 5 113 -20 168 -15 31 -44 79 -65 107 -43 57 -133 130 -205 167 -27 14
-92 36 -144 49 -74 19 -121 24 -216 24 -66 0 -150 -5 -185 -11 -82 -13 -186
-49 -242 -84 -24 -16 -71 -56 -104 -90 -33 -34 -76 -90 -95 -124 l-35 -63
-220 5 c-121 3 -228 8 -237 12 -10 4 -26 35 -39 73 -37 114 -97 226 -154 290
-47 51 -74 69 -177 121 -102 50 -139 63 -217 76 -52 8 -113 15 -135 14 -23 -1
-68 -7 -101 -14z m273 -76 c26 -6 88 -31 138 -55 78 -37 102 -55 167 -124 42
-44 87 -104 100 -133 29 -61 57 -162 57 -206 0 -21 7 -34 23 -43 16 -10 96
-14 294 -16 258 -3 273 -3 279 15 3 10 19 45 34 78 18 36 52 84 89 119 32 33
90 77 128 98 37 21 102 45 143 55 45 10 117 17 180 17 95 0 113 -3 186 -32 45
-18 108 -50 140 -71 60 -38 129 -104 151 -144 7 -12 12 -32 13 -43 0 -14 -8
-24 -22 -28 -13 -4 -177 -4 -364 -2 l-342 5 -12 -47 c-19 -78 -60 -141 -120
-186 -30 -23 -71 -52 -90 -63 -19 -12 -78 -36 -130 -54 -94 -33 -98 -34 -260
-33 -113 0 -193 6 -253 18 -49 9 -113 26 -142 37 -29 11 -81 38 -115 60 -34
22 -87 63 -117 91 -30 29 -75 83 -100 121 -53 79 -92 169 -93 210 l0 27 -349
0 c-229 0 -352 4 -356 10 -10 16 37 88 94 147 52 54 135 113 199 141 21 8 60
21 87 28 63 16 301 18 363 3z m2243 -495 c18 -39 21 -58 17 -142 -3 -83 -7
-104 -30 -142 -26 -45 -68 -91 -68 -75 0 5 12 58 26 117 20 85 25 127 22 186
-3 42 -8 85 -12 95 -6 13 -5 16 7 11 9 -3 26 -26 38 -50z"/>
<path d="M27545 1373 c-16 -2 -63 -10 -103 -18 -74 -15 -199 -71 -277 -125
-24 -16 -58 -47 -77 -69 -54 -63 -107 -161 -134 -246 -14 -44 -29 -87 -34 -95
-5 -8 -35 -17 -77 -21 -37 -5 -141 -8 -231 -8 l-162 -1 -46 73 c-26 39 -75 99
-109 132 -35 33 -88 73 -119 88 -30 16 -86 38 -123 49 -53 16 -103 21 -228 24
-163 4 -218 -3 -337 -42 -62 -20 -181 -99 -236 -155 -24 -24 -61 -80 -83 -124
l-41 -80 7 -115 c3 -63 11 -138 16 -167 8 -42 18 -59 54 -92 27 -25 63 -46 96
-55 73 -22 164 -20 217 4 64 29 102 59 102 81 0 17 -8 19 -87 19 -67 0 -96 5
-130 21 -41 20 -72 53 -86 92 -6 16 13 17 307 17 l314 0 20 -33 c24 -41 164
-155 242 -196 71 -38 211 -84 310 -102 43 -8 141 -14 230 -13 127 0 170 4 240
23 119 31 215 68 284 109 99 59 203 148 268 230 33 42 72 100 85 128 23 50 24
51 76 57 28 4 140 9 247 13 107 3 213 2 235 -3 l40 -9 -3 -50 c-1 -27 -13 -71
-27 -99 -13 -27 -43 -69 -67 -93 -47 -49 -126 -93 -168 -94 -16 -1 -42 5 -58
11 -17 7 -41 11 -54 9 -28 -4 -34 -33 -18 -83 6 -19 34 -69 61 -110 27 -42 49
-78 49 -82 0 -3 16 -25 35 -49 19 -23 54 -51 77 -62 24 -12 78 -28 120 -36 84
-17 188 -21 188 -7 0 11 -34 23 -144 49 -49 12 -114 33 -145 47 -31 14 -69 40
-85 58 -16 18 -41 59 -57 91 -21 45 -26 63 -17 73 6 7 25 13 43 13 18 0 43 8
56 19 13 10 34 21 45 25 12 4 51 35 87 71 59 57 68 71 87 137 12 40 29 95 37
122 l15 49 66 -6 c46 -5 88 -17 136 -41 39 -19 78 -41 86 -48 29 -24 50 -62
50 -91 0 -27 -1 -28 -22 -13 -32 23 -106 20 -146 -4 -34 -21 -71 -87 -72 -128
0 -12 9 -40 20 -62 13 -25 37 -49 65 -66 25 -14 63 -28 84 -31 77 -10 178 44
215 115 21 42 28 105 17 163 -5 30 -19 81 -32 114 -17 46 -38 76 -93 131 -39
39 -93 82 -121 96 -54 27 -111 43 -190 54 -27 3 -59 10 -70 14 -11 4 -38 40
-60 79 -21 40 -60 93 -86 119 -26 26 -82 67 -124 91 -42 24 -106 55 -143 68
-36 13 -97 31 -135 39 -66 13 -108 15 -172 7z m256 -83 c113 -21 255 -111 335
-211 30 -37 55 -78 57 -91 l2 -23 -352 -3 -353 -2 0 -28 c-1 -37 -38 -124 -83
-195 -21 -33 -59 -82 -85 -109 -26 -28 -75 -70 -108 -94 -34 -24 -86 -55 -117
-69 -30 -14 -97 -35 -148 -46 -75 -17 -130 -22 -269 -23 -174 -1 -176 -1 -270
32 -120 42 -251 128 -290 189 -15 24 -36 70 -46 103 l-19 60 -305 -6 c-168 -4
-331 -4 -362 0 -51 7 -58 10 -58 30 0 12 12 40 26 61 14 22 49 59 77 82 28 24
87 61 131 83 45 21 110 47 146 56 50 13 86 15 157 10 51 -4 121 -16 157 -26
36 -10 92 -32 124 -50 65 -34 138 -101 185 -169 16 -24 38 -65 48 -90 l17 -46
228 -3 c126 -2 253 0 282 3 28 4 59 13 67 21 8 9 15 28 15 43 0 41 26 132 57
197 17 36 57 89 102 137 59 61 91 86 155 117 45 22 106 46 136 54 65 17 282
21 361 6z m-2547 -457 c-4 -10 -9 -55 -12 -100 -3 -65 1 -102 23 -188 14 -59
24 -109 21 -112 -7 -8 -41 33 -69 82 -19 35 -22 55 -22 150 0 98 3 114 23 148
13 20 28 37 34 37 6 0 7 -7 2 -17z"/>
<path d="M4450 670 l0 -110 10330 0 10330 0 0 110 0 110 -10330 0 -10330 0 0
-110z"/>
<path d="M470 592 c-8 -2 -34 -13 -57 -24 -23 -11 -51 -34 -62 -52 -11 -17
-23 -50 -26 -71 -5 -33 -1 -48 23 -86 17 -26 44 -52 65 -62 41 -20 122 -22
156 -4 13 6 38 29 54 49 22 28 30 47 29 73 -1 20 -10 55 -20 78 -11 23 -30 52
-43 64 -25 23 -93 43 -119 35z"/>
<path d="M29035 588 c-21 -5 -50 -19 -63 -31 -14 -12 -33 -41 -43 -65 -11 -24
-19 -60 -19 -79 0 -23 9 -48 26 -70 14 -18 38 -40 54 -48 16 -8 50 -15 75 -15
25 0 61 6 80 14 22 10 46 32 65 62 16 27 30 59 30 73 0 39 -37 104 -73 129
-19 12 -47 26 -63 31 -16 4 -47 4 -69 -1z"/>
</g>
</svg>
