<?xml version="1.0" standalone="no"?>
<!DOCTYPE svg PUBLIC "-//W3C//DTD SVG 20010904//EN"
 "http://www.w3.org/TR/2001/REC-SVG-20010904/DTD/svg10.dtd">
<svg version="1.0" xmlns="http://www.w3.org/2000/svg"
 width="2953.000000pt" height="768.000000pt" viewBox="0 0 2953.000000 768.000000"
 preserveAspectRatio="xMidYMid meet">
<metadata>
Created by potrace 1.16, written by Peter Selinger 2001-2019
</metadata>
<g transform="translate(0.000000,768.000000) scale(0.100000,-0.100000)"
fill="#000000" stroke="none">
<path d="M2870 7575 l0 -105 11894 0 11895 0 3 83 c2 45 2 92 0 105 l-3 22
-11895 0 -11894 0 0 -105z"/>
<path d="M2710 7667 c-3 -3 -41 -7 -85 -11 -133 -11 -234 -27 -358 -57 -128
-31 -266 -82 -362 -133 -148 -80 -223 -133 -306 -217 -48 -48 -108 -120 -134
-158 -25 -39 -69 -113 -96 -165 l-50 -94 -92 -7 c-126 -9 -1123 -2 -1134 8
-10 11 -21 669 -11 681 8 10 660 30 696 21 22 -5 22 -7 23 -198 1 -105 4 -259
8 -342 6 -141 7 -150 26 -150 17 0 21 9 28 59 10 69 -5 652 -17 663 -9 9 -745
8 -781 -1 -19 -5 -25 -15 -30 -49 -3 -23 -5 -198 -3 -389 2 -251 6 -350 15
-359 9 -9 157 -11 615 -7 520 4 607 7 633 20 23 12 45 46 94 139 67 130 119
214 128 205 3 -2 -18 -56 -46 -118 -28 -62 -60 -149 -71 -192 -27 -105 -27
-233 0 -318 11 -35 33 -85 50 -110 17 -26 48 -61 68 -79 20 -18 60 -43 90 -57
47 -21 64 -24 138 -20 75 4 88 8 121 34 20 17 46 43 57 58 28 37 28 101 -1
142 -12 16 -39 39 -60 50 -21 10 -40 20 -42 21 -2 2 4 12 13 22 10 11 29 22
42 25 39 10 97 -11 131 -46 30 -31 40 -60 42 -115 1 -15 7 -23 19 -23 12 0 29
18 47 53 46 85 102 163 167 233 59 63 95 91 104 81 3 -3 -10 -29 -29 -58 -19
-30 -53 -112 -76 -184 -23 -71 -54 -151 -69 -178 -15 -27 -61 -82 -104 -121
-43 -40 -101 -85 -130 -99 -45 -23 -66 -27 -139 -27 -46 0 -111 7 -144 15 -32
9 -81 28 -108 43 -27 14 -71 51 -98 81 -56 62 -120 181 -142 261 -13 46 -25
143 -27 223 0 9 -4 17 -10 17 -6 0 -10 -46 -10 -117 0 -104 4 -128 29 -201 17
-50 44 -100 66 -128 21 -25 63 -66 94 -91 31 -24 98 -65 150 -91 94 -47 94
-47 195 -46 86 0 111 4 171 28 50 20 86 44 128 85 33 31 77 83 99 116 22 32
55 89 73 125 18 36 54 120 81 188 28 72 61 138 80 160 18 21 63 54 100 73 57
28 80 34 143 37 55 2 81 -2 95 -12 18 -15 17 -16 -12 -41 -17 -14 -34 -39 -37
-56 -5 -22 -2 -36 10 -49 23 -26 65 -34 82 -17 9 9 17 45 20 95 5 65 3 86 -10
106 -12 17 -32 28 -72 37 -44 10 -69 10 -128 -1 -39 -7 -99 -21 -133 -31 -33
-10 -87 -36 -120 -57 -32 -22 -84 -63 -115 -93 -80 -76 -167 -184 -175 -215
l-7 -26 -36 36 c-20 19 -52 42 -72 50 -50 21 -118 22 -155 3 -46 -24 -94 -83
-94 -116 0 -15 3 -30 6 -33 3 -3 19 1 35 9 18 9 40 12 57 8 15 -4 33 -11 39
-17 19 -16 16 -69 -7 -105 -14 -23 -29 -34 -55 -39 -20 -3 -50 -4 -67 0 -17 3
-46 15 -64 27 -38 23 -95 114 -120 190 -13 40 -16 72 -11 147 7 99 21 166 51
236 21 51 113 170 179 233 29 27 75 66 102 85 60 43 175 101 265 135 102 39
329 81 495 93 82 6 160 13 173 16 22 4 23 8 20 97 l-3 92 -65 3 c-36 2 -68 1
-70 -1z"/>
<path d="M26688 7664 c-5 -4 -8 -47 -8 -95 0 -84 1 -89 23 -93 12 -3 91 -10
176 -16 167 -12 347 -45 468 -85 118 -40 276 -127 356 -198 39 -34 97 -95 130
-136 32 -41 70 -99 83 -129 13 -30 31 -90 40 -135 21 -105 15 -228 -15 -290
-42 -86 -81 -135 -125 -156 -23 -12 -57 -21 -75 -21 -64 0 -110 42 -111 102 0
29 6 41 25 54 24 16 41 15 103 -2 19 -6 22 -3 22 24 0 21 -11 44 -31 67 -18
20 -45 43 -60 51 -15 7 -47 14 -71 14 -71 0 -114 -17 -151 -60 l-34 -40 -36
58 c-20 33 -69 93 -109 134 -40 41 -101 95 -135 120 -35 26 -82 53 -105 61
-138 49 -236 64 -308 48 -25 -5 -53 -20 -62 -32 -13 -15 -18 -38 -17 -78 0
-31 3 -74 7 -96 6 -33 12 -41 33 -43 29 -3 79 31 79 55 0 25 -43 93 -58 93
-12 0 -11 4 4 21 17 18 28 20 94 17 56 -2 89 -10 130 -30 31 -15 74 -43 97
-63 34 -29 49 -54 83 -143 57 -144 125 -285 170 -352 21 -30 64 -80 97 -111
42 -41 77 -64 128 -84 59 -24 86 -28 171 -29 101 -1 101 -1 195 46 52 26 124
72 161 102 36 30 80 74 96 98 16 24 39 70 52 103 19 49 24 85 28 199 3 88 1
136 -5 133 -6 -4 -13 -48 -16 -99 -4 -51 -15 -120 -25 -153 -11 -33 -31 -85
-46 -115 -14 -30 -46 -81 -71 -113 -25 -31 -64 -71 -86 -87 -23 -16 -67 -39
-98 -52 -47 -18 -76 -22 -177 -23 l-122 0 -68 47 c-38 26 -92 69 -119 96 -28
27 -62 71 -77 98 -14 27 -47 112 -73 189 -26 76 -60 158 -76 181 -16 24 -29
45 -29 48 0 29 95 -54 170 -149 26 -33 67 -95 91 -137 52 -95 73 -102 82 -28
3 27 14 61 24 74 10 13 31 32 46 41 16 10 49 17 73 18 33 0 51 -5 66 -21 12
-12 20 -23 17 -24 -2 -2 -22 -13 -44 -24 -25 -13 -49 -38 -64 -63 -18 -32 -22
-50 -16 -77 4 -21 22 -53 46 -79 49 -53 102 -70 198 -63 49 4 82 13 121 34 28
15 70 49 92 74 23 25 55 74 72 110 30 62 31 70 31 195 0 109 -4 142 -24 205
-12 41 -43 119 -68 173 -25 54 -42 101 -39 104 7 8 74 -101 137 -224 46 -90
59 -108 89 -121 29 -12 131 -16 590 -21 305 -3 577 -5 603 -3 41 3 49 7 57 28
11 28 14 653 4 727 -4 28 -13 48 -22 52 -21 8 -741 16 -769 9 -16 -4 -23 -16
-27 -42 -9 -61 -16 -614 -8 -652 6 -26 13 -35 27 -35 17 0 20 8 23 50 1 28 6
183 10 345 l7 295 305 -3 c276 -3 399 -8 408 -17 6 -6 2 -588 -4 -636 l-6 -46
-61 -7 c-79 -8 -1026 -8 -1106 0 l-62 7 -46 91 c-25 50 -69 125 -99 167 -29
41 -82 106 -117 145 -61 65 -93 90 -227 176 -72 46 -114 67 -235 116 -181 74
-401 118 -690 138 -55 3 -103 3 -107 -2z"/>
<path d="M2890 6805 l0 -35 11875 0 11875 0 0 35 0 35 -11875 0 -11875 0 0
-35z"/>
<path d="M2580 6810 c-14 -3 -25 -12 -25 -20 0 -12 18 -15 90 -15 83 0 90 1
90 20 0 18 -7 20 -65 21 -36 0 -76 -2 -90 -6z"/>
<path d="M26794 6807 c-3 -9 -3 -21 1 -27 8 -13 154 -13 175 0 29 18 -7 33
-89 38 -67 4 -82 2 -87 -11z"/>
<path d="M1675 6800 c-44 -4 -55 -8 -41 -14 22 -11 624 -14 649 -4 10 5 15 12
12 18 -4 6 -106 9 -283 8 -152 -1 -304 -4 -337 -8z"/>
<path d="M27236 6801 c-4 -6 2 -15 16 -21 13 -5 152 -8 335 -6 172 1 316 6
320 9 3 4 3 10 -1 14 -4 4 -155 9 -335 11 -236 3 -330 1 -335 -7z"/>
<path d="M830 6715 c-6 -15 -13 -105 -17 -199 -5 -143 -3 -177 10 -208 9 -21
21 -38 27 -38 24 0 31 60 28 247 -3 165 -5 195 -20 209 -16 16 -18 16 -28 -11z"/>
<path d="M28669 6724 c-11 -13 -15 -62 -17 -208 -3 -197 4 -251 32 -240 8 3
19 19 25 36 12 35 13 191 2 321 -4 48 -12 92 -18 98 -7 7 -15 4 -24 -7z"/>
<path d="M28181 6286 c-25 -25 -42 -49 -38 -53 10 -9 90 72 86 86 -2 6 -24 -9
-48 -33z"/>
<path d="M1300 6311 c0 -11 71 -81 82 -81 4 0 8 4 8 8 0 10 -73 82 -83 82 -4
0 -7 -4 -7 -9z"/>
<path d="M889 6259 c-76 -10 -193 -49 -259 -87 -73 -41 -206 -148 -259 -210
-28 -31 -75 -95 -104 -142 -29 -47 -71 -128 -94 -180 -45 -103 -90 -239 -121
-365 -29 -113 -29 -118 -48 -396 l-6 -96 32 -7 c44 -8 152 -7 166 2 7 4 14 58
18 127 4 66 11 158 17 205 14 124 32 205 79 365 26 87 109 222 188 307 25 27
76 69 114 94 115 75 240 125 355 140 39 5 69 1 125 -16 40 -12 86 -31 103 -42
40 -27 81 -74 105 -120 24 -45 26 -124 4 -156 -21 -30 -71 -55 -98 -48 -13 3
-35 15 -50 27 -27 21 -28 24 -21 86 4 37 3 63 -3 63 -20 0 -78 -48 -106 -88
-25 -35 -30 -52 -30 -96 1 -34 9 -71 23 -100 12 -25 38 -59 57 -75 19 -17 34
-34 34 -38 0 -4 -24 -20 -53 -36 -29 -15 -76 -48 -105 -73 l-52 -46 -1 159 c0
228 -14 496 -26 517 -9 17 -11 17 -27 0 -16 -15 -17 -45 -14 -346 3 -298 5
-331 20 -342 16 -12 13 -19 -34 -91 -28 -43 -61 -107 -74 -144 -13 -36 -24
-85 -24 -109 0 -23 7 -58 15 -77 8 -21 25 -39 40 -45 15 -6 63 -10 108 -10 57
0 89 5 104 15 14 10 19 22 16 35 -8 29 -51 60 -84 60 -16 0 -30 6 -30 13 -1 6
-1 35 1 64 1 34 -4 60 -14 75 -9 12 -16 28 -16 35 0 29 87 73 249 128 92 31
195 71 227 89 39 21 78 56 115 99 31 36 71 95 89 129 32 59 34 70 38 179 3 89
0 129 -13 174 -21 72 -75 181 -111 224 -33 40 -134 112 -195 139 -26 12 -66
26 -90 31 -52 12 -186 12 -280 0z m286 -44 c45 -12 103 -33 129 -46 26 -12 71
-49 102 -81 31 -32 68 -85 85 -121 16 -35 36 -104 45 -153 9 -49 13 -110 10
-136 -10 -82 -57 -181 -121 -256 -39 -44 -134 -103 -206 -126 -128 -41 -260
-77 -270 -74 -7 2 10 22 37 45 67 56 169 120 202 128 15 3 41 16 57 29 l30 24
-45 12 c-82 21 -108 31 -135 51 -14 12 -32 34 -40 49 -8 16 -15 42 -15 59 0
16 5 42 11 58 l11 28 14 -31 c7 -17 27 -43 44 -58 26 -21 42 -26 86 -26 67 0
134 29 167 73 27 36 47 114 47 186 0 37 -9 67 -37 121 -21 41 -55 88 -79 109
-23 20 -67 49 -97 64 -117 57 -311 61 -460 9 -45 -16 -100 -36 -122 -46 l-40
-17 30 26 c86 75 255 124 414 122 35 0 101 -10 146 -22z m-340 -1393 c-10 -27
-24 1 -31 61 -5 44 -3 68 12 104 l19 48 3 -99 c1 -55 0 -106 -3 -114z"/>
<path d="M28355 6259 c-68 -17 -179 -78 -237 -129 -40 -36 -67 -72 -100 -138
-25 -49 -52 -116 -58 -148 -7 -35 -11 -101 -8 -164 4 -84 9 -114 28 -150 33
-66 104 -162 145 -198 19 -18 55 -42 78 -54 23 -12 122 -49 220 -84 97 -34
193 -74 212 -88 19 -15 35 -35 35 -45 0 -10 -7 -24 -16 -32 -12 -10 -15 -28
-12 -78 l3 -66 -37 -6 c-41 -6 -73 -30 -81 -59 -10 -37 8 -45 110 -48 66 -2
106 2 123 10 34 18 53 79 46 146 -4 29 -15 74 -25 101 -10 27 -40 81 -67 121
-44 66 -47 73 -33 93 11 18 15 84 17 336 2 173 1 325 -3 338 -4 16 -12 23 -23
21 -11 -2 -19 -17 -24 -43 -3 -22 -10 -174 -14 -337 l-7 -297 -51 45 c-28 24
-74 56 -103 71 -29 16 -53 32 -53 36 0 4 15 21 34 37 19 17 44 51 56 77 26 55
29 136 7 178 -8 17 -28 42 -44 56 -27 26 -65 49 -78 49 -4 0 -4 -25 0 -56 5
-41 3 -61 -8 -78 -9 -13 -29 -29 -46 -36 -25 -10 -37 -10 -61 0 -17 7 -40 24
-50 38 -14 17 -20 40 -20 77 0 43 6 62 39 113 41 63 86 96 171 128 25 9 76 16
115 17 53 0 93 -8 165 -32 52 -18 123 -48 157 -67 33 -18 84 -52 111 -74 57
-44 145 -149 190 -226 16 -28 42 -86 57 -130 32 -93 29 -82 59 -222 15 -69 30
-184 37 -295 7 -105 17 -185 23 -189 14 -9 122 -10 166 -2 l32 7 -6 111 c-10
173 -25 294 -47 381 -31 126 -88 293 -129 383 -56 119 -133 243 -193 308 -29
32 -92 88 -141 126 -49 38 -121 84 -160 102 -39 19 -100 41 -136 50 -78 20
-308 30 -365 15z m357 -48 c42 -11 96 -30 120 -42 51 -25 111 -69 105 -76 -3
-2 -23 5 -45 16 -78 40 -188 70 -278 77 -52 4 -119 2 -162 -5 -45 -7 -99 -25
-141 -45 -37 -19 -83 -52 -103 -74 -19 -21 -50 -69 -68 -106 -31 -63 -33 -70
-27 -146 4 -50 14 -94 27 -120 11 -22 39 -52 62 -67 32 -21 56 -28 108 -31 64
-4 69 -2 104 28 20 18 39 43 42 56 3 13 10 24 15 24 12 0 22 -66 15 -101 -3
-17 -16 -44 -27 -61 -12 -17 -41 -39 -63 -48 -23 -10 -60 -21 -83 -25 -24 -4
-45 -11 -48 -15 -7 -11 44 -47 80 -56 34 -8 190 -112 224 -148 19 -21 21 -26
8 -26 -8 0 -28 5 -44 11 -15 6 -77 24 -136 40 -59 16 -129 40 -156 53 -26 14
-70 42 -98 64 -68 54 -138 175 -153 265 -9 51 -9 83 0 139 7 40 21 99 32 132
11 33 33 79 49 103 32 46 120 126 165 149 16 9 69 26 119 40 76 21 105 24 186
19 52 -3 129 -14 171 -24z m14 -1249 c7 -35 0 -125 -11 -142 -4 -6 -10 -8 -15
-5 -6 3 -9 54 -9 113 0 95 2 105 15 88 7 -11 17 -35 20 -54z"/>
<path d="M1416 6188 c10 -13 45 -50 79 -84 61 -61 169 -188 238 -279 21 -27
49 -70 62 -96 13 -25 26 -63 30 -85 4 -21 9 -46 11 -55 2 -8 -12 -34 -31 -57
l-36 -41 24 -6 c14 -4 37 0 53 8 16 9 41 28 56 44 24 25 37 60 52 134 5 23 12
27 56 32 28 3 68 16 90 28 22 12 46 37 55 55 8 17 15 45 15 61 0 16 -6 38 -14
49 -14 18 -15 18 -25 -8 -5 -15 -25 -35 -42 -44 -24 -12 -49 -15 -93 -12 -42
4 -82 16 -126 38 -81 41 -271 181 -369 272 -40 37 -80 68 -89 68 -13 0 -12 -3
4 -22z"/>
<path d="M28034 6146 c-106 -99 -285 -230 -375 -276 -65 -32 -92 -40 -136 -40
-30 0 -67 7 -84 15 -16 9 -34 27 -40 42 -8 22 -12 23 -25 12 -12 -10 -15 -25
-11 -63 4 -41 11 -55 40 -82 36 -33 90 -54 139 -54 23 0 28 -5 34 -37 4 -21
15 -56 24 -79 28 -65 103 -117 146 -100 13 5 10 13 -20 46 -20 22 -36 43 -36
48 1 12 27 116 35 137 21 55 212 292 323 400 66 65 86 95 63 95 -4 0 -39 -29
-77 -64z"/>
<path d="M2060 5589 c0 -17 32 -54 90 -103 30 -25 62 -46 72 -46 27 0 22 33
-9 65 -35 35 -124 95 -140 95 -7 0 -13 -5 -13 -11z"/>
<path d="M27396 5566 c-27 -19 -62 -46 -78 -61 -31 -30 -38 -65 -11 -65 20 0
74 41 125 94 38 41 48 66 26 66 -7 -1 -35 -16 -62 -34z"/>
<path d="M0 3840 l0 -900 105 0 105 0 0 900 0 900 -105 0 -105 0 0 -900z"/>
<path d="M840 3840 l0 -900 35 0 35 0 0 900 0 900 -35 0 -35 0 0 -900z"/>
<path d="M28620 3840 l0 -900 35 0 35 0 0 900 0 900 -35 0 -35 0 0 -900z"/>
<path d="M29320 3840 l0 -900 105 0 105 0 0 900 0 900 -105 0 -105 0 0 -900z"/>
<path d="M21 2903 c-23 -5 -23 -5 -17 -101 19 -279 19 -284 48 -397 31 -126
76 -262 121 -365 23 -52 65 -133 94 -180 29 -47 76 -111 104 -142 53 -62 186
-169 259 -210 71 -41 182 -76 272 -88 103 -13 210 -13 267 1 24 5 64 19 90 31
61 27 162 99 195 139 36 43 90 152 111 224 13 45 16 85 13 174 -4 109 -6 120
-38 179 -18 34 -58 93 -89 129 -37 43 -76 78 -115 99 -32 18 -135 58 -227 89
-162 55 -249 99 -249 128 0 7 7 23 16 35 10 15 15 41 14 75 -2 29 -2 58 -1 65
0 6 14 12 30 12 33 0 76 31 84 60 3 13 -2 25 -16 35 -15 10 -47 15 -104 15
-45 0 -93 -4 -108 -10 -15 -6 -32 -24 -40 -45 -8 -19 -15 -54 -15 -77 0 -24
11 -73 24 -109 13 -37 46 -101 74 -144 47 -72 50 -79 34 -91 -15 -11 -17 -44
-20 -342 -3 -301 -2 -331 14 -346 16 -17 18 -17 27 0 12 21 26 289 26 517 l1
159 52 -46 c29 -25 76 -58 105 -73 29 -16 53 -32 53 -36 0 -4 -15 -21 -34 -38
-19 -16 -45 -50 -57 -75 -14 -29 -22 -66 -23 -100 0 -44 5 -61 30 -96 28 -40
86 -88 106 -88 6 0 7 26 3 63 -7 62 -6 65 21 86 15 12 37 24 50 27 27 7 77
-18 98 -48 22 -32 20 -111 -4 -156 -24 -46 -65 -93 -105 -120 -17 -11 -63 -30
-103 -42 -56 -17 -86 -21 -125 -16 -115 15 -240 65 -355 140 -38 25 -89 67
-114 94 -79 85 -162 220 -188 307 -47 160 -65 241 -79 365 -6 47 -13 139 -17
205 -4 69 -11 123 -18 127 -12 8 -134 8 -175 1z m818 -151 l-1 -107 -19 40
c-16 31 -19 53 -15 103 3 35 8 67 11 73 4 5 11 7 16 4 5 -4 9 -54 8 -113z
m208 -316 c43 -13 105 -32 138 -41 33 -9 91 -33 129 -53 37 -21 86 -57 107
-81 66 -74 115 -175 125 -259 3 -26 -1 -87 -10 -136 -9 -49 -29 -118 -45 -153
-17 -36 -54 -89 -85 -121 -31 -32 -76 -69 -102 -81 -26 -13 -85 -34 -133 -47
-70 -19 -104 -22 -181 -19 -52 2 -129 13 -172 24 -84 22 -157 56 -203 96 l-30
26 40 -17 c22 -10 77 -30 122 -46 99 -34 226 -45 332 -29 40 6 98 24 128 38
30 15 74 44 97 64 24 21 58 68 79 109 28 54 37 84 37 121 0 72 -20 150 -47
186 -33 44 -100 73 -167 73 -44 0 -60 -5 -86 -26 -17 -15 -37 -41 -44 -58
l-14 -31 -11 28 c-6 16 -11 42 -11 58 0 17 7 43 15 59 8 15 26 37 40 49 27 20
53 30 135 51 l45 12 -30 24 c-16 13 -42 26 -57 29 -33 8 -157 88 -213 138 -28
25 -35 36 -23 37 9 0 52 -11 95 -24z"/>
<path d="M28550 2903 c-8 -3 -18 -10 -21 -16 -10 -14 1 -44 22 -63 10 -9 36
-20 57 -23 l37 -6 -3 -66 c-3 -50 0 -68 12 -78 9 -8 16 -22 16 -32 0 -10 -16
-30 -35 -45 -19 -14 -115 -54 -212 -88 -98 -35 -197 -72 -220 -84 -23 -12 -59
-36 -78 -54 -41 -36 -112 -132 -145 -198 -19 -36 -24 -66 -28 -150 -3 -63 1
-129 8 -164 6 -32 33 -99 58 -148 33 -66 60 -102 100 -138 30 -27 87 -65 126
-84 39 -19 96 -40 126 -47 69 -15 261 -6 350 17 36 9 97 31 136 50 39 18 111
64 160 102 49 38 112 94 141 126 60 65 137 189 193 308 41 90 98 257 129 383
22 87 37 208 47 381 l6 111 -32 7 c-44 8 -152 7 -166 -2 -6 -4 -16 -84 -23
-189 -7 -111 -22 -226 -37 -295 -30 -140 -27 -129 -59 -222 -15 -44 -41 -102
-57 -130 -45 -77 -133 -182 -190 -226 -27 -22 -78 -56 -111 -74 -34 -19 -105
-49 -157 -67 -72 -24 -112 -32 -165 -32 -39 1 -90 8 -115 17 -85 32 -130 65
-171 128 -33 51 -39 70 -39 113 0 37 6 60 20 77 10 14 33 31 50 38 24 10 36
10 61 0 17 -7 37 -23 46 -36 11 -17 13 -37 8 -78 -4 -31 -4 -56 -1 -56 4 0 19
6 34 14 32 17 74 61 92 95 20 38 15 121 -10 174 -12 26 -37 60 -56 77 -19 16
-34 33 -34 37 0 4 24 20 53 36 29 15 75 47 103 71 l51 45 7 -297 c4 -163 11
-315 14 -337 5 -26 13 -41 24 -43 11 -2 19 5 23 21 4 13 5 165 3 338 -2 252
-6 318 -17 336 -14 20 -11 27 33 93 27 40 57 94 67 121 10 27 21 72 25 101 7
67 -12 128 -46 145 -15 7 -60 12 -110 12 -47 0 -92 -3 -100 -6z m177 -100 c3
-28 3 -67 -1 -85 -3 -19 -13 -43 -20 -54 -13 -17 -15 -7 -15 85 0 57 2 108 5
113 11 18 24 -8 31 -59z m-158 -369 c-34 -36 -190 -140 -224 -148 -36 -9 -87
-45 -80 -56 3 -4 24 -11 48 -15 23 -4 60 -15 83 -25 22 -9 51 -31 63 -48 11
-17 24 -44 27 -61 7 -35 -3 -101 -15 -101 -5 0 -12 11 -15 24 -3 13 -22 38
-42 56 -35 30 -40 32 -104 28 -52 -3 -76 -10 -108 -31 -23 -15 -51 -45 -62
-67 -13 -26 -23 -70 -27 -120 -6 -76 -4 -83 27 -146 18 -37 49 -85 68 -106 20
-22 66 -55 103 -74 42 -20 96 -38 141 -45 43 -7 110 -9 162 -5 90 7 200 37
278 77 22 11 42 18 45 16 6 -7 -54 -51 -105 -76 -64 -33 -182 -60 -286 -67
-78 -5 -105 -2 -186 19 -52 14 -108 32 -124 41 -45 23 -133 103 -165 149 -16
24 -38 70 -49 103 -11 33 -25 92 -32 132 -9 56 -9 88 0 139 15 90 85 211 153
265 28 22 72 50 98 64 27 13 97 37 156 53 59 16 119 34 133 40 14 5 34 10 44
10 18 1 17 -1 -5 -25z"/>
<path d="M2150 2194 c-58 -49 -90 -86 -90 -103 0 -6 6 -11 13 -11 16 0 105 60
140 95 31 32 36 65 9 65 -10 0 -42 -21 -72 -46z"/>
<path d="M27290 2221 c0 -10 12 -30 26 -44 32 -32 128 -97 143 -97 21 0 11 26
-27 66 -51 53 -105 94 -125 94 -10 0 -17 -8 -17 -19z"/>
<path d="M1782 2191 c-10 -6 -10 -10 3 -21 9 -7 24 -25 35 -39 16 -23 17 -34
8 -81 -5 -29 -20 -74 -33 -99 -13 -25 -41 -69 -62 -96 -69 -91 -177 -218 -238
-279 -34 -34 -69 -71 -79 -83 -16 -20 -17 -23 -4 -23 9 0 49 31 89 68 98 91
288 231 369 272 44 22 84 34 126 38 44 3 69 0 93 -12 17 -9 37 -29 42 -44 10
-26 11 -26 25 -8 8 11 14 33 14 49 0 16 -7 44 -15 61 -9 18 -33 43 -55 55 -22
12 -62 25 -90 28 -44 5 -51 9 -56 32 -15 74 -28 109 -52 134 -29 31 -73 57
-94 57 -7 0 -19 -4 -26 -9z"/>
<path d="M27685 2188 c-38 -21 -67 -53 -85 -93 -9 -22 -20 -57 -24 -77 -6 -33
-11 -38 -34 -38 -49 0 -103 -21 -139 -54 -29 -27 -36 -41 -40 -82 -4 -38 -1
-53 11 -63 13 -11 17 -10 25 12 6 15 24 33 40 42 17 8 54 15 84 15 44 0 71 -8
136 -40 90 -46 269 -177 375 -276 38 -35 73 -64 77 -64 23 0 3 30 -63 95 -75
73 -218 242 -280 330 -19 28 -40 64 -45 80 -6 17 -16 51 -22 78 -7 30 -8 54
-2 65 5 9 21 28 35 41 14 13 23 28 20 32 -7 12 -45 11 -69 -3z"/>
<path d="M1725 1607 c-64 -21 -175 -83 -236 -131 -31 -24 -73 -65 -94 -90 -22
-28 -49 -78 -66 -128 -25 -73 -29 -97 -29 -200 0 -72 4 -118 10 -118 6 0 10 8
10 18 2 79 14 176 27 222 22 80 86 199 142 261 27 30 71 67 98 81 27 15 76 34
108 43 33 8 98 15 144 15 73 0 94 -4 139 -27 29 -14 87 -59 130 -99 43 -39 89
-94 104 -121 15 -27 46 -107 69 -178 23 -72 57 -154 76 -184 19 -29 32 -55 29
-58 -9 -10 -45 18 -104 81 -65 70 -121 148 -167 234 -18 34 -35 52 -47 52 -12
0 -18 -8 -19 -22 -2 -56 -12 -85 -42 -116 -34 -35 -92 -56 -131 -46 -13 3 -32
14 -42 25 -9 10 -15 20 -13 22 2 1 21 11 42 21 21 11 48 34 60 50 29 41 29
105 1 142 -11 15 -37 41 -57 58 -33 26 -46 30 -121 34 -74 4 -91 1 -138 -20
-30 -14 -70 -39 -90 -57 -20 -18 -51 -53 -68 -79 -17 -25 -39 -75 -50 -110
-27 -85 -27 -213 0 -318 11 -43 43 -130 71 -192 28 -62 49 -116 46 -118 -9 -9
-61 75 -128 205 -49 93 -71 127 -94 139 -26 13 -113 16 -633 20 -458 4 -606 2
-615 -7 -9 -9 -13 -108 -15 -359 -2 -191 0 -366 3 -389 5 -34 11 -44 30 -49
36 -9 772 -10 781 -1 12 11 27 594 17 663 -7 50 -11 59 -28 59 -19 0 -20 -9
-26 -150 -4 -82 -7 -237 -8 -342 -1 -191 -1 -193 -23 -198 -36 -9 -688 11
-696 21 -10 12 1 670 11 681 11 10 1008 17 1134 8 l92 -7 50 -94 c27 -52 71
-126 96 -165 26 -38 86 -110 134 -158 83 -84 158 -137 306 -217 96 -51 234
-102 362 -133 165 -40 363 -66 508 -66 l70 0 3 92 c3 89 2 93 -20 97 -13 3
-91 10 -173 16 -166 12 -393 54 -495 93 -90 34 -205 92 -265 135 -27 19 -73
58 -102 85 -66 63 -158 182 -179 233 -30 70 -44 137 -51 236 -5 75 -2 107 11
147 25 76 82 167 120 190 18 12 47 24 64 27 17 4 47 3 67 0 26 -5 41 -16 55
-39 23 -36 26 -89 7 -105 -6 -6 -24 -13 -39 -17 -17 -4 -39 -1 -57 8 -16 8
-32 12 -35 9 -3 -3 -6 -18 -6 -33 0 -33 48 -92 94 -116 37 -19 105 -18 155 3
20 8 52 31 72 50 l36 36 7 -26 c8 -31 95 -139 175 -215 31 -30 83 -71 115 -93
33 -21 87 -47 120 -57 34 -10 94 -24 133 -31 59 -11 84 -11 128 -1 40 9 60 20
72 37 13 20 15 41 10 106 -3 50 -11 86 -20 95 -17 17 -59 9 -82 -17 -12 -13
-15 -27 -10 -49 3 -17 20 -42 37 -56 29 -25 30 -26 12 -41 -14 -10 -40 -14
-95 -12 -63 3 -86 9 -143 37 -37 19 -82 52 -100 73 -19 22 -52 88 -80 160 -27
68 -63 152 -81 188 -18 36 -51 93 -73 125 -22 33 -66 85 -99 116 -42 41 -77
64 -126 84 -50 19 -93 28 -155 31 -57 3 -101 -1 -127 -9z"/>
<path d="M27609 1611 c-81 -15 -152 -52 -212 -110 -33 -31 -76 -81 -97 -111
-45 -67 -113 -208 -170 -352 -34 -89 -49 -114 -83 -143 -23 -20 -66 -48 -97
-63 -41 -20 -74 -28 -130 -30 -66 -3 -77 -1 -94 17 -15 17 -16 21 -4 21 15 0
58 68 58 93 0 24 -50 58 -79 55 -21 -2 -27 -10 -33 -43 -4 -22 -7 -65 -7 -96
-1 -40 4 -63 17 -78 9 -12 37 -27 62 -32 72 -16 170 -1 308 48 23 8 70 35 105
61 34 25 95 79 135 120 40 41 89 101 109 134 l36 58 34 -40 c37 -43 80 -60
151 -60 24 0 56 7 71 14 15 8 42 31 60 51 20 23 31 46 31 67 0 27 -3 30 -22
24 -62 -17 -79 -18 -103 -2 -19 13 -25 25 -25 54 0 39 21 73 57 91 12 6 36 11
54 11 18 0 52 -9 75 -21 44 -21 83 -70 125 -156 30 -62 36 -185 15 -290 -9
-45 -27 -105 -40 -135 -13 -30 -51 -88 -83 -129 -33 -41 -91 -102 -130 -136
-80 -71 -238 -158 -356 -198 -121 -40 -301 -73 -468 -85 -85 -6 -164 -13 -177
-16 -22 -4 -23 -8 -20 -97 l3 -92 97 2 c148 4 345 29 481 63 113 28 266 84
362 133 40 20 102 58 204 126 29 20 83 67 118 105 35 39 88 104 117 145 30 42
74 117 99 167 l46 91 62 7 c80 8 1027 8 1106 0 l61 -7 6 -46 c6 -48 10 -630 4
-636 -9 -9 -132 -14 -408 -17 l-305 -3 -7 295 c-4 162 -9 318 -10 345 -3 42
-6 50 -23 50 -14 0 -21 -9 -27 -35 -8 -38 -1 -591 8 -652 4 -26 11 -38 27 -42
28 -7 748 1 769 9 9 4 18 24 22 52 10 74 7 699 -4 727 -8 21 -16 25 -57 28
-26 2 -298 0 -603 -3 -459 -5 -561 -9 -590 -21 -30 -13 -43 -31 -89 -121 -63
-123 -130 -232 -137 -224 -3 3 14 50 39 104 25 54 56 132 68 173 20 63 24 96
24 205 0 125 -1 133 -31 195 -17 36 -49 85 -72 110 -22 25 -64 59 -92 74 -39
21 -72 30 -121 34 -96 7 -149 -10 -198 -63 -24 -26 -42 -58 -46 -79 -6 -27 -2
-45 16 -77 15 -25 39 -50 64 -63 22 -11 42 -22 44 -24 3 -1 -5 -12 -17 -24
-15 -16 -33 -21 -66 -21 -24 1 -57 8 -73 18 -15 9 -36 28 -46 41 -10 13 -21
47 -24 74 -9 74 -30 67 -82 -27 -24 -43 -65 -105 -91 -138 -54 -68 -144 -155
-160 -155 -5 0 -10 3 -10 6 0 3 13 24 29 48 16 23 50 105 76 181 26 77 59 162
73 189 15 27 49 71 77 98 27 27 81 70 119 96 l68 47 122 0 c101 -1 130 -5 177
-23 31 -13 75 -36 98 -52 22 -16 61 -56 86 -87 25 -32 57 -83 71 -113 15 -30
35 -82 46 -115 10 -33 21 -102 25 -153 3 -51 10 -95 16 -99 6 -3 8 45 5 133
-4 114 -9 150 -28 199 -13 33 -36 79 -52 103 -16 24 -60 68 -96 98 -37 30
-108 76 -159 101 -80 40 -101 46 -165 49 -40 1 -94 -1 -119 -5z"/>
<path d="M1337 1414 c-36 -35 -46 -54 -29 -54 10 0 82 73 82 83 0 15 -17 6
-53 -29z"/>
<path d="M28140 1442 c0 -4 20 -28 45 -52 27 -27 45 -38 45 -29 0 8 -17 32
-38 52 -37 36 -52 45 -52 29z"/>
<path d="M823 1373 c-13 -32 -15 -66 -10 -209 4 -94 11 -184 17 -199 10 -27
12 -27 28 -11 15 14 17 44 20 209 3 187 -4 247 -28 247 -6 0 -18 -17 -27 -37z"/>
<path d="M28659 1383 c-6 -16 -9 -105 -7 -220 3 -165 5 -195 20 -209 16 -16
18 -16 27 10 6 15 14 102 17 194 5 119 4 178 -5 204 -7 20 -19 39 -27 42 -10
4 -18 -4 -25 -21z"/>
<path d="M1725 903 c-44 -2 -87 -6 -95 -10 -28 -13 114 -21 387 -22 158 -1
274 3 278 8 3 5 0 13 -7 18 -13 8 -415 13 -563 6z"/>
<path d="M2555 900 c-4 -7 -2 -17 3 -22 6 -6 48 -11 94 -12 77 -1 83 1 83 19
0 18 -8 20 -87 23 -56 2 -89 -1 -93 -8z"/>
<path d="M2890 875 l0 -35 11875 0 11875 0 0 35 0 35 -11875 0 -11875 0 0 -35z"/>
<path d="M26794 895 c-12 -30 7 -38 88 -33 81 5 116 20 88 38 -8 5 -50 10 -93
10 -59 0 -79 -4 -83 -15z"/>
<path d="M27251 899 c-18 -7 -21 -13 -13 -21 7 -7 109 -9 336 -6 179 2 328 7
332 11 4 4 4 10 1 14 -4 3 -148 8 -320 9 -191 2 -321 -1 -336 -7z"/>
<path d="M2870 105 l0 -105 11894 0 11895 0 3 22 c2 13 2 60 0 106 l-3 82
-11895 0 -11894 0 0 -105z"/>
</g>
</svg>
