<?xml version="1.0" standalone="no"?>
<!DOCTYPE svg PUBLIC "-//W3C//DTD SVG 20010904//EN"
 "http://www.w3.org/TR/2001/REC-SVG-20010904/DTD/svg10.dtd">
<svg version="1.0" xmlns="http://www.w3.org/2000/svg"
 width="2953.000000pt" height="968.000000pt" viewBox="0 0 2953.000000 968.000000"
 preserveAspectRatio="xMidYMid meet">
<metadata>
Created by potrace 1.16, written by Peter Selinger 2001-2019
</metadata>
<g transform="translate(0.000000,968.000000) scale(0.100000,-0.100000)"
fill="#000000" stroke="#000000" stroke-width="80" stroke-linejoin="round">
<path d="M2852 9654 c-33 -22 -74 -110 -74 -158 -1 -23 6 -55 15 -72 26 -51
100 -120 194 -181 l88 -58 -136 -6 c-75 -4 -149 -9 -165 -13 -16 -3 -51 -8
-79 -12 -60 -7 -142 -27 -250 -60 -219 -68 -477 -171 -532 -211 -18 -13 -33
-19 -33 -13 0 6 7 33 16 61 9 27 13 56 10 66 -6 14 -14 9 -52 -29 -44 -45 -45
-46 -127 -53 -49 -4 -97 -14 -120 -26 -21 -10 -39 -19 -41 -19 -2 0 -9 13 -16
29 -6 17 -9 35 -4 42 4 8 3 10 -4 5 -7 -4 -12 -2 -12 3 0 19 -53 12 -107 -14
-62 -28 -71 -51 -17 -41 19 4 41 9 49 12 19 7 49 -77 42 -116 -4 -16 -2 -30 3
-30 5 0 19 14 31 31 12 17 38 38 58 46 20 9 82 18 139 21 86 4 102 3 102 -10
0 -21 -95 -176 -122 -200 -13 -11 -35 -26 -50 -34 -15 -8 -56 -18 -92 -23 -66
-9 -86 -16 -86 -29 0 -4 28 -13 62 -19 33 -7 68 -19 76 -27 13 -13 13 -18 -3
-42 -33 -51 -98 -106 -157 -134 -33 -16 -83 -31 -111 -35 -29 -4 -55 -9 -59
-12 -10 -6 13 -50 57 -107 19 -25 31 -46 27 -46 -14 0 -68 63 -116 135 -26 39
-55 99 -66 135 -10 36 -28 117 -40 180 -25 134 -59 252 -106 367 -35 85 -79
172 -94 187 -4 4 -13 5 -19 2 -7 -5 0 -26 19 -60 25 -44 54 -116 76 -186 3 -8
18 -76 34 -150 31 -146 45 -196 83 -307 l26 -73 -23 0 c-39 0 -179 -40 -241
-69 -33 -15 -71 -38 -85 -50 l-25 -22 25 4 c14 3 66 20 115 38 75 27 105 32
180 33 85 1 90 0 93 -21 5 -33 -41 -114 -90 -159 -48 -44 -140 -92 -194 -101
-26 -4 -35 -2 -40 12 -4 9 1 42 10 72 10 30 15 57 12 60 -2 3 -20 -12 -38 -32
-18 -21 -47 -44 -65 -51 -38 -16 -121 -18 -157 -4 -20 7 -26 17 -26 38 0 31
56 131 97 174 16 16 52 35 94 48 38 11 69 25 69 30 0 5 -12 12 -27 15 -58 12
-75 21 -91 48 -17 28 -16 29 13 53 36 29 113 59 178 68 30 5 47 12 47 21 0 7
-27 30 -60 50 -33 20 -75 55 -94 78 -34 41 -122 195 -115 201 2 1 24 8 47 15
24 7 60 12 80 11 21 -1 41 -2 45 -1 5 1 -10 22 -33 49 -23 26 -49 60 -57 75
-20 39 -39 147 -42 235 -2 50 1 72 9 72 21 0 113 -50 167 -91 55 -41 100 -100
127 -163 9 -21 16 -51 16 -67 0 -24 4 -29 23 -29 16 0 31 12 48 37 27 41 76
64 90 42 20 -32 31 -128 26 -216 -4 -76 -3 -93 9 -93 23 0 45 58 46 118 0 60
-6 106 -22 157 -5 17 -14 49 -20 73 -7 27 -16 42 -27 42 -8 0 -40 -14 -71 -32
-53 -30 -56 -30 -68 -13 -8 11 -14 26 -14 36 0 9 6 21 13 26 28 23 168 93 253
126 49 20 128 46 174 57 65 16 133 22 285 27 226 7 329 -4 434 -44 36 -13 87
-31 112 -39 26 -8 55 -24 64 -34 10 -11 23 -20 29 -20 6 0 34 -17 61 -38 55
-42 85 -56 85 -42 0 19 -66 72 -145 116 -122 69 -214 111 -280 128 -90 23
-280 39 -370 31 -44 -4 -114 -13 -155 -20 -41 -8 -86 -16 -100 -19 -61 -10
-161 -40 -238 -71 -88 -36 -207 -99 -217 -115 -10 -17 -41 -11 -61 12 -27 30
-136 99 -219 138 -106 50 -197 79 -283 91 -91 13 -226 6 -274 -14 -19 -8 -60
-39 -92 -68 -51 -48 -59 -59 -63 -101 -4 -31 -1 -53 7 -63 7 -8 19 -15 26 -15
15 0 25 20 43 88 7 23 25 58 42 76 16 19 46 42 66 51 49 24 172 25 238 2 28
-9 67 -30 87 -47 19 -16 45 -49 56 -72 18 -39 27 -71 63 -231 l11 -48 -46 -49
c-25 -27 -46 -54 -46 -60 0 -5 -6 -10 -14 -10 -17 0 -114 -117 -190 -228 -61
-91 -117 -197 -160 -305 -42 -106 -74 -277 -82 -433 -9 -189 8 -353 47 -467
38 -111 92 -228 130 -284 18 -26 38 -43 50 -43 18 0 16 7 -20 73 -54 98 -105
227 -132 334 -18 73 -22 117 -23 263 -1 96 2 202 7 235 10 83 40 205 72 295
37 103 106 239 170 335 30 44 79 104 109 134 47 46 57 52 70 41 9 -7 16 -16
16 -21 0 -4 14 -37 31 -73 17 -35 50 -87 75 -116 24 -28 44 -58 44 -65 0 -8
-17 -19 -38 -25 -22 -5 -54 -21 -73 -35 -19 -13 -47 -32 -64 -41 -16 -9 -33
-22 -37 -28 -4 -6 10 -29 32 -51 l40 -41 -41 -39 c-90 -87 -127 -191 -136
-374 -5 -104 -4 -123 8 -119 9 3 17 27 21 63 4 31 12 63 18 70 19 23 74 43
137 50 53 6 66 4 97 -14 21 -13 52 -22 80 -23 26 0 49 -4 51 -9 3 -4 -11 -11
-32 -15 -22 -4 -52 -20 -71 -38 -74 -69 -162 -235 -275 -521 -41 -104 -84
-221 -96 -260 -32 -110 -50 -209 -57 -303 -3 -48 -7 -98 -10 -111 -5 -22 -9
-20 -67 36 -34 33 -76 67 -94 76 -18 10 -46 17 -63 17 -17 0 -51 -5 -75 -11
-31 -8 -56 -24 -80 -50 -34 -38 -45 -72 -26 -84 5 -3 29 12 54 33 24 21 58 44
75 51 18 8 46 11 64 7 18 -3 56 -19 84 -36 39 -22 57 -41 74 -75 20 -41 21
-55 15 -133 -9 -128 -24 -204 -44 -230 -10 -13 -64 -47 -122 -75 -97 -48 -106
-56 -136 -107 -26 -42 -33 -65 -33 -106 0 -49 2 -54 41 -85 34 -26 40 -37 36
-58 -3 -14 -15 -53 -27 -86 -18 -48 -21 -73 -17 -126 3 -37 13 -83 21 -103 18
-42 81 -122 108 -137 14 -7 20 -6 25 6 4 11 -8 31 -35 58 -22 23 -50 66 -61
95 -12 29 -21 74 -21 101 0 48 15 107 31 125 5 6 20 -1 36 -16 16 -15 41 -32
57 -38 30 -11 92 -4 102 11 3 5 10 7 15 3 6 -3 7 -63 3 -158 -4 -84 -4 -165 0
-179 4 -18 15 -27 37 -32 50 -11 131 -7 145 7 8 9 14 88 18 273 14 596 17 696
27 820 5 72 16 173 25 225 20 128 57 279 106 430 63 194 214 509 310 647 56
79 201 246 244 278 18 14 39 25 47 25 8 0 32 -14 53 -31 51 -41 132 -92 191
-122 26 -14 72 -30 101 -36 64 -13 318 -15 327 -2 6 11 -17 16 -155 31 -52 6
-122 18 -155 26 -74 19 -233 101 -247 128 -10 18 -2 28 56 83 72 67 272 222
346 268 88 55 216 127 295 165 149 73 334 143 456 175 31 8 124 26 207 40 83
14 157 28 165 31 8 3 33 -11 55 -30 46 -38 228 -134 313 -165 58 -21 192 -46
299 -56 36 -4 105 -2 153 4 73 9 107 19 192 60 106 50 178 106 215 167 18 29
20 38 10 75 l-11 41 -182 -6 c-100 -3 -267 -8 -372 -11 -261 -8 -494 -22 -655
-40 -173 -20 -233 -30 -350 -61 -217 -56 -377 -116 -565 -209 -104 -51 -214
-109 -243 -127 -29 -18 -85 -57 -124 -85 -39 -29 -73 -51 -76 -48 -2 2 9 21
25 42 17 21 42 57 57 81 15 24 34 42 44 42 10 0 54 24 98 53 106 72 379 199
541 253 110 36 288 82 388 99 50 9 158 20 240 26 83 5 161 12 174 14 26 4 655
24 886 28 l140 2 3 98 4 99 -196 -4 c-108 -1 -196 -1 -196 2 0 3 8 16 17 29 9
14 16 43 16 68 0 29 -7 53 -22 74 -13 17 -20 37 -17 45 9 23 77 17 173 -17 48
-17 103 -42 120 -55 18 -14 44 -45 59 -69 14 -25 30 -45 35 -45 16 0 20 25 9
54 -15 42 -123 144 -175 167 -36 16 -64 20 -132 18 -48 -1 -103 -6 -122 -10
-20 -4 -37 -6 -39 -5 -1 2 -5 16 -8 32 -3 16 -11 35 -17 43 -18 21 -71 41
-111 41 -18 0 -58 -8 -87 -17 -46 -14 -69 -32 -160 -125 -133 -134 -166 -151
-294 -152 -84 -1 -93 1 -134 29 -24 17 -57 46 -73 66 -32 39 -45 99 -33 146 3
15 25 44 47 65 26 24 38 43 35 53 -4 8 -15 15 -24 15 -10 0 -29 -7 -41 -16z
m806 -136 c19 -16 14 -64 -10 -93 -13 -14 -45 -38 -72 -53 -27 -15 -51 -33
-54 -39 -8 -27 29 -23 104 13 43 20 90 37 104 36 36 -1 100 -40 100 -60 0 -23
-34 -78 -68 -109 -15 -14 -47 -34 -72 -45 -25 -11 -93 -27 -151 -35 -99 -15
-113 -15 -185 0 -147 32 -164 36 -215 58 -35 15 -46 25 -37 30 7 5 21 9 31 9
10 0 51 15 92 34 59 27 95 55 184 140 60 59 125 113 142 120 34 14 85 11 107
-6z m512 -628 c0 -33 -85 -115 -158 -153 -37 -19 -92 -42 -122 -50 -30 -9 -83
-19 -116 -23 -73 -8 -237 9 -348 37 -43 10 -124 39 -180 64 -55 25 -120 61
-144 79 l-43 34 73 7 c150 14 393 22 711 23 323 2 327 2 327 -18z m-2682 -627
c-26 -26 -51 -44 -55 -40 -12 13 11 40 53 64 21 13 41 23 44 23 3 0 -16 -21
-42 -47z m-1002 -2043 c-3 -87 -11 -145 -25 -191 -12 -36 -35 -86 -51 -112
-32 -47 -110 -107 -140 -107 -20 0 -43 24 -46 48 -4 27 25 83 66 128 41 45 51
74 25 74 -8 0 -29 -13 -47 -29 -18 -15 -47 -35 -64 -44 -18 -9 -42 -14 -55
-12 -26 5 -59 39 -59 62 0 24 28 70 60 97 17 14 71 46 119 71 48 25 101 59
118 75 17 17 40 57 52 92 12 35 25 70 28 78 12 31 24 -109 19 -230z"/>
<path d="M26627 9663 c-4 -3 -7 -14 -7 -24 0 -10 9 -20 20 -24 10 -3 31 -20
45 -36 18 -23 25 -42 25 -75 0 -25 -6 -59 -14 -77 -7 -18 -35 -52 -62 -74 -49
-43 -104 -63 -171 -63 -51 0 -135 23 -177 49 -18 12 -68 59 -110 106 -57 62
-93 92 -139 115 -49 25 -73 30 -116 29 -69 -3 -112 -31 -124 -81 -8 -35 -10
-37 -40 -30 -18 4 -79 7 -137 7 -83 0 -112 -4 -138 -18 -48 -26 -147 -126
-161 -164 -12 -30 -9 -53 8 -53 4 0 22 22 39 49 17 28 48 61 69 74 51 32 189
77 236 77 23 0 40 -5 43 -14 3 -8 -5 -29 -18 -46 -16 -22 -23 -44 -22 -74 0
-24 8 -54 17 -67 10 -13 17 -26 17 -30 0 -3 -88 -4 -195 -1 l-195 4 0 -88 c0
-49 4 -94 8 -100 5 -7 132 -13 397 -18 215 -4 453 -11 530 -16 77 -6 205 -14
285 -19 156 -10 331 -42 500 -91 133 -38 264 -89 410 -158 63 -30 125 -58 137
-63 13 -4 59 -33 103 -64 45 -30 90 -55 100 -55 12 0 30 -16 46 -42 15 -24 40
-60 57 -81 16 -21 27 -40 25 -42 -2 -3 -33 17 -69 43 -101 75 -223 146 -400
231 -158 77 -263 117 -434 166 -152 44 -206 56 -348 75 -226 31 -417 44 -772
55 -93 2 -253 8 -354 11 -149 5 -185 4 -192 -7 -6 -10 -9 -11 -9 -1 0 9 -2116
12 -10545 12 l-10545 0 0 -25 0 -25 10546 0 c6704 0 10543 -3 10539 -10 -9
-14 19 -71 53 -107 16 -17 54 -47 83 -66 87 -55 196 -97 284 -108 44 -6 113
-8 153 -4 103 9 269 40 317 60 83 35 222 109 280 149 l60 42 165 -28 c91 -16
206 -40 255 -53 139 -39 338 -120 475 -193 157 -83 294 -170 405 -256 126 -98
245 -203 245 -216 0 -17 -43 -50 -120 -90 -76 -39 -154 -64 -235 -74 -50 -7
-209 -26 -212 -26 -2 0 -3 -4 -3 -10 0 -6 54 -10 143 -10 96 0 162 5 202 15
32 9 86 30 119 48 34 18 92 56 131 85 38 28 76 52 83 52 25 0 83 -53 170 -155
48 -56 94 -111 104 -123 36 -44 103 -165 177 -317 43 -88 92 -196 109 -240 17
-44 44 -125 61 -180 64 -214 94 -373 110 -590 6 -71 16 -346 22 -610 6 -264
13 -483 15 -487 3 -5 41 -8 84 -8 61 0 82 4 96 17 15 16 16 35 11 184 -4 91
-4 169 0 172 3 4 12 2 19 -4 8 -6 36 -12 64 -12 45 -1 54 3 88 36 l38 38 13
-28 c7 -15 15 -53 18 -84 8 -82 -17 -155 -73 -218 -29 -32 -44 -57 -40 -67 4
-12 10 -13 26 -4 12 6 41 38 65 71 46 63 65 124 65 207 0 27 -11 73 -25 107
-14 33 -25 67 -25 77 0 9 18 31 40 48 37 29 40 36 40 79 0 59 -40 143 -84 175
-17 13 -53 32 -81 42 -27 10 -67 29 -87 42 -20 13 -43 38 -51 55 -8 18 -17 59
-21 92 -3 33 -8 87 -12 121 -3 34 -1 78 5 102 6 22 25 54 41 71 39 39 134 74
177 66 17 -3 54 -26 82 -51 28 -25 55 -43 61 -39 16 10 12 40 -12 75 -16 23
-39 39 -73 51 -27 10 -66 18 -85 18 -19 0 -53 -8 -75 -18 -22 -10 -63 -42 -91
-71 -29 -29 -56 -50 -61 -47 -6 4 -13 53 -16 109 -4 57 -16 142 -26 191 -24
105 -63 222 -142 421 -65 162 -154 346 -196 404 -45 62 -96 112 -114 112 -25
0 -49 11 -49 21 0 5 20 9 44 9 28 0 59 8 80 21 31 18 45 20 98 14 35 -4 78
-14 96 -22 18 -9 38 -25 44 -37 7 -11 15 -43 18 -70 3 -30 11 -51 19 -54 12
-4 13 15 8 114 -3 66 -8 131 -11 145 -10 47 -36 112 -61 154 -13 22 -42 58
-64 80 l-41 39 36 37 c24 24 35 43 31 54 -4 8 -15 18 -24 22 -10 4 -35 21 -56
39 -21 17 -58 37 -83 43 -24 6 -44 17 -44 24 0 8 24 43 53 80 29 37 64 93 76
124 13 32 29 64 36 72 11 11 16 11 35 -2 31 -22 101 -106 154 -186 64 -96 138
-248 175 -361 17 -52 40 -144 50 -205 10 -60 19 -162 20 -225 1 -63 -3 -158
-9 -210 -14 -120 -74 -303 -140 -427 -43 -80 -47 -93 -31 -93 10 0 31 16 46
35 35 46 96 179 134 293 21 61 34 126 42 208 15 161 5 369 -26 509 -36 164
-99 315 -190 455 -64 99 -194 260 -211 260 -8 0 -14 5 -14 10 0 6 -21 33 -46
60 l-46 49 12 53 c28 128 42 180 56 215 9 21 28 51 42 66 15 16 46 37 70 47
23 11 68 24 100 30 42 9 74 9 117 1 68 -13 120 -49 147 -102 10 -19 23 -53 29
-77 5 -24 17 -46 25 -49 25 -9 44 17 44 62 0 38 -6 50 -50 98 -28 31 -71 65
-95 77 -63 30 -202 38 -315 16 -47 -9 -120 -29 -163 -46 -43 -16 -109 -47
-148 -67 -39 -21 -97 -59 -130 -85 -32 -27 -63 -48 -69 -48 -5 0 -29 14 -54
31 -25 16 -83 47 -129 68 -75 36 -186 74 -241 85 -11 3 -52 11 -91 19 -38 8
-116 21 -172 27 -81 11 -129 11 -239 1 -104 -10 -158 -20 -222 -43 -46 -16
-127 -52 -181 -80 -133 -71 -216 -136 -197 -156 3 -3 30 14 61 37 30 23 63 44
72 48 10 4 31 17 46 30 16 13 35 23 43 23 9 0 41 12 72 26 31 15 98 35 147 45
65 13 133 19 241 19 84 0 197 -5 253 -10 99 -11 227 -42 313 -77 67 -28 231
-113 247 -128 9 -8 11 -23 7 -40 -4 -14 -13 -28 -20 -31 -7 -3 -35 9 -62 25
-26 17 -56 31 -65 31 -13 0 -22 -15 -33 -52 -27 -96 -38 -152 -38 -214 0 -43
5 -71 18 -93 10 -17 23 -31 29 -31 7 0 11 42 10 123 0 128 14 197 41 197 24 0
64 -31 80 -62 11 -21 21 -28 36 -26 16 2 24 15 34 56 8 29 21 67 30 85 27 52
114 129 190 170 40 20 78 37 84 37 10 0 11 -22 7 -92 -4 -51 -9 -109 -13 -128
-9 -55 -39 -114 -78 -157 -20 -22 -36 -44 -36 -49 0 -5 26 -9 58 -10 31 0 70
-6 85 -12 l29 -12 -42 -77 c-22 -42 -55 -94 -71 -115 -17 -21 -59 -57 -95 -80
-35 -23 -64 -48 -64 -55 0 -7 20 -15 48 -19 64 -9 141 -39 177 -68 29 -24 30
-25 13 -53 -16 -27 -33 -36 -90 -48 -16 -3 -28 -10 -28 -15 0 -5 31 -18 69
-30 57 -17 76 -28 105 -62 43 -50 86 -133 86 -165 0 -16 -8 -27 -26 -33 -38
-15 -122 -12 -158 5 -18 9 -48 31 -66 50 -19 19 -37 35 -41 35 -4 0 2 -26 13
-58 12 -32 19 -66 15 -76 -5 -14 -14 -16 -42 -12 -50 8 -148 60 -196 103 -46
42 -92 124 -87 156 3 19 10 22 62 25 32 2 90 -4 128 -13 39 -9 98 -27 131 -40
33 -14 67 -25 75 -25 12 0 12 3 1 16 -7 8 -36 27 -63 41 -60 31 -228 83 -266
83 l-28 0 44 135 c24 74 51 176 59 227 20 110 75 286 110 347 27 46 32 75 13
69 -16 -6 -88 -154 -133 -273 -21 -55 -49 -158 -62 -230 -39 -200 -70 -303
-106 -353 -67 -92 -113 -146 -126 -150 -8 -3 1 15 21 39 19 24 43 59 52 76
l16 33 -27 5 c-139 29 -217 68 -279 139 -24 28 -44 56 -44 63 0 21 42 41 98
49 28 3 52 10 52 15 0 15 -38 29 -82 29 -24 0 -62 9 -86 20 -23 10 -56 34 -73
52 -32 36 -109 167 -109 188 0 10 23 12 104 7 57 -3 119 -12 138 -20 19 -8 45
-29 57 -46 12 -17 25 -31 29 -31 4 0 7 19 7 43 0 52 23 110 41 103 7 -3 29 -8
48 -12 54 -10 45 13 -16 41 -29 14 -65 25 -79 25 -22 0 -29 -7 -43 -45 -10
-25 -21 -45 -25 -45 -3 0 -16 7 -28 15 -12 8 -68 21 -125 29 -99 14 -104 16
-133 50 -16 20 -36 36 -42 36 -7 0 -13 -8 -13 -19 0 -10 7 -38 15 -61 8 -23
15 -47 15 -52 0 -5 -19 4 -42 21 -23 17 -45 31 -50 31 -4 0 -31 11 -60 24 -29
13 -96 40 -148 59 -231 86 -418 140 -550 158 -47 6 -143 14 -215 18 l-130 6
85 56 c47 31 106 78 132 104 27 27 57 67 68 90 14 30 18 52 14 76 -9 43 -40
107 -67 137 -20 21 -56 29 -70 15z m-654 -134 c27 -7 71 -42 154 -120 82 -78
134 -119 177 -140 34 -16 81 -34 106 -40 l45 -11 -40 -20 c-22 -12 -83 -32
-135 -46 -120 -31 -244 -34 -350 -8 -41 10 -92 28 -112 39 -43 24 -94 83 -104
121 -5 20 -2 31 12 42 29 22 66 37 93 35 13 0 57 -17 97 -37 71 -34 110 -39
102 -11 -3 6 -27 24 -54 39 -66 36 -96 72 -92 111 2 22 11 35 28 44 14 7 27
13 30 13 3 0 22 -5 43 -11z m307 -634 c30 -3 89 -8 130 -11 l75 -6 -28 -22
c-38 -30 -138 -82 -224 -117 -40 -16 -116 -37 -170 -48 -54 -11 -139 -23 -188
-27 -66 -5 -111 -2 -170 10 -108 21 -231 84 -290 147 -25 27 -45 58 -45 70 l0
22 428 -7 c235 -3 452 -9 482 -11z m1824 -647 c6 -9 7 -20 3 -25 -4 -4 -29 15
-55 41 l-47 49 44 -24 c24 -13 49 -32 55 -41z m996 -1870 c17 -53 31 -76 63
-104 23 -20 81 -55 128 -79 88 -45 144 -95 155 -140 8 -32 -17 -70 -51 -79
-29 -7 -74 13 -123 55 -34 31 -62 38 -62 16 0 -7 19 -35 41 -62 23 -28 48 -64
55 -82 10 -23 11 -39 4 -58 -5 -14 -17 -28 -25 -31 -8 -4 -29 -1 -45 6 -16 7
-51 33 -77 59 -39 39 -53 63 -77 132 -21 63 -30 110 -33 190 -6 115 4 266 17
253 4 -5 17 -39 30 -76z"/>
<path d="M4250 9115 l0 -105 10530 0 10530 0 0 105 0 105 -10530 0 -10530 0 0
-105z"/>
<path d="M2706 8793 c-3 -10 -10 -67 -16 -127 -5 -59 -17 -133 -27 -162 -9
-30 -26 -62 -37 -72 -12 -11 -63 -33 -114 -51 -51 -17 -120 -47 -154 -66 -34
-18 -97 -69 -141 -112 -44 -43 -97 -104 -117 -136 -21 -31 -48 -90 -59 -130
-34 -115 -71 -206 -98 -237 l-24 -30 -39 20 c-22 11 -49 20 -61 20 -12 0 -37
-9 -56 -21 -35 -22 -63 -65 -63 -97 0 -26 46 -70 84 -81 17 -4 42 -4 56 1 39
14 80 58 102 108 19 44 45 80 58 80 3 0 17 -26 30 -57 30 -72 59 -123 71 -123
5 0 9 4 9 10 0 5 -9 29 -19 52 -21 47 -51 143 -51 163 0 8 5 26 11 42 l10 28
17 -21 c9 -12 40 -36 67 -54 28 -19 63 -44 80 -58 23 -19 37 -23 68 -19 24 3
50 16 67 32 16 15 30 35 33 45 7 25 -18 77 -44 90 -27 15 -97 5 -121 -17 -10
-9 -18 -22 -18 -30 0 -7 -7 -13 -15 -13 -31 0 -71 29 -93 68 -12 22 -22 51
-22 65 0 22 5 27 38 32 64 11 163 57 254 118 48 32 120 93 160 135 45 48 88
106 113 152 21 41 51 115 66 165 18 60 27 116 28 171 2 85 -5 134 -19 134 -5
0 -11 -8 -14 -17z m-142 -439 c9 -3 16 -14 16 -24 0 -10 -17 -40 -38 -67 -72
-90 -160 -169 -243 -216 -41 -24 -173 -77 -191 -77 -15 0 -8 22 26 74 40 63
116 141 192 197 59 44 192 119 211 119 6 0 18 -3 27 -6z m-298 -623 c-9 -14
-33 -14 -41 -1 -4 6 -1 18 6 26 11 13 14 13 27 0 8 -8 11 -19 8 -25z m-368
-113 c8 -8 9 -15 1 -25 -14 -16 -45 -17 -54 -3 -11 17 3 40 23 40 10 0 23 -5
30 -12z"/>
<path d="M26805 8783 c-9 -38 -4 -167 10 -232 16 -71 47 -152 87 -226 56 -103
199 -238 343 -322 57 -34 124 -59 178 -68 33 -5 37 -9 37 -35 0 -16 -9 -44
-19 -61 -22 -35 -67 -69 -93 -69 -11 0 -18 8 -18 19 0 22 -55 51 -98 51 -16 0
-41 -9 -56 -21 -20 -16 -26 -29 -26 -58 0 -28 7 -44 28 -64 15 -15 44 -29 68
-32 33 -6 45 -3 70 17 16 14 52 39 79 58 28 18 57 42 66 53 17 20 17 20 28 -2
7 -12 10 -38 6 -59 -8 -51 -30 -121 -49 -157 -18 -34 -21 -55 -7 -55 13 0 45
56 66 115 10 28 22 54 26 59 13 14 36 -11 63 -68 13 -28 37 -63 53 -79 16 -15
43 -31 59 -36 17 -5 40 -4 54 1 36 13 80 58 80 82 0 34 -35 81 -73 99 -19 9
-42 17 -51 17 -9 0 -34 -9 -55 -20 l-38 -19 -20 22 c-28 31 -66 118 -93 212
-13 44 -33 100 -46 125 -46 94 -192 237 -298 293 -39 20 -108 49 -153 63 -45
15 -91 37 -103 49 -12 12 -28 47 -35 76 -8 30 -19 101 -25 159 -6 58 -13 113
-16 123 -3 9 -9 17 -14 17 -4 0 -11 -12 -15 -27z m248 -447 c72 -31 149 -81
220 -142 61 -52 167 -185 167 -210 0 -8 -6 -14 -12 -14 -27 1 -176 67 -229
103 -64 43 -180 155 -216 209 -16 24 -23 44 -18 57 3 12 13 21 20 21 8 0 39
-11 68 -24z m263 -605 c-10 -15 -46 -14 -46 2 0 7 5 18 12 25 10 10 15 9 26
-2 8 -8 11 -19 8 -25z m378 -110 c4 -5 3 -16 0 -25 -7 -18 -39 -22 -49 -6 -11
18 3 40 24 40 11 0 22 -4 25 -9z"/>
<path d="M1496 8704 c-26 -14 -83 -60 -126 -102 -66 -66 -80 -85 -94 -134 -9
-31 -16 -66 -16 -77 0 -12 4 -21 10 -21 5 0 16 15 24 34 8 19 39 72 70 118 43
65 72 96 131 138 41 30 75 58 75 63 0 13 -24 7 -74 -19z"/>
<path d="M27970 8722 c0 -6 24 -26 54 -46 30 -20 69 -51 87 -69 38 -37 113
-151 135 -202 8 -19 19 -35 24 -35 15 0 12 50 -7 105 -13 36 -37 70 -88 121
-38 39 -89 83 -112 97 -47 30 -93 44 -93 29z"/>
<path d="M1264 8017 c-38 -41 -106 -121 -150 -179 -80 -108 -186 -290 -237
-408 -53 -123 -106 -267 -147 -401 -38 -122 -68 -286 -85 -454 -17 -182 -26
-382 -32 -746 -5 -317 -3 -408 6 -414 7 -4 18 -2 24 4 7 7 12 81 14 203 9 510
33 1048 49 1101 3 10 10 17 16 15 6 -2 31 -37 56 -78 46 -77 112 -243 134
-340 8 -35 13 -133 12 -270 0 -176 -3 -227 -18 -279 -9 -36 -30 -92 -46 -125
-15 -34 -55 -97 -89 -140 -34 -43 -60 -81 -57 -83 2 -2 20 3 40 11 24 10 47
32 70 68 63 100 92 162 119 258 25 91 49 240 42 264 -2 6 -6 61 -10 121 -3 61
-11 142 -16 180 -6 39 -22 98 -34 132 -24 64 -103 225 -137 281 -13 22 -27 32
-44 32 -20 0 -24 5 -24 28 0 45 84 324 140 466 28 71 75 177 105 235 79 155
216 354 354 515 47 56 55 76 28 76 -7 0 -44 -33 -83 -73z"/>
<path d="M28175 8081 c-3 -6 23 -43 57 -83 86 -99 124 -149 189 -243 81 -118
132 -206 193 -335 82 -174 211 -562 204 -618 -2 -16 -10 -26 -23 -28 -10 -2
-26 -13 -36 -25 -21 -28 -112 -210 -140 -281 -12 -29 -27 -87 -35 -128 -8 -41
-17 -151 -20 -245 -6 -140 -4 -183 10 -245 9 -41 28 -109 42 -150 32 -97 119
-238 162 -263 17 -10 37 -17 43 -15 6 2 -18 39 -52 83 -34 44 -74 107 -90 141
-15 33 -36 89 -45 125 -15 53 -18 104 -18 289 0 217 1 228 27 315 38 123 73
207 120 288 38 65 54 84 63 75 21 -22 41 -369 53 -931 5 -243 12 -382 19 -389
5 -5 16 -7 23 -3 9 6 11 95 6 409 -7 455 -17 630 -48 886 -22 176 -54 296
-146 545 -60 163 -137 323 -214 447 -27 44 -82 123 -124 177 -74 97 -184 211
-204 211 -5 0 -12 -4 -16 -9z"/>
<path d="M28164 7633 c-48 -25 -91 -72 -116 -127 -18 -42 -22 -69 -22 -151 -1
-89 3 -106 27 -156 15 -31 43 -77 62 -102 20 -26 63 -66 98 -90 34 -24 86 -54
115 -66 36 -15 91 -25 170 -32 64 -6 135 -8 157 -5 22 3 48 5 57 5 9 1 24 8
33 17 29 29 3 36 -84 23 -70 -11 -95 -10 -184 5 -66 11 -124 28 -163 47 -34
17 -83 52 -109 77 -26 26 -56 65 -68 87 -15 28 -22 62 -24 116 -1 56 2 85 15
110 12 25 23 33 37 31 11 -2 39 -6 61 -9 36 -4 46 -1 75 25 27 24 34 37 34 70
0 54 -41 105 -98 125 -38 13 -47 13 -73 0z m90 -54 c37 -29 49 -55 36 -79 -13
-24 -59 -48 -82 -43 -9 3 -20 13 -23 23 -8 26 -30 41 -49 34 -8 -3 -32 -31
-51 -62 -22 -36 -35 -49 -35 -37 0 11 11 43 24 70 23 49 66 97 96 108 30 11
58 6 84 -14z"/>
<path d="M1273 7620 c-34 -20 -73 -85 -73 -121 0 -11 16 -37 35 -56 31 -31 40
-34 73 -30 20 3 49 8 63 12 22 6 28 2 40 -27 8 -20 14 -65 13 -113 0 -61 -5
-90 -21 -121 -12 -22 -40 -58 -63 -80 -23 -22 -65 -55 -93 -72 -89 -54 -268
-80 -409 -58 -35 5 -58 5 -58 -1 0 -5 6 -18 14 -28 12 -17 28 -19 157 -18 79
1 166 6 193 13 27 6 72 22 100 36 29 14 77 45 108 70 60 47 118 126 145 196
12 30 17 74 16 143 0 111 -12 150 -64 210 -18 20 -45 43 -60 51 -15 7 -41 14
-56 14 -15 0 -42 -9 -60 -20z m106 -35 c16 -8 40 -28 54 -44 26 -32 64 -118
55 -127 -3 -2 -20 18 -37 45 -18 27 -39 52 -49 56 -11 4 -26 -5 -47 -29 -29
-34 -31 -35 -62 -21 -40 17 -58 48 -43 74 14 28 59 61 82 61 10 0 32 -7 47
-15z"/>
<path d="M2112 7474 c-17 -12 -22 -25 -22 -60 0 -25 5 -55 12 -67 12 -23 61
-71 89 -87 12 -7 26 -3 50 13 21 14 39 38 48 63 13 36 12 44 -4 78 -10 21 -32
47 -49 57 -17 10 -47 19 -66 19 -20 0 -46 -7 -58 -16z m63 -60 c0 -22 -5 -29
-20 -29 -11 0 -21 8 -23 18 -4 21 16 49 32 44 6 -2 11 -17 11 -33z"/>
<path d="M27287 7456 c-21 -21 -39 -50 -43 -71 -4 -25 -1 -43 13 -67 10 -18
33 -41 50 -51 l32 -18 56 53 c52 52 55 56 55 105 0 33 -5 55 -15 63 -9 7 -37
15 -64 18 -45 4 -51 2 -84 -32z m113 -21 c6 -8 10 -22 8 -32 -4 -24 -42 -23
-46 0 -5 22 4 47 16 47 5 0 15 -7 22 -15z"/>
<path d="M28870 4845 l0 -555 25 0 25 0 0 555 0 555 -25 0 -25 0 0 -555z"/>
<path d="M28960 4845 l0 -555 105 0 105 0 0 555 0 555 -105 0 -105 0 0 -555z"/>
<path d="M360 4835 l0 -555 53 -1 52 -2 -48 -6 c-27 -4 -53 -14 -58 -22 -7 -9
-8 -76 -5 -180 4 -91 3 -169 -1 -172 -3 -4 -12 -2 -19 4 -8 6 -37 11 -65 11
-44 0 -55 -4 -85 -33 -21 -20 -37 -29 -43 -23 -16 17 -31 77 -31 124 0 25 7
67 15 92 9 25 36 69 60 97 25 29 45 57 45 62 0 5 -9 9 -19 9 -24 0 -83 -68
-112 -128 -13 -26 -24 -72 -26 -111 -4 -51 0 -79 17 -126 12 -33 24 -72 27
-86 4 -21 -2 -32 -36 -58 -38 -30 -41 -37 -41 -79 0 -51 34 -136 66 -164 10
-9 62 -36 114 -61 66 -30 102 -53 115 -73 13 -20 23 -67 34 -161 12 -106 12
-140 2 -172 -6 -22 -26 -54 -44 -71 -18 -17 -56 -39 -86 -50 -37 -14 -64 -18
-89 -14 -21 4 -53 23 -77 45 -23 22 -50 39 -59 39 -28 0 -18 -39 22 -80 30
-33 48 -42 95 -52 83 -16 122 -1 206 78 76 71 81 70 81 -16 0 -76 19 -196 46
-299 31 -114 136 -389 208 -546 29 -62 70 -143 91 -179 21 -37 54 -82 72 -101
19 -19 51 -39 73 -45 23 -6 38 -15 35 -20 -4 -6 -24 -10 -45 -10 -22 0 -58
-10 -80 -21 -34 -18 -50 -20 -98 -14 -31 4 -71 13 -89 20 -17 7 -38 26 -46 42
-7 15 -15 46 -16 67 -1 22 -4 43 -7 48 -3 4 -9 8 -15 8 -13 0 -10 -153 5 -240
8 -41 26 -102 40 -135 16 -35 48 -82 78 -112 l51 -52 -32 -26 c-17 -15 -36
-35 -41 -45 -7 -13 -3 -20 18 -31 15 -8 46 -29 70 -46 24 -18 60 -37 82 -43
22 -6 41 -14 44 -18 3 -5 -21 -40 -53 -79 -34 -42 -67 -96 -80 -132 -13 -33
-30 -66 -38 -72 -11 -10 -24 -2 -69 42 -30 30 -79 90 -109 135 -93 137 -168
303 -209 459 -27 104 -46 251 -46 362 0 60 4 146 9 193 5 47 25 135 45 196 20
62 61 160 91 218 49 98 52 107 32 104 -13 -2 -35 -22 -53 -50 -38 -56 -117
-241 -138 -322 -26 -100 -39 -270 -31 -421 7 -155 40 -329 82 -434 43 -109
102 -221 161 -306 78 -113 172 -225 188 -225 8 0 14 -5 14 -12 0 -7 21 -34 46
-60 l47 -47 -11 -43 c-6 -24 -14 -60 -17 -80 -10 -64 -46 -162 -72 -196 -14
-19 -39 -42 -57 -53 -17 -10 -63 -26 -101 -34 -56 -13 -84 -14 -134 -6 -48 8
-73 18 -106 46 -42 33 -64 76 -80 148 -3 15 -12 30 -20 34 -24 9 -45 -16 -45
-54 0 -19 6 -46 14 -62 20 -38 100 -109 142 -127 50 -21 198 -29 280 -15 38 7
98 21 134 33 95 30 257 112 315 158 83 66 84 66 145 26 71 -47 216 -110 310
-135 111 -29 277 -59 366 -67 44 -3 129 -1 189 5 61 6 121 13 134 16 66 13
166 53 261 103 119 63 195 115 204 139 4 9 5 18 3 20 -2 2 -20 -8 -40 -22 -20
-13 -49 -33 -64 -43 -83 -56 -111 -72 -129 -72 -11 0 -29 -7 -41 -15 -30 -21
-133 -52 -217 -65 -79 -12 -342 -12 -461 1 -44 5 -119 20 -167 34 -101 28
-268 102 -345 151 l-53 34 15 30 c9 17 19 30 23 30 4 0 30 -14 57 -30 28 -16
58 -30 67 -30 11 0 20 10 24 28 3 15 15 56 25 92 23 76 28 195 9 230 -12 24
-28 40 -40 40 -3 0 -5 -55 -5 -122 0 -133 -14 -198 -44 -198 -25 0 -59 27 -77
61 -11 22 -21 29 -36 27 -17 -2 -24 -14 -33 -55 -7 -28 -26 -74 -45 -102 -18
-28 -50 -67 -72 -85 -41 -36 -167 -106 -188 -106 -10 0 -11 23 -7 98 4 53 13
121 21 149 8 29 23 67 34 85 11 18 34 46 51 62 17 17 31 32 31 35 0 3 -28 6
-63 7 -34 0 -75 6 -90 12 l-29 12 42 78 c23 42 57 96 76 119 19 23 61 58 94
78 33 20 60 42 60 50 0 14 -30 25 -75 25 -34 0 -143 49 -163 73 -11 13 -11 21
3 46 15 29 30 37 84 43 27 3 41 26 19 32 -99 27 -128 40 -150 63 -42 44 -98
144 -98 175 0 21 6 31 26 38 34 13 116 13 151 -1 15 -5 48 -29 72 -52 39 -37
43 -39 37 -17 -4 14 -12 42 -18 62 -6 21 -7 45 -4 54 5 13 14 15 43 9 56 -10
153 -61 196 -103 45 -43 90 -124 85 -155 -3 -21 -8 -22 -93 -21 -75 1 -105 6
-180 33 -49 18 -101 35 -115 38 -23 6 -24 5 -11 -11 33 -39 208 -108 309 -122
l50 -6 -29 -83 c-29 -86 -64 -214 -74 -275 -11 -67 -25 -121 -55 -213 -16 -50
-41 -112 -55 -136 -26 -44 -32 -71 -16 -71 12 0 38 46 84 148 54 120 96 249
118 371 29 154 50 242 67 276 40 80 143 215 165 215 4 0 -7 -19 -25 -43 -50
-62 -71 -98 -61 -106 4 -4 37 -13 72 -20 36 -7 83 -22 105 -33 56 -29 111 -74
141 -117 14 -21 25 -40 25 -44 0 -12 -60 -38 -103 -43 -23 -4 -44 -8 -46 -10
-3 -3 1 -10 7 -16 6 -6 41 -15 77 -19 40 -5 82 -18 106 -32 23 -14 57 -47 76
-73 39 -55 83 -137 83 -155 0 -9 -28 -10 -104 -6 -57 3 -119 12 -138 20 -19 8
-45 29 -57 46 -12 17 -27 31 -32 31 -6 0 -7 -14 -4 -33 4 -21 0 -48 -10 -74
-16 -40 -17 -41 -53 -32 -20 5 -43 9 -49 9 -7 0 -13 -5 -13 -10 0 -15 99 -60
131 -60 22 0 29 7 43 45 10 25 21 45 25 45 3 0 17 -7 29 -16 12 -8 30 -17 40
-19 9 -1 52 -6 94 -10 75 -7 79 -9 120 -51 23 -23 46 -40 51 -37 11 7 -1 80
-19 116 -8 15 -11 27 -8 27 4 0 21 -10 38 -23 34 -25 235 -114 331 -146 197
-65 362 -111 450 -125 134 -21 173 -25 284 -25 78 -1 92 -3 82 -15 -6 -7 -41
-31 -78 -52 -71 -42 -165 -129 -189 -177 -9 -16 -16 -48 -16 -71 0 -24 10 -64
22 -90 12 -25 34 -56 48 -67 14 -11 35 -19 46 -17 12 2 22 12 24 23 2 13 -7
26 -27 37 -16 9 -37 28 -46 42 -9 14 -17 41 -17 60 0 65 21 104 83 156 44 37
70 50 105 56 25 3 70 4 99 0 95 -11 142 -39 245 -146 54 -56 114 -108 140
-120 25 -13 71 -25 105 -27 51 -4 65 -2 95 19 24 16 38 35 44 61 7 28 14 36
25 32 9 -4 57 -9 108 -12 58 -4 108 -1 135 6 24 7 64 27 89 46 25 18 63 53 83
78 38 47 53 102 27 102 -8 0 -19 -9 -25 -20 -29 -53 -61 -87 -99 -106 -59 -31
-175 -69 -208 -69 -34 0 -59 9 -59 21 0 6 10 23 21 39 15 19 22 43 22 74 0 25
-7 56 -17 70 -9 14 -16 27 -16 28 0 2 88 1 195 0 l195 -4 0 89 c0 48 -4 93 -8
99 -5 7 -132 13 -397 18 -214 4 -455 11 -535 16 -80 6 -208 14 -285 19 -77 5
-198 21 -270 36 -134 27 -318 79 -415 117 -30 12 -129 55 -220 96 -91 41 -194
95 -229 119 -35 25 -83 53 -107 64 -24 10 -44 22 -44 27 0 4 -21 36 -46 71
-25 34 -44 65 -41 67 2 2 31 -16 63 -42 32 -25 101 -70 153 -101 145 -86 403
-207 536 -251 221 -75 386 -112 600 -136 93 -11 270 -25 380 -31 61 -3 272
-10 469 -16 293 -8 361 -8 367 3 7 10 9 10 9 1 0 -10 2116 -13 10545 -13
l10545 0 0 25 0 25 -10546 0 c-9815 0 -10546 1 -10540 17 8 19 -33 86 -78 126
-17 16 -81 53 -142 83 -105 52 -116 55 -225 66 -105 10 -126 9 -262 -15 -142
-24 -154 -28 -290 -95 -78 -39 -162 -86 -187 -105 l-45 -35 -185 34 c-102 18
-223 45 -270 59 -125 39 -321 120 -430 177 -163 86 -314 180 -396 248 -17 14
-58 45 -90 70 -79 60 -174 150 -174 165 0 13 37 42 95 73 105 57 204 85 345
97 106 9 134 15 122 27 -7 7 -69 9 -175 6 -163 -4 -164 -5 -238 -40 -41 -19
-112 -63 -159 -97 -47 -33 -93 -61 -103 -61 -9 0 -45 28 -80 63 -71 71 -190
213 -228 272 -43 66 -134 242 -188 361 -27 61 -66 157 -86 215 -51 146 -103
358 -125 507 -24 166 -28 265 -46 1007 -3 138 -8 258 -10 267 -3 11 -18 18
-42 21 -30 3 -27 4 16 5 l52 2 0 555 0 555 -105 0 -105 0 0 -555z m-36 -997
c26 -17 59 -48 72 -68 14 -21 37 -71 52 -111 23 -66 26 -90 28 -219 1 -144 -7
-239 -18 -210 -3 8 -16 43 -28 78 -17 46 -34 73 -65 100 -24 21 -81 56 -127
79 -87 42 -142 92 -154 138 -8 32 17 70 51 79 15 4 37 1 53 -8 15 -8 47 -30
72 -49 24 -20 48 -33 52 -31 17 11 7 34 -37 85 -24 29 -50 67 -56 86 -9 28 -8
38 5 58 9 14 25 25 35 25 9 0 39 -14 65 -32z m1155 -2422 c34 -35 39 -44 22
-39 -25 6 -81 56 -81 72 0 6 4 11 8 11 4 0 27 -20 51 -44z m2353 -411 c40 -9
105 -31 145 -49 82 -39 183 -129 183 -164 l0 -22 -277 0 c-270 0 -664 13 -770
26 -29 4 -53 10 -53 15 0 12 131 86 213 120 87 36 209 67 297 75 36 4 67 8 69
10 10 10 126 3 193 -11z m-308 -455 c38 -6 93 -17 121 -25 29 -9 71 -30 93
-47 45 -34 89 -106 80 -130 -7 -18 -73 -50 -102 -50 -12 0 -52 14 -88 31 -37
17 -78 32 -90 34 -41 4 -25 -27 27 -55 67 -36 97 -72 93 -112 -2 -22 -11 -34
-30 -44 -21 -10 -37 -10 -67 -2 -29 8 -70 39 -157 121 -64 61 -138 121 -164
134 -25 13 -73 31 -105 41 l-60 17 60 28 c33 15 72 28 87 29 15 0 39 5 55 11
38 14 100 27 143 28 19 0 66 -4 104 -9z"/>
<path d="M610 4835 l0 -555 25 0 25 0 0 555 0 555 -25 0 -25 0 0 -555z"/>
<path d="M29015 4270 l-40 -5 -6 -185 c-4 -102 -9 -324 -13 -495 -4 -170 -12
-364 -17 -430 -5 -65 -16 -162 -24 -215 -21 -126 -75 -340 -120 -469 -20 -58
-59 -154 -86 -215 -54 -119 -145 -295 -188 -361 -38 -59 -157 -201 -228 -272
-35 -35 -71 -63 -82 -63 -11 0 -41 17 -68 38 -68 53 -138 96 -208 128 -56 26
-71 28 -223 32 -105 3 -167 1 -174 -6 -12 -12 16 -18 122 -27 141 -12 240 -40
345 -97 58 -31 95 -60 95 -73 0 -15 -95 -105 -174 -165 -32 -25 -73 -56 -90
-70 -82 -68 -233 -162 -396 -248 -109 -57 -305 -138 -430 -177 -47 -14 -168
-41 -270 -59 l-185 -34 -45 35 c-25 19 -109 66 -187 105 -136 67 -148 71 -290
95 -136 24 -157 25 -262 15 -109 -11 -120 -14 -225 -66 -61 -30 -125 -67 -142
-83 -65 -60 -88 -115 -70 -171 l8 -24 201 7 c679 21 807 28 1012 51 214 24
379 61 600 136 133 44 391 165 536 251 52 31 121 76 153 101 32 26 61 44 63
42 3 -2 -16 -33 -41 -67 -25 -35 -46 -67 -46 -71 0 -5 -20 -17 -44 -27 -24
-11 -72 -39 -107 -64 -35 -24 -138 -78 -229 -119 -91 -41 -190 -84 -220 -96
-90 -35 -278 -89 -385 -111 -140 -28 -164 -31 -305 -41 -300 -22 -518 -32
-855 -38 l-360 -7 -3 -99 -4 -98 196 3 c108 2 196 3 196 1 0 -1 -7 -14 -16
-28 -10 -14 -17 -45 -17 -70 0 -31 7 -55 22 -74 11 -16 21 -33 21 -39 0 -12
-25 -21 -59 -21 -33 0 -149 38 -209 69 -23 12 -56 40 -72 63 -17 22 -30 47
-30 55 0 9 -7 13 -17 11 -29 -6 -18 -55 23 -105 20 -25 58 -60 83 -78 25 -19
65 -39 89 -46 27 -7 77 -10 135 -6 51 3 99 8 108 12 11 4 18 -4 25 -32 6 -26
20 -45 44 -61 30 -21 44 -23 95 -19 34 2 80 14 105 27 26 12 86 64 140 120
103 107 150 135 245 146 29 4 74 3 99 0 35 -6 61 -19 105 -56 62 -52 83 -91
83 -156 0 -19 -8 -46 -17 -60 -9 -14 -30 -33 -46 -42 -20 -11 -29 -24 -27 -37
2 -11 12 -21 24 -23 11 -2 32 6 46 17 14 11 36 42 48 67 12 26 22 66 22 90 0
23 -7 55 -16 71 -24 48 -118 135 -189 177 -37 21 -72 45 -78 52 -10 12 4 14
82 15 111 0 150 4 284 25 88 14 253 60 450 125 96 32 297 121 331 146 17 13
34 23 38 23 3 0 0 -12 -8 -27 -18 -36 -30 -109 -19 -116 5 -3 28 14 51 37 41
42 45 44 120 51 42 4 85 9 94 10 10 2 28 11 40 19 12 9 26 16 29 16 4 0 15
-20 25 -45 14 -38 21 -45 43 -45 32 0 131 45 131 60 0 5 -6 10 -12 10 -7 0
-30 -4 -50 -9 -36 -9 -37 -8 -53 32 -10 26 -14 53 -10 74 3 19 2 33 -4 33 -5
0 -20 -14 -32 -31 -12 -17 -38 -38 -57 -46 -19 -8 -81 -17 -138 -20 -76 -4
-104 -3 -104 6 0 18 44 100 83 155 19 26 53 59 76 73 24 14 66 27 106 32 36 4
71 13 77 19 6 6 10 13 7 16 -2 2 -23 6 -46 10 -43 5 -103 31 -103 43 0 4 11
23 25 44 30 43 85 88 141 117 22 11 69 26 105 33 35 7 68 16 72 20 10 8 -11
44 -61 107 -18 23 -29 42 -25 42 22 0 125 -135 165 -215 17 -34 38 -122 67
-276 22 -122 64 -251 118 -371 46 -102 72 -148 84 -148 16 0 10 27 -16 71 -14
24 -39 86 -55 136 -30 92 -44 146 -55 213 -10 61 -45 189 -74 275 l-29 83 50
6 c101 14 276 83 309 122 13 16 12 17 -11 11 -14 -3 -65 -20 -115 -38 -75 -27
-105 -32 -180 -33 -85 -1 -90 0 -93 21 -5 31 40 112 85 155 43 42 140 93 196
103 29 6 38 4 43 -9 3 -9 2 -33 -4 -54 -6 -20 -14 -48 -18 -62 -6 -22 -2 -20
37 17 24 23 57 47 72 52 35 14 117 14 151 1 20 -7 26 -17 26 -38 0 -31 -56
-131 -98 -175 -22 -23 -51 -36 -150 -63 -22 -6 -8 -29 19 -32 54 -6 69 -14 84
-43 14 -25 14 -33 3 -46 -20 -24 -129 -73 -163 -73 -45 0 -75 -11 -75 -25 0
-8 27 -30 60 -50 33 -20 75 -55 94 -78 19 -23 53 -77 76 -119 l42 -78 -29 -11
c-15 -7 -56 -14 -91 -17 l-62 -4 39 -43 c21 -23 44 -53 51 -66 24 -43 40 -123
47 -222 4 -74 3 -97 -7 -97 -21 0 -147 70 -188 106 -22 18 -54 57 -72 85 -19
28 -38 74 -45 102 -9 41 -16 53 -33 55 -15 2 -25 -5 -36 -27 -18 -34 -52 -61
-77 -61 -30 0 -44 65 -44 198 0 67 -2 122 -5 122 -12 0 -28 -16 -40 -40 -19
-35 -14 -154 9 -230 10 -36 22 -77 25 -92 4 -18 13 -28 24 -28 9 0 40 14 67
30 28 16 53 30 57 30 4 0 14 -13 23 -30 l15 -30 -53 -34 c-77 -49 -244 -123
-345 -151 -48 -14 -123 -29 -167 -34 -119 -13 -382 -13 -461 -1 -84 13 -187
44 -217 65 -12 8 -30 15 -40 15 -21 0 -84 36 -155 91 -26 19 -55 38 -66 42
-14 6 -17 4 -12 -9 3 -8 6 -17 6 -19 0 -2 21 -18 48 -37 70 -51 248 -143 323
-167 36 -12 76 -24 90 -26 13 -3 74 -10 134 -16 61 -6 145 -8 189 -5 89 8 255
38 366 67 94 25 239 88 310 135 61 40 62 40 145 -26 58 -46 220 -128 315 -158
36 -12 96 -26 134 -33 82 -14 230 -6 280 15 42 18 122 89 142 127 8 16 14 43
14 62 0 38 -21 63 -45 54 -8 -4 -17 -19 -20 -34 -16 -72 -38 -115 -80 -148
-33 -28 -58 -38 -106 -46 -50 -8 -78 -7 -134 6 -38 8 -84 24 -101 34 -18 11
-43 34 -57 53 -26 34 -62 132 -72 196 -3 20 -11 56 -17 80 l-11 43 47 47 c25
26 46 53 46 60 0 7 6 12 14 12 16 0 110 112 188 225 59 85 118 197 161 306 42
105 75 279 82 434 8 151 -5 321 -31 421 -21 81 -100 266 -138 322 -18 28 -40
48 -53 50 -20 3 -17 -6 32 -104 30 -58 71 -156 91 -218 20 -61 40 -149 45
-196 5 -47 9 -133 9 -193 0 -111 -19 -258 -46 -362 -41 -156 -116 -322 -209
-459 -30 -45 -79 -105 -109 -135 -45 -44 -58 -52 -69 -42 -8 6 -25 39 -38 72
-13 36 -46 90 -80 132 -32 39 -56 74 -53 79 3 4 22 12 44 18 22 6 58 25 82 43
24 17 55 38 70 46 21 11 25 18 18 31 -5 10 -24 30 -41 45 l-32 26 51 52 c30
30 62 77 78 112 14 33 32 94 40 135 15 87 18 240 5 240 -6 0 -12 -4 -15 -8 -3
-5 -6 -26 -7 -48 -1 -21 -9 -52 -16 -67 -8 -16 -29 -35 -46 -42 -18 -7 -58
-16 -89 -20 -48 -6 -64 -4 -98 14 -22 11 -58 21 -80 21 -21 0 -41 4 -45 10 -3
5 12 14 35 20 22 6 54 26 73 45 18 19 51 64 72 101 21 36 62 117 91 179 72
157 177 432 208 546 27 103 46 223 46 299 0 86 5 87 81 16 84 -79 123 -94 206
-78 47 10 65 19 96 52 39 41 49 80 21 80 -9 0 -36 -17 -59 -39 -24 -22 -56
-41 -77 -45 -25 -5 -52 0 -89 14 -30 11 -67 32 -82 45 -15 14 -35 42 -43 62
-12 29 -14 56 -9 118 11 137 23 202 41 231 12 18 51 42 114 71 52 25 104 52
114 61 32 28 66 113 66 164 0 42 -3 49 -41 79 -34 26 -40 37 -36 58 3 14 15
53 27 86 17 47 21 75 17 126 -2 39 -13 85 -26 111 -29 60 -88 128 -112 128
-10 0 -19 -4 -19 -9 0 -5 20 -33 45 -62 24 -28 51 -72 60 -97 8 -25 15 -67 15
-92 0 -47 -15 -107 -31 -124 -6 -6 -22 3 -43 23 -30 29 -41 33 -85 33 -28 0
-57 -5 -65 -11 -7 -6 -16 -8 -19 -4 -4 3 -5 81 -1 172 3 102 2 171 -4 180 -12
17 -90 28 -147 21z m281 -425 c13 -20 14 -30 5 -58 -6 -19 -32 -57 -56 -86
-44 -51 -54 -74 -37 -85 4 -2 28 11 52 31 25 19 57 41 72 49 16 9 38 12 53 8
34 -9 59 -47 51 -79 -12 -46 -67 -96 -154 -138 -46 -23 -103 -58 -127 -79 -31
-27 -48 -54 -65 -100 -12 -35 -25 -70 -28 -78 -11 -29 -19 66 -18 210 2 129 5
153 28 219 15 40 38 90 52 111 26 40 109 100 137 100 10 0 26 -11 35 -25z
m-1196 -2396 c0 -16 -56 -66 -81 -72 -17 -5 -12 4 22 39 24 24 47 44 51 44 4
0 8 -5 8 -11z m-2121 -444 c71 -10 199 -45 268 -73 82 -35 213 -109 213 -121
0 -5 -24 -11 -52 -15 -107 -13 -501 -26 -770 -26 l-278 0 0 22 c0 35 101 125
183 164 105 49 183 64 302 58 55 -2 115 -7 134 -9z m216 -461 c39 -9 86 -19
105 -23 19 -4 60 -19 90 -33 l55 -25 -60 -17 c-32 -10 -80 -28 -105 -41 -26
-13 -100 -73 -164 -134 -87 -82 -128 -113 -157 -121 -30 -8 -46 -8 -67 2 -19
10 -28 22 -30 44 -4 40 26 76 93 112 52 28 68 59 27 55 -12 -2 -53 -17 -90
-34 -36 -17 -76 -32 -88 -32 -29 0 -95 33 -102 51 -9 24 35 96 80 130 22 17
65 38 95 47 61 18 149 32 208 34 22 0 72 -6 110 -15z"/>
<path d="M603 4255 c-3 -10 -3 -191 0 -404 6 -348 17 -608 32 -746 20 -181 38
-288 61 -373 14 -53 46 -151 69 -217 81 -229 154 -390 243 -535 25 -41 85
-125 133 -185 86 -109 179 -205 198 -205 28 0 14 27 -55 107 -130 152 -264
353 -352 528 -59 120 -124 291 -171 450 -46 158 -51 180 -51 207 0 23 4 28 24
28 25 0 34 12 89 111 41 75 97 209 113 268 18 69 35 253 35 382 0 159 -49 331
-134 469 -40 64 -62 89 -90 104 -21 10 -40 16 -43 14 -2 -3 23 -41 57 -84 33
-43 69 -95 79 -115 26 -51 60 -155 68 -208 4 -26 7 -136 6 -246 0 -185 -2
-207 -27 -296 -15 -52 -40 -127 -55 -165 -31 -75 -108 -204 -122 -204 -5 0
-11 8 -14 18 -3 9 -8 46 -11 82 -15 174 -25 415 -31 748 -3 202 -9 391 -13
421 -6 54 -25 78 -38 46z"/>
<path d="M28884 4259 c-4 -7 -11 -186 -15 -398 -5 -212 -13 -476 -19 -586 -15
-273 -22 -335 -39 -335 -15 0 -91 128 -123 204 -15 38 -40 113 -55 165 -25 89
-27 111 -27 296 -1 110 2 220 6 246 8 53 42 157 68 208 10 20 46 72 79 115 34
43 59 81 57 84 -3 2 -22 -4 -43 -14 -28 -15 -50 -40 -90 -104 -53 -87 -90
-182 -118 -304 -9 -37 -16 -112 -16 -165 0 -129 17 -313 35 -382 16 -59 72
-193 113 -268 55 -99 64 -111 89 -111 20 0 24 -5 24 -27 0 -26 -18 -94 -69
-265 -53 -181 -149 -401 -243 -556 -75 -125 -175 -263 -262 -365 -69 -80 -83
-107 -55 -107 19 0 112 96 198 205 48 60 108 144 133 185 89 145 162 306 243
535 77 218 93 290 129 585 3 20 10 123 17 230 7 107 12 361 13 564 1 272 -2
370 -11 373 -6 2 -15 -2 -19 -8z"/>
<path d="M826 2770 c-21 -4 -42 -13 -47 -21 -15 -25 8 -32 67 -20 32 6 75 11
97 11 21 0 85 -9 140 -21 71 -14 118 -30 155 -52 30 -18 74 -52 98 -77 26 -26
52 -66 64 -98 25 -66 26 -155 2 -202 -12 -25 -23 -34 -37 -32 -11 2 -39 6 -63
9 -36 4 -48 1 -69 -18 -13 -13 -29 -32 -35 -43 -15 -28 9 -102 44 -131 16 -13
44 -27 63 -31 21 -4 48 -1 66 6 16 7 47 32 68 56 20 23 43 62 51 86 7 24 15
73 18 109 5 81 -16 161 -63 239 -19 30 -49 69 -67 86 -45 43 -113 86 -173 111
-27 12 -72 24 -100 27 -88 10 -239 14 -279 6z m633 -569 c-12 -28 -37 -65 -55
-81 -19 -16 -46 -33 -61 -36 -32 -8 -68 10 -96 47 -15 22 -17 30 -8 48 14 26
65 53 85 45 8 -3 18 -14 21 -24 8 -26 30 -41 48 -34 9 3 31 29 49 56 17 28 34
46 36 40 2 -6 -7 -33 -19 -61z"/>
<path d="M28560 2777 c-3 -2 -46 -7 -96 -10 -62 -4 -108 -12 -145 -28 -64 -27
-131 -70 -177 -113 -18 -17 -48 -56 -67 -86 -47 -78 -68 -158 -63 -239 3 -36
11 -85 18 -109 8 -24 31 -63 51 -86 21 -24 52 -49 68 -56 18 -7 45 -10 66 -6
19 4 47 18 63 31 35 29 59 103 44 131 -6 11 -22 30 -35 43 -21 19 -33 22 -69
18 -24 -3 -52 -7 -63 -9 -14 -2 -25 7 -37 32 -24 47 -23 136 2 202 12 32 38
72 64 98 24 25 68 59 98 77 37 22 84 38 155 52 55 12 119 21 142 21 22 0 63
-5 91 -11 28 -6 57 -8 65 -5 17 6 10 32 -11 40 -20 8 -158 19 -164 13z m-481
-556 c18 -27 39 -52 48 -55 18 -7 40 8 48 34 3 10 13 21 21 24 20 8 71 -19 85
-45 9 -18 7 -26 -8 -48 -28 -37 -65 -55 -95 -48 -42 11 -89 57 -114 112 -22
46 -30 75 -20 75 2 0 18 -22 35 -49z"/>
<path d="M2126 2370 c-41 -43 -46 -54 -46 -95 0 -32 6 -51 20 -65 24 -24 79
-26 120 -5 32 17 70 72 70 104 0 30 -25 77 -52 95 -12 9 -32 16 -44 16 -13 0
-40 -20 -68 -50z m39 -105 c0 -19 -5 -30 -14 -30 -19 0 -35 29 -28 49 4 10 15
16 24 14 13 -2 18 -13 18 -33z"/>
<path d="M27282 2404 c-27 -18 -52 -65 -52 -95 0 -32 38 -87 70 -104 41 -21
96 -19 120 5 14 14 20 33 20 65 0 41 -5 52 -46 95 -28 30 -55 50 -68 50 -12 0
-32 -7 -44 -16z m116 -130 c3 -23 -21 -49 -38 -39 -11 7 -14 48 -3 59 13 13
38 1 41 -20z"/>
<path d="M1738 2153 c-28 -18 -48 -52 -48 -83 0 -10 15 -34 33 -53 20 -22 46
-38 69 -42 26 -5 46 -1 75 13 22 11 44 17 50 14 24 -16 73 -124 108 -237 27
-87 47 -134 75 -170 63 -84 175 -187 246 -228 37 -21 109 -52 158 -69 50 -16
101 -40 113 -52 29 -27 59 -143 66 -257 4 -47 9 -93 13 -102 3 -9 10 -17 15
-17 15 0 22 71 16 160 -4 59 -16 117 -36 176 -16 49 -44 116 -62 149 -18 32
-66 94 -106 136 -41 42 -107 100 -147 128 -90 62 -211 121 -247 121 -15 0 -34
3 -43 6 -9 3 -16 17 -16 31 0 30 25 86 49 107 9 9 32 19 49 22 28 6 32 4 32
-14 0 -14 12 -25 40 -36 22 -9 51 -16 64 -16 13 0 35 9 50 21 20 16 26 29 26
59 0 30 -6 43 -30 64 -17 14 -46 28 -65 32 -25 4 -42 2 -58 -10 -12 -9 -49
-35 -82 -57 -33 -22 -68 -50 -77 -62 l-17 -22 -11 30 c-10 24 -9 43 5 100 10
39 27 89 38 112 12 24 17 46 13 50 -11 12 -39 -30 -66 -100 -13 -34 -27 -66
-31 -71 -13 -15 -40 15 -65 70 -12 27 -38 65 -58 82 -27 24 -46 32 -74 32 -20
0 -49 -8 -64 -17z m147 -78 c0 -22 -31 -33 -47 -17 -6 6 -8 18 -4 27 3 10 15
15 28 13 15 -2 23 -10 23 -23z m375 -130 c0 -9 -7 -18 -16 -22 -18 -7 -39 11
-30 26 11 17 46 13 46 -4z m-86 -260 c37 -13 92 -38 121 -55 29 -16 81 -55
115 -86 66 -59 133 -132 150 -165 6 -11 8 -29 5 -39 -4 -11 -15 -20 -26 -20
-30 0 -146 62 -219 116 -36 27 -89 73 -119 104 -29 30 -66 78 -82 105 -16 28
-29 53 -29 58 0 4 3 7 8 7 4 0 38 -11 76 -25z"/>
<path d="M27644 2138 c-20 -17 -46 -55 -58 -82 -25 -55 -52 -85 -65 -70 -4 5
-18 37 -31 71 -27 70 -55 112 -66 100 -4 -4 1 -26 13 -50 11 -23 28 -73 38
-112 14 -57 15 -76 5 -100 l-11 -30 -17 22 c-9 12 -44 40 -77 62 -33 22 -70
48 -82 57 -16 12 -33 14 -58 10 -19 -4 -48 -18 -65 -32 -24 -21 -30 -34 -30
-64 0 -30 6 -43 26 -59 15 -12 37 -21 50 -21 13 0 42 7 64 16 28 11 40 22 40
36 0 18 4 20 32 14 17 -3 40 -13 49 -22 24 -21 49 -77 49 -107 0 -14 -7 -28
-16 -31 -9 -3 -28 -6 -43 -6 -36 0 -157 -59 -247 -121 -40 -28 -106 -86 -147
-128 -40 -42 -88 -104 -106 -136 -18 -33 -46 -100 -62 -149 -20 -59 -32 -117
-36 -176 -6 -89 1 -160 16 -160 5 0 12 8 15 17 4 9 9 55 13 102 7 114 37 230
66 257 12 12 63 36 113 52 49 17 121 48 158 69 71 41 183 144 246 228 28 36
48 83 75 170 35 113 84 221 108 237 6 3 28 -3 50 -14 29 -14 49 -18 75 -13 23
4 49 20 69 42 18 19 33 43 33 53 0 32 -20 66 -50 83 -15 10 -44 17 -64 17 -25
0 -45 -9 -72 -32z m41 -63 c0 -22 -31 -33 -47 -17 -6 6 -8 18 -4 27 3 10 15
15 28 13 15 -2 23 -10 23 -23z m-380 -135 c0 -22 -39 -19 -43 3 -3 15 1 18 20
15 12 -2 23 -10 23 -18z m125 -237 c0 -5 -13 -30 -29 -58 -16 -27 -53 -75 -82
-105 -30 -31 -83 -77 -119 -104 -73 -54 -189 -116 -219 -116 -11 0 -22 9 -26
20 -3 10 -1 28 5 39 17 33 84 106 150 165 34 31 86 70 116 86 52 30 166 77
192 79 6 1 12 -2 12 -6z"/>
<path d="M1250 1287 c0 -13 7 -48 16 -77 13 -45 30 -68 93 -131 42 -42 99 -88
128 -103 29 -14 57 -26 63 -26 21 0 9 19 -27 41 -67 41 -125 102 -184 192 -32
48 -61 96 -64 107 -4 11 -11 20 -16 20 -5 0 -9 -10 -9 -23z"/>
<path d="M28245 1290 c-3 -11 -32 -59 -64 -107 -59 -90 -117 -151 -183 -192
-37 -22 -49 -41 -28 -41 6 0 34 12 63 26 29 15 86 61 128 103 63 63 80 86 93
131 18 60 21 100 7 100 -5 0 -12 -9 -16 -20z"/>
<path d="M4220 565 l0 -105 10530 0 10530 0 0 105 0 105 -10530 0 -10530 0 0
-105z"/>
</g>
</svg>
