<?xml version="1.0" encoding="UTF-8"?><svg width="800" height="600" id="a" xmlns="http://www.w3.org/2000/svg" viewBox="0 0 800 600.7"><g fill="#000000"><path d="M202.38,233.11c-10.26-13.89-14.5-29.54-14.17-46.39,.12-6.21,1.31-12.45,2.56-18.57,1.48-7.27,5.75-12.8,12.15-16.63,16.13-9.65,33.67-13.67,52.34-12.88,30.2,1.29,54.27,15.45,75.21,36.09,.8,.79,1.51,1.66,2.64,2.92,.32-6.19,.43-11.81,.93-17.4,4.93-54.12,38.14-102.19,87.81-120.6,2.16-.8,3.86-.86,6,.47,34.44,21.44,55.59,51.98,62.95,91.88,2.56,13.9,2.48,27.93,.44,41.94-.14,.97-.15,1.96-.24,3.16,5.49-4.85,10.57-9.74,16.05-14.11,16.28-12.99,34.63-21.52,55.44-23.91,19.9-2.29,38.73,1.44,56.49,10.93,11.53,6.16,15.34,16.58,16.62,28.48,2.13,19.78-2.04,38.08-13.54,54.72,3.09,2.55,6.19,4.99,9.17,7.58,14.88,12.92,26.33,28.4,34.35,46.39,.56,1.26,.41,3.39-.3,4.58-18.7,31.51-46.54,50.77-81.68,59.5-11.53,2.86-23.56,3.67-35.24,5.39,2.64,3.13,5.9,6.83,8.98,10.68,15.48,19.39,25.33,41.33,28.75,65.92,4.12,29.55,.14,57.95-13.55,84.7-.72,1.4-2.37,3.07-3.78,3.27-27.27,3.88-53.89,1.56-79.5-9.1-5.03-2.1-9.93-4.53-15.13-6.92-.31,.77-.7,1.65-1.02,2.56-8.3,23.17-23.83,39.81-45.69,50.79-8.99,4.51-17.86,4.51-26.88-.01-23.9-11.98-40.08-30.67-49.16-55.75-5.27,2.56-10.57,5.38-16.06,7.77-24.15,10.53-49.38,14.14-75.54,11.49-1.36-.14-2.72-.63-4.06-.55-2.68,.15-4.11-1.06-5.26-3.4-7.41-15.07-12.14-30.88-13.92-47.6-2.48-23.33,.27-45.94,8.95-67.78,6.49-16.31,15.89-30.74,28.07-43.37,.86-.89,1.93-1.59,2.9-2.38l-.28-.95c-1.6-.13-3.2-.31-4.8-.38-37.5-1.71-69.8-15.34-95.87-42.57-6.1-6.38-10.91-14-16.34-21.02-1.26-1.62-1.15-3.07-.34-4.96,7.11-16.57,20.02-36.75,43.54-53.97Zm357.44,211.05c.07-19.77-3.12-35.62-9.54-50.1-9.93-22.4-26.29-38.97-47-51.45-18.32-11.04-37.55-19.97-58.82-23.8-5.83-1.05-11.66-2.35-16.81,2.27-1.13,1.01-2.94,1.21-4.3,2.01-1.08,.63-2.28,1.43-2.88,2.46-5.87,10.26-8.54,21.53-8.03,33.15,.53,12.02,1.79,24.12,3.97,35.95,5.14,27.83,18.53,51.02,41.22,68.36,26.3,20.1,56.21,28.89,89.15,28,3.23-.09,4.71-1.29,5.68-4.39,4.56-14.56,7.48-29.35,7.34-42.46Zm-154.54-71.29c-.69-8.29-1.07-16.63-2.16-24.87-1.16-8.82-3.32-17.43-7.72-25.33-1.46-2.61-3.07-4.36-6.44-3.56-2.54,.6-5.2,.65-7.77,1.14-20.31,3.86-39.18,11.7-57.37,21.25-17.11,8.98-32.22,20.51-42.64,37.1-21.89,34.88-22.09,71.8-9.63,109.78,.6,1.82,1.59,2.37,3.44,2.48,15.66,.94,30.96-1.08,45.89-5.76,30.75-9.63,55.01-27.64,71.11-55.88,9.94-17.43,13.21-36.48,13.28-56.35Zm-15.29-102.11c.81-.62,1.51-1.17,2.21-1.72,7.76-6.06,16.4-8.64,26.23-6.86,5.01,.91,9.84,.78,13.66-3.36,.38-.41,.92-.68,1.34-1.06,33.11-29.91,45.78-67.14,37.87-110.76-5.6-30.86-22.06-55.56-47.31-74.33-2-1.49-3.38-1.42-5.4-.34-23.77,12.78-41.66,31.32-53.5,55.46-17.29,35.23-20.19,71.05-2.98,107.3,6.6,13.9,15.93,25.71,27.88,35.65Zm45.99,1.59c7.06,9.12,9.23,15.88,7.57,25.7-.48,2.83,.34,4.01,2.43,5.47,18.27,12.77,38.87,20.28,59.95,26.67,15.22,4.61,30.8,6.53,46.62,4.16,32.35-4.84,58.17-20.78,78.11-46.56,1.4-1.81,1.32-3.14,.07-4.79-3.1-4.09-5.92-8.41-9.27-12.28-28.1-32.45-63.99-47.02-106.42-43.75-33.01,2.54-58.57,19.76-79.06,45.37Zm-244.01,12.59c9.18,12.75,20.25,23.02,33.17,31.27,17.77,11.35,36.92,18.69,58.24,19.49,23.53,.88,45.49-5.56,66.98-14.26,10.42-4.22,20.17-9.58,28.62-17.12,1.45-1.29,2.21-2.46,1.99-4.88-.46-5.03,.15-10.16,.25-15.25,.02-1.28,.14-2.8-.47-3.8-10.51-17.52-23.93-32.27-42.09-42.07-21.19-11.43-43.8-14.21-67.31-9.67-34.83,6.73-60.89,25.94-79.38,56.29Zm151.81-61.92c-2.02-5.25-3.13-10.7-5.95-15.05-9-13.88-20.49-25.4-35.5-32.85-28.58-14.18-58.28-15.64-88.83-7.62-3.17,.83-4.09,2.18-3.51,5.12,1.63,8.37,2.66,16.91,5,25.07,2.22,7.78,5.79,15.17,8.65,22.45,40.9-17.01,80.38-16.16,120.15,2.87Zm256.23-1.84c.77-1.39,1.53-2.65,2.19-3.96,7.3-14.29,11.33-29.46,12.42-45.46,.16-2.42-.47-3.44-2.75-4.09-24.54-6.95-49.11-7.11-73.48,.33-23.33,7.12-40.86,22.05-54.15,42.23-2.27,3.44-4.41,6.96-6.87,10.85,41.23-17.46,81.72-19.43,122.64,.1Zm-194.34,275.76c6.3-18.21,4.09-36.48,.75-54.36-4.75,7.51-9.2,15.59-14.67,22.91-5.5,7.36-12,13.96-18.41,21.29,8.46,22.16,22.67,40.79,42.4,55.53,15.65-13.57,27.38-29.51,34.32-48.88,.84-2.33,.51-3.59-1.39-5.18-12.8-10.65-22.88-23.49-30.39-38.35-.26-.52-.7-.96-.7-.96-.68,8.15-.91,16.61-2.2,24.9-1.3,8.35-4.51,16.17-9.72,23.09Zm6.51-223.87c-11.81,.25-20.45,9.17-20.17,20.82,.27,11.17,9.62,20.43,20.35,20.15,11.31-.3,20.53-9.84,20.33-21.06-.19-11.1-9.5-20.13-20.51-19.9Z"/><path d="M501.16,432.21c-6.59-42.72-24.94-77.4-64.3-98.14-.55,.2-1.11,.4-1.66,.6-.42,4.43,.61,8.9,1.29,13.3,4.44,28.63,17.52,53.24,35.66,75.37,7.3,8.91,15.07,17.44,22.62,26.15,.59,.68,1.15,1.39,1.91,2.31-.51,.05-.85,.2-1.01,.09-22.66-15.52-42.59-33.67-55.61-58.35-7.55-14.3-11.42-29.71-12.77-45.73-.42-4.97-.35-10.02,.02-15,.38-5.15,3.59-7.95,8.58-6.71,5.21,1.3,10.39,3.42,15.04,6.12,16.81,9.77,31.11,22.3,40.84,39.48,9.36,16.54,12.19,34.39,10.46,53.12-.17,1.82-.35,3.63-.57,5.44-.08,.67-.32,1.31-.48,1.97Z"/><path d="M383.52,336.41c-18.05,10.15-31.34,24.06-41.49,41.09-10.15,17.02-14.54,35.96-17.94,55.26-1.92-7.96-2.5-15.99-2.05-24.15,1.56-27.96,15.66-48.97,36.68-66.08,4.68-3.81,9.71-7.19,14.69-10.6,1.95-1.34,4.16-2.37,6.35-3.29,6.93-2.9,11.92-.43,12.39,6.98,.54,8.38,.69,16.91-.3,25.23-4.52,38.01-26.11,65.53-55.3,88.18-1.76,1.37-3.57,2.67-5.76,3.55,5.26-6.48,10.62-12.9,15.78-19.47,15.26-19.45,28.04-40.28,33.57-64.7,2.05-9.06,2.71-18.43,3.91-27.67,.15-1.14-.27-2.35-.52-4.31Z"/><path d="M399.12,242.67c7.73-29.39,13.3-58.74,1.6-88.53,3.39,2.52,7.91,9.76,10.83,16.81,4.91,11.85,5.42,24.15,3.94,36.64-1.5,12.68-3.81,25.22-8.14,37.29-.69,1.92-1.52,3.82-2.58,5.56-2.25,3.7-6.69,4.48-9.94,1.59-2.02-1.79-3.8-3.97-5.3-6.22-12.23-18.34-16.55-38.68-15.39-60.49,.96-18.28,6.21-35.33,13.97-51.73,.48-1.01,.97-2.02,1.93-2.9-.71,3.54-1.43,7.08-2.14,10.62-.74,3.68-1.47,7.37-2.18,11.06-5.08,26.36-4.66,52.36,5.18,77.72,1.8,4.63,3.78,9.21,8.23,12.58Z"/><path d="M434.22,138.15c8.54,8.93,13.54,19.61,15.61,31.64,3.91,22.79-2.26,43.57-13.35,63.17-3.24,5.72-6.92,11.32-11.18,16.31-5.26,6.14-5.65,6.96-12.31,.35,14.24-14.97,22.51-32.96,27.15-52.72,4.73-20.14,2.84-39.78-5.91-58.75Z"/><path d="M570.11,257.83c-41.02-6.26-78.76-1.03-113.02,24.44,2.18,1.21,3.54,2.15,5.03,2.77,15.02,6.3,30.75,8.85,46.98,9.05,18.93,.24,36.25-5.85,53.37-12.92,4.37-1.81,8.75-3.57,13.21-5.12-21.61,18.78-45.51,31.6-75.3,28.65-15.28-1.51-30.04-5.19-43.99-11.7-10.51-4.91-11.22-10.96-2.33-18.47,16.26-13.72,34.63-23.16,55.82-26.31,20.36-3.02,39.93,.24,58.76,8.36,.27,.12,.47,.39,1.45,1.24Z"/><path d="M257.56,267.05c20.6,17.82,43.5,29.48,71.61,28.33,14.65-.6,29.83-3.77,34.98-8.16-2.42-2.09-4.66-4.27-7.14-6.13-18.24-13.61-38.7-22.05-61.12-25.58-9.89-1.55-19.9-2.42-29.85-3.62-1.23-.15-2.45-.42-4.01-.69,30.56-6.31,59.72-5.39,89.09,14.32,6.42,4.31,12.61,9.06,18.35,14.23,6.86,6.18,5.89,11.7-2.24,16.19-8.38,4.62-17.51,7.04-26.87,8.51-15.7,2.48-31.15,1.82-46.02-4.43-16.03-6.74-27.83-18.25-36.76-32.98Z"/><path d="M304.2,203.77c-3.51-.18-7.02-.25-10.51-.62-1.26-.13-2.71-.73-3.63-1.59-11.33-10.72-23.93-19.53-38.2-25.92-.29-.13-.5-.45-.78-.72,20.45,2.32,47.42,19.24,53.11,28.85Z"/><path d="M573.53,175.08c-.67,.38-1.32,.82-2.02,1.13-13.76,6.11-25.88,14.69-37.21,24.51-1.18,1.02-2.95,1.65-4.53,1.85-3.38,.44-6.8,.48-10.38,.33,15.04-15.02,32.94-24.56,54.14-27.82Z"/></g></svg>