<svg width="22784" height="9792" viewBox="0 0 22784 9792" fill="none" xmlns="http://www.w3.org/2000/svg">

<clipPath id="inner-space">
<path d="M952.574 8949.58H1518.4V9120.89C1518.4 9281.71 1670.52 9412.51 1857.56 9412.51H20926.4C21113.5 9412.51 21265.6 9281.71 21265.6 9120.89V8949.58H21831.4C21900.6 8738.37 22096.7 8569.49 22342.4 8510.03V1281.97C22096.7 1222.31 21900.6 1053.63 21831.4 842.417H21265.6V671.112C21265.6 510.287 21113.5 379.492 20926.4 379.492H1857.56C1670.52 379.492 1518.4 510.287 1518.4 671.112V842.417H952.574C883.427 1053.63 687.24 1222.31 441.595 1281.97V8510.03C687.24 8569.49 883.427 8738.37 952.574 8949.58Z" />
</clipPath>
<rect id="bg-tint" width="22784" height="9792" fill="#D9C7CA" clip-path="url(#inner-space)" />


<mask id="mask0_1219_1108" style="mask-type:luminance" maskUnits="userSpaceOnUse" x="0" y="0" width="22784" height="9792">
<path d="M699.903 9190.22H1240.41L1254.95 9243.62C1321.52 9484.86 1569.27 9653.14 1857.57 9653.14H20926.4C21214.7 9653.14 21462.5 9484.86 21529.1 9243.62L21543.8 9190.22H22084.1V9120.89C22084.1 8903.83 22289.4 8727.29 22541.6 8727.29H22622.5V1064.71H22541.6C22289.4 1064.71 22084.1 888.166 22084.1 671.112V601.785H21543.8L21529.1 548.379C21462.5 307.141 21214.7 138.858 20926.4 138.858H1857.57C1569.27 138.858 1321.52 307.141 1254.95 548.379L1240.41 601.785H699.903V671.112C699.903 888.166 494.81 1064.71 242.368 1064.71H161.503V8727.29H242.368C494.81 8727.29 699.903 8903.83 699.903 9120.89V9190.22ZM20926.4 9792H1857.57C1515.82 9792 1219.32 9604.37 1115.25 9329.07H538.4V9120.89C538.4 8980.42 405.741 8866.15 242.368 8866.15H0V925.854H242.368C405.741 925.854 538.4 811.583 538.4 671.112V462.927H1115.25C1219.32 187.629 1515.82 -0.000475378 1857.57 -0.000475378H20926.4C21268.2 -0.000475378 21564.9 187.629 21668.8 462.927H22245.6V671.112C22245.6 811.583 22378.5 925.854 22541.6 925.854H22784V8866.15H22541.6C22378.5 8866.15 22245.6 8980.42 22245.6 9120.89V9329.07H21668.8C21564.9 9604.37 21268.2 9792 20926.4 9792Z" fill="white"/>
</mask>
<g mask="url(#mask0_1219_1108)">
<path d="M699.903 9190.22H1240.41L1254.95 9243.62C1321.52 9484.86 1569.27 9653.14 1857.57 9653.14H20926.4C21214.7 9653.14 21462.5 9484.86 21529.1 9243.62L21543.8 9190.22H22084.1V9120.89C22084.1 8903.83 22289.4 8727.29 22541.6 8727.29H22622.5V1064.71H22541.6C22289.4 1064.71 22084.1 888.166 22084.1 671.112V601.785H21543.8L21529.1 548.379C21462.5 307.141 21214.7 138.858 20926.4 138.858H1857.57C1569.27 138.858 1321.52 307.141 1254.95 548.379L1240.41 601.785H699.903V671.112C699.903 888.166 494.81 1064.71 242.368 1064.71H161.503V8727.29H242.368C494.81 8727.29 699.903 8903.83 699.903 9120.89V9190.22ZM20926.4 9792H1857.57C1515.82 9792 1219.32 9604.37 1115.25 9329.07H538.4V9120.89C538.4 8980.42 405.741 8866.15 242.368 8866.15H0V925.854H242.368C405.741 925.854 538.4 811.583 538.4 671.112V462.927H1115.25C1219.32 187.629 1515.82 -0.000475378 1857.57 -0.000475378H20926.4C21268.2 -0.000475378 21564.9 187.629 21668.8 462.927H22245.6V671.112C22245.6 811.583 22378.5 925.854 22541.6 925.854H22784V8866.15H22541.6C22378.5 8866.15 22245.6 8980.42 22245.6 9120.89V9329.07H21668.8C21564.9 9604.37 21268.2 9792 20926.4 9792Z" fill="url(#paint0_linear_1219_1108)"/>
</g>
<mask id="mask1_1219_1108" style="mask-type:luminance" maskUnits="userSpaceOnUse" x="366" y="314" width="22052" height="9164">
<path d="M952.574 8949.58H1518.4V9120.89C1518.4 9281.71 1670.52 9412.51 1857.56 9412.51H20926.4C21113.5 9412.51 21265.6 9281.71 21265.6 9120.89V8949.58H21831.4C21900.6 8738.37 22096.7 8569.49 22342.4 8510.03V1281.97C22096.7 1222.31 21900.6 1053.63 21831.4 842.417H21265.6V671.112C21265.6 510.287 21113.5 379.492 20926.4 379.492H1857.56C1670.52 379.492 1518.4 510.287 1518.4 671.112V842.417H952.574C883.427 1053.63 687.24 1222.31 441.595 1281.97V8510.03C687.24 8569.49 883.427 8738.37 952.574 8949.58ZM20926.4 9477.2H1857.56C1629.03 9477.2 1442.92 9317.38 1442.92 9120.89V9014.28H893.737L886.705 8989.49C829.513 8781.91 636.609 8615.84 395.184 8566.67L366.113 8560.82V1231.18L395.184 1225.33C636.609 1176.16 829.513 1010.1 886.705 802.514L893.737 777.725L1442.92 777.524V671.112C1442.92 474.615 1629.03 314.798 1857.56 314.798H20926.4C21155.2 314.798 21341.1 474.615 21341.1 671.112V777.725H21890.5L21897.3 802.514C21954.5 1010.1 22147.4 1176.16 22388.8 1225.33L22417.9 1231.18V8560.82L22388.8 8566.67C22147.4 8615.84 21954.5 8781.91 21897.3 8989.49L21890.5 9014.28L21341.1 9014.48V9120.89C21341.1 9317.38 21155.2 9477.2 20926.4 9477.2Z" fill="white"/>
</mask>
<g mask="url(#mask1_1219_1108)">
<path d="M952.574 8949.58H1518.4V9120.89C1518.4 9281.71 1670.52 9412.51 1857.56 9412.51H20926.4C21113.5 9412.51 21265.6 9281.71 21265.6 9120.89V8949.58H21831.4C21900.6 8738.37 22096.7 8569.49 22342.4 8510.03V1281.97C22096.7 1222.31 21900.6 1053.63 21831.4 842.417H21265.6V671.112C21265.6 510.287 21113.5 379.492 20926.4 379.492H1857.56C1670.52 379.492 1518.4 510.287 1518.4 671.112V842.417H952.574C883.427 1053.63 687.24 1222.31 441.595 1281.97V8510.03C687.24 8569.49 883.427 8738.37 952.574 8949.58ZM20926.4 9477.2H1857.56C1629.03 9477.2 1442.92 9317.38 1442.92 9120.89V9014.28H893.737L886.705 8989.49C829.513 8781.91 636.609 8615.84 395.184 8566.67L366.113 8560.82V1231.18L395.184 1225.33C636.609 1176.16 829.513 1010.1 886.705 802.514L893.737 777.725L1442.92 777.524V671.112C1442.92 474.615 1629.03 314.798 1857.56 314.798H20926.4C21155.2 314.798 21341.1 474.615 21341.1 671.112V777.725H21890.5L21897.3 802.514C21954.5 1010.1 22147.4 1176.16 22388.8 1225.33L22417.9 1231.18V8560.82L22388.8 8566.67C22147.4 8615.84 21954.5 8781.91 21897.3 8989.49L21890.5 9014.28L21341.1 9014.48V9120.89C21341.1 9317.38 21155.2 9477.2 20926.4 9477.2Z" fill="url(#paint1_linear_1219_1108)"/>
</g>
<defs>
<linearGradient id="paint0_linear_1219_1108" x1="0" y1="4895.9" x2="22783.9" y2="4895.9" gradientUnits="userSpaceOnUse">
<stop stop-color="#968428"/>
<stop offset="0.503741" stop-color="#CDC577"/>
<stop offset="1" stop-color="#968428"/>
</linearGradient>
<linearGradient id="paint1_linear_1219_1108" x1="366.113" y1="4896.1" x2="22417.8" y2="4896.1" gradientUnits="userSpaceOnUse">
<stop stop-color="#968428"/>
<stop offset="0.503741" stop-color="#CDC577"/>
<stop offset="1" stop-color="#968428"/>
</linearGradient>
</defs>
</svg>
