<svg width="2209" height="1085" viewBox="0 0 22087 10845" fill="none" xmlns="http://www.w3.org/2000/svg">
<path d="M 374.984 1275.27 H 21698 V 10585.3 H 374.984 Z" fill="#F0E4E5"/>
<mask id="mask0_1202_3878" style="mask-type:luminance" maskUnits="userSpaceOnUse" x="285" y="1239" width="21503" height="9383">
<path d="M 285 1239 H 21788 V 10621.5 H 285 Z M 374.984 1275.27 V 10585.3 H 21698 V 1275.27 Z" fill="white"/>
</mask>
<g mask="url(#mask0_1202_3878)">
<path d="M 285 1239 H 21788 V 10621.5 H 285 Z M 374.984 1275.27 V 10585.3 H 21698 V 1275.27 Z" fill="url(#paint0_linear_1202_3878)"/>
</g>
<mask id="mask1_1202_3878" style="mask-type:luminance" maskUnits="userSpaceOnUse" x="0" y="1014" width="22087" height="9831">
<path d="M 0 1014.97 H 22087 V 10844.8 H 0 Z M 174.413 1086.93 V 10772.9 H 21912.6 V 1086.93 Z" fill="white"/>
</mask>
<g mask="url(#mask1_1202_3878)">
<path d="M 0 1014.97 H 22087 V 10844.8 H 0 Z M 174.413 1086.93 V 10772.9 H 21912.6 V 1086.93 Z" fill="url(#paint1_linear_1202_3878)"/>
</g>
<defs>
<linearGradient id="paint0_linear_1202_3878" x1="285" y1="5930.27" x2="21788" y2="5930.27" gradientUnits="userSpaceOnUse">
<stop stop-color="#968428"/>
<stop offset="0.503741" stop-color="#CDC577"/>
<stop offset="1" stop-color="#968428"/>
</linearGradient>
<linearGradient id="paint1_linear_1202_3878" x1="0" y1="5929.85" x2="22087" y2="5929.85" gradientUnits="userSpaceOnUse">
<stop stop-color="#968428"/>
<stop offset="0.503741" stop-color="#CDC577"/>
<stop offset="1" stop-color="#968428"/>
</linearGradient>
</defs>
</svg>
