<?xml version="1.0" encoding="UTF-8"?>
<svg id="Layer_2" data-name="Layer 2" xmlns="http://www.w3.org/2000/svg" viewBox="0 0 5500 1387.8">
  <g id="Outline_Banner_Label" data-name="Outline / Banner Label">
    <g id="Minimal_Classic_Rectangle_Label_Frame" data-name="Minimal Classic Rectangle Label Frame">
      <path d="M5378.77,354.92v-112.58h-120.28c-67.31,0-122.08-54.77-122.08-122.08V0H363.58v120.27c0,67.31-54.76,122.08-122.07,122.08h-120.28v112.58C45.12,429.47,0,555.01,0,693.9s45.12,264.43,121.23,338.98v112.58h120.28c67.31,0,122.07,54.77,122.07,122.07v120.27h4772.83v-120.27c0-67.31,54.77-122.07,122.08-122.07h120.28v-112.58c76.11-74.54,121.23-200.09,121.23-338.98s-45.12-264.43-121.23-338.98ZM5333.46,1000.93l-9.01,8.09v82.12h-65.96c-97.26,0-176.4,79.13-176.4,176.39v65.96H417.9v-65.96c0-97.26-79.13-176.39-176.39-176.39h-65.96v-82.12l-9.01-8.09c-70.27-63.13-112.23-177.9-112.23-307.03s41.95-243.89,112.23-307.03l9.01-8.09v-82.12h65.96c97.26,0,176.39-79.13,176.39-176.39V54.31h4664.2v65.96c0,97.26,79.13,176.39,176.4,176.39h65.96v82.12l9.01,8.09c70.27,63.14,112.23,177.91,112.23,307.03s-41.95,243.9-112.23,307.03Z" fill="#af957b"/>
      <path d="M5266.25,409.94v-55.08h-7.76c-129.35,0-234.59-105.23-234.59-234.58v-7.76H476.1v7.76c0,129.35-105.23,234.58-234.59,234.58h-7.76v55.08c-71.61,39.02-121.24,154.68-121.24,283.97s49.63,244.95,121.24,283.97v55.08h7.76c129.35,0,234.59,105.23,234.59,234.58v7.76h4547.8v-7.76c0-129.35,105.24-234.58,234.59-234.58h7.76v-55.08c71.62-39.02,121.24-154.68,121.24-283.97s-49.63-244.95-121.24-283.97ZM5255.04,966.21l-4.31,2.14v49.2c-131.76,4.03-238.2,110.46-242.23,242.23H491.5c-4.03-131.76-110.47-238.2-242.23-242.23v-49.2l-4.31-2.14c-68.84-34.15-116.92-146.12-116.92-272.31s48.08-238.16,116.92-272.31l4.31-2.14v-49.2c131.76-4.03,238.2-110.46,242.23-242.23h4517c4.03,131.76,110.46,238.2,242.23,242.23v49.2l4.31,2.14c68.85,34.14,116.93,146.12,116.93,272.31s-48.08,238.17-116.93,272.31Z" fill="#af957b"/>
    </g>
  </g>
</svg>