<?xml version="1.0" encoding="UTF-8"?>
<svg id="Layer_2" data-name="Layer 2" xmlns="http://www.w3.org/2000/svg" viewBox="0 0 5384.11 1453.39" width="5384.11" height="1453.39">
  <defs>
    <linearGradient id="gold_gradient" x1="0" y1="0" x2="1" y2="0" gradientUnits="objectBoundingBox">
      <stop offset="0" stop-color="#968428"/>
      <stop offset="0.5" stop-color="#CDC577"/>
      <stop offset="1" stop-color="#968428"/>
    </linearGradient>
  </defs>
  <g id="Outline_Banner_Label" data-name="Outline / Banner Label">
    <g id="Retro_Decorative_Plaque_Border" data-name="Retro Decorative Plaque Border">
      <path d="M5029.25,120.27v-7.76H354.86v7.76c0,129.35-105.24,234.58-234.59,234.58h-7.76v743.67h7.76c129.35,0,234.59,105.23,234.59,234.59v7.76h4674.38v-7.76c0-129.36,105.24-234.59,234.59-234.59h7.76V354.85h-7.76c-129.35,0-234.59-105.23-234.59-234.58Z" fill="#D9C7CA"/>
      <path d="M5263.84,242.35c-67.31,0-122.08-54.77-122.08-122.08V0H242.35v120.27c0,67.31-54.76,122.08-122.07,122.08H0v968.7h120.27c67.31,0,122.07,54.77,122.07,122.08v120.27h4899.42v-120.27c0-67.31,54.76-122.08,122.08-122.08h120.27V242.35h-120.27ZM5329.79,1156.73h-65.96c-97.26,0-176.39,79.13-176.39,176.39v65.96H296.66v-65.96c0-97.26-79.13-176.39-176.39-176.39H54.32V296.66h65.96c97.26,0,176.39-79.13,176.39-176.39V54.31h4790.78v65.96c0,97.26,79.13,176.39,176.39,176.39h65.96v860.07Z" fill="url(#gold_gradient)"/>
      <path d="M5029.25,120.27v-7.76H354.86v7.76c0,129.35-105.24,234.58-234.59,234.58h-7.76v743.67h7.76c129.35,0,234.59,105.23,234.59,234.59v7.76h4674.38v-7.76c0-129.36,105.24-234.59,234.59-234.59h7.76V354.85h-7.76c-129.35,0-234.59-105.23-234.59-234.58ZM5256.08,1083.13c-131.77,4.03-238.2,110.46-242.23,242.23H370.26c-4.03-131.77-110.47-238.2-242.23-242.23V370.26c131.77-4.03,238.2-110.46,242.23-242.23h4643.59c4.03,131.76,110.47,238.2,242.23,242.23v712.87Z" fill="url(#gold_gradient)"/>
    </g>
  </g>
</svg>