<?xml version="1.0" encoding="UTF-8"?>
<svg width="2936.67" height="4499.99" id="Layer_2" data-name="Layer 2" xmlns="http://www.w3.org/2000/svg" viewBox="0 0 2936.67 4499.99">
  <g id="Vertical">
    <g id="Rounded_Arch_Label_Border" data-name="Rounded Arch Label Border">
      <path d="M177.9,1468.33 c0,-711.54 578.88,-1290.43 1290.43,-1290.43 s1290.44,578.88 1290.44,1290.43 v1563.33 c0,711.54 -578.88,1290.43 -1290.44,1290.43 s-1290.43,-578.88 -1290.43,-1290.43 Z" fill="#D9C7CA"/>
      <path d="M1468.33,156.34 c-723.44,0 -1312,588.56 -1312,1312 v1563.32 c0,723.44 588.56,1312 1312,1312 s1312,-588.56 1312,-1312 V1468.34 c0,-723.44 -588.56,-1312 -1312,-1312 Z M177.9,1468.33 c0,-711.54 578.88,-1290.43 1290.43,-1290.43 s1290.44,578.88 1290.44,1290.43 v1563.33 c0,711.54 -578.88,1290.43 -1290.44,1290.43 s-1290.43,-578.88 -1290.43,-1290.43 Z" fill="#af957b"/>
    </g>
  </g>
</svg>