<?xml version="1.0" encoding="UTF-8"?>
<svg id="Layer_2" data-name="Layer 2" xmlns="http://www.w3.org/2000/svg" viewBox="0 0 3823.39 2327.4">
  <defs>
    <linearGradient id="gold_gradient" x1="0" y1="0" x2="1" y2="0" gradientUnits="objectBoundingBox">
      <stop offset="0" stop-color="#968428"/>
      <stop offset="0.5" stop-color="#CDC577"/>
      <stop offset="1" stop-color="#968428"/>
    </linearGradient>
  </defs>
  <g id="Horizontal">
    <g id="Beveled_Corner_Rectangle_Label" data-name="Beveled Corner Rectangle Label">
      <path d="M3603.47,787.41c-58.52-107.7-139.38-190.07-234.09-238.54v-283.48l-6.49-1.75c-98.33-26.48-118.39-118.92-119.19-122.83l-1.42-7.03H588.3l-7.16.02-1.43,7c-.81,3.92-20.87,96.35-119.2,122.84l-6.49,1.75v283.48c-94.71,48.47-175.57,130.84-234.08,238.54-60.71,111.72-92.79,242.99-92.79,379.62s32.09,267.89,92.79,379.61c58.52,107.7,139.37,190.06,234.08,238.54v283.48l6.49,1.75c98.33,26.48,118.39,118.92,119.2,122.83l1.42,7.03h2653.97l7.16-.02,1.43-7c.81-3.92,20.87-96.36,119.2-122.84l6.49-1.75v-283.48c94.71-48.47,175.57-130.84,234.09-238.54,60.7-111.72,92.79-242.99,92.79-379.61s-32.08-267.89-92.79-379.62Z" fill="#D9C7CA"/>
      <path d="M3496.52,477.13V167.95l-100.57-27.08c-18.52-4.99-25.61-20.35-27.85-27.03l-16.05-107.2H589.17L472.54,0l-17.22,113.81c-2.24,6.67-9.32,22.06-27.86,27.06l-100.58,27.08v309.18C124.84,616.84,0,879.38,0,1167.03s124.84,550.17,326.88,689.89v309.16l100.56,27.09c18.53,4.99,25.61,20.36,27.86,27.03l16.05,107.21h2874.94l21.75-107.61c1.21-3.58,8.17-21.31,27.91-26.63l100.56-27.09v-309.16c202.03-139.72,326.87-402.26,326.87-689.89s-124.84-550.19-326.87-689.9ZM3449.07,1814.86l-13.92,9.08v295.1l-55.15,14.86c-49.49,13.33-68.62,56.69-71.83,72.35l-12.08,59.77H524.24l-8.57-57.21-.85-3.92c-3.78-13.16-20.09-57.17-71.41-70.99l-55.15-14.86v-295.1l-13.92-9.08c-193.04-125.93-312.96-374.17-312.96-647.84s119.92-521.93,312.96-647.84l13.92-9.08V214.99l55.16-14.85c51.32-13.82,67.63-57.84,71.41-71.01l10.04-64.67,62.57,3.56h2711.74l8.56,57.21.85,3.93c3.78,13.16,20.1,57.16,71.41,70.98l55.15,14.85v295.12l13.92,9.08c193.03,125.91,312.95,374.15,312.95,647.84s-119.92,521.91-312.95,647.83Z" fill="url(#gold_gradient)"/>
      <path d="M3603.47,787.41c-58.52-107.7-139.38-190.07-234.09-238.54v-283.48l-6.49-1.75c-98.33-26.48-118.39-118.92-119.19-122.83l-1.42-7.03H588.3l-7.16.02-1.43,7c-.81,3.92-20.87,96.35-119.2,122.84l-6.49,1.75v283.48c-94.71,48.47-175.57,130.84-234.08,238.54-60.71,111.72-92.79,242.99-92.79,379.62s32.09,267.89,92.79,379.61c58.52,107.7,139.37,190.06,234.08,238.54v283.48l6.49,1.75c98.33,26.48,118.39,118.92,119.2,122.83l1.42,7.03h2653.97l7.16-.02,1.43-7c.81-3.92,20.87-96.36,119.2-122.84l6.49-1.75v-283.48c94.71-48.47,175.57-130.84,234.09-238.54,60.7-111.72,92.79-242.99,92.79-379.61s-32.08-267.89-92.79-379.62ZM3356.7,1771.92l-4.87,2.42v280.99c-88.77,27.12-116.85,103.58-123.57,127.39H595.13c-6.72-23.81-34.81-100.27-123.57-127.39v-280.99l-4.87-2.42c-192.6-95.73-322-338.82-322-604.89s129.41-509.18,322-604.91l4.87-2.42v-280.99c88.77-27.12,116.85-103.58,123.57-127.39h2633.13c6.72,23.81,34.8,100.27,123.57,127.39v280.99l4.87,2.42c192.6,95.72,322.01,338.82,322.01,604.91s-129.41,509.15-322.01,604.89Z" fill="url(#gold_gradient)"/>
    </g>
  </g>
</svg>