<?xml version="1.0" encoding="UTF-8"?>
<svg id="Layer_2" data-name="Layer 2" xmlns="http://www.w3.org/2000/svg" viewBox="0 0 4500 2156.63">
  <g id="Horizontal_Part_2" data-name="Horizontal Part 2">
    <g id="Retro_Arch_Rectangle_Label" data-name="Retro Arch Rectangle Label">
      <path d="M4192.7,435.72h-237.38v-108.25h-781.92C3075.27,220.44,2805.51,0,2250,0s-825.26,220.44-923.39,327.47h-781.92v108.25h-237.38C183.77,435.72,0,515.63,0,735.79v716.4c0,121.8,59.98,218.21,165.51,267.79v124.11l141.05.74c115.84.6,213.32,15.03,289.73,42.88,99.71,36.34,166.64,129.41,170.53,237.09l1.15,31.82h2964.05l1.15-31.82c3.89-107.68,70.83-200.74,170.52-237.09,76.42-27.85,173.9-42.28,289.75-42.88l141.05-.74v-124.11c105.53-49.58,165.51-145.99,165.51-267.79v-716.4c0-220.16-183.77-300.07-307.3-300.07ZM4433.97,1452.19c0,138.27-90.53,194.24-144.49,215.29l-21.02,8.2v102.73l-75.37.4c-123.46.65-228.43,16.41-312.01,46.87-115.1,41.96-195.39,143.96-211.25,264.92H830.17c-15.86-120.96-96.15-222.96-211.26-264.92-83.57-30.46-188.55-46.22-312-46.87l-75.37-.4v-102.73l-21.02-8.2c-53.96-21.05-144.49-77.02-144.49-215.29v-716.4c0-171.71,144.29-234.04,241.27-234.04h303.41v-108.25h745.67l9.87-11.32c82.89-95.06,334.95-316.16,883.74-316.16s800.86,221.1,883.75,316.16l9.87,11.32h745.67v108.25h303.41c96.98,0,241.27,62.33,241.27,234.04v716.4Z" fill="#af957b"/>
      <path d="M4192.69,568.09h-369.73v-108.25h-712.43c-12.42-18.71-64.64-90.21-180.29-162.31-120.86-75.35-336.98-165.17-680.24-165.17s-559.39,89.82-680.24,165.17c-115.64,72.1-167.87,143.6-180.29,162.31h-712.43v108.25h-369.73c-1.75,0-174.94,1.92-174.94,167.7v716.4c0,143.14,129.11,164.12,165.51,167.18v93.05l9.39.05c288.83,1.51,433.35,84.16,503.72,153.23,75.74,74.32,84.1,149.31,84.18,150.04l.82,8.52h2699.47l8.53-.02.85-8.48c.08-.75,8.44-75.74,84.18-150.06,70.37-69.07,214.89-151.72,503.72-153.23l9.39-.05v-93.05c36.4-3.06,165.52-24.05,165.52-167.18v-716.4c0-165.79-173.2-167.7-174.95-167.7ZM4348.77,1452.19c0,146.81-149.72,148.82-156.09,148.83l-9.43.02v92.63c-290.03,3.31-436.59,88.42-508.59,159.67-65.61,64.93-83,129.29-87.3,152.05H912.62c-4.29-22.76-21.68-87.12-87.3-152.05-71.99-71.26-218.55-156.37-508.59-159.67v-92.63s-9.42-.02-9.42-.02c-6.38-.01-156.09-2.03-156.09-148.83v-716.4c0-146.81,149.71-148.82,156.07-148.83h388.6v-108.25h704.08s2.75-4.6,2.75-4.6c.48-.81,49.81-81.58,178.2-161.32,118.68-73.7,331.09-161.56,669.06-161.56s550.38,87.86,669.06,161.56c128.39,79.74,177.72,160.51,178.2,161.32l2.76,4.6h704.07v108.25h388.6c6.37,0,156.08,1.69,156.08,148.83v716.4Z" fill="#af957b"/>
    </g>
  </g>
</svg>