<svg width="8717" height="1167" viewBox="0 0 8717 1167" fill="none" xmlns="http://www.w3.org/2000/svg">
<mask id="mask0_1208_1107" style="mask-type:luminance" maskUnits="userSpaceOnUse" x="563" y="146" width="7591" height="877">
<path d="M749.674 1008.35H7966.58C7965.81 1001.11 7964.74 992.782 7963.52 983.559C7950.52 882.012 7923.61 672.87 8122.48 584.413C8016.12 537.309 7955.41 448.952 7946.7 328.118C7941.19 251.859 7958.01 183.732 7964.59 160.427H749.674C750.515 167.567 751.585 175.799 752.732 184.872C765.883 286.518 792.95 495.857 593.853 584.413C793.027 672.87 765.883 882.262 752.732 983.908C751.585 992.981 750.515 1001.21 749.674 1008.35ZM7978.12 1022.43H738.129C735.147 1022.43 732.319 1021.59 730.255 1020.2C728.267 1018.81 727.196 1016.93 727.349 1015C728.113 1006.07 729.49 995.261 731.095 982.717C744.17 881.864 771.313 671.929 570.151 591.157L567.933 590.216C564.798 588.877 562.963 586.595 563.039 584.165C563.192 581.736 565.18 579.505 568.468 578.266L569.31 577.967C569.386 577.918 570.074 577.67 570.151 577.621C771.313 496.899 744.17 286.964 731.095 186.062C729.49 173.517 728.113 162.707 727.349 153.782C727.196 151.848 728.267 149.964 730.255 148.576C732.319 147.188 735.147 146.395 738.129 146.395H7977.82C7981.1 146.395 7984.16 147.337 7986.23 148.973C7988.29 150.659 7989.05 152.84 7988.37 154.923C7988.14 155.716 7961.61 235.744 7968.34 327.721C7974.45 411.665 8010.31 523.178 8146.18 577.621L8147.94 578.316C8151.15 579.556 8153.14 581.736 8153.21 584.165C8153.36 586.545 8151.53 588.827 8148.47 590.166C8147.32 590.711 8146.71 590.959 8146.18 591.157C7945.17 671.829 7972.16 881.617 7985.16 982.42C7986.76 995.064 7988.21 1006.02 7988.98 1015C7989.13 1016.93 7988.06 1018.81 7986 1020.2C7983.93 1021.64 7981.1 1022.43 7978.12 1022.43Z" fill="white"/>
</mask>
<g mask="url(#mask0_1208_1107)">
<path d="M749.674 1008.35H7966.58C7965.81 1001.11 7964.74 992.782 7963.52 983.559C7950.52 882.012 7923.61 672.87 8122.48 584.413C8016.12 537.309 7955.41 448.952 7946.7 328.118C7941.19 251.859 7958.01 183.732 7964.59 160.427H749.674C750.515 167.567 751.585 175.799 752.732 184.872C765.883 286.518 792.95 495.857 593.853 584.413C793.027 672.87 765.883 882.262 752.732 983.908C751.585 992.981 750.515 1001.21 749.674 1008.35ZM7978.12 1022.43H738.129C735.147 1022.43 732.319 1021.59 730.255 1020.2C728.267 1018.81 727.196 1016.93 727.349 1015C728.113 1006.07 729.49 995.261 731.095 982.717C744.17 881.864 771.313 671.929 570.151 591.157L567.933 590.216C564.798 588.877 562.963 586.595 563.039 584.165C563.192 581.736 565.18 579.505 568.468 578.266L569.31 577.967C569.386 577.918 570.074 577.67 570.151 577.621C771.313 496.899 744.17 286.964 731.095 186.062C729.49 173.517 728.113 162.707 727.349 153.782C727.196 151.848 728.267 149.964 730.255 148.576C732.319 147.188 735.147 146.395 738.129 146.395H7977.82C7981.1 146.395 7984.16 147.337 7986.23 148.973C7988.29 150.659 7989.05 152.84 7988.37 154.923C7988.14 155.716 7961.61 235.744 7968.34 327.721C7974.45 411.665 8010.31 523.178 8146.18 577.621L8147.94 578.316C8151.15 579.556 8153.14 581.736 8153.21 584.165C8153.36 586.545 8151.53 588.827 8148.47 590.166C8147.32 590.711 8146.71 590.959 8146.18 591.157C7945.17 671.829 7972.16 881.617 7985.16 982.42C7986.76 995.064 7988.21 1006.02 7988.98 1015C7989.13 1016.93 7988.06 1018.81 7986 1020.2C7983.93 1021.64 7981.1 1022.43 7978.12 1022.43Z" fill="url(#paint0_linear_1208_1107)"/>
</g>
<mask id="mask1_1208_1107" style="mask-type:luminance" maskUnits="userSpaceOnUse" x="482" y="37" width="7752" height="43">
<path d="M8233.95 79.707H482.375V37.5612H8233.95V79.707Z" fill="white"/>
</mask>
<g mask="url(#mask1_1208_1107)">
<path d="M8233.95 79.707H482.375V37.5612H8233.95V79.707Z" fill="url(#paint1_linear_1208_1107)"/>
</g>
<mask id="mask2_1208_1107" style="mask-type:luminance" maskUnits="userSpaceOnUse" x="482" y="1093" width="7752" height="44">
<path d="M8233.95 1136.13H482.375V1093.99H8233.95V1136.13Z" fill="white"/>
</mask>
<g mask="url(#mask2_1208_1107)">
<path d="M8233.95 1136.13H482.375V1093.99H8233.95V1136.13Z" fill="url(#paint2_linear_1208_1107)"/>
</g>
<mask id="mask3_1208_1107" style="mask-type:luminance" maskUnits="userSpaceOnUse" x="0" y="395" width="376" height="378">
<path d="M299.717 638.412V609.355C267.375 614.115 237.863 624.776 213.855 642.626C173.561 672.674 162.398 727.165 215.23 755.725C260.799 780.368 344.446 782.848 370.977 733.513C393.532 691.962 329.23 674.36 294.977 681.797C270.816 687.003 256.976 713.827 268.369 726.124C279.914 738.47 306.293 745.858 306.293 745.858C238.016 758.205 211.408 706.439 230.37 676.887C243.367 656.657 269.363 644.163 299.717 638.412ZM215.23 413.056C162.398 441.665 173.561 496.107 213.855 526.204C237.863 544.104 267.375 554.567 299.717 559.475V530.369C269.363 524.567 243.367 512.122 230.37 491.941C211.408 462.34 238.016 410.625 306.293 422.922C306.293 422.922 279.914 430.31 268.369 442.656C256.976 454.953 270.816 481.777 294.977 486.983C329.23 494.371 393.532 476.919 370.977 435.269C344.446 386.033 260.799 388.413 215.23 413.056ZM149.094 584.862C126.997 581.887 92.2855 574.053 63.7665 554.12C27.6018 567.904 0 583.126 0 583.126C0 583.126 38.5362 604.794 84.9464 619.818C105.055 604.298 123.786 593.192 149.094 584.862ZM236.945 586.845H171.114C170.961 586.845 170.579 586.844 170.426 586.795C138.543 594.728 118.281 605.786 95.4968 623.041C116.752 629.239 139.002 633.603 159.646 633.603C200.78 633.603 233.963 612.976 236.945 586.845ZM236.945 579.408C233.963 553.277 200.78 532.6 159.646 532.6C132.274 532.6 101.308 540.682 73.9361 550.351C115.224 577.919 170.579 579.408 171.267 579.408C171.114 579.408 231.21 579.408 236.945 579.408ZM315.008 525.956V642.775C315.008 653.684 328.619 662.558 345.439 662.558C362.184 662.558 375.793 653.684 375.793 642.775V525.956C375.793 515.098 362.184 506.272 345.439 506.272C328.619 506.272 315.008 515.098 315.008 525.956Z" fill="white"/>
</mask>
<g mask="url(#mask3_1208_1107)">
<path d="M299.717 638.412V609.355C267.375 614.115 237.863 624.776 213.855 642.626C173.561 672.674 162.398 727.165 215.23 755.725C260.799 780.368 344.446 782.848 370.977 733.513C393.532 691.962 329.23 674.36 294.977 681.797C270.816 687.003 256.976 713.827 268.369 726.124C279.914 738.47 306.293 745.858 306.293 745.858C238.016 758.205 211.408 706.439 230.37 676.887C243.367 656.657 269.363 644.163 299.717 638.412ZM215.23 413.056C162.398 441.665 173.561 496.107 213.855 526.204C237.863 544.104 267.375 554.567 299.717 559.475V530.369C269.363 524.567 243.367 512.122 230.37 491.941C211.408 462.34 238.016 410.625 306.293 422.922C306.293 422.922 279.914 430.31 268.369 442.656C256.976 454.953 270.816 481.777 294.977 486.983C329.23 494.371 393.532 476.919 370.977 435.269C344.446 386.033 260.799 388.413 215.23 413.056ZM149.094 584.862C126.997 581.887 92.2855 574.053 63.7665 554.12C27.6018 567.904 0 583.126 0 583.126C0 583.126 38.5362 604.794 84.9464 619.818C105.055 604.298 123.786 593.192 149.094 584.862ZM236.945 586.845H171.114C170.961 586.845 170.579 586.844 170.426 586.795C138.543 594.728 118.281 605.786 95.4968 623.041C116.752 629.239 139.002 633.603 159.646 633.603C200.78 633.603 233.963 612.976 236.945 586.845ZM236.945 579.408C233.963 553.277 200.78 532.6 159.646 532.6C132.274 532.6 101.308 540.682 73.9361 550.351C115.224 577.919 170.579 579.408 171.267 579.408C171.114 579.408 231.21 579.408 236.945 579.408ZM315.008 525.956V642.775C315.008 653.684 328.619 662.558 345.439 662.558C362.184 662.558 375.793 653.684 375.793 642.775V525.956C375.793 515.098 362.184 506.272 345.439 506.272C328.619 506.272 315.008 515.098 315.008 525.956Z" fill="url(#paint3_linear_1208_1107)"/>
</g>
<mask id="mask4_1208_1107" style="mask-type:luminance" maskUnits="userSpaceOnUse" x="147" y="0" width="511" height="555">
<path d="M550.194 59.7758C526.186 43.1158 505.618 29.1326 472.588 18.8192C404.158 -2.65039 326.323 -5.92285 264.468 9.89423C193.056 28.0913 142.746 70.7829 147.487 121.854C149.475 143.918 164.767 162.661 189.463 177.784C259.269 220.277 360.653 207.137 390.778 163.008C425.719 112.383 326.324 52.0896 280.678 106.334C261.181 129.588 299.715 143.273 299.715 143.273C299.715 143.273 250.323 148.183 246.5 108.714C242.295 64.2379 340.621 30.8683 455.461 76.7329C503.554 95.9217 555.927 152.893 578.253 214.178C601.955 278.933 577.948 348.5 568.62 383.555C553.328 440.229 504.089 491.945 420.367 521.546C411.192 524.769 401.328 527.296 391.006 529.28V554.418C411.803 551.74 433.365 547.577 455.461 541.627C502.636 528.785 541.324 497.943 580.777 461.5C643.014 403.983 665.11 303.33 655.4 232.475C639.344 115.805 550.194 59.7758 550.194 59.7758Z" fill="white"/>
</mask>
<g mask="url(#mask4_1208_1107)">
<path d="M550.194 59.7758C526.186 43.1158 505.618 29.1326 472.588 18.8192C404.158 -2.65039 326.323 -5.92285 264.468 9.89423C193.056 28.0913 142.746 70.7829 147.487 121.854C149.475 143.918 164.767 162.661 189.463 177.784C259.269 220.277 360.653 207.137 390.778 163.008C425.719 112.383 326.324 52.0896 280.678 106.334C261.181 129.588 299.715 143.273 299.715 143.273C299.715 143.273 250.323 148.183 246.5 108.714C242.295 64.2379 340.621 30.8683 455.461 76.7329C503.554 95.9217 555.927 152.893 578.253 214.178C601.955 278.933 577.948 348.5 568.62 383.555C553.328 440.229 504.089 491.945 420.367 521.546C411.192 524.769 401.328 527.296 391.006 529.28V554.418C411.803 551.74 433.365 547.577 455.461 541.627C502.636 528.785 541.324 497.943 580.777 461.5C643.014 403.983 665.11 303.33 655.4 232.475C639.344 115.805 550.194 59.7758 550.194 59.7758Z" fill="url(#paint4_linear_1208_1107)"/>
</g>
<mask id="mask5_1208_1107" style="mask-type:luminance" maskUnits="userSpaceOnUse" x="147" y="611" width="511" height="556">
<path d="M655.4 933.731C665.11 862.876 643.014 762.223 580.777 704.706C541.324 668.262 502.636 637.421 455.461 624.629C433.365 618.629 411.803 614.515 391.006 611.788V636.926C401.328 638.909 411.192 641.438 420.367 644.71C504.089 674.262 553.328 725.977 568.62 782.651C577.948 817.706 601.955 887.272 578.253 952.028C555.927 1013.36 503.554 1070.28 455.461 1089.47C340.621 1135.34 242.295 1101.97 246.5 1057.49C250.323 1018.02 299.715 1022.93 299.715 1022.93C299.715 1022.93 261.181 1036.62 280.678 1059.87C326.324 1114.12 425.719 1053.82 390.778 1003.2C360.653 959.069 259.269 945.929 189.463 988.421C164.767 1003.59 149.475 1022.29 147.487 1044.35C142.746 1095.47 193.056 1138.11 264.468 1156.36C326.323 1172.18 404.158 1168.85 472.588 1147.43C505.618 1137.12 526.186 1123.09 550.194 1106.43C550.194 1106.43 639.344 1050.4 655.4 933.731Z" fill="white"/>
</mask>
<g mask="url(#mask5_1208_1107)">
<path d="M655.4 933.731C665.11 862.876 643.014 762.223 580.777 704.706C541.324 668.262 502.636 637.421 455.461 624.629C433.365 618.629 411.803 614.515 391.006 611.788V636.926C401.328 638.909 411.192 641.438 420.367 644.71C504.089 674.262 553.328 725.977 568.62 782.651C577.948 817.706 601.955 887.272 578.253 952.028C555.927 1013.36 503.554 1070.28 455.461 1089.47C340.621 1135.34 242.295 1101.97 246.5 1057.49C250.323 1018.02 299.715 1022.93 299.715 1022.93C299.715 1022.93 261.181 1036.62 280.678 1059.87C326.324 1114.12 425.719 1053.82 390.778 1003.2C360.653 959.069 259.269 945.929 189.463 988.421C164.767 1003.59 149.475 1022.29 147.487 1044.35C142.746 1095.47 193.056 1138.11 264.468 1156.36C326.323 1172.18 404.158 1168.85 472.588 1147.43C505.618 1137.12 526.186 1123.09 550.194 1106.43C550.194 1106.43 639.344 1050.4 655.4 933.731Z" fill="url(#paint5_linear_1208_1107)"/>
</g>
<mask id="mask6_1208_1107" style="mask-type:luminance" maskUnits="userSpaceOnUse" x="8340" y="395" width="377" height="378">
<path d="M8485.96 676.887C8504.92 706.439 8478.23 758.205 8410.03 745.858C8410.03 745.858 8436.41 738.47 8447.96 726.124C8459.35 713.827 8445.51 687.003 8421.35 681.797C8387.1 674.36 8322.79 691.962 8345.35 733.513C8371.88 782.848 8455.53 780.368 8501.1 755.725C8553.93 727.165 8542.76 672.674 8502.47 642.626C8478.39 624.776 8448.95 614.115 8416.53 609.355V638.412C8446.96 644.163 8472.96 656.657 8485.96 676.887ZM8345.35 435.269C8322.79 476.919 8387.1 494.371 8421.35 486.983C8445.51 481.777 8459.35 454.953 8447.96 442.656C8436.41 430.31 8410.03 422.922 8410.03 422.922C8478.23 410.625 8504.92 462.34 8485.96 491.941C8472.96 512.122 8446.96 524.567 8416.53 530.369V559.475C8448.95 554.567 8478.39 544.104 8502.47 526.204C8542.76 496.107 8553.93 441.665 8501.1 413.056C8455.53 388.413 8371.88 386.033 8345.35 435.269ZM8631.38 619.818C8677.79 604.794 8716.33 583.126 8716.33 583.126C8716.33 583.126 8688.72 567.904 8652.56 554.12C8624.12 574.053 8589.33 581.887 8567.23 584.862C8592.46 593.192 8611.27 604.298 8631.38 619.818ZM8556.68 633.603C8577.25 633.603 8599.57 629.239 8620.83 623.041C8598.04 605.786 8577.78 594.728 8545.9 586.795C8545.75 586.844 8545.36 586.845 8545.21 586.845H8479.38C8482.36 612.976 8515.55 633.603 8556.68 633.603ZM8545.06 579.408C8545.75 579.408 8601.1 577.919 8642.39 550.351C8615.02 540.682 8584.05 532.6 8556.68 532.6C8515.55 532.6 8482.36 553.277 8479.38 579.408C8485.12 579.408 8545.21 579.408 8545.06 579.408ZM8370.89 506.272C8354.14 506.272 8340.53 515.098 8340.53 525.956V642.775C8340.53 653.684 8354.14 662.558 8370.89 662.558C8387.63 662.558 8401.32 653.684 8401.32 642.775V525.956C8401.32 515.098 8387.63 506.272 8370.89 506.272Z" fill="white"/>
</mask>
<g mask="url(#mask6_1208_1107)">
<path d="M8485.96 676.887C8504.92 706.439 8478.23 758.205 8410.03 745.858C8410.03 745.858 8436.41 738.47 8447.96 726.124C8459.35 713.827 8445.51 687.003 8421.35 681.797C8387.1 674.36 8322.79 691.962 8345.35 733.513C8371.88 782.848 8455.53 780.368 8501.1 755.725C8553.93 727.165 8542.76 672.674 8502.47 642.626C8478.39 624.776 8448.95 614.115 8416.53 609.355V638.412C8446.96 644.163 8472.96 656.657 8485.96 676.887ZM8345.35 435.269C8322.79 476.919 8387.1 494.371 8421.35 486.983C8445.51 481.777 8459.35 454.953 8447.96 442.656C8436.41 430.31 8410.03 422.922 8410.03 422.922C8478.23 410.625 8504.92 462.34 8485.96 491.941C8472.96 512.122 8446.96 524.567 8416.53 530.369V559.475C8448.95 554.567 8478.39 544.104 8502.47 526.204C8542.76 496.107 8553.93 441.665 8501.1 413.056C8455.53 388.413 8371.88 386.033 8345.35 435.269ZM8631.38 619.818C8677.79 604.794 8716.33 583.126 8716.33 583.126C8716.33 583.126 8688.72 567.904 8652.56 554.12C8624.12 574.053 8589.33 581.887 8567.23 584.862C8592.46 593.192 8611.27 604.298 8631.38 619.818ZM8556.68 633.603C8577.25 633.603 8599.57 629.239 8620.83 623.041C8598.04 605.786 8577.78 594.728 8545.9 586.795C8545.75 586.844 8545.36 586.845 8545.21 586.845H8479.38C8482.36 612.976 8515.55 633.603 8556.68 633.603ZM8545.06 579.408C8545.75 579.408 8601.1 577.919 8642.39 550.351C8615.02 540.682 8584.05 532.6 8556.68 532.6C8515.55 532.6 8482.36 553.277 8479.38 579.408C8485.12 579.408 8545.21 579.408 8545.06 579.408ZM8370.89 506.272C8354.14 506.272 8340.53 515.098 8340.53 525.956V642.775C8340.53 653.684 8354.14 662.558 8370.89 662.558C8387.63 662.558 8401.32 653.684 8401.32 642.775V525.956C8401.32 515.098 8387.63 506.272 8370.89 506.272Z" fill="url(#paint6_linear_1208_1107)"/>
</g>
<mask id="mask7_1208_1107" style="mask-type:luminance" maskUnits="userSpaceOnUse" x="8058" y="0" width="512" height="555">
<path d="M8060.93 232.475C8051.22 303.33 8073.31 403.983 8135.55 461.5C8175 497.943 8213.69 528.785 8260.87 541.627C8282.96 547.577 8304.52 551.74 8325.32 554.418V529.28C8315 527.296 8305.14 524.769 8295.96 521.546C8212.24 491.945 8163 440.229 8147.71 383.555C8138.38 348.5 8114.37 278.933 8138.07 214.178C8160.4 152.893 8212.77 95.9217 8260.87 76.7329C8375.63 30.8683 8474.03 64.2379 8469.83 108.714C8466 148.183 8416.53 143.273 8416.53 143.273C8416.53 143.273 8455.15 129.588 8435.65 106.334C8390 52.0896 8290.61 112.383 8325.47 163.008C8355.67 207.137 8457.06 220.277 8526.86 177.784C8551.56 162.661 8566.78 143.918 8568.84 121.854C8573.58 70.7829 8523.27 28.0913 8451.86 9.89423C8390 -5.92285 8312.17 -2.65039 8243.74 18.8192C8210.71 29.1326 8190.06 43.1158 8166.13 59.7758C8166.13 59.7758 8076.98 115.805 8060.93 232.475Z" fill="white"/>
</mask>
<g mask="url(#mask7_1208_1107)">
<path d="M8060.93 232.475C8051.22 303.33 8073.31 403.983 8135.55 461.5C8175 497.943 8213.69 528.785 8260.87 541.627C8282.96 547.577 8304.52 551.74 8325.32 554.418V529.28C8315 527.296 8305.14 524.769 8295.96 521.546C8212.24 491.945 8163 440.229 8147.71 383.555C8138.38 348.5 8114.37 278.933 8138.07 214.178C8160.4 152.893 8212.77 95.9217 8260.87 76.7329C8375.63 30.8683 8474.03 64.2379 8469.83 108.714C8466 148.183 8416.53 143.273 8416.53 143.273C8416.53 143.273 8455.15 129.588 8435.65 106.334C8390 52.0896 8290.61 112.383 8325.47 163.008C8355.67 207.137 8457.06 220.277 8526.86 177.784C8551.56 162.661 8566.78 143.918 8568.84 121.854C8573.58 70.7829 8523.27 28.0913 8451.86 9.89423C8390 -5.92285 8312.17 -2.65039 8243.74 18.8192C8210.71 29.1326 8190.06 43.1158 8166.13 59.7758C8166.13 59.7758 8076.98 115.805 8060.93 232.475Z" fill="url(#paint7_linear_1208_1107)"/>
</g>
<mask id="mask8_1208_1107" style="mask-type:luminance" maskUnits="userSpaceOnUse" x="8058" y="611" width="512" height="556">
<path d="M8166.13 1106.43C8190.06 1123.09 8210.71 1137.12 8243.74 1147.43C8312.17 1168.85 8390 1172.18 8451.86 1156.36C8523.27 1138.11 8573.58 1095.47 8568.84 1044.35C8566.78 1022.29 8551.56 1003.59 8526.86 988.421C8457.06 945.929 8355.67 959.069 8325.47 1003.2C8290.61 1053.82 8390 1114.12 8435.65 1059.87C8455.15 1036.62 8416.53 1022.93 8416.53 1022.93C8416.53 1022.93 8466 1018.02 8469.83 1057.49C8474.03 1101.97 8375.63 1135.34 8260.87 1089.47C8212.77 1070.28 8160.4 1013.36 8138.07 952.028C8114.37 887.272 8138.38 817.706 8147.71 782.651C8163 725.977 8212.24 674.262 8295.96 644.71C8305.14 641.438 8315 638.909 8325.32 636.926V611.788C8304.52 614.515 8282.96 618.629 8260.87 624.629C8213.69 637.421 8175 668.262 8135.55 704.706C8073.31 762.223 8051.22 862.876 8060.93 933.731C8076.98 1050.4 8166.13 1106.43 8166.13 1106.43Z" fill="white"/>
</mask>
<g mask="url(#mask8_1208_1107)">
<path d="M8166.13 1106.43C8190.06 1123.09 8210.71 1137.12 8243.74 1147.43C8312.17 1168.85 8390 1172.18 8451.86 1156.36C8523.27 1138.11 8573.58 1095.47 8568.84 1044.35C8566.78 1022.29 8551.56 1003.59 8526.86 988.421C8457.06 945.929 8355.67 959.069 8325.47 1003.2C8290.61 1053.82 8390 1114.12 8435.65 1059.87C8455.15 1036.62 8416.53 1022.93 8416.53 1022.93C8416.53 1022.93 8466 1018.02 8469.83 1057.49C8474.03 1101.97 8375.63 1135.34 8260.87 1089.47C8212.77 1070.28 8160.4 1013.36 8138.07 952.028C8114.37 887.272 8138.38 817.706 8147.71 782.651C8163 725.977 8212.24 674.262 8295.96 644.71C8305.14 641.438 8315 638.909 8325.32 636.926V611.788C8304.52 614.515 8282.96 618.629 8260.87 624.629C8213.69 637.421 8175 668.262 8135.55 704.706C8073.31 762.223 8051.22 862.876 8060.93 933.731C8076.98 1050.4 8166.13 1106.43 8166.13 1106.43Z" fill="url(#paint8_linear_1208_1107)"/>
</g>
<defs>
<linearGradient id="paint0_linear_1208_1107" x1="563.039" y1="584.414" x2="8153.23" y2="584.414" gradientUnits="userSpaceOnUse">
<stop stop-color="#968428"/>
<stop offset="0.503741" stop-color="#CDC577"/>
<stop offset="1" stop-color="#968428"/>
</linearGradient>
<linearGradient id="paint1_linear_1208_1107" x1="482.375" y1="58.6343" x2="8233.95" y2="58.6343" gradientUnits="userSpaceOnUse">
<stop stop-color="#968428"/>
<stop offset="0.503741" stop-color="#CDC577"/>
<stop offset="1" stop-color="#968428"/>
</linearGradient>
<linearGradient id="paint2_linear_1208_1107" x1="482.375" y1="1115.06" x2="8233.95" y2="1115.06" gradientUnits="userSpaceOnUse">
<stop stop-color="#968428"/>
<stop offset="0.503741" stop-color="#CDC577"/>
<stop offset="1" stop-color="#968428"/>
</linearGradient>
<linearGradient id="paint3_linear_1208_1107" x1="0" y1="584.415" x2="375.77" y2="584.415" gradientUnits="userSpaceOnUse">
<stop stop-color="#968428"/>
<stop offset="0.503741" stop-color="#CDC577"/>
<stop offset="1" stop-color="#968428"/>
</linearGradient>
<linearGradient id="paint4_linear_1208_1107" x1="147.181" y1="277.198" x2="657.592" y2="277.198" gradientUnits="userSpaceOnUse">
<stop stop-color="#968428"/>
<stop offset="0.503741" stop-color="#CDC577"/>
<stop offset="1" stop-color="#968428"/>
</linearGradient>
<linearGradient id="paint5_linear_1208_1107" x1="147.181" y1="889.007" x2="657.592" y2="889.007" gradientUnits="userSpaceOnUse">
<stop stop-color="#968428"/>
<stop offset="0.503741" stop-color="#CDC577"/>
<stop offset="1" stop-color="#968428"/>
</linearGradient>
<linearGradient id="paint6_linear_1208_1107" x1="8340.53" y1="584.415" x2="8716.3" y2="584.415" gradientUnits="userSpaceOnUse">
<stop stop-color="#968428"/>
<stop offset="0.503741" stop-color="#CDC577"/>
<stop offset="1" stop-color="#968428"/>
</linearGradient>
<linearGradient id="paint7_linear_1208_1107" x1="8058.71" y1="277.198" x2="8569.12" y2="277.198" gradientUnits="userSpaceOnUse">
<stop stop-color="#968428"/>
<stop offset="0.503741" stop-color="#CDC577"/>
<stop offset="1" stop-color="#968428"/>
</linearGradient>
<linearGradient id="paint8_linear_1208_1107" x1="8058.71" y1="889.007" x2="8569.12" y2="889.007" gradientUnits="userSpaceOnUse">
<stop stop-color="#968428"/>
<stop offset="0.503741" stop-color="#CDC577"/>
<stop offset="1" stop-color="#968428"/>
</linearGradient>
</defs>
</svg>
