<?xml version="1.0" encoding="UTF-8"?>
<svg id="Layer_2" data-name="Layer 2" xmlns="http://www.w3.org/2000/svg" viewBox="0 0 2881.85 4499.99" width="2881.85" height="4499.99">
  <g id="Vertical">
    <path d="M2374.61,3899.53c-48.62,8.26-92.35,35.91-130.1,82.31-210.31,258.43-405.58,341.38-803.59,341.38s-593.27-82.95-803.59-341.39c-37.74-46.39-81.47-74.04-130.09-82.3-12.53-283.38-207.37-344.29-330.48-354.25V954.71c123.1-9.96,317.95-70.87,330.48-354.25,48.62-8.26,92.34-35.91,130.09-82.3,210.32-258.44,405.59-341.39,803.59-341.39s593.28,82.95,803.6,341.4c37.75,46.39,81.47,74.04,130.08,82.29,12.53,283.38,207.38,344.29,330.47,354.25v2590.57c-123.1,9.96-317.95,70.87-330.47,354.25Z" fill="#D9C7CA"/>
    <path id="Scalloped_Arch_Border_Frame" data-name="Scalloped Arch Border Frame" d="M2749.58,779.7c-165.03,0-198.85-83.46-198.85-208.78v-144.6h-144.61c-6.98,0-17.18-10.73-24.5-19.73C2134.23,102.6,1896.86,0,1440.92,0S747.62,102.6,500.23,406.58c-7.33,9-17.53,19.74-24.51,19.74h-144.61v144.61c0,125.31-33.82,208.77-198.85,208.77H0v2940.59h132.26c165.03,0,198.85,83.46,198.85,208.77v144.61h144.61c6.98,0,17.18,10.73,24.51,19.73,247.38,303.99,484.76,406.59,940.7,406.59s693.32-102.6,940.7-406.59c7.33-9,17.53-19.73,24.51-19.73h144.61v-144.61c0-125.31,33.81-208.77,198.84-208.77h132.26V779.7h-132.26ZM2726.65,3550.83V949.15l79.72-79.09v2759.86l-79.72-79.09ZM2749.58,855.17h41.18l-79.01,78.38c-140.06-9.79-305.93-77.13-315.7-338.21l79.2-78.63v54.22c0,70.3.01,284.25,274.33,284.25ZM2374.61,3899.53c-48.62,8.26-92.35,35.91-130.1,82.31-210.31,258.43-405.58,341.38-803.59,341.38s-593.27-82.95-803.59-341.39c-37.74-46.39-81.47-74.04-130.09-82.3-12.53-283.38-207.37-344.29-330.48-354.25V954.71c123.1-9.96,317.95-70.87,330.48-354.25,48.62-8.26,92.34-35.91,130.09-82.3,210.32-258.44,405.59-341.39,803.59-341.39s593.28,82.95,803.6,341.4c37.75,46.39,81.47,74.04,130.08,82.29,12.53,283.38,207.38,344.29,330.47,354.25v2590.57c-123.1,9.96-317.95,70.87-330.47,354.25ZM558.77,454.22C789.22,171.05,1011.82,75.48,1440.92,75.48s651.71,95.57,882.16,378.75c26.77,32.9,52.39,47.57,83.04,47.57h53.55l-78.4,77.83c-44.54-6.71-84.9-31.91-120.03-75.07-215.22-264.46-414.55-349.35-820.32-349.35s-605.09,84.89-820.32,349.35c-35.12,43.16-75.49,68.36-120.04,75.08l-78.4-77.83h53.55c30.66,0,56.28-14.67,83.05-47.57ZM406.58,570.93v-54.22l79.21,78.63c-9.76,261.08-175.63,328.42-315.7,338.21l-79.01-78.38h41.18c274.32,0,274.32-213.94,274.32-284.24ZM155.2,949.15v2601.68l-79.73,79.1V870.06l79.73,79.09ZM132.26,3644.82h-41.18l79.01-78.38c140.07,9.79,305.94,77.12,315.71,338.21l-79.21,78.63v-54.22c0-70.3,0-284.24-274.32-284.24ZM2323.08,4045.77c-230.45,283.17-453.05,378.74-882.16,378.74s-651.71-95.57-882.16-378.74c-26.77-32.9-52.38-47.58-83.04-47.58h-53.55l78.41-77.83c44.55,6.71,84.91,31.92,120.04,75.08,215.22,264.46,414.55,349.34,820.32,349.34s605.11-84.89,820.31-349.34c35.13-43.17,75.5-68.37,120.04-75.09l78.4,77.83h-53.55c-30.66,0-56.28,14.67-83.05,47.57ZM2475.26,3929.06v54.22l-79.21-78.63c9.76-261.09,175.63-328.42,315.7-338.21l79.01,78.38h-41.18c-274.32,0-274.32,213.94-274.32,284.24Z" fill="url(#goldGradient)"/>
  </g>
  <defs>
    <linearGradient id="goldGradient" x1="0" y1="2250" x2="2881.85" y2="2250" gradientUnits="userSpaceOnUse">
      <stop stop-color="#968428"/>
      <stop offset="0.503741" stop-color="#CDC577"/>
      <stop offset="1" stop-color="#968428"/>
    </linearGradient>
  </defs>
</svg>