<?xml version="1.0" encoding="UTF-8"?>
<svg id="Layer_2" data-name="Layer 2" xmlns="http://www.w3.org/2000/svg" viewBox="0 0 4264.13 2031.35" width="4264.13" height="2031.35">
  <g id="Horizontal_Part_2" data-name="Horizontal Part 2">
    <g id="Elegant_Wavy_Plaque_Frame" data-name="Elegant Wavy Plaque Frame">
      <path d="M4231.12,654.82c-244.25,0-272.51-220.58-273.59-229.87l-3.08-28.24-28.38-1.17c-413.78-17.06-674.82-136.37-677.38-137.56l-1.69-.74C2604.83.11,2151.03-.05,2132.27,0c-19.08-.03-472.92.08-1115.14,257.26l-1.66.72c-2.59,1.2-263.64,120.51-677.41,137.57l-28.21,1.26-3.24,28.04c-1.08,9.39-29.35,229.96-273.59,229.96H0v721.7h33.02c244.24,0,272.51,220.57,273.59,229.86l3.08,28.24,28.37,1.17c413.77,17.06,674.82,136.38,677.38,137.56l1.69.74c629.29,251.99,1077.76,257.27,1113.08,257.27h3.33c35.75,0,484.21-5.29,1113.46-257.27l1.69-.74c2.58-1.2,262.49-120.45,677.38-137.56l28.21-1.26,3.24-28.04c1.08-9.39,29.35-229.96,273.59-229.96h33.02v-721.7h-33.02ZM4198.1,1311.66c-219.9,15.92-283.92,190.05-300.75,259.36-404.76,20.91-656.06,133.05-675.71,142.09-629.02,251.73-1085.35,252.22-1089.77,252.21h-.17c-11.22,0-465.14-2.46-1089.22-252.22-19.7-9.05-271-121.17-675.71-142.08-16.83-69.3-80.84-243.43-300.74-259.36v-591.97c219.9-15.92,283.91-190.05,300.74-259.37,404.76-20.91,656.07-133.05,675.71-142.08,624.13-249.77,1078.06-252.21,1089.58-252.21h.19c4.77-.27,460.68.6,1089.39,252.22,19.7,9.05,271,121.17,675.71,142.07,16.83,69.31,80.84,243.44,300.75,259.37v591.97Z" fill="#af957b"/>
      <path d="M3844.84,533.44l-2.13-5.61-5.99-.44c-375.91-28.01-616.44-132.17-643-144.12-609.72-243.68-1042.83-246.48-1060.97-246.48h-1.32c-18.14,0-451.33,2.81-1061.4,246.66-26.21,11.78-266.97,115.94-642.64,143.94l-5.99.44-2.13,5.61c-28.19,74.34-101.44,205.13-275.21,245.92l-7.28,1.71v469.2l7.28,1.71c173.76,40.79,247.01,171.58,275.21,245.92l2.13,5.61,5.99.44c376.01,28.03,616.46,132.17,643,144.12,609.7,243.68,1042.83,246.49,1060.97,246.49h1.32c18.14,0,451.32-2.81,1061.4-246.65,26.17-11.78,266.51-115.92,642.64-143.96l5.99-.44,2.13-5.61c28.2-74.34,101.45-205.13,275.22-245.92l7.28-1.71v-469.2l-7.28-1.71c-173.77-40.79-247.02-171.59-275.22-245.92Z" fill="#D9C7CA"/>
      <path d="M3844.84,533.44l-2.13-5.61-5.99-.44c-375.91-28.01-616.44-132.17-643-144.12-609.72-243.68-1042.83-246.48-1060.97-246.48h-1.32c-18.14,0-451.33,2.81-1061.4,246.66-26.21,11.78-266.97,115.94-642.64,143.94l-5.99.44-2.13,5.61c-28.19,74.34-101.44,205.13-275.21,245.92l-7.28,1.71v469.2l7.28,1.71c173.76,40.79,247.01,171.58,275.21,245.92l2.13,5.61,5.99.44c376.01,28.03,616.46,132.17,643,144.12,609.7,243.68,1042.83,246.49,1060.97,246.49h1.32c18.14,0,451.32-2.81,1061.4-246.65,26.17-11.78,266.51-115.92,642.64-143.96l5.99-.44,2.13-5.61c28.2-74.34,101.45-205.13,275.22-245.92l7.28-1.71v-469.2l-7.28-1.71c-173.77-40.79-247.02-171.59-275.22-245.92ZM4108.48,1235.38c-172.8,43.61-248.49,172.65-279.1,250.21-375.93,28.93-616.69,133.26-642.66,144.96-606.38,242.36-1036.04,245.14-1054.03,245.14h-1.32c-17.99,0-447.6-2.79-1053.6-244.98-26.35-11.86-267.21-116.19-643.02-145.12-30.61-77.56-106.29-206.6-279.09-250.21v-439.42c172.8-43.61,248.48-172.65,279.09-250.21,375.47-28.89,616.64-133.24,642.66-144.94,606.38-242.36,1036.04-245.15,1054.03-245.15h1.32c17.99,0,447.59,2.79,1053.6,244.98,26.36,11.86,267.31,116.21,643.02,145.12,30.61,77.56,106.3,206.6,279.1,250.21v439.42Z" fill="#af957b"/>
    </g>
  </g>
</svg>