<?xml version="1.0" encoding="UTF-8"?>
<svg id="Layer_2" data-name="Layer 2" xmlns="http://www.w3.org/2000/svg" viewBox="0 0 3946 2428.82" width="3946" height="2428.82">
  <g id="Horizontal">
    <g id="Elegant_Wavy_Rectangle_Vintage_Frame" data-name="Elegant Wavy Rectangle Vintage Frame">
      <path d="M3588.74,681.88l-53.9-23.93v-189.42h-11.68c-157.89,0-418-27.51-760.57-158.56-464.41-177.66-751.97-182.79-783.34-182.79l-6.12.09-6.48-.09c-31.26,0-318.82,5.13-783.24,182.79-342.56,131.05-602.67,158.56-760.55,158.56h-11.68v127.13s2.54,61.12,2.54,61.12l-57.03,25.39c-23.49,12.61-229.54,134.62-229.54,532.24s206.04,519.65,230.13,532.54l53.9,23.93v189.42h11.68c157.89,0,418,27.51,760.55,158.55,464.42,177.66,751.98,182.79,783.36,182.79l6.25-.08,6.35.08c31.26,0,318.83-5.13,783.23-182.79,342.57-131.05,602.68-158.55,760.57-158.55h11.68v-127.13s-2.54-61.13-2.54-61.13l57.02-25.39c23.49-12.59,229.53-134.53,229.53-532.25s-206.03-519.63-230.11-532.53Z" fill="#D9C7CA"/>
      <path d="M3661.98,577.3l-.05-247.48-35.59,5.75c-3.08.49-315.75,47.9-818.32-144.37C2299.14-3.46,1995.32-.44,1973,.08c-22.28-.48-326.14-3.54-835.03,191.14-502.58,192.26-815.22,144.87-818.28,144.37l-35.68-5.88v247.6C219.25,616.73,0,782.15,0,1214.41s219.25,597.68,284.02,637.1l.05,247.48,35.59-5.75c3.09-.5,315.75-47.89,818.32,144.37,508.89,194.68,812.71,191.63,835.03,191.14,1.45.03,4.08.08,7.87.08,54.73,0,351.28-9.17,827.15-191.22,502.58-192.26,815.23-144.88,818.28-144.38l35.68,5.88v-247.6c64.77-39.42,284.02-204.84,284.02-637.1s-219.25-597.68-284.02-637.1ZM3618.01,1805.87l-17.4,8.36v214.46c-97.49-7.8-387.75-11.67-814.51,151.59-504.82,193.12-809.11,187.12-812.19,187.09l-.9-.03-.87.02c-3.04.08-307.4,6.03-812.23-187.09-426.8-163.27-717.03-159.4-814.51-151.59v-195.15l-.11-19.19-17.18-8.42c-.67-.33-67.42-33.69-133.19-122.45-60.91-82.22-133.53-230.34-133.53-469.06s72.62-386.83,133.53-469.05c65.77-88.77,132.53-122.13,133.08-122.41l17.4-8.36v-214.46c97.5,7.81,387.75,11.68,814.51-151.59C1664.72,55.43,1969.1,61.42,1972.1,61.45l.9.03.87-.02c3.01-.11,307.39-6.04,812.22,187.09,426.79,163.27,717.05,159.41,814.51,151.59v195.15l.11,19.19,17.18,8.42c.67.33,67.42,33.69,133.19,122.46,60.91,82.22,133.53,230.34,133.53,469.05s-72.62,386.83-133.53,469.06c-65.77,88.77-132.52,122.13-133.08,122.4Z" fill="#af957b"/>
      <path d="M3588.74,681.88l-53.9-23.93v-189.42h-11.68c-157.89,0-418-27.51-760.57-158.56-464.41-177.66-751.97-182.79-783.34-182.79l-6.12.09-6.48-.09c-31.26,0-318.82,5.13-783.24,182.79-342.56,131.05-602.67,158.56-760.55,158.56h-11.68v127.13s2.54,61.12,2.54,61.12l-57.03,25.39c-23.49,12.61-229.54,134.62-229.54,532.24s206.04,519.65,230.13,532.54l53.9,23.93v189.42h11.68c157.89,0,418,27.51,760.55,158.55,464.42,177.66,751.98,182.79,783.36,182.79l6.25-.08,6.35.08c31.26,0,318.83-5.13,783.23-182.79,342.57-131.05,602.68-158.55,760.57-158.55h11.68v-127.13s-2.54-61.13-2.54-61.13l57.02-25.39c23.49-12.59,229.53-134.53,229.53-532.25s-206.03-519.63-230.11-532.53ZM3581.61,1730.92l-67.33,29.95,3.02,72.67v109.23c-159.9.68-420.11,29.3-760.98,159.7-461.46,176.54-746.04,181.63-776.85,181.64l-6.46-.09-6.37.08c-30.93,0-315.49-5.1-776.98-181.63-340.86-130.4-601.06-159.03-760.96-159.7v-183.3l-63.73-28.27c-9-4.82-220.29-122.7-220.29-516.8s211.29-511.96,219.71-516.5l67.34-29.95-3.02-72.66v-109.23c159.89-.68,420.09-29.3,760.96-159.71,461.48-176.54,746.05-181.63,776.85-181.64l6.6.09,6.24-.08c30.93,0,315.49,5.1,776.96,181.63,340.88,130.41,601.09,159.03,760.98,159.71v183.29l63.73,28.27c9,4.83,220.28,122.74,220.28,516.79s-211.29,511.97-219.7,516.51Z" fill="#af957b"/>
    </g>
  </g>
</svg>