<svg width="24320" height="24017" viewBox="0 0 24320 24017" fill="none" xmlns="http://www.w3.org/2000/svg">
<path d="M3891 6159.18V3653.06C3891 2400 6079.8 2400 12159.8 2400C18239.8 2400 20428.6 2400 20428.6 3653.06V6159.18C20428.6 6576.87 19942.2 6576.87 19455.8 6576.87H12889.4C12524.6 6576.87 12524.6 6994.56 12524.6 7412.24V16527.9C12524.6 17366.9 13171 17658.7 13171 17826.5L12143.3 17779.6L11241 17826.5C11241 17658.7 11795 17366.9 11795 16527.9V7412.24C11795 6994.56 11795 6576.87 11430.2 6576.87H4863.8C4377.4 6576.87 3891 6576.87 3891 6159.18Z" fill="#D21414" stroke="#D21414" stroke-width="12" stroke-linecap="round" stroke-linejoin="round"/>
<path d="M4585.35 4698C2260.35 8576.23 2260.35 16332.7 6080 20728" stroke="#D21414" stroke-width="212" stroke-linecap="round" stroke-linejoin="round"/>
<path d="M19734.6 4698C22059.7 8576.23 22059.7 16332.7 18240 20728" stroke="#D21414" stroke-width="212" stroke-linecap="round" stroke-linejoin="round"/>
<path d="M6080 21929H18240V19248.5H16162C15464 18081 14592 17600 12160 17600C9728 17600 9073 17957 8240 19248.5H6080V21929Z" fill="#FFF04D" stroke="#D21414" stroke-width="244" stroke-linecap="round" stroke-linejoin="round"/>
<path d="M12160 19527V21929" stroke="#D21414" stroke-width="12" stroke-linecap="round" stroke-linejoin="round"/>
</svg>
