<svg width="16538" height="19377" viewBox="0 0 16538 19377" fill="none" xmlns="http://www.w3.org/2000/svg">
<path d="M1459.24 0H15078.8C15465.8 0 15836.9 128.29 16110.6 356.647C16384.3 585.003 16538 894.722 16538 1217.67V2029.45C16538 2352.39 16384.3 2662.11 16110.6 2890.47C15836.9 3118.82 15465.8 3247.11 15078.8 3247.11H10214.6C9485.03 3247.11 8633.81 3855.95 8633.81 4870.67V11162C8633.81 11770.8 8998.62 15716 9728.24 15716H6809.77C7539.38 15716 7904.19 11770.8 7904.19 11162V4870.67C7904.19 3855.95 7052.97 3247.11 6323.35 3247.11H1459.24C1072.22 3247.11 701.06 3118.82 427.4 2890.47C153.74 2662.11 0 2352.39 0 2029.45V1217.67C0 894.722 153.74 585.003 427.4 356.647C701.06 128.29 1072.22 0 1459.24 0Z" fill="url(#paint0_linear_1269_1107)"/>
<path d="M2415.02 19377H14365.6C14619.1 19377 14862.3 19323.7 15041.6 19228.7C15220.9 19133.7 15321.6 19005 15321.6 18870.7V17604.8C15321.6 16339 12692.5 15579.5 8390.29 14820C4088.09 15579.5 1458.97 16339 1458.97 17604.8V18870.7C1458.97 19005 1559.7 19133.7 1738.99 19228.7C1918.28 19323.7 2161.46 19377 2415.02 19377Z" fill="url(#paint1_linear_1269_1107)"/>
<defs>
<linearGradient id="paint0_linear_1269_1107" x1="1.0732e-10" y1="0" x2="11627.5" y2="15792.2" gradientUnits="userSpaceOnUse">
<stop stop-color="#FF2A4D"/>
<stop offset="1" stop-color="#A4001D"/>
</linearGradient>
<linearGradient id="paint1_linear_1269_1107" x1="1458.97" y1="14820" x2="1458.97" y2="19377" gradientUnits="userSpaceOnUse">
<stop stop-color="#FFE066"/>
<stop offset="1" stop-color="#E58B00"/>
</linearGradient>
</defs>
</svg>
