<svg width="6952" height="8243" viewBox="0 0 6952 8243" fill="none" xmlns="http://www.w3.org/2000/svg">
<mask id="mask0_1270_1108" style="mask-type:luminance" maskUnits="userSpaceOnUse" x="3390" y="8107" width="269" height="87">
<path d="M3523.74 8107.46C3597.69 8107.4 3657.73 8126.5 3658.02 8150.1C3658.3 8173.76 3598.72 8192.95 3524.77 8193C3451.02 8193.06 3390.78 8173.97 3390.5 8150.31C3390.21 8126.71 3449.99 8107.52 3523.74 8107.46Z" fill="white"/>
</mask>
<g mask="url(#mask0_1270_1108)">
<path d="M3523.74 8107.46C3597.69 8107.4 3657.73 8126.5 3658.02 8150.1C3658.3 8173.76 3598.72 8192.95 3524.77 8193C3451.02 8193.06 3390.78 8173.97 3390.5 8150.31C3390.21 8126.71 3449.99 8107.52 3523.74 8107.46Z" fill="url(#paint0_linear_1270_1108)"/>
</g>
<mask id="mask1_1270_1108" style="mask-type:luminance" maskUnits="userSpaceOnUse" x="189" y="4079" width="268" height="87">
<path d="M322.822 4079.63C396.574 4079.57 456.618 4098.67 456.902 4122.33C457.185 4145.93 397.6 4165.11 323.849 4165.17C249.903 4165.23 189.859 4146.14 189.575 4122.54C189.291 4098.88 248.876 4079.69 322.822 4079.63Z" fill="white"/>
</mask>
<g mask="url(#mask1_1270_1108)">
<path d="M322.822 4079.63C396.574 4079.57 456.618 4098.67 456.902 4122.33C457.185 4145.93 397.6 4165.11 323.849 4165.17C249.903 4165.23 189.859 4146.14 189.575 4122.54C189.291 4098.88 248.876 4079.69 322.822 4079.63Z" fill="url(#paint1_linear_1270_1108)"/>
</g>
<mask id="mask2_1270_1108" style="mask-type:luminance" maskUnits="userSpaceOnUse" x="218" y="4239" width="214" height="69">
<path d="M325.557 4307.77C384.597 4307.73 432.225 4292.37 431.999 4273.48C431.772 4254.59 383.776 4239.31 324.735 4239.36C265.502 4239.41 217.872 4254.76 218.099 4273.65C218.325 4292.54 266.323 4307.82 325.557 4307.77Z" fill="white"/>
</mask>
<g mask="url(#mask2_1270_1108)">
<path d="M325.557 4307.77C384.597 4307.73 432.225 4292.37 431.999 4273.48C431.772 4254.59 383.776 4239.31 324.735 4239.36C265.502 4239.41 217.872 4254.76 218.099 4273.65C218.325 4292.54 266.323 4307.82 325.557 4307.77Z" fill="url(#paint2_linear_1270_1108)"/>
</g>
<mask id="mask3_1270_1108" style="mask-type:luminance" maskUnits="userSpaceOnUse" x="266" y="4408" width="148" height="2716">
<path d="M410.734 6984.64C414.948 7013.14 415.093 7041.38 410.978 7069.43C409.04 7085.44 403.949 7096.74 395.704 7103.28C374.996 7119.8 348.939 7126.1 317.531 7122.04C297.174 7119.42 293.131 7105.18 305.405 7079.43C325.61 7037.18 333.864 6999.08 329.971 6965.06L301.187 4566.75C304.263 4532.79 295.096 4494.7 273.876 4452.48C260.984 4426.69 264.685 4412.5 284.979 4409.85C316.289 4405.75 342.496 4411.94 363.601 4428.49C372.003 4435.02 377.365 4446.24 379.687 4462.31C384.475 4490.3 385.008 4518.54 381.479 4547.1L410.734 6984.64Z" fill="white"/>
</mask>
<g mask="url(#mask3_1270_1108)">
<path d="M410.734 6984.64C414.948 7013.14 415.093 7041.38 410.978 7069.43C409.04 7085.44 403.949 7096.74 395.704 7103.28C374.996 7119.8 348.939 7126.1 317.531 7122.04C297.174 7119.42 293.131 7105.18 305.405 7079.43C325.61 7037.18 333.864 6999.08 329.971 6965.06L301.187 4566.75C304.263 4532.79 295.096 4494.7 273.876 4452.48C260.984 4426.69 264.685 4412.5 284.979 4409.85C316.289 4405.75 342.496 4411.94 363.601 4428.49C372.003 4435.02 377.365 4446.24 379.687 4462.31C384.475 4490.3 385.008 4518.54 381.479 4547.1L410.734 6984.64Z" fill="url(#paint3_linear_1270_1108)"/>
</g>
<mask id="mask4_1270_1108" style="mask-type:luminance" maskUnits="userSpaceOnUse" x="97" y="7969" width="898" height="274">
<path d="M175.006 7973.53C185.033 7970.32 197.406 7968.99 212.123 7969.48C226.841 7969.97 240.418 7972.22 252.855 7976.23C258.684 7978.05 266.474 7981.87 276.61 7987.76C286.554 7993.71 294.732 7997.66 301.145 7999.73C326.988 8007.87 350.481 8013.75 371.818 8017.37C397.036 8021.81 427.656 8024.67 463.677 8026.02C499.505 8027.38 554.658 8026.01 628.943 8022C635.714 8021.62 646.338 8019.79 660.817 8016.46C676.452 8012.8 689.587 8010.41 700.22 8009.27C720.519 8007.12 738.345 8008.49 753.696 8013.37C757.583 8014.62 761.473 8016.19 765.368 8018.13C758.654 8023.22 751.73 8026.93 744.789 8029.19C739.775 8030.83 728.774 8033.6 711.593 8037.5C694.219 8041.47 680.71 8044.99 670.876 8048.2C665.477 8049.9 649.098 8056.19 621.741 8067.07C594.384 8077.95 567.978 8087.45 542.91 8095.56C509.164 8106.39 474.036 8114.89 437.137 8121.07C403.716 8126.74 374.52 8129.53 349.16 8129.48L337.89 8125.92C338.929 8115.75 352.369 8106.51 378.594 8098.08C380.137 8097.58 382.452 8096.88 385.536 8095.81C388.818 8095.06 391.326 8094.37 393.061 8093.8C399.81 8091.6 409.83 8087.82 423.315 8082.35C402.591 8081.43 377.255 8083.33 347.113 8088C331.85 8090.4 310.607 8094.62 283.191 8100.67C257.319 8106.27 237.427 8110.05 223.706 8112.01C175.008 8118.95 137.057 8118.1 109.464 8109.34C99.9421 8106.27 95.8347 8102.76 97.5294 8098.8C102.037 8087.31 117.789 8077.2 144.787 8068.58C161.756 8063.1 220.318 8055.53 320.475 8045.91C320.076 8044.9 318.71 8043.96 316.185 8043.21C314.631 8042.77 297.761 8040.4 265.384 8036.22C233.006 8032.04 206.033 8026.54 184.658 8019.78C163.283 8012.96 151.96 8004.99 150.495 7995.83C149.224 7986.67 157.265 7979.26 175.006 7973.53ZM568.528 8101C577.783 8097.98 599.975 8092.19 634.908 8083.5C670.035 8074.88 698.783 8066.95 721.151 8059.77C727.514 8057.7 735.609 8054.74 745.435 8050.84C755.455 8047.01 762.778 8044.24 767.792 8042.67C794.017 8034.24 813.93 8032.15 827.533 8036.47C830.447 8037.41 830.47 8039.23 828.182 8042.12C821.498 8049.72 815.008 8057.38 809.098 8064.98C800.729 8077.29 796.041 8089.97 795.23 8103.02C793.115 8136.54 824.996 8163.82 891.063 8184.79C907.192 8189.92 927.575 8194.68 952.404 8198.99C977.041 8203.36 990.234 8205.8 991.594 8206.24C995.285 8207.36 995.503 8209.31 992.825 8212.01C989.954 8214.78 984.373 8217.48 975.888 8220.25C956.412 8226.47 931.276 8228.88 900.672 8227.27C870.068 8225.73 840.192 8220.29 810.85 8210.96C793.167 8205.26 781.882 8200.5 777.383 8196.62C772.883 8192.67 768.578 8188.78 764.079 8184.89C757.423 8178.68 749.031 8173.04 738.905 8168.03L717.542 8162.27C711.492 8190.45 686.003 8211.81 641.074 8226.28C618.705 8233.46 596.695 8238.24 575.043 8240.65C554.744 8242.86 539.639 8242.37 529.728 8239.18C499.414 8229.53 508.858 8209.88 558.251 8180.28C567.871 8175.38 577.297 8170.41 586.334 8165.26C595.564 8160.17 598.795 8155.21 595.834 8150.44C585.204 8151.77 557.578 8156.43 513.343 8164.31C490.936 8168.28 475.264 8168.86 466.326 8166.04C453.306 8161.85 455.531 8153.75 473.584 8141.81C492.206 8128.93 523.984 8115.35 568.528 8101Z" fill="white"/>
</mask>
<g mask="url(#mask4_1270_1108)">
<path d="M175.006 7973.53C185.033 7970.32 197.406 7968.99 212.123 7969.48C226.841 7969.97 240.418 7972.22 252.855 7976.23C258.684 7978.05 266.474 7981.87 276.61 7987.76C286.554 7993.71 294.732 7997.66 301.145 7999.73C326.988 8007.87 350.481 8013.75 371.818 8017.37C397.036 8021.81 427.656 8024.67 463.677 8026.02C499.505 8027.38 554.658 8026.01 628.943 8022C635.714 8021.62 646.338 8019.79 660.817 8016.46C676.452 8012.8 689.587 8010.41 700.22 8009.27C720.519 8007.12 738.345 8008.49 753.696 8013.37C757.583 8014.62 761.473 8016.19 765.368 8018.13C758.654 8023.22 751.73 8026.93 744.789 8029.19C739.775 8030.83 728.774 8033.6 711.593 8037.5C694.219 8041.47 680.71 8044.99 670.876 8048.2C665.477 8049.9 649.098 8056.19 621.741 8067.07C594.384 8077.95 567.978 8087.45 542.91 8095.56C509.164 8106.39 474.036 8114.89 437.137 8121.07C403.716 8126.74 374.52 8129.53 349.16 8129.48L337.89 8125.92C338.929 8115.75 352.369 8106.51 378.594 8098.08C380.137 8097.58 382.452 8096.88 385.536 8095.81C388.818 8095.06 391.326 8094.37 393.061 8093.8C399.81 8091.6 409.83 8087.82 423.315 8082.35C402.591 8081.43 377.255 8083.33 347.113 8088C331.85 8090.4 310.607 8094.62 283.191 8100.67C257.319 8106.27 237.427 8110.05 223.706 8112.01C175.008 8118.95 137.057 8118.1 109.464 8109.34C99.9421 8106.27 95.8347 8102.76 97.5294 8098.8C102.037 8087.31 117.789 8077.2 144.787 8068.58C161.756 8063.1 220.318 8055.53 320.475 8045.91C320.076 8044.9 318.71 8043.96 316.185 8043.21C314.631 8042.77 297.761 8040.4 265.384 8036.22C233.006 8032.04 206.033 8026.54 184.658 8019.78C163.283 8012.96 151.96 8004.99 150.495 7995.83C149.224 7986.67 157.265 7979.26 175.006 7973.53ZM568.528 8101C577.783 8097.98 599.975 8092.19 634.908 8083.5C670.035 8074.88 698.783 8066.95 721.151 8059.77C727.514 8057.7 735.609 8054.74 745.435 8050.84C755.455 8047.01 762.778 8044.24 767.792 8042.67C794.017 8034.24 813.93 8032.15 827.533 8036.47C830.447 8037.41 830.47 8039.23 828.182 8042.12C821.498 8049.72 815.008 8057.38 809.098 8064.98C800.729 8077.29 796.041 8089.97 795.23 8103.02C793.115 8136.54 824.996 8163.82 891.063 8184.79C907.192 8189.92 927.575 8194.68 952.404 8198.99C977.041 8203.36 990.234 8205.8 991.594 8206.24C995.285 8207.36 995.503 8209.31 992.825 8212.01C989.954 8214.78 984.373 8217.48 975.888 8220.25C956.412 8226.47 931.276 8228.88 900.672 8227.27C870.068 8225.73 840.192 8220.29 810.85 8210.96C793.167 8205.26 781.882 8200.5 777.383 8196.62C772.883 8192.67 768.578 8188.78 764.079 8184.89C757.423 8178.68 749.031 8173.04 738.905 8168.03L717.542 8162.27C711.492 8190.45 686.003 8211.81 641.074 8226.28C618.705 8233.46 596.695 8238.24 575.043 8240.65C554.744 8242.86 539.639 8242.37 529.728 8239.18C499.414 8229.53 508.858 8209.88 558.251 8180.28C567.871 8175.38 577.297 8170.41 586.334 8165.26C595.564 8160.17 598.795 8155.21 595.834 8150.44C585.204 8151.77 557.578 8156.43 513.343 8164.31C490.936 8168.28 475.264 8168.86 466.326 8166.04C453.306 8161.85 455.531 8153.75 473.584 8141.81C492.206 8128.93 523.984 8115.35 568.528 8101Z" fill="url(#paint4_linear_1270_1108)"/>
</g>
<mask id="mask5_1270_1108" style="mask-type:luminance" maskUnits="userSpaceOnUse" x="282" y="7251" width="857" height="753">
<path d="M1132.89 7961.97C1163.97 7970.99 1058.08 7987.08 1058.08 7987.08C945.448 8005.62 824.685 8007.97 695.985 7994.2C567.284 7980.37 470.755 7953.58 406.589 7913.65C305.761 7851.22 281.764 7755.09 334.795 7625.32C355.479 7574.46 365.558 7527.13 365.42 7483.39C365.625 7468.2 362.425 7443.6 356.21 7409.65C349.996 7375.7 330.379 7338 297.748 7296.54C277.892 7271.2 277.721 7256.95 297.234 7253.73C327.179 7248.81 355.12 7254.25 380.668 7270.11C390.616 7276.38 399.073 7287.48 405.653 7303.42C418.181 7331.15 426.455 7359.26 430.669 7387.81C435.382 7409.52 438.422 7420.88 439.982 7421.82C450.123 7428.09 470.07 7428.77 500.208 7423.78C506.197 7422.77 512.182 7421.51 518.164 7419.94C524.145 7418.3 528.585 7417.3 531.677 7416.79C560.269 7412.06 579.443 7412.86 589.584 7419.13C626.834 7442.2 623.68 7469.75 580.317 7501.8C551.699 7520.52 522.308 7539.37 491.95 7558.35C468.526 7574.37 462.472 7586.05 474.173 7593.26C486.46 7600.91 501.008 7603.41 517.43 7600.7C524.964 7599.44 533.643 7596.79 543.274 7592.77C552.905 7588.81 560.812 7586.29 566.8 7585.28C604.28 7579.1 633.161 7582.28 653.249 7594.75C665.731 7602.46 659.522 7617.47 634.819 7639.77C601.093 7668.41 567.561 7697.06 533.836 7725.71C441.875 7805.36 429.634 7866.06 496.92 7907.93C548.991 7940.09 627.658 7962.43 733.306 7974.84C838.761 7987.25 982.472 7977.59 1026.72 7971.22C1070.98 7964.91 1075.39 7945.32 1132.89 7961.97Z" fill="white"/>
</mask>
<g mask="url(#mask5_1270_1108)">
<path d="M1132.89 7961.97C1163.97 7970.99 1058.08 7987.08 1058.08 7987.08C945.448 8005.62 824.685 8007.97 695.985 7994.2C567.284 7980.37 470.755 7953.58 406.589 7913.65C305.761 7851.22 281.764 7755.09 334.795 7625.32C355.479 7574.46 365.558 7527.13 365.42 7483.39C365.625 7468.2 362.425 7443.6 356.21 7409.65C349.996 7375.7 330.379 7338 297.748 7296.54C277.892 7271.2 277.721 7256.95 297.234 7253.73C327.179 7248.81 355.12 7254.25 380.668 7270.11C390.616 7276.38 399.073 7287.48 405.653 7303.42C418.181 7331.15 426.455 7359.26 430.669 7387.81C435.382 7409.52 438.422 7420.88 439.982 7421.82C450.123 7428.09 470.07 7428.77 500.208 7423.78C506.197 7422.77 512.182 7421.51 518.164 7419.94C524.145 7418.3 528.585 7417.3 531.677 7416.79C560.269 7412.06 579.443 7412.86 589.584 7419.13C626.834 7442.2 623.68 7469.75 580.317 7501.8C551.699 7520.52 522.308 7539.37 491.95 7558.35C468.526 7574.37 462.472 7586.05 474.173 7593.26C486.46 7600.91 501.008 7603.41 517.43 7600.7C524.964 7599.44 533.643 7596.79 543.274 7592.77C552.905 7588.81 560.812 7586.29 566.8 7585.28C604.28 7579.1 633.161 7582.28 653.249 7594.75C665.731 7602.46 659.522 7617.47 634.819 7639.77C601.093 7668.41 567.561 7697.06 533.836 7725.71C441.875 7805.36 429.634 7866.06 496.92 7907.93C548.991 7940.09 627.658 7962.43 733.306 7974.84C838.761 7987.25 982.472 7977.59 1026.72 7971.22C1070.98 7964.91 1075.39 7945.32 1132.89 7961.97Z" fill="url(#paint5_linear_1270_1108)"/>
</g>
<mask id="mask6_1270_1108" style="mask-type:luminance" maskUnits="userSpaceOnUse" x="867" y="7915" width="2352" height="271">
<path d="M965.514 7951.75C945.939 7965.95 916.487 8011.98 955.994 8045.65C995.5 8079.32 1065.88 8104.37 1166.73 8120.8C1297.85 8142.1 1487.69 8137.74 1736.08 8107.86C1825.38 8096.87 1914.87 8085.94 2004.18 8075.01C2073.96 8066.99 2120.78 8064.88 2144.83 8068.81C2184.01 8075.18 2194.19 8084.4 2174.97 8096.4C2172.09 8098.35 2164.19 8100.87 2151.64 8104.02C2139.1 8107.1 2131 8109.87 2127.16 8112.26C2118.7 8117.6 2126.69 8122.17 2150.75 8126.11C2173.44 8129.79 2209.61 8127.82 2259.66 8120.19C2318.77 8110.35 2377.51 8100.83 2435.86 8091.55C2535.96 8077.48 2622.09 8076.35 2694.43 8088.09C2714.02 8091.27 2716.61 8097.42 2702.01 8106.6C2700.47 8107.54 2697.2 8108.98 2692.38 8110.93C2687.37 8112.82 2683.33 8114.77 2680.26 8116.72C2665.08 8126.33 2667.29 8132.73 2686.88 8135.92C2689.79 8136.42 2725.41 8137.33 2793.38 8138.72C2882.44 8139.84 2970.54 8142.35 3057.31 8146.17C3107.28 8148.2 3141.96 8150.81 3161.55 8154C3211.4 8162.05 3228.54 8170.89 3213.36 8180.57C3203.37 8186.79 3158.85 8186.82 3079.6 8180.61C2949.59 8170.42 2831.63 8164.49 2725.53 8162.69C2619.23 8160.89 2542.37 8160.07 2494.95 8160.17C2358.09 8160.4 2210.24 8163.97 2051.4 8170.87C1645.87 8188.64 1345.17 8181.6 1149.27 8149.75C1024.17 8129.45 939.595 8098.7 895.741 8057.62C851.888 8016.61 858.393 7978.01 915.645 7941.87C915.645 7941.87 965.18 7907.88 993.755 7917.77C1046.24 7935.99 984.894 7937.55 965.514 7951.75Z" fill="white"/>
</mask>
<g mask="url(#mask6_1270_1108)">
<path d="M965.514 7951.75C945.939 7965.95 916.487 8011.98 955.994 8045.65C995.5 8079.32 1065.88 8104.37 1166.73 8120.8C1297.85 8142.1 1487.69 8137.74 1736.08 8107.86C1825.38 8096.87 1914.87 8085.94 2004.18 8075.01C2073.96 8066.99 2120.78 8064.88 2144.83 8068.81C2184.01 8075.18 2194.19 8084.4 2174.97 8096.4C2172.09 8098.35 2164.19 8100.87 2151.64 8104.02C2139.1 8107.1 2131 8109.87 2127.16 8112.26C2118.7 8117.6 2126.69 8122.17 2150.75 8126.11C2173.44 8129.79 2209.61 8127.82 2259.66 8120.19C2318.77 8110.35 2377.51 8100.83 2435.86 8091.55C2535.96 8077.48 2622.09 8076.35 2694.43 8088.09C2714.02 8091.27 2716.61 8097.42 2702.01 8106.6C2700.47 8107.54 2697.2 8108.98 2692.38 8110.93C2687.37 8112.82 2683.33 8114.77 2680.26 8116.72C2665.08 8126.33 2667.29 8132.73 2686.88 8135.92C2689.79 8136.42 2725.41 8137.33 2793.38 8138.72C2882.44 8139.84 2970.54 8142.35 3057.31 8146.17C3107.28 8148.2 3141.96 8150.81 3161.55 8154C3211.4 8162.05 3228.54 8170.89 3213.36 8180.57C3203.37 8186.79 3158.85 8186.82 3079.6 8180.61C2949.59 8170.42 2831.63 8164.49 2725.53 8162.69C2619.23 8160.89 2542.37 8160.07 2494.95 8160.17C2358.09 8160.4 2210.24 8163.97 2051.4 8170.87C1645.87 8188.64 1345.17 8181.6 1149.27 8149.75C1024.17 8129.45 939.595 8098.7 895.741 8057.62C851.888 8016.61 858.393 7978.01 915.645 7941.87C915.645 7941.87 965.18 7907.88 993.755 7917.77C1046.24 7935.99 984.894 7937.55 965.514 7951.75Z" fill="url(#paint6_linear_1270_1108)"/>
</g>
<mask id="mask7_1270_1108" style="mask-type:luminance" maskUnits="userSpaceOnUse" x="872" y="7882" width="371" height="120">
<path d="M1005.1 7895.42C1059.09 7877.99 1147.36 7877.92 1201.96 7895.27C1256.37 7912.61 1256.71 7940.79 1202.72 7958.22C1148.53 7975.65 941.287 8014.03 886.683 7996.69C832.08 7979.35 950.912 7912.85 1005.1 7895.42Z" fill="white"/>
</mask>
<g mask="url(#mask7_1270_1108)">
<path d="M1005.1 7895.42C1059.09 7877.99 1147.36 7877.92 1201.96 7895.27C1256.37 7912.61 1256.71 7940.79 1202.72 7958.22C1148.53 7975.65 941.287 8014.03 886.683 7996.69C832.08 7979.35 950.912 7912.85 1005.1 7895.42Z" fill="url(#paint7_linear_1270_1108)"/>
</g>
<mask id="mask8_1270_1108" style="mask-type:luminance" maskUnits="userSpaceOnUse" x="3390" y="8107" width="269" height="87">
<path d="M3523.74 8107.46C3449.99 8107.52 3390.21 8126.71 3390.5 8150.31C3390.78 8173.97 3451.02 8193.06 3524.77 8193C3598.72 8192.95 3658.3 8173.76 3658.02 8150.1C3657.73 8126.5 3597.69 8107.4 3523.74 8107.46Z" fill="white"/>
</mask>
<g mask="url(#mask8_1270_1108)">
<path d="M3523.74 8107.46C3449.99 8107.52 3390.21 8126.71 3390.5 8150.31C3390.78 8173.97 3451.02 8193.06 3524.77 8193C3598.72 8192.95 3658.3 8173.76 3658.02 8150.1C3657.73 8126.5 3597.69 8107.4 3523.74 8107.46Z" fill="url(#paint8_linear_1270_1108)"/>
</g>
<mask id="mask9_1270_1108" style="mask-type:luminance" maskUnits="userSpaceOnUse" x="214" y="3939" width="215" height="69">
<path d="M321.136 3939.55C380.176 3939.5 428.172 3954.78 428.399 3973.67C428.626 3992.56 380.997 4007.91 321.957 4007.96C262.723 4008.01 214.726 3992.73 214.499 3973.84C214.272 3954.95 261.902 3939.6 321.136 3939.55Z" fill="white"/>
</mask>
<g mask="url(#mask9_1270_1108)">
<path d="M321.136 3939.55C380.176 3939.5 428.172 3954.78 428.399 3973.67C428.626 3992.56 380.997 4007.91 321.957 4007.96C262.723 4008.01 214.726 3992.73 214.499 3973.84C214.272 3954.95 261.902 3939.6 321.136 3939.55Z" fill="url(#paint9_linear_1270_1108)"/>
</g>
<mask id="mask10_1270_1108" style="mask-type:luminance" maskUnits="userSpaceOnUse" x="226" y="1124" width="149" height="2715">
<path d="M371.313 3700.13C375.527 3728.68 375.673 3756.93 371.557 3784.92C369.62 3800.99 364.528 3812.23 356.283 3818.76C335.576 3835.35 309.518 3841.58 278.11 3837.53C257.753 3834.91 253.711 3820.73 265.984 3794.92C286.189 3752.67 294.443 3714.56 290.551 3680.61L261.766 1282.3C264.842 1248.28 255.675 1210.19 234.455 1167.97C221.564 1142.24 225.264 1127.99 245.558 1125.34C276.868 1121.24 303.076 1127.49 324.18 1143.98C332.582 1150.5 337.945 1161.8 340.266 1177.8C345.054 1205.79 345.587 1234.09 342.058 1262.59L371.313 3700.13Z" fill="white"/>
</mask>
<g mask="url(#mask10_1270_1108)">
<path d="M371.313 3700.13C375.527 3728.68 375.673 3756.93 371.557 3784.92C369.62 3800.99 364.528 3812.23 356.283 3818.76C335.576 3835.35 309.518 3841.58 278.11 3837.53C257.753 3834.91 253.711 3820.73 265.984 3794.92C286.189 3752.67 294.443 3714.56 290.551 3680.61L261.766 1282.3C264.842 1248.28 255.675 1210.19 234.455 1167.97C221.564 1142.24 225.264 1127.99 245.558 1125.34C276.868 1121.24 303.076 1127.49 324.18 1143.98C332.582 1150.5 337.945 1161.8 340.266 1177.8C345.054 1205.79 345.587 1234.09 342.058 1262.59L371.313 3700.13Z" fill="url(#paint10_linear_1270_1108)"/>
</g>
<mask id="mask11_1270_1108" style="mask-type:luminance" maskUnits="userSpaceOnUse" x="1" y="5" width="896" height="274">
<path d="M57.5525 251.842C58.7975 242.677 69.9292 234.698 91.1403 227.84C112.352 221.045 139.193 215.501 171.469 211.27C203.746 207.04 220.559 204.642 222.102 204.201C224.609 203.446 225.953 202.503 226.328 201.499C125.942 192.038 67.1982 184.554 50.0981 179.107C22.8937 170.467 6.89983 160.437 2.11619 148.955C0.326565 145.002 4.34966 141.486 13.7979 138.404C41.1801 129.595 79.1101 128.685 127.974 135.551C141.741 137.485 161.724 141.235 187.73 146.801C215.29 152.804 236.634 156.994 251.955 159.366C282.208 163.987 307.589 165.849 328.29 164.891C314.674 159.442 304.564 155.684 297.762 153.493C296.013 152.929 293.489 152.242 290.189 151.491C287.079 150.427 284.748 149.737 283.193 149.236C256.766 140.847 243.105 131.631 241.821 121.464L253.006 117.879C278.364 117.796 307.627 120.535 341.183 126.157C378.229 132.279 413.561 140.724 447.566 151.492C472.828 159.569 499.461 169.025 527.079 179.861C554.697 190.698 571.227 196.961 576.667 198.651C586.578 201.844 600.17 205.348 617.639 209.288C634.914 213.166 645.982 215.918 651.034 217.546C658.03 219.8 665.042 223.499 671.879 228.577C668.03 230.526 664.178 232.096 660.321 233.355C645.088 238.262 627.295 239.658 606.944 237.54C596.283 236.356 583.093 234.042 567.369 230.415C552.811 227.1 542.143 225.29 535.363 224.919C460.983 221.023 405.799 219.747 370.004 221.156C334.016 222.565 303.466 225.477 278.354 229.953C257.105 233.61 233.753 239.528 208.106 247.707C201.743 249.783 193.66 253.745 183.859 259.715C173.864 265.622 166.167 269.456 160.381 271.281C148.041 275.307 134.518 277.578 119.812 278.091C105.106 278.605 92.7015 277.233 82.598 274.102C64.7206 268.405 56.501 261.006 57.5525 251.842ZM377.131 105.353C358.792 93.4431 356.372 85.3501 369.291 81.1349C378.162 78.3036 393.848 78.8556 416.35 82.7919C460.773 90.6022 488.509 95.162 499.172 96.5344C502.019 91.7622 498.668 86.8056 489.316 81.7293C480.156 76.59 470.611 71.6402 460.874 66.7524C410.77 37.168 400.856 17.5935 430.937 7.90438C440.771 4.69576 455.865 4.18276 476.216 6.36341C497.925 8.73129 520.05 13.4843 542.59 20.6215C587.866 35.0212 613.868 56.3389 620.594 84.5139L641.818 78.7236C651.823 73.6947 660.08 68.0381 666.587 61.8195C670.992 57.9248 675.204 54.0307 679.609 50.0732C684.014 46.1784 695.184 41.3379 712.732 35.6755C741.849 26.301 771.594 20.8162 802.16 19.2231C832.725 17.5672 857.918 19.9333 877.544 26.1314C886.094 28.8862 891.741 31.579 894.677 34.3383C897.42 37.0349 897.249 38.9826 893.585 40.1152C892.235 40.5556 879.101 43.0122 854.57 47.4249C829.844 51.775 809.576 56.5604 793.571 61.7195C728.008 82.7965 696.782 110.061 699.702 143.637C700.826 156.691 705.819 169.363 714.484 181.658C720.576 189.247 727.249 196.901 734.115 204.489C736.473 207.375 736.494 209.195 733.602 210.138C720.104 214.48 700.141 212.424 673.714 204.034C668.662 202.469 661.273 199.714 651.161 195.893C641.242 192.01 633.076 189.067 626.663 187.001C604.123 179.863 575.186 171.978 539.851 163.344C504.711 154.774 482.381 149.017 473.053 146.012C428.166 131.738 396.062 118.205 377.131 105.353Z" fill="white"/>
</mask>
<g mask="url(#mask11_1270_1108)">
<path d="M57.5525 251.842C58.7975 242.677 69.9292 234.698 91.1403 227.84C112.352 221.045 139.193 215.501 171.469 211.27C203.746 207.04 220.559 204.642 222.102 204.201C224.609 203.446 225.953 202.503 226.328 201.499C125.942 192.038 67.1982 184.554 50.0981 179.107C22.8937 170.467 6.89983 160.437 2.11619 148.955C0.326565 145.002 4.34966 141.486 13.7979 138.404C41.1801 129.595 79.1101 128.685 127.974 135.551C141.741 137.485 161.724 141.235 187.73 146.801C215.29 152.804 236.634 156.994 251.955 159.366C282.208 163.987 307.589 165.849 328.29 164.891C314.674 159.442 304.564 155.684 297.762 153.493C296.013 152.929 293.489 152.242 290.189 151.491C287.079 150.427 284.748 149.737 283.193 149.236C256.766 140.847 243.105 131.631 241.821 121.464L253.006 117.879C278.364 117.796 307.627 120.535 341.183 126.157C378.229 132.279 413.561 140.724 447.566 151.492C472.828 159.569 499.461 169.025 527.079 179.861C554.697 190.698 571.227 196.961 576.667 198.651C586.578 201.844 600.17 205.348 617.639 209.288C634.914 213.166 645.982 215.918 651.034 217.546C658.03 219.8 665.042 223.499 671.879 228.577C668.03 230.526 664.178 232.096 660.321 233.355C645.088 238.262 627.295 239.658 606.944 237.54C596.283 236.356 583.093 234.042 567.369 230.415C552.811 227.1 542.143 225.29 535.363 224.919C460.983 221.023 405.799 219.747 370.004 221.156C334.016 222.565 303.466 225.477 278.354 229.953C257.105 233.61 233.753 239.528 208.106 247.707C201.743 249.783 193.66 253.745 183.859 259.715C173.864 265.622 166.167 269.456 160.381 271.281C148.041 275.307 134.518 277.578 119.812 278.091C105.106 278.605 92.7015 277.233 82.598 274.102C64.7206 268.405 56.501 261.006 57.5525 251.842ZM377.131 105.353C358.792 93.4431 356.372 85.3501 369.291 81.1349C378.162 78.3036 393.848 78.8556 416.35 82.7919C460.773 90.6022 488.509 95.162 499.172 96.5344C502.019 91.7622 498.668 86.8056 489.316 81.7293C480.156 76.59 470.611 71.6402 460.874 66.7524C410.77 37.168 400.856 17.5935 430.937 7.90438C440.771 4.69576 455.865 4.18276 476.216 6.36341C497.925 8.73129 520.05 13.4843 542.59 20.6215C587.866 35.0212 613.868 56.3389 620.594 84.5139L641.818 78.7236C651.823 73.6947 660.08 68.0381 666.587 61.8195C670.992 57.9248 675.204 54.0307 679.609 50.0732C684.014 46.1784 695.184 41.3379 712.732 35.6755C741.849 26.301 771.594 20.8162 802.16 19.2231C832.725 17.5672 857.918 19.9333 877.544 26.1314C886.094 28.8862 891.741 31.579 894.677 34.3383C897.42 37.0349 897.249 38.9826 893.585 40.1152C892.235 40.5556 879.101 43.0122 854.57 47.4249C829.844 51.775 809.576 56.5604 793.571 61.7195C728.008 82.7965 696.782 110.061 699.702 143.637C700.826 156.691 705.819 169.363 714.484 181.658C720.576 189.247 727.249 196.901 734.115 204.489C736.473 207.375 736.494 209.195 733.602 210.138C720.104 214.48 700.141 212.424 673.714 204.034C668.662 202.469 661.273 199.714 651.161 195.893C641.242 192.01 633.076 189.067 626.663 187.001C604.123 179.863 575.186 171.978 539.851 163.344C504.711 154.774 482.381 149.017 473.053 146.012C428.166 131.738 396.062 118.205 377.131 105.353Z" fill="url(#paint11_linear_1270_1108)"/>
</g>
<mask id="mask12_1270_1108" style="mask-type:luminance" maskUnits="userSpaceOnUse" x="207" y="243" width="840" height="753">
<path d="M934.358 275.061C889.954 268.757 746.013 259.331 640.858 271.904C535.51 284.476 457.381 306.943 406.083 339.18C339.803 381.158 353.501 441.839 447.372 521.348C481.785 549.94 516.003 578.533 550.416 607.126C575.654 629.387 582.223 644.381 569.927 652.111C550.138 664.616 521.334 667.839 483.707 661.718C477.694 660.718 469.727 658.214 460 654.205C450.274 650.259 441.531 647.63 433.967 646.38C417.481 643.695 402.993 646.215 390.89 653.882C379.362 661.109 385.696 672.779 409.504 688.764C440.317 707.694 470.16 726.499 499.227 745.18C543.359 777.154 547.173 804.703 510.478 827.828C500.487 834.112 481.333 834.944 452.628 830.259C449.525 829.76 445.06 828.759 439.04 827.132C433.02 825.568 427.004 824.253 420.992 823.317C390.735 818.382 370.805 819.09 360.814 825.374C359.277 826.317 356.509 837.679 352.318 859.398C348.789 887.958 341.19 916.081 329.328 943.831C323.131 959.778 314.94 970.892 305.143 977.176C279.976 993.074 252.167 998.559 222.104 993.687C202.514 990.501 202.343 976.253 221.59 950.881C253.225 909.371 271.937 871.638 277.336 837.679C282.736 803.72 285.345 779.115 284.776 763.927C283.863 720.183 272.648 672.868 250.745 622.047C194.6 492.362 216.288 396.193 315.616 333.603C378.823 293.574 474.706 266.574 603.073 252.602C731.44 238.63 852.257 240.794 965.333 259.157C965.333 259.157 1071.6 275.079 1040.74 284.141C983.643 300.881 978.762 281.302 934.358 275.061Z" fill="white"/>
</mask>
<g mask="url(#mask12_1270_1108)">
<path d="M934.358 275.061C889.954 268.757 746.013 259.331 640.858 271.904C535.51 284.476 457.381 306.943 406.083 339.18C339.803 381.158 353.501 441.839 447.372 521.348C481.785 549.94 516.003 578.533 550.416 607.126C575.654 629.387 582.223 644.381 569.927 652.111C550.138 664.616 521.334 667.839 483.707 661.718C477.694 660.718 469.727 658.214 460 654.205C450.274 650.259 441.531 647.63 433.967 646.38C417.481 643.695 402.993 646.215 390.89 653.882C379.362 661.109 385.696 672.779 409.504 688.764C440.317 707.694 470.16 726.499 499.227 745.18C543.359 777.154 547.173 804.703 510.478 827.828C500.487 834.112 481.333 834.944 452.628 830.259C449.525 829.76 445.06 828.759 439.04 827.132C433.02 825.568 427.004 824.253 420.992 823.317C390.735 818.382 370.805 819.09 360.814 825.374C359.277 826.317 356.509 837.679 352.318 859.398C348.789 887.958 341.19 916.081 329.328 943.831C323.131 959.778 314.94 970.892 305.143 977.176C279.976 993.074 252.167 998.559 222.104 993.687C202.514 990.501 202.343 976.253 221.59 950.881C253.225 909.371 271.937 871.638 277.336 837.679C282.736 803.72 285.345 779.115 284.776 763.927C283.863 720.183 272.648 672.868 250.745 622.047C194.6 492.362 216.288 396.193 315.616 333.603C378.823 293.574 474.706 266.574 603.073 252.602C731.44 238.63 852.257 240.794 965.333 259.157C965.333 259.157 1071.6 275.079 1040.74 284.141C983.643 300.881 978.762 281.302 934.358 275.061Z" fill="url(#paint12_linear_1270_1108)"/>
</g>
<mask id="mask13_1270_1108" style="mask-type:luminance" maskUnits="userSpaceOnUse" x="773" y="57" width="2349" height="274">
<path d="M902.671 328.556C874.334 338.495 823.985 304.579 823.985 304.579C765.866 268.537 758.434 229.944 801.302 188.801C844.17 147.72 928.005 116.838 1052.62 96.342C1247.74 64.1795 1548.28 56.6644 1954.22 73.7927C2113.22 80.4458 2261.16 83.7813 2398.02 83.799C2445.44 83.8244 2522.28 82.8848 2628.53 80.9182C2734.59 78.9518 2852.4 72.7711 2982.17 62.4387C3061.26 56.1001 3105.79 56.0641 3115.93 62.2696C3131.33 71.9229 3114.41 80.7872 3064.75 88.9226C3045.24 92.1389 3010.62 94.8007 2960.71 96.9111C2874.03 100.871 2785.99 103.513 2696.96 104.775C2629.03 106.272 2593.42 107.243 2590.52 107.747C2571.01 110.963 2568.96 117.368 2584.37 126.958C2587.49 128.902 2591.57 130.781 2596.63 132.722C2601.49 134.664 2604.8 136.104 2606.36 137.044C2621.18 146.196 2618.74 152.349 2599.23 155.565C2527.17 167.421 2441.01 166.422 2340.57 152.505C2282 143.325 2223.04 133.896 2163.69 124.151C2113.46 116.597 2077.24 114.679 2054.64 118.4C2030.68 122.373 2022.8 126.959 2031.38 132.287C2035.28 134.669 2043.45 137.425 2056.07 140.491C2068.69 143.619 2076.65 146.124 2079.58 148.067C2099.08 160.04 2089.13 169.274 2050.1 175.706C2026.14 179.679 1979.27 177.643 1909.3 169.727C1819.74 158.94 1729.98 148.152 1640.42 137.302C1391.32 107.812 1201.37 103.757 1070.77 125.262C970.311 141.848 900.539 167.008 861.841 200.742C823.144 234.475 853.7 280.457 873.615 294.626C893.336 308.795 954.717 310.251 902.671 328.556Z" fill="white"/>
</mask>
<g mask="url(#mask13_1270_1108)">
<path d="M902.671 328.556C874.334 338.495 823.985 304.579 823.985 304.579C765.866 268.537 758.434 229.944 801.302 188.801C844.17 147.72 928.005 116.838 1052.62 96.342C1247.74 64.1795 1548.28 56.6644 1954.22 73.7927C2113.22 80.4458 2261.16 83.7813 2398.02 83.799C2445.44 83.8244 2522.28 82.8848 2628.53 80.9182C2734.59 78.9518 2852.4 72.7711 2982.17 62.4387C3061.26 56.1001 3105.79 56.0641 3115.93 62.2696C3131.33 71.9229 3114.41 80.7872 3064.75 88.9226C3045.24 92.1389 3010.62 94.8007 2960.71 96.9111C2874.03 100.871 2785.99 103.513 2696.96 104.775C2629.03 106.272 2593.42 107.243 2590.52 107.747C2571.01 110.963 2568.96 117.368 2584.37 126.958C2587.49 128.902 2591.57 130.781 2596.63 132.722C2601.49 134.664 2604.8 136.104 2606.36 137.044C2621.18 146.196 2618.74 152.349 2599.23 155.565C2527.17 167.421 2441.01 166.422 2340.57 152.505C2282 143.325 2223.04 133.896 2163.69 124.151C2113.46 116.597 2077.24 114.679 2054.64 118.4C2030.68 122.373 2022.8 126.959 2031.38 132.287C2035.28 134.669 2043.45 137.425 2056.07 140.491C2068.69 143.619 2076.65 146.124 2079.58 148.067C2099.08 160.04 2089.13 169.274 2050.1 175.706C2026.14 179.679 1979.27 177.643 1909.3 169.727C1819.74 158.94 1729.98 148.152 1640.42 137.302C1391.32 107.812 1201.37 103.757 1070.77 125.262C970.311 141.848 900.539 167.008 861.841 200.742C823.144 234.475 853.7 280.457 873.615 294.626C893.336 308.795 954.717 310.251 902.671 328.556Z" fill="url(#paint13_linear_1270_1108)"/>
</g>
<mask id="mask14_1270_1108" style="mask-type:luminance" maskUnits="userSpaceOnUse" x="780" y="245" width="372" height="119">
<path d="M914.548 350.89C968.957 368.233 1057.23 368.163 1111.41 350.735C1165.41 333.308 1165.07 305.127 1110.66 287.785C1056.05 270.443 847.891 232.385 793.705 249.813C739.519 267.241 859.945 333.548 914.548 350.89Z" fill="white"/>
</mask>
<g mask="url(#mask14_1270_1108)">
<path d="M914.548 350.89C968.957 368.233 1057.23 368.163 1111.41 350.735C1165.41 333.308 1165.07 305.127 1110.66 287.785C1056.05 270.443 847.891 232.385 793.705 249.813C739.519 267.241 859.945 333.548 914.548 350.89Z" fill="url(#paint14_linear_1270_1108)"/>
</g>
<mask id="mask15_1270_1108" style="mask-type:luminance" maskUnits="userSpaceOnUse" x="3293" y="49" width="269" height="86">
<path d="M3428.06 134.898C3354.31 134.956 3294.07 115.86 3293.79 92.2619C3293.5 68.6007 3353.28 49.4115 3427.03 49.3535C3500.98 49.2952 3561.02 68.39 3561.31 92.0512C3561.59 115.65 3502 134.84 3428.06 134.898Z" fill="white"/>
</mask>
<g mask="url(#mask15_1270_1108)">
<path d="M3428.06 134.898C3354.31 134.956 3294.07 115.86 3293.79 92.2619C3293.5 68.6007 3353.28 49.4115 3427.03 49.3535C3500.98 49.2952 3561.02 68.39 3561.31 92.0512C3561.59 115.65 3502 134.84 3428.06 134.898Z" fill="url(#paint15_linear_1270_1108)"/>
</g>
<mask id="mask16_1270_1108" style="mask-type:luminance" maskUnits="userSpaceOnUse" x="3390" y="8107" width="269" height="87">
<path d="M3523.74 8107.46C3449.99 8107.52 3390.21 8126.71 3390.5 8150.31C3390.78 8173.97 3451.02 8193.06 3524.77 8193C3598.72 8192.95 3658.3 8173.76 3658.02 8150.1C3657.73 8126.5 3597.69 8107.4 3523.74 8107.46Z" fill="white"/>
</mask>
<g mask="url(#mask16_1270_1108)">
<path d="M3523.74 8107.46C3449.99 8107.52 3390.21 8126.71 3390.5 8150.31C3390.78 8173.97 3451.02 8193.06 3524.77 8193C3598.72 8192.95 3658.3 8173.76 3658.02 8150.1C3657.73 8126.5 3597.69 8107.4 3523.74 8107.46Z" fill="url(#paint16_linear_1270_1108)"/>
</g>
<mask id="mask17_1270_1108" style="mask-type:luminance" maskUnits="userSpaceOnUse" x="6494" y="4074" width="269" height="87">
<path d="M6628.13 4074.66C6554.18 4074.72 6494.59 4093.91 6494.88 4117.57C6495.16 4141.17 6555.21 4160.26 6629.15 4160.2C6702.9 4160.14 6762.68 4140.96 6762.4 4117.36C6762.12 4093.7 6701.88 4074.6 6628.13 4074.66Z" fill="white"/>
</mask>
<g mask="url(#mask17_1270_1108)">
<path d="M6628.13 4074.66C6554.18 4074.72 6494.59 4093.91 6494.88 4117.57C6495.16 4141.17 6555.21 4160.26 6629.15 4160.2C6702.9 4160.14 6762.68 4140.96 6762.4 4117.36C6762.12 4093.7 6701.88 4074.6 6628.13 4074.66Z" fill="url(#paint17_linear_1270_1108)"/>
</g>
<mask id="mask18_1270_1108" style="mask-type:luminance" maskUnits="userSpaceOnUse" x="6523" y="4234" width="215" height="69">
<path d="M6630.89 4302.8C6571.85 4302.85 6523.66 4287.57 6523.43 4268.68C6523.2 4249.79 6571.03 4234.44 6630.07 4234.39C6689.11 4234.35 6737.3 4249.62 6737.52 4268.51C6737.75 4287.4 6689.93 4302.76 6630.89 4302.8Z" fill="white"/>
</mask>
<g mask="url(#mask18_1270_1108)">
<path d="M6630.89 4302.8C6571.85 4302.85 6523.66 4287.57 6523.43 4268.68C6523.2 4249.79 6571.03 4234.44 6630.07 4234.39C6689.11 4234.35 6737.3 4249.62 6737.52 4268.51C6737.75 4287.4 6689.93 4302.76 6630.89 4302.8Z" fill="url(#paint18_linear_1270_1108)"/>
</g>
<mask id="mask19_1270_1108" style="mask-type:luminance" maskUnits="userSpaceOnUse" x="6577" y="4403" width="149" height="2716">
<path d="M6580.72 4542.22C6576.31 4513.66 6576.36 4485.42 6580.48 4457.42C6582.41 4441.35 6587.51 4430.12 6595.56 4423.58C6616.46 4407 6642.52 4400.76 6673.92 4404.82C6694.28 4407.44 6698.32 4421.62 6685.86 4447.43C6665.65 4489.68 6657.59 4527.78 6661.29 4561.73L6690.07 6960.05C6687.19 6994.07 6696.17 7032.16 6717.38 7074.38C6730.47 7100.1 6726.77 7114.36 6706.48 7117.01C6675.17 7121.11 6648.96 7114.86 6627.66 7098.37C6619.45 7091.85 6614.09 7080.55 6611.77 7064.55C6606.98 7036.5 6606.25 7008.26 6609.98 6979.76L6580.72 4542.22Z" fill="white"/>
</mask>
<g mask="url(#mask19_1270_1108)">
<path d="M6580.7 4542.22C6576.3 4513.66 6576.35 4485.42 6580.46 4457.42C6582.4 4441.35 6587.49 4430.12 6595.54 4423.58C6616.44 4407 6642.5 4400.76 6673.91 4404.82C6694.27 4407.44 6698.31 4421.62 6685.84 4447.43C6665.64 4489.68 6657.58 4527.78 6661.27 4561.73L6690.06 6960.05C6687.18 6994.07 6696.15 7032.16 6717.37 7074.38C6730.45 7100.1 6726.75 7114.36 6706.46 7117.01C6675.15 7121.11 6648.94 7114.86 6627.64 7098.37C6619.44 7091.85 6614.07 7080.55 6611.75 7064.55C6606.96 7036.5 6606.24 7008.26 6609.96 6979.76L6580.7 4542.22Z" fill="url(#paint19_linear_1270_1108)"/>
</g>
<mask id="mask20_1270_1108" style="mask-type:luminance" maskUnits="userSpaceOnUse" x="6055" y="7964" width="896" height="274">
<path d="M6894.27 7990.52C6893.22 7999.68 6882.09 8007.66 6860.69 8014.52C6839.47 8021.31 6812.83 8026.86 6780.55 8031.09C6748.08 8035.32 6731.27 8037.72 6729.92 8038.16C6727.41 8038.91 6726.07 8039.85 6725.69 8040.86C6826.08 8050.32 6884.82 8057.8 6901.92 8063.25C6928.93 8071.83 6944.93 8081.92 6949.71 8093.4C6951.5 8097.36 6947.67 8100.87 6938.03 8103.95C6910.84 8112.76 6872.72 8113.67 6824.05 8106.81C6810.09 8104.87 6790.1 8101.12 6764.1 8095.56C6736.73 8089.55 6715.39 8085.36 6700.07 8082.99C6669.81 8078.37 6644.24 8076.51 6623.73 8077.47C6637.15 8082.92 6647.46 8086.67 6654.26 8088.86C6656.01 8089.43 6658.53 8090.12 6661.64 8090.87C6664.94 8091.93 6667.27 8092.62 6668.63 8093.12C6695.06 8101.51 6708.92 8110.73 6710.01 8120.89L6698.82 8124.48C6673.66 8124.56 6644.2 8121.82 6610.84 8116.2C6573.79 8110.08 6538.27 8101.63 6504.45 8090.87C6479 8082.79 6452.56 8073.33 6424.94 8062.5C6397.13 8051.66 6380.6 8045.4 6375.35 8043.71C6365.25 8040.51 6351.66 8037.01 6334.38 8033.07C6317.11 8029.19 6306.04 8026.44 6300.99 8024.81C6293.8 8022.56 6286.78 8018.86 6279.95 8013.78C6283.99 8011.83 6287.84 8010.26 6291.7 8009C6306.93 8004.1 6324.72 8002.7 6344.88 8004.82C6355.74 8005.94 6368.93 8008.32 6384.46 8011.94C6399.21 8015.26 6409.88 8017.07 6416.66 8017.44C6491.04 8021.33 6546.03 8022.61 6582.02 8021.2C6617.81 8019.79 6648.36 8016.88 6673.67 8012.4C6694.92 8008.75 6718.27 8002.83 6743.72 7994.65C6750.08 7992.57 6758.17 7988.61 6768.16 7982.64C6777.96 7976.74 6785.85 7972.9 6791.44 7971.08C6803.79 7967.05 6817.5 7964.78 6832.21 7964.27C6846.91 7963.75 6859.32 7965.06 6869.23 7968.26C6887.11 7973.95 6895.52 7981.35 6894.27 7990.52ZM6574.89 8137C6593.03 8148.91 6595.65 8157.01 6582.54 8161.22C6573.66 8164.05 6557.98 8163.5 6535.67 8159.57C6491.05 8151.76 6463.51 8147.13 6452.85 8145.82C6450 8150.6 6453.35 8155.55 6462.51 8160.63C6471.86 8165.77 6481.41 8170.72 6490.95 8175.61C6541.06 8205.13 6551.16 8224.76 6521.08 8234.45C6511.05 8237.66 6495.96 8238.18 6475.8 8235.99C6454.1 8233.63 6431.97 8228.87 6409.43 8221.74C6364.15 8207.34 6338.15 8186.02 6331.43 8157.84L6310.01 8163.63C6300.2 8168.66 6291.94 8174.32 6285.24 8180.54C6281.03 8184.43 6276.62 8188.33 6272.22 8192.28C6267.81 8196.18 6256.84 8200.96 6239.1 8206.68C6210.17 8216.06 6180.43 8221.54 6149.67 8223.13C6119.3 8224.79 6094.1 8222.42 6074.48 8216.23C6065.93 8213.47 6060.09 8210.78 6057.34 8208.02C6054.41 8205.32 6054.77 8203.38 6058.44 8202.24C6059.79 8201.8 6072.73 8199.35 6097.45 8194.93C6121.98 8190.58 6142.44 8185.8 6158.26 8180.64C6223.82 8159.56 6255.04 8132.23 6252.32 8098.72C6251 8085.67 6246.01 8072.99 6237.34 8060.7C6231.25 8053.11 6224.77 8045.46 6217.91 8037.87C6215.35 8034.98 6215.53 8033.16 6218.42 8032.22C6231.92 8027.88 6251.88 8029.93 6278.11 8038.32C6283.16 8039.89 6290.75 8042.64 6300.67 8046.46C6310.58 8050.35 6318.94 8053.29 6325.36 8055.36C6347.9 8062.49 6376.64 8070.38 6411.97 8078.95C6447.31 8087.58 6469.64 8093.34 6478.97 8096.35C6523.85 8110.62 6555.76 8124.15 6574.89 8137Z" fill="white"/>
</mask>
<g mask="url(#mask20_1270_1108)">
<path d="M6894.27 7990.52C6893.22 7999.68 6882.09 8007.66 6860.69 8014.52C6839.47 8021.31 6812.83 8026.86 6780.55 8031.09C6748.08 8035.32 6731.27 8037.72 6729.92 8038.16C6727.41 8038.91 6726.07 8039.85 6725.69 8040.86C6826.08 8050.32 6884.82 8057.8 6901.92 8063.25C6928.93 8071.83 6944.93 8081.92 6949.71 8093.4C6951.5 8097.36 6947.67 8100.87 6938.03 8103.95C6910.84 8112.76 6872.72 8113.67 6824.05 8106.81C6810.09 8104.87 6790.1 8101.12 6764.1 8095.56C6736.73 8089.55 6715.39 8085.36 6700.07 8082.99C6669.81 8078.37 6644.24 8076.51 6623.73 8077.47C6637.15 8082.92 6647.46 8086.67 6654.26 8088.86C6656.01 8089.43 6658.53 8090.12 6661.64 8090.87C6664.94 8091.93 6667.27 8092.62 6668.63 8093.12C6695.06 8101.51 6708.92 8110.73 6710.01 8120.89L6698.82 8124.48C6673.66 8124.56 6644.2 8121.82 6610.84 8116.2C6573.79 8110.08 6538.27 8101.63 6504.45 8090.87C6479 8082.79 6452.56 8073.33 6424.94 8062.5C6397.13 8051.66 6380.6 8045.4 6375.35 8043.71C6365.25 8040.51 6351.66 8037.01 6334.38 8033.07C6317.11 8029.19 6306.04 8026.44 6300.99 8024.81C6293.8 8022.56 6286.78 8018.86 6279.95 8013.78C6283.99 8011.83 6287.84 8010.26 6291.7 8009C6306.93 8004.1 6324.72 8002.7 6344.88 8004.82C6355.74 8005.94 6368.93 8008.32 6384.46 8011.94C6399.21 8015.26 6409.88 8017.07 6416.66 8017.44C6491.04 8021.33 6546.03 8022.61 6582.02 8021.2C6617.81 8019.79 6648.36 8016.88 6673.67 8012.4C6694.92 8008.75 6718.27 8002.83 6743.72 7994.65C6750.08 7992.57 6758.17 7988.61 6768.16 7982.64C6777.96 7976.74 6785.85 7972.9 6791.44 7971.08C6803.79 7967.05 6817.5 7964.78 6832.21 7964.27C6846.91 7963.75 6859.32 7965.06 6869.23 7968.26C6887.11 7973.95 6895.52 7981.35 6894.27 7990.52ZM6574.89 8137C6593.03 8148.91 6595.65 8157.01 6582.54 8161.22C6573.66 8164.05 6557.98 8163.5 6535.67 8159.57C6491.05 8151.76 6463.51 8147.13 6452.85 8145.82C6450 8150.6 6453.35 8155.55 6462.51 8160.63C6471.86 8165.77 6481.41 8170.72 6490.95 8175.61C6541.06 8205.13 6551.16 8224.76 6521.08 8234.45C6511.05 8237.66 6495.96 8238.18 6475.8 8235.99C6454.1 8233.63 6431.97 8228.87 6409.43 8221.74C6364.15 8207.34 6338.15 8186.02 6331.43 8157.84L6310.01 8163.63C6300.2 8168.66 6291.94 8174.32 6285.24 8180.54C6281.03 8184.43 6276.62 8188.33 6272.22 8192.28C6267.81 8196.18 6256.84 8200.96 6239.1 8206.68C6210.17 8216.06 6180.43 8221.54 6149.67 8223.13C6119.3 8224.79 6094.1 8222.42 6074.48 8216.23C6065.93 8213.47 6060.09 8210.78 6057.34 8208.02C6054.41 8205.32 6054.77 8203.38 6058.44 8202.24C6059.79 8201.8 6072.73 8199.35 6097.45 8194.93C6121.98 8190.58 6142.44 8185.8 6158.26 8180.64C6223.82 8159.56 6255.04 8132.23 6252.32 8098.72C6251 8085.67 6246.01 8072.99 6237.34 8060.7C6231.25 8053.11 6224.77 8045.46 6217.91 8037.87C6215.35 8034.98 6215.53 8033.16 6218.42 8032.22C6231.92 8027.88 6251.88 8029.93 6278.11 8038.32C6283.16 8039.89 6290.75 8042.64 6300.67 8046.46C6310.58 8050.35 6318.94 8053.29 6325.36 8055.36C6347.9 8062.49 6376.64 8070.38 6411.97 8078.95C6447.31 8087.58 6469.64 8093.34 6478.97 8096.35C6523.85 8110.62 6555.76 8124.15 6574.89 8137Z" fill="url(#paint20_linear_1270_1108)"/>
</g>
<mask id="mask21_1270_1108" style="mask-type:luminance" maskUnits="userSpaceOnUse" x="5905" y="7246" width="840" height="753">
<path d="M6017.47 7967.29C6062.07 7973.59 6205.82 7983.02 6311.17 7970.45C6416.32 7957.87 6494.64 7935.41 6545.75 7903.17C6612.22 7861.19 6598.52 7800.51 6504.46 7721C6470.24 7692.41 6435.83 7663.82 6401.61 7635.22C6376.37 7612.96 6369.8 7597.97 6381.9 7590.24C6401.89 7577.73 6430.5 7574.51 6468.32 7580.63C6474.33 7581.63 6482.1 7584.14 6492.02 7588.08C6501.75 7592.09 6510.3 7594.72 6517.86 7595.97C6534.54 7598.66 6548.84 7596.14 6561.13 7588.47C6572.66 7581.24 6566.33 7569.57 6542.33 7553.59C6511.71 7534.66 6481.67 7515.85 6452.6 7497.17C6408.47 7465.2 6404.85 7437.65 6441.55 7414.52C6451.34 7408.24 6470.69 7407.41 6499.4 7412.09C6502.31 7412.59 6506.96 7413.59 6512.98 7415.22C6519 7416.78 6525.02 7418.03 6531.03 7419.03C6561.1 7423.97 6581.22 7423.26 6591.02 7416.98C6592.55 7416.03 6595.51 7404.67 6599.51 7382.95C6603.04 7354.39 6610.64 7326.27 6622.5 7298.52C6628.7 7282.57 6636.89 7271.46 6646.88 7265.17C6672.05 7249.28 6699.66 7243.79 6729.92 7248.66C6749.51 7251.85 6749.68 7266.1 6730.24 7291.47C6698.6 7332.98 6680.09 7370.71 6674.69 7404.67C6669.09 7438.63 6666.68 7463.24 6667.25 7478.42C6667.97 7522.17 6679.37 7569.48 6701.08 7620.3C6757.23 7749.99 6735.74 7846.16 6636.41 7908.75C6573.01 7948.78 6477.12 7975.71 6348.76 7989.75C6220.39 8003.72 6099.77 8001.56 5986.69 7983.19C5986.69 7983.19 5880.42 7967.27 5911.28 7958.21C5968.19 7941.47 5973.07 7961.05 6017.47 7967.29Z" fill="white"/>
</mask>
<g mask="url(#mask21_1270_1108)">
<path d="M6017.47 7967.29C6062.07 7973.59 6205.82 7983.02 6311.17 7970.45C6416.32 7957.87 6494.64 7935.41 6545.75 7903.17C6612.22 7861.19 6598.52 7800.51 6504.46 7721C6470.24 7692.41 6435.83 7663.82 6401.61 7635.22C6376.37 7612.96 6369.8 7597.97 6381.9 7590.24C6401.89 7577.73 6430.5 7574.51 6468.32 7580.63C6474.33 7581.63 6482.1 7584.14 6492.02 7588.08C6501.75 7592.09 6510.3 7594.72 6517.86 7595.97C6534.54 7598.66 6548.84 7596.14 6561.13 7588.47C6572.66 7581.24 6566.33 7569.57 6542.33 7553.59C6511.71 7534.66 6481.67 7515.85 6452.6 7497.17C6408.47 7465.2 6404.85 7437.65 6441.55 7414.52C6451.34 7408.24 6470.69 7407.41 6499.4 7412.09C6502.31 7412.59 6506.96 7413.59 6512.98 7415.22C6519 7416.78 6525.02 7418.03 6531.03 7419.03C6561.1 7423.97 6581.22 7423.26 6591.02 7416.98C6592.55 7416.03 6595.51 7404.67 6599.51 7382.95C6603.04 7354.39 6610.64 7326.27 6622.5 7298.52C6628.7 7282.57 6636.89 7271.46 6646.88 7265.17C6672.05 7249.28 6699.66 7243.79 6729.92 7248.66C6749.51 7251.85 6749.68 7266.1 6730.24 7291.47C6698.6 7332.98 6680.09 7370.71 6674.69 7404.67C6669.09 7438.63 6666.68 7463.24 6667.25 7478.42C6667.97 7522.17 6679.37 7569.48 6701.08 7620.3C6757.23 7749.99 6735.74 7846.16 6636.41 7908.75C6573.01 7948.78 6477.12 7975.71 6348.76 7989.75C6220.39 8003.72 6099.77 8001.56 5986.69 7983.19C5986.69 7983.19 5880.42 7967.27 5911.28 7958.21C5968.19 7941.47 5973.07 7961.05 6017.47 7967.29Z" fill="url(#paint21_linear_1270_1108)"/>
</g>
<mask id="mask22_1270_1108" style="mask-type:luminance" maskUnits="userSpaceOnUse" x="3830" y="7911" width="2349" height="274">
<path d="M6049.36 7913.79C6077.51 7903.85 6127.86 7937.77 6127.86 7937.77C6185.97 7973.81 6193.6 8012.4 6150.73 8053.48C6107.67 8094.63 6024.03 8125.51 5899.22 8146C5704.1 8178.17 5403.56 8185.68 4997.82 8168.55C4838.81 8161.9 4690.88 8158.57 4554.02 8158.55C4506.4 8158.52 4429.56 8159.46 4323.5 8161.43C4217.25 8163.39 4099.44 8169.51 3969.87 8179.91C3890.77 8186.25 3846.05 8186.28 3836.11 8180.08C3820.51 8170.42 3837.63 8161.56 3887.09 8153.42C3906.79 8150.21 3941.41 8147.55 3991.13 8145.44C4078 8141.48 4165.85 8138.83 4255.08 8137.57C4323.01 8136.07 4358.42 8135.1 4361.51 8134.6C4381.02 8131.38 4383.07 8124.98 4367.47 8115.39C4364.35 8113.45 4360.26 8111.5 4355.4 8109.62C4350.35 8107.68 4347.04 8106.24 4345.48 8105.3C4330.85 8096.15 4333.29 8090 4352.81 8086.78C4424.87 8074.93 4511.02 8075.92 4611.27 8089.84C4670.03 8099.02 4728.8 8108.45 4788.15 8118.2C4838.38 8125.75 4874.79 8127.67 4897.4 8123.95C4921.35 8119.97 4929.04 8115.39 4920.46 8110.06C4916.75 8107.68 4908.39 8104.92 4895.78 8101.86C4883.35 8098.73 4875.38 8096.22 4872.26 8094.28C4852.95 8082.31 4862.71 8073.07 4901.74 8066.64C4925.89 8062.67 4972.76 8064.7 5042.54 8072.62C5132.3 8083.41 5221.86 8094.19 5311.42 8105.04C5560.72 8134.53 5750.47 8138.59 5881.07 8117.08C5981.72 8100.5 6051.3 8075.34 6090.19 8041.6C6128.89 8007.87 6098.33 7961.89 6078.42 7947.72C6058.5 7933.55 5997.32 7932.1 6049.36 7913.79Z" fill="white"/>
</mask>
<g mask="url(#mask22_1270_1108)">
<path d="M6049.35 7913.79C6077.49 7903.85 6127.84 7937.77 6127.84 7937.77C6185.96 7973.81 6193.59 8012.4 6150.72 8053.48C6107.66 8094.63 6024.02 8125.51 5899.21 8146C5704.08 8178.17 5403.55 8185.68 4997.8 8168.55C4838.8 8161.9 4690.86 8158.57 4554 8158.55C4506.38 8158.52 4429.55 8159.46 4323.49 8161.43C4217.24 8163.39 4099.43 8169.51 3969.85 8179.91C3890.76 8186.25 3846.04 8186.28 3836.09 8180.08C3820.49 8170.42 3837.61 8161.56 3887.07 8153.42C3906.78 8150.21 3941.4 8147.55 3991.12 8145.44C4077.99 8141.48 4165.84 8138.83 4255.06 8137.57C4322.99 8136.07 4358.4 8135.1 4361.5 8134.6C4381.01 8131.38 4383.06 8124.98 4367.46 8115.39C4364.34 8113.45 4360.25 8111.5 4355.39 8109.62C4350.33 8107.68 4347.02 8106.24 4345.46 8105.3C4330.84 8096.15 4333.28 8090 4352.79 8086.78C4424.85 8074.93 4511.01 8075.92 4611.25 8089.84C4670.02 8099.02 4728.78 8108.45 4788.14 8118.2C4838.36 8125.75 4874.78 8127.67 4897.38 8123.95C4921.34 8119.97 4929.03 8115.39 4920.44 8110.06C4916.74 8107.68 4908.38 8104.92 4895.76 8101.86C4883.34 8098.73 4875.37 8096.22 4872.25 8094.28C4852.94 8082.31 4862.7 8073.07 4901.73 8066.64C4925.88 8062.67 4972.75 8064.7 5042.53 8072.62C5132.28 8083.41 5221.85 8094.19 5311.41 8105.04C5560.7 8134.53 5750.46 8138.59 5881.05 8117.08C5981.71 8100.5 6051.29 8075.34 6090.18 8041.6C6128.88 8007.87 6098.32 7961.89 6078.41 7947.72C6058.49 7933.55 5997.3 7932.1 6049.35 7913.79Z" fill="url(#paint22_linear_1270_1108)"/>
</g>
<mask id="mask23_1270_1108" style="mask-type:luminance" maskUnits="userSpaceOnUse" x="5800" y="7878" width="372" height="119">
<path d="M6037.48 7891.46C5982.88 7874.12 5894.81 7874.18 5840.62 7891.61C5786.43 7909.04 5786.77 7937.22 5841.37 7954.56C5895.98 7971.91 6104.14 8009.96 6158.33 7992.53C6212.32 7975.11 6092.09 7908.8 6037.48 7891.46Z" fill="white"/>
</mask>
<g mask="url(#mask23_1270_1108)">
<path d="M6037.5 7891.46C5982.9 7874.12 5894.82 7874.18 5840.63 7891.61C5786.45 7909.04 5786.79 7937.22 5841.39 7954.56C5895.99 7971.91 6104.16 8009.96 6158.34 7992.53C6212.34 7975.11 6092.1 7908.8 6037.5 7891.46Z" fill="url(#paint23_linear_1270_1108)"/>
</g>
<mask id="mask24_1270_1108" style="mask-type:luminance" maskUnits="userSpaceOnUse" x="6519" y="3934" width="215" height="69">
<path d="M6626.47 3934.58C6567.43 3934.63 6519.6 3949.98 6519.83 3968.87C6520.06 3987.76 6568.25 4003.04 6627.29 4002.99C6686.33 4002.95 6734.15 3987.6 6733.93 3968.7C6733.7 3949.81 6685.51 3934.54 6626.47 3934.58Z" fill="white"/>
</mask>
<g mask="url(#mask24_1270_1108)">
<path d="M6626.47 3934.58C6567.43 3934.63 6519.6 3949.98 6519.83 3968.87C6520.06 3987.76 6568.25 4003.04 6627.29 4002.99C6686.33 4002.95 6734.15 3987.6 6733.93 3968.7C6733.7 3949.81 6685.51 3934.54 6626.47 3934.58Z" fill="url(#paint24_linear_1270_1108)"/>
</g>
<mask id="mask25_1270_1108" style="mask-type:luminance" maskUnits="userSpaceOnUse" x="6537" y="1119" width="149" height="2715">
<path d="M6541.3 1257.71C6536.89 1229.22 6536.94 1200.91 6541.06 1172.92C6542.99 1156.91 6548.09 1145.61 6556.14 1139.07C6577.04 1122.55 6603.1 1116.25 6634.5 1120.31C6654.86 1122.93 6658.9 1137.17 6646.44 1162.92C6626.23 1205.17 6618.17 1243.27 6621.87 1277.29L6650.65 3675.6C6647.77 3709.56 6656.75 3747.65 6677.96 3789.87C6691.05 3815.66 6687.35 3829.85 6667.06 3832.5C6635.75 3836.6 6609.54 3830.41 6588.24 3813.86C6580.03 3807.34 6574.67 3796.11 6572.35 3780.04C6567.56 3752.05 6566.83 3723.81 6570.56 3695.25L6541.3 1257.71Z" fill="white"/>
</mask>
<g mask="url(#mask25_1270_1108)">
<path d="M6541.28 1257.71C6536.88 1229.22 6536.93 1200.91 6541.04 1172.92C6542.98 1156.91 6548.07 1145.61 6556.12 1139.07C6577.02 1122.55 6603.08 1116.25 6634.49 1120.31C6654.85 1122.93 6658.89 1137.17 6646.42 1162.92C6626.22 1205.17 6618.16 1243.27 6621.85 1277.29L6650.64 3675.6C6647.76 3709.56 6656.73 3747.65 6677.95 3789.87C6691.03 3815.66 6687.33 3829.85 6667.04 3832.5C6635.73 3836.6 6609.52 3830.41 6588.22 3813.86C6580.02 3807.34 6574.65 3796.11 6572.33 3780.04C6567.54 3752.05 6566.82 3723.81 6570.54 3695.25L6541.28 1257.71Z" fill="url(#paint25_linear_1270_1108)"/>
</g>
<mask id="mask26_1270_1108" style="mask-type:luminance" maskUnits="userSpaceOnUse" x="5957" y="0" width="898" height="273">
<path d="M6776.82 268.83C6766.99 271.976 6754.61 273.368 6739.9 272.878C6725.18 272.387 6711.41 270.138 6698.97 266.131C6693.34 264.315 6685.35 260.494 6675.41 254.602C6665.27 248.648 6657.09 244.699 6650.68 242.633C6625.03 234.494 6601.54 228.614 6580.2 224.99C6554.79 220.554 6524.17 217.69 6488.34 216.337C6452.32 214.985 6397.36 216.348 6323.08 220.36C6316.31 220.742 6305.68 222.569 6291.01 225.907C6275.57 229.559 6262.43 231.893 6251.61 233.094C6231.5 235.244 6213.68 233.876 6198.32 228.993C6194.44 227.741 6190.55 226.176 6186.46 224.234C6193.17 219.145 6200.1 215.435 6207.23 213.17C6212.25 211.535 6223.25 208.765 6240.43 204.86C6257.61 200.892 6271.12 197.367 6281.14 194.158C6286.35 192.46 6302.73 186.171 6330.28 175.291C6357.64 164.411 6383.85 154.913 6409.11 146.797C6442.66 135.975 6477.98 127.475 6514.88 121.295C6548.11 115.62 6577.5 112.835 6602.67 112.878L6613.94 116.446C6613.09 126.614 6599.46 135.851 6573.23 144.282C6571.88 144.785 6569.57 145.479 6566.29 146.548C6563.2 147.304 6560.69 147.996 6558.96 148.562C6552.21 150.764 6542 154.537 6528.7 160.008C6549.24 160.933 6574.76 159.031 6604.91 154.363C6620.17 151.966 6641.41 147.743 6668.63 141.697C6694.51 136.09 6714.4 132.309 6728.31 130.352C6776.82 123.41 6814.96 124.261 6842.36 133.026C6852.08 136.093 6855.99 139.603 6854.3 143.558C6849.79 155.047 6834.04 165.103 6807.23 173.785C6790.26 179.259 6731.7 186.835 6631.54 196.454C6631.94 197.458 6633.31 198.399 6635.84 199.15C6637.2 199.588 6654.07 201.96 6686.64 206.139C6719.01 210.319 6745.79 215.821 6767.17 222.583C6788.74 229.407 6800.06 237.368 6801.33 246.53C6802.8 255.693 6794.56 263.105 6776.82 268.83ZM6383.49 141.357C6374.24 144.377 6352.05 150.168 6316.92 158.794C6281.79 167.483 6253.24 175.414 6230.87 182.587C6224.51 184.663 6216.22 187.619 6206.39 191.518C6196.56 195.354 6189.05 198.122 6184.03 199.695C6158 208.125 6138.09 210.213 6124.49 205.893C6121.57 204.954 6121.36 203.134 6123.84 200.245C6130.52 192.645 6136.82 184.982 6142.73 177.383C6151.1 165.075 6155.79 152.395 6156.79 139.339C6158.71 105.76 6126.83 78.5445 6060.76 57.5712C6044.83 52.4372 6024.25 47.6839 5999.62 43.3727C5974.79 38.9989 5961.79 36.5629 5960.43 36.1246C5956.74 34.9978 5956.32 33.0505 5959.2 30.3495C5961.87 27.5858 5967.65 24.884 5976.13 22.1158C5995.61 15.8869 6020.74 13.4812 6051.16 15.0891C6081.95 16.6339 6111.83 22.0717 6140.98 31.4003C6158.85 37.0348 6169.95 41.8578 6174.44 45.7456C6178.94 49.696 6183.44 53.5833 6187.75 57.4712C6194.6 63.6792 6202.99 69.3227 6212.92 74.3359L6234.48 80.0926C6240.53 51.9075 6266.02 30.5492 6310.95 16.0785C6333.32 8.90593 6355.33 4.11817 6376.98 1.71615C6397.08 -0.496368 6412.19 -0.00714413 6422.29 3.18578C6452.61 12.8273 6442.97 32.4173 6393.57 62.08C6384.15 66.9829 6374.72 71.9476 6365.49 77.1013C6356.46 82.1922 6353.22 87.154 6356.19 91.9216C6366.82 90.5324 6394.25 85.9292 6438.68 78.0489C6460.89 74.0774 6476.56 73.5007 6485.5 76.3179C6498.71 80.5126 6496.3 88.6094 6478.44 100.548C6459.62 113.429 6428.04 127.012 6383.49 141.357Z" fill="white"/>
</mask>
<g mask="url(#mask26_1270_1108)">
<path d="M6776.82 268.83C6766.99 271.976 6754.61 273.368 6739.9 272.878C6725.18 272.387 6711.41 270.138 6698.97 266.131C6693.34 264.315 6685.35 260.494 6675.41 254.602C6665.27 248.648 6657.09 244.699 6650.68 242.633C6625.03 234.494 6601.54 228.614 6580.2 224.99C6554.79 220.554 6524.17 217.69 6488.34 216.337C6452.32 214.985 6397.36 216.348 6323.08 220.36C6316.31 220.742 6305.68 222.569 6291.01 225.907C6275.57 229.559 6262.43 231.893 6251.61 233.094C6231.5 235.244 6213.68 233.876 6198.32 228.993C6194.44 227.741 6190.55 226.176 6186.46 224.234C6193.17 219.145 6200.1 215.435 6207.23 213.17C6212.25 211.535 6223.25 208.765 6240.43 204.86C6257.61 200.892 6271.12 197.367 6281.14 194.158C6286.35 192.46 6302.73 186.171 6330.28 175.291C6357.64 164.411 6383.85 154.913 6409.11 146.797C6442.66 135.975 6477.98 127.475 6514.88 121.295C6548.11 115.62 6577.5 112.835 6602.67 112.878L6613.94 116.446C6613.09 126.614 6599.46 135.851 6573.23 144.282C6571.88 144.785 6569.57 145.479 6566.29 146.548C6563.2 147.304 6560.69 147.996 6558.96 148.562C6552.21 150.764 6542 154.537 6528.7 160.008C6549.24 160.933 6574.76 159.031 6604.91 154.363C6620.17 151.966 6641.41 147.743 6668.63 141.697C6694.51 136.09 6714.4 132.309 6728.31 130.352C6776.82 123.41 6814.96 124.261 6842.36 133.026C6852.08 136.093 6855.99 139.603 6854.3 143.558C6849.79 155.047 6834.04 165.103 6807.23 173.785C6790.26 179.259 6731.7 186.835 6631.54 196.454C6631.94 197.458 6633.31 198.399 6635.84 199.15C6637.2 199.588 6654.07 201.96 6686.64 206.139C6719.01 210.319 6745.79 215.821 6767.17 222.583C6788.74 229.407 6800.06 237.368 6801.33 246.53C6802.8 255.693 6794.56 263.105 6776.82 268.83ZM6383.49 141.357C6374.24 144.377 6352.05 150.168 6316.92 158.794C6281.79 167.483 6253.24 175.414 6230.87 182.587C6224.51 184.663 6216.22 187.619 6206.39 191.518C6196.56 195.354 6189.05 198.122 6184.03 199.695C6158 208.125 6138.09 210.213 6124.49 205.893C6121.57 204.954 6121.36 203.134 6123.84 200.245C6130.52 192.645 6136.82 184.982 6142.73 177.383C6151.1 165.075 6155.79 152.395 6156.79 139.339C6158.71 105.76 6126.83 78.5445 6060.76 57.5712C6044.83 52.4372 6024.25 47.6839 5999.62 43.3727C5974.79 38.9989 5961.79 36.5629 5960.43 36.1246C5956.74 34.9978 5956.32 33.0505 5959.2 30.3495C5961.87 27.5858 5967.65 24.884 5976.13 22.1158C5995.61 15.8869 6020.74 13.4812 6051.16 15.0891C6081.95 16.6339 6111.83 22.0717 6140.98 31.4003C6158.85 37.0348 6169.95 41.8578 6174.44 45.7456C6178.94 49.696 6183.44 53.5833 6187.75 57.4712C6194.6 63.6792 6202.99 69.3227 6212.92 74.3359L6234.48 80.0926C6240.53 51.9075 6266.02 30.5492 6310.95 16.0785C6333.32 8.90593 6355.33 4.11817 6376.98 1.71615C6397.08 -0.496368 6412.19 -0.00714413 6422.29 3.18578C6452.61 12.8273 6442.97 32.4173 6393.57 62.08C6384.15 66.9829 6374.72 71.9476 6365.49 77.1013C6356.46 82.1922 6353.22 87.154 6356.19 91.9216C6366.82 90.5324 6394.25 85.9292 6438.68 78.0489C6460.89 74.0774 6476.56 73.5007 6485.5 76.3179C6498.71 80.5126 6496.3 88.6094 6478.44 100.548C6459.62 113.429 6428.04 127.012 6383.49 141.357Z" fill="url(#paint26_linear_1270_1108)"/>
</g>
<mask id="mask27_1270_1108" style="mask-type:luminance" maskUnits="userSpaceOnUse" x="5813" y="239" width="857" height="752">
<path d="M5819.13 280.382C5788.05 271.368 5893.94 255.279 5893.94 255.279C6006.57 236.738 6127.14 234.385 6255.84 248.154C6384.54 261.923 6481.07 288.772 6545.43 328.701C6646.26 391.132 6670.06 487.266 6617.03 617.037C6596.54 667.891 6586.27 715.223 6586.6 758.968C6586.4 774.157 6589.4 798.757 6595.81 832.707C6602.03 866.656 6621.45 904.359 6654.08 945.819C6674.13 971.16 6674.3 985.408 6654.79 988.625C6624.65 993.544 6596.9 988.103 6571.35 972.245C6561.21 965.976 6552.75 954.876 6546.18 938.939C6533.65 911.208 6525.37 883.097 6521.16 854.543C6516.64 832.831 6513.41 821.474 6511.85 820.534C6501.9 814.266 6481.76 813.589 6451.81 818.571C6445.82 819.517 6439.84 820.841 6433.86 822.415C6427.88 824.051 6423.24 825.059 6420.34 825.563C6391.75 830.293 6372.38 829.492 6362.44 823.223C6325.19 800.156 6328.15 772.602 6371.51 740.559C6400.13 721.833 6429.71 702.981 6459.88 684.003C6483.5 667.98 6489.55 656.3 6477.85 649.092C6465.37 641.445 6451.01 638.947 6434.4 641.658C6426.86 642.92 6418.38 645.562 6408.75 649.524C6398.92 653.548 6391.21 656.065 6385.22 657.074C6347.55 663.254 6318.86 660.077 6298.58 647.603C6286.29 639.893 6292.5 624.888 6317.2 602.588C6350.73 573.942 6384.46 545.295 6417.99 516.649C6510.15 436.994 6522.39 376.293 6454.91 334.42C6403.03 302.264 6324.17 279.921 6218.72 267.514C6113.07 255.108 5969.55 264.76 5925.1 271.134C5880.85 277.445 5876.44 297.031 5819.13 280.382Z" fill="white"/>
</mask>
<g mask="url(#mask27_1270_1108)">
<path d="M5819.13 280.382C5788.05 271.368 5893.94 255.279 5893.94 255.279C6006.57 236.738 6127.14 234.385 6255.84 248.154C6384.54 261.923 6481.07 288.772 6545.43 328.701C6646.26 391.132 6670.06 487.266 6617.03 617.037C6596.54 667.891 6586.27 715.223 6586.6 758.968C6586.4 774.157 6589.4 798.757 6595.81 832.707C6602.03 866.656 6621.45 904.359 6654.08 945.819C6674.13 971.16 6674.3 985.408 6654.79 988.625C6624.65 993.544 6596.9 988.103 6571.35 972.245C6561.21 965.976 6552.75 954.876 6546.18 938.939C6533.65 911.208 6525.37 883.097 6521.16 854.543C6516.64 832.831 6513.41 821.474 6511.85 820.534C6501.9 814.266 6481.76 813.589 6451.81 818.571C6445.82 819.517 6439.84 820.841 6433.86 822.415C6427.88 824.051 6423.24 825.059 6420.34 825.563C6391.75 830.293 6372.38 829.492 6362.44 823.223C6325.19 800.156 6328.15 772.602 6371.51 740.559C6400.13 721.833 6429.71 702.981 6459.88 684.003C6483.5 667.98 6489.55 656.3 6477.85 649.092C6465.37 641.445 6451.01 638.947 6434.4 641.658C6426.86 642.92 6418.38 645.562 6408.75 649.524C6398.92 653.548 6391.21 656.065 6385.22 657.074C6347.55 663.254 6318.86 660.077 6298.58 647.603C6286.29 639.893 6292.5 624.888 6317.2 602.588C6350.73 573.942 6384.46 545.295 6417.99 516.649C6510.15 436.994 6522.39 376.293 6454.91 334.42C6403.03 302.264 6324.17 279.921 6218.72 267.514C6113.07 255.108 5969.55 264.76 5925.1 271.134C5880.85 277.445 5876.44 297.031 5819.13 280.382Z" fill="url(#paint27_linear_1270_1108)"/>
</g>
<mask id="mask28_1270_1108" style="mask-type:luminance" maskUnits="userSpaceOnUse" x="3733" y="57" width="2352" height="270">
<path d="M5986.52 290.6C6006.1 276.4 6035.55 230.371 5996.04 196.699C5956.34 163.026 5886.16 137.977 5785.11 121.55C5654 100.251 5464.35 104.604 5215.77 134.487C5126.46 145.478 5037.16 156.406 4947.67 167.334C4878.08 175.36 4831.26 177.47 4807.01 173.535C4767.83 167.164 4757.85 157.946 4776.87 145.943C4779.95 143.995 4787.85 141.478 4800.2 138.33C4812.75 135.244 4821.04 132.475 4824.69 130.088C4833.14 124.746 4825.34 120.172 4801.29 116.237C4778.6 112.552 4742.23 114.527 4692.19 122.16C4633.07 131.998 4574.53 141.52 4515.99 150.792C4416.08 164.867 4329.95 166.001 4257.61 154.259C4238.02 151.073 4235.43 144.925 4249.83 135.75C4251.37 134.807 4254.64 133.362 4259.65 131.413C4264.47 129.463 4268.51 127.578 4271.59 125.63C4286.96 116.015 4284.75 109.614 4265.16 106.428C4262.06 105.929 4226.62 105.014 4158.66 103.624C4069.41 102.502 3981.49 99.9985 3894.53 96.1757C3844.76 94.1437 3810.08 91.5365 3790.29 88.3512C3740.64 80.2939 3723.31 71.4566 3738.68 61.7791C3748.48 55.5579 3793.19 55.5237 3872.44 61.7375C4002.26 71.8656 4120.22 77.8606 4226.51 79.6598C4332.61 81.4591 4409.47 82.2778 4457.09 82.1775C4593.95 81.9442 4741.8 78.3758 4900.64 71.4724C5305.97 53.7053 5606.68 60.747 5802.57 92.6016C5927.87 112.901 6012.25 143.651 6056.3 184.662C6100.15 225.737 6093.45 264.341 6036.2 300.475C6036.2 300.475 5986.66 334.469 5958.28 324.575C5905.8 306.352 5966.95 304.799 5986.52 290.6Z" fill="white"/>
</mask>
<g mask="url(#mask28_1270_1108)">
<path d="M5986.51 290.6C6006.08 276.4 6035.54 230.371 5996.03 196.699C5956.33 163.026 5886.15 137.977 5785.1 121.55C5653.98 100.251 5464.33 104.604 5215.75 134.487C5126.45 145.478 5037.15 156.406 4947.65 167.334C4878.06 175.36 4831.24 177.47 4807 173.535C4767.82 167.164 4757.84 157.946 4776.86 145.943C4779.93 143.995 4787.84 141.478 4800.19 138.33C4812.73 135.244 4821.02 132.475 4824.67 130.088C4833.13 124.746 4825.33 120.172 4801.28 116.237C4778.58 112.552 4742.22 114.527 4692.17 122.16C4633.05 131.998 4574.51 141.52 4515.97 150.792C4416.06 164.867 4329.93 166.001 4257.59 154.259C4238 151.073 4235.41 144.925 4249.82 135.75C4251.36 134.807 4254.63 133.362 4259.64 131.413C4264.45 129.463 4268.5 127.578 4271.57 125.63C4286.94 116.015 4284.74 109.614 4265.15 106.428C4262.04 105.929 4226.61 105.014 4158.64 103.624C4069.39 102.502 3981.48 99.9985 3894.52 96.1757C3844.74 94.1437 3810.06 91.5365 3790.28 88.3512C3740.63 80.2939 3723.29 71.4566 3738.66 61.7791C3748.46 55.5579 3793.18 55.5237 3872.42 61.7375C4002.24 71.8656 4120.2 77.8606 4226.5 79.6598C4332.6 81.4591 4409.46 82.2778 4457.08 82.1775C4593.93 81.9442 4741.78 78.3758 4900.62 71.4724C5305.95 53.7053 5606.66 60.747 5802.56 92.6016C5927.85 112.901 6012.23 143.651 6056.28 184.662C6100.13 225.737 6093.44 264.341 6036.18 300.475C6036.18 300.475 5986.65 334.469 5958.27 324.575C5905.78 306.352 5966.93 304.799 5986.51 290.6Z" fill="url(#paint28_linear_1270_1108)"/>
</g>
<mask id="mask29_1270_1108" style="mask-type:luminance" maskUnits="userSpaceOnUse" x="5708" y="241" width="372" height="120">
<path d="M5946.95 346.93C5892.76 364.357 5804.68 364.427 5750.08 347.085C5695.48 329.742 5695.14 301.562 5749.32 284.134C5803.51 266.706 6010.76 228.322 6065.36 245.664C6119.77 263.006 6001.13 329.502 5946.95 346.93Z" fill="white"/>
</mask>
<g mask="url(#mask29_1270_1108)">
<path d="M5946.96 346.93C5892.77 364.357 5804.7 364.427 5750.1 347.085C5695.49 329.742 5695.15 301.562 5749.34 284.134C5803.53 266.706 6010.77 228.322 6065.38 245.664C6119.79 263.006 6001.15 329.502 5946.96 346.93Z" fill="url(#paint29_linear_1270_1108)"/>
</g>
<defs>
<linearGradient id="paint0_linear_1270_1108" x1="3524.77" y1="8193" x2="3524.7" y2="8107.47" gradientUnits="userSpaceOnUse">
<stop stop-color="#968428"/>
<stop offset="0.503741" stop-color="#CDC577"/>
<stop offset="1" stop-color="#968428"/>
</linearGradient>
<linearGradient id="paint1_linear_1270_1108" x1="323.848" y1="4165.17" x2="323.781" y2="4079.64" gradientUnits="userSpaceOnUse">
<stop stop-color="#968428"/>
<stop offset="0.503741" stop-color="#CDC577"/>
<stop offset="1" stop-color="#968428"/>
</linearGradient>
<linearGradient id="paint2_linear_1270_1108" x1="325.556" y1="4307.77" x2="325.502" y2="4239.34" gradientUnits="userSpaceOnUse">
<stop stop-color="#968428"/>
<stop offset="0.503741" stop-color="#CDC577"/>
<stop offset="1" stop-color="#968428"/>
</linearGradient>
<linearGradient id="paint3_linear_1270_1108" x1="357.034" y1="7123.2" x2="354.897" y2="4408.58" gradientUnits="userSpaceOnUse">
<stop stop-color="#968428"/>
<stop offset="0.503741" stop-color="#CDC577"/>
<stop offset="1" stop-color="#968428"/>
</linearGradient>
<linearGradient id="paint4_linear_1270_1108" x1="546.991" y1="8241.99" x2="546.776" y2="7969.13" gradientUnits="userSpaceOnUse">
<stop stop-color="#968428"/>
<stop offset="0.503741" stop-color="#CDC577"/>
<stop offset="1" stop-color="#968428"/>
</linearGradient>
<linearGradient id="paint5_linear_1270_1108" x1="715.255" y1="8003.1" x2="714.663" y2="7251.64" gradientUnits="userSpaceOnUse">
<stop stop-color="#968428"/>
<stop offset="0.503741" stop-color="#CDC577"/>
<stop offset="1" stop-color="#968428"/>
</linearGradient>
<linearGradient id="paint6_linear_1270_1108" x1="2044.03" y1="8186.13" x2="2043.82" y2="7915.09" gradientUnits="userSpaceOnUse">
<stop stop-color="#968428"/>
<stop offset="0.503741" stop-color="#CDC577"/>
<stop offset="1" stop-color="#968428"/>
</linearGradient>
<linearGradient id="paint7_linear_1270_1108" x1="1058.44" y1="8001.01" x2="1058.34" y2="7882.35" gradientUnits="userSpaceOnUse">
<stop stop-color="#968428"/>
<stop offset="0.503741" stop-color="#CDC577"/>
<stop offset="1" stop-color="#968428"/>
</linearGradient>
<linearGradient id="paint8_linear_1270_1108" x1="3524.77" y1="8193" x2="3524.7" y2="8107.47" gradientUnits="userSpaceOnUse">
<stop stop-color="#968428"/>
<stop offset="0.503741" stop-color="#CDC577"/>
<stop offset="1" stop-color="#968428"/>
</linearGradient>
<linearGradient id="paint9_linear_1270_1108" x1="321.956" y1="4007.96" x2="321.902" y2="3939.53" gradientUnits="userSpaceOnUse">
<stop stop-color="#968428"/>
<stop offset="0.503741" stop-color="#CDC577"/>
<stop offset="1" stop-color="#968428"/>
</linearGradient>
<linearGradient id="paint10_linear_1270_1108" x1="317.613" y1="3838.69" x2="315.476" y2="1124.07" gradientUnits="userSpaceOnUse">
<stop stop-color="#968428"/>
<stop offset="0.503741" stop-color="#CDC577"/>
<stop offset="1" stop-color="#968428"/>
</linearGradient>
<linearGradient id="paint11_linear_1270_1108" x1="451.406" y1="277.893" x2="451.192" y2="5.03211" gradientUnits="userSpaceOnUse">
<stop stop-color="#968428"/>
<stop offset="0.503741" stop-color="#CDC577"/>
<stop offset="1" stop-color="#968428"/>
</linearGradient>
<linearGradient id="paint12_linear_1270_1108" x1="631.148" y1="995.122" x2="630.557" y2="243.661" gradientUnits="userSpaceOnUse">
<stop stop-color="#968428"/>
<stop offset="0.503741" stop-color="#CDC577"/>
<stop offset="1" stop-color="#968428"/>
</linearGradient>
<linearGradient id="paint13_linear_1270_1108" x1="1949.74" y1="329.551" x2="1949.52" y2="58.5128" gradientUnits="userSpaceOnUse">
<stop stop-color="#968428"/>
<stop offset="0.503741" stop-color="#CDC577"/>
<stop offset="1" stop-color="#968428"/>
</linearGradient>
<linearGradient id="paint14_linear_1270_1108" x1="966.776" y1="363.904" x2="966.683" y2="245.245" gradientUnits="userSpaceOnUse">
<stop stop-color="#968428"/>
<stop offset="0.503741" stop-color="#CDC577"/>
<stop offset="1" stop-color="#968428"/>
</linearGradient>
<linearGradient id="paint15_linear_1270_1108" x1="3428.06" y1="134.898" x2="3427.99" y2="49.3609" gradientUnits="userSpaceOnUse">
<stop stop-color="#968428"/>
<stop offset="0.503741" stop-color="#CDC577"/>
<stop offset="1" stop-color="#968428"/>
</linearGradient>
<linearGradient id="paint16_linear_1270_1108" x1="3524.77" y1="8193" x2="3524.7" y2="8107.47" gradientUnits="userSpaceOnUse">
<stop stop-color="#968428"/>
<stop offset="0.503741" stop-color="#CDC577"/>
<stop offset="1" stop-color="#968428"/>
</linearGradient>
<linearGradient id="paint17_linear_1270_1108" x1="6629.15" y1="4160.2" x2="6629.08" y2="4074.67" gradientUnits="userSpaceOnUse">
<stop stop-color="#968428"/>
<stop offset="0.503741" stop-color="#CDC577"/>
<stop offset="1" stop-color="#968428"/>
</linearGradient>
<linearGradient id="paint18_linear_1270_1108" x1="6630.89" y1="4302.8" x2="6630.83" y2="4234.37" gradientUnits="userSpaceOnUse">
<stop stop-color="#968428"/>
<stop offset="0.503741" stop-color="#CDC577"/>
<stop offset="1" stop-color="#968428"/>
</linearGradient>
<linearGradient id="paint19_linear_1270_1108" x1="6666.98" y1="7118.23" x2="6664.85" y2="4403.61" gradientUnits="userSpaceOnUse">
<stop stop-color="#968428"/>
<stop offset="0.503741" stop-color="#CDC577"/>
<stop offset="1" stop-color="#968428"/>
</linearGradient>
<linearGradient id="paint20_linear_1270_1108" x1="6503.89" y1="8237.29" x2="6503.67" y2="7964.43" gradientUnits="userSpaceOnUse">
<stop stop-color="#968428"/>
<stop offset="0.503741" stop-color="#CDC577"/>
<stop offset="1" stop-color="#968428"/>
</linearGradient>
<linearGradient id="paint21_linear_1270_1108" x1="6329.89" y1="7998.68" x2="6329.3" y2="7247.22" gradientUnits="userSpaceOnUse">
<stop stop-color="#968428"/>
<stop offset="0.503741" stop-color="#CDC577"/>
<stop offset="1" stop-color="#968428"/>
</linearGradient>
<linearGradient id="paint22_linear_1270_1108" x1="5005.34" y1="8183.8" x2="5005.13" y2="7912.76" gradientUnits="userSpaceOnUse">
<stop stop-color="#968428"/>
<stop offset="0.503741" stop-color="#CDC577"/>
<stop offset="1" stop-color="#968428"/>
</linearGradient>
<linearGradient id="paint23_linear_1270_1108" x1="5986.7" y1="7997.13" x2="5986.6" y2="7878.47" gradientUnits="userSpaceOnUse">
<stop stop-color="#968428"/>
<stop offset="0.503741" stop-color="#CDC577"/>
<stop offset="1" stop-color="#968428"/>
</linearGradient>
<linearGradient id="paint24_linear_1270_1108" x1="6627.29" y1="4002.99" x2="6627.24" y2="3934.56" gradientUnits="userSpaceOnUse">
<stop stop-color="#968428"/>
<stop offset="0.503741" stop-color="#CDC577"/>
<stop offset="1" stop-color="#968428"/>
</linearGradient>
<linearGradient id="paint25_linear_1270_1108" x1="6627.56" y1="3833.72" x2="6625.43" y2="1119.1" gradientUnits="userSpaceOnUse">
<stop stop-color="#968428"/>
<stop offset="0.503741" stop-color="#CDC577"/>
<stop offset="1" stop-color="#968428"/>
</linearGradient>
<linearGradient id="paint26_linear_1270_1108" x1="6408.3" y1="273.201" x2="6408.09" y2="0.340636" gradientUnits="userSpaceOnUse">
<stop stop-color="#968428"/>
<stop offset="0.503741" stop-color="#CDC577"/>
<stop offset="1" stop-color="#968428"/>
</linearGradient>
<linearGradient id="paint27_linear_1270_1108" x1="6245.79" y1="990.704" x2="6245.19" y2="239.243" gradientUnits="userSpaceOnUse">
<stop stop-color="#968428"/>
<stop offset="0.503741" stop-color="#CDC577"/>
<stop offset="1" stop-color="#968428"/>
</linearGradient>
<linearGradient id="paint28_linear_1270_1108" x1="4911.05" y1="327.219" x2="4910.84" y2="56.1808" gradientUnits="userSpaceOnUse">
<stop stop-color="#968428"/>
<stop offset="0.503741" stop-color="#CDC577"/>
<stop offset="1" stop-color="#968428"/>
</linearGradient>
<linearGradient id="paint29_linear_1270_1108" x1="5895.05" y1="360.025" x2="5894.95" y2="241.366" gradientUnits="userSpaceOnUse">
<stop stop-color="#968428"/>
<stop offset="0.503741" stop-color="#CDC577"/>
<stop offset="1" stop-color="#968428"/>
</linearGradient>
</defs>
</svg>
