<svg width="45768" height="16252" viewBox="0 -4000 45768 16252" fill="none" xmlns="http://www.w3.org/2000/svg">
<path d="M96.5 4099.23
C96.5 3830.28 189.692 3572.35 355.575 3382.18
C521.458 3192 746.443 3085.17 981.037 3085.17
H17100
C17100 1500 20000 0 22884 0
C25768 0 28668 1500 28668 3085.17
H44786.7
C45021.3 3085.17 45246.3 3192 45412.2 3382.18
C45578 3572.35 45671.2 3830.28 45671.2 4099.23
V9141.41
C45671.2 9410.36 45578 9668.29 45412.2 9858.46
C45246.3 10048.64 45021.3 10155.47 44786.7 10155.47
H981.037
C746.443 10155.47 521.458 10048.64 355.575 9858.46
C189.692 9668.29 96.5 9410.36 96.5 9141.41
V4099.23Z" stroke="#A30000" stroke-width="193" fill="#E5CFA4"/>
</svg>
