<svg width="5217" height="2544" viewBox="0 0 5217 2544" fill="none" xmlns="http://www.w3.org/2000/svg">
<path d="M5003.82 385.223C4656.31 157.636 4184.56 273.611 4184.56 273.611C4182.27 272.917 4179.14 229.333 4156.35 188.824C4362.1 153.223 4565.63 158.875 4640.26 167.255C4799.06 185.105 4883.32 229.928 4927.36 259.48C5009.32 314.369 5003.82 385.223 5003.82 385.223ZM4147.1 311.543C4129.9 373.323 4075.38 422.411 3977.06 450.723C3937.99 461.978 3916.12 453.004 3906.26 445.467C3889.05 429.055 3899.22 406.643 3913.14 392.661C3962.45 346.548 4042.73 323.443 4117.28 304.849C4127.6 302.618 4137.77 300.436 4148.25 300.386L4147.1 311.543ZM2555.31 48.7006C2566.4 32.7843 2583.22 16.1248 2608.07 15.381C2632.92 16.1248 2649.66 32.7843 2660.83 48.7006C2692.1 93.623 2670.61 161.156 2608.07 197.997C2545.45 161.156 2523.97 93.623 2555.31 48.7006ZM1031.5 273.611C1031.5 273.611 559.829 157.636 212.25 385.223C212.25 385.223 206.821 314.369 288.708 259.48C332.748 229.928 417.081 185.105 575.809 167.255C650.509 158.875 854.041 153.223 1059.79 188.824C1036.93 229.333 1033.79 272.917 1031.5 273.611ZM1098.86 304.849C1173.33 323.443 1253.69 346.548 1303 392.661C1316.92 406.643 1327.09 429.055 1309.81 445.467C1300.02 453.004 1278.16 461.978 1239.08 450.723C1140.76 422.411 1086.24 373.323 1069.04 311.543L1067.89 300.386C1078.37 300.436 1088.46 302.618 1098.86 304.849ZM5209.18 640.329C5194.27 548.848 5134.64 467.036 5026.83 400.793C5034.86 333.905 5005.57 276.933 4935.54 229.333C4839.2 170.577 4708 146.43 4579.47 141.224C4538.18 138.993 4303.54 137.307 4143.58 174.445C4134.72 162.941 4131.81 154.859 4119.57 138.993C4052.37 51.7755 3911.99 5.11755 3769.7 1.3988C3679.18 1.3988 3569.61 15.2318 3488.18 34.5693C3281.74 79.9381 3137.78 182.13 2927.9 220.061C2841.88 233.449 2735.45 238.258 2628.03 209.897C2647.52 196.509 2656.01 185.105 2669.85 170.23C2707.7 129.324 2707.7 68.3363 2665.26 28.1738C2651.12 16.5217 2640.41 2.09241 2612.66 0.307495V0.0101318C2610.98 -0.0394287 2609.6 0.159302 2608.07 0.159302C2606.47 0.159302 2605.09 -0.0394287 2603.41 0.0101318V0.307495C2575.65 2.09241 2564.95 16.5217 2550.88 28.1738C2508.37 68.3363 2508.37 129.324 2546.29 170.23C2559.98 185.105 2568.54 196.509 2588.04 209.897C2480.69 238.258 2374.26 233.449 2288.17 220.061C2078.29 182.13 1934.32 79.9381 1727.88 34.5693C1646.46 15.2318 1536.96 1.3988 1446.36 1.3988C1304.07 5.11755 1163.77 51.7755 1096.56 138.993C1084.33 154.859 1081.35 162.941 1072.48 174.445C912.53 137.307 677.881 138.993 636.593 141.224C508.143 146.43 376.865 170.577 280.527 229.333C210.568 276.933 181.284 333.905 189.312 400.793C81.5058 467.036 21.8671 548.848 6.88125 640.329L0 683.467V1844.46L33.2594 1852.69V673.798C42.9696 535.758 196.193 420.923 196.193 420.923C206.515 435.055 216.837 449.186 231.746 462.573C236.334 466.242 239.775 470.755 247.803 471.498C250.096 470.755 255.523 458.259 253.229 456.028C233.733 439.665 221.881 427.269 215 406.444C215 406.444 284.426 363.605 320.056 349.474C472.59 278.818 733.846 241.778 1036.93 294.882C1045.11 335.59 1074.24 371.389 1105.21 401.139C1154.6 439.071 1224.71 480.522 1307.29 464.903C1324.49 460.441 1345.36 443.979 1347.66 429.848C1352.32 407.536 1345.59 385.223 1312.79 363.952C1241.76 307.278 1062.08 278.074 1062.08 278.074C1065.98 256.555 1080.89 201.418 1087.32 195.518C1209.04 216.987 1321.28 266.917 1376.4 286.304C1378.7 284.024 1380.38 273.958 1375.56 271.876C1315.47 245.299 1267.68 230.374 1192.6 206.326C1159.34 195.666 1115.76 186.394 1097.02 179.75C1125.7 129.968 1182.58 86.1864 1257.13 58.6676C1322.5 34.1239 1380.38 21.381 1472.74 19.2489C1492.31 18.8026 1669.16 20.2902 1825.98 74.2864C2000 134.183 2125.47 218.821 2347.73 243.514C2433.29 253.034 2533.91 244.257 2608.07 221.499C2682.24 244.257 2782.85 253.034 2868.33 243.514C3090.6 218.821 3216.15 134.183 3390.09 74.2864C3546.98 20.2902 3723.83 18.8026 3743.33 19.2489C3835.76 21.381 3893.64 34.1239 3959.01 58.6676C4033.48 86.1864 4090.37 129.968 4119.04 179.75C4100.31 186.394 4056.8 195.666 4023.54 206.326C3948.39 230.374 3900.6 245.299 3840.5 271.876C3835.76 273.958 3837.44 284.024 3839.74 286.304C3894.79 266.917 4007.1 216.987 4128.75 195.518C4135.17 201.418 4150.08 256.555 4153.98 278.074C4153.98 278.074 3974.38 307.278 3903.28 363.952C3870.55 385.223 3863.82 407.536 3868.41 429.848C3870.7 443.979 3891.58 460.441 3908.78 464.903C3991.35 480.522 4061.54 439.071 4110.86 401.139C4141.83 371.389 4170.96 335.59 4179.14 294.882C4482.29 241.778 4743.55 278.818 4896.09 349.474C4931.64 363.605 5001.14 406.444 5001.14 406.444C4994.26 427.269 4982.33 439.665 4962.84 456.028C4960.62 458.259 4966.05 470.755 4968.34 471.498C4976.29 470.755 4979.81 466.242 4984.4 462.573C4999.31 449.186 5009.55 435.055 5019.87 420.923C5019.87 420.923 5173.17 535.758 5182.81 673.798V1852.69L5216.14 1844.46V683.467L5209.18 640.329Z" fill="url(#paint0_linear_1270_1107)"/>
<path d="M4927.36 2284.11C4883.32 2313.62 4799.06 2358.44 4640.26 2376.29C4565.63 2384.67 4362.1 2390.37 4156.35 2354.72C4179.14 2314.21 4182.27 2270.68 4184.56 2269.93C4184.56 2269.93 4656.31 2385.96 5003.82 2158.37C5003.82 2158.37 5009.32 2229.23 4927.36 2284.11ZM4148.25 2243.16C4137.77 2243.11 4127.6 2240.93 4117.28 2238.7C4042.73 2220.1 3962.45 2197.05 3913.14 2150.93C3899.22 2136.9 3889.05 2114.49 3906.26 2098.13C3916.12 2090.54 3937.99 2081.57 3977.06 2092.82C4075.38 2121.13 4129.9 2170.27 4147.1 2232L4148.25 2243.16ZM2608.07 2345.55C2670.61 2382.39 2692.1 2449.92 2660.83 2494.84C2649.66 2510.76 2632.92 2527.42 2608.07 2528.16C2583.22 2527.42 2566.4 2510.76 2555.31 2494.84C2523.97 2449.92 2545.45 2382.39 2608.07 2345.55ZM1059.79 2354.72C854.041 2390.37 650.509 2384.67 575.809 2376.29C417.081 2358.44 332.748 2313.62 288.708 2284.11C206.821 2229.23 212.25 2158.37 212.25 2158.37C559.829 2385.96 1031.5 2269.93 1031.5 2269.93C1033.79 2270.68 1036.93 2314.21 1059.79 2354.72ZM1067.89 2243.16L1069.04 2232C1086.24 2170.27 1140.76 2121.13 1239.08 2092.82C1278.16 2081.57 1300.02 2090.54 1309.81 2098.13C1327.09 2114.49 1316.92 2136.9 1303 2150.93C1253.69 2197.05 1173.33 2220.1 1098.86 2238.7C1088.46 2240.93 1078.37 2243.11 1067.89 2243.16ZM5216.14 1860.08V699.085L5182.81 690.854V1869.75C5173.17 2007.84 5019.87 2122.67 5019.87 2122.67C5009.55 2108.49 4999.31 2094.41 4984.4 2081.02C4979.81 2077.3 4976.29 2072.84 4968.34 2072.05C4966.05 2072.84 4960.62 2085.29 4962.84 2087.52C4982.33 2103.88 4994.26 2116.28 5001.14 2137.1C5001.14 2137.1 4931.64 2179.94 4896.09 2194.07C4743.55 2264.73 4482.29 2301.82 4179.14 2248.66C4170.96 2207.95 4141.83 2172.16 4110.86 2142.41C4061.54 2104.47 3991.35 2063.07 3908.78 2078.64C3891.58 2083.1 3870.7 2099.62 3868.41 2113.75C3863.82 2136.06 3870.55 2158.37 3903.28 2179.59C3974.38 2236.27 4153.98 2265.47 4153.98 2265.47C4150.08 2286.99 4135.17 2342.13 4128.75 2348.03C4007.1 2326.61 3894.79 2276.63 3839.74 2257.29C3837.44 2259.52 3835.76 2269.64 3840.5 2271.72C3900.6 2298.25 3948.39 2313.17 4023.54 2337.22C4056.8 2347.93 4100.31 2357.15 4119.04 2363.8C4090.37 2413.63 4033.48 2457.36 3959.01 2484.88C3893.64 2509.42 3835.76 2522.16 3743.33 2524.3C3723.83 2524.74 3546.98 2523.26 3390.09 2469.26C3216.15 2409.36 3090.6 2324.72 2868.33 2300.03C2782.85 2290.56 2682.24 2299.29 2608.07 2322.05C2533.91 2299.29 2433.29 2290.56 2347.73 2300.03C2125.47 2324.72 2000 2409.36 1825.98 2469.26C1669.16 2523.26 1492.31 2524.74 1472.74 2524.3C1380.38 2522.16 1322.5 2509.42 1257.13 2484.88C1182.58 2457.36 1125.7 2413.63 1097.02 2363.8C1115.76 2357.15 1159.34 2347.93 1192.6 2337.22C1267.68 2313.17 1315.47 2298.25 1375.56 2271.72C1380.38 2269.64 1378.7 2259.52 1376.4 2257.29C1321.28 2276.63 1209.04 2326.61 1087.32 2348.03C1080.89 2342.13 1065.98 2286.99 1062.08 2265.47C1062.08 2265.47 1241.76 2236.27 1312.79 2179.59C1345.59 2158.37 1352.32 2136.06 1347.66 2113.75C1345.36 2099.62 1324.49 2083.1 1307.29 2078.64C1224.71 2063.07 1154.6 2104.47 1105.21 2142.41C1074.24 2172.16 1045.11 2207.95 1036.93 2248.66C733.846 2301.82 472.59 2264.73 320.056 2194.07C284.426 2179.94 215 2137.1 215 2137.1C221.881 2116.28 233.733 2103.88 253.229 2087.52C255.523 2085.29 250.096 2072.84 247.803 2072.05C239.775 2072.84 236.334 2077.3 231.746 2081.02C216.837 2094.41 206.515 2108.49 196.193 2122.67C196.193 2122.67 42.9696 2007.84 33.2594 1869.75V690.854L0 699.085V1860.08L6.88125 1903.22C21.8671 1994.7 81.5058 2076.56 189.312 2142.75C181.284 2209.69 210.568 2266.61 280.527 2314.21C376.865 2372.97 508.143 2397.12 636.593 2402.32C677.881 2404.55 912.53 2406.29 1072.48 2369.1C1081.35 2380.6 1084.33 2388.74 1096.56 2404.55C1163.77 2491.77 1304.07 2538.43 1446.36 2542.15C1536.96 2542.15 1646.46 2528.31 1727.88 2509.03C1934.32 2463.61 2078.29 2361.42 2288.17 2323.48C2374.26 2310.1 2480.69 2305.34 2588.04 2333.7C2568.54 2347.04 2559.98 2358.44 2546.29 2373.32C2508.37 2414.22 2508.37 2475.21 2550.88 2515.37C2564.95 2527.02 2575.65 2541.45 2603.41 2543.24V2543.54C2605.09 2543.58 2606.47 2543.39 2608.07 2543.39C2609.6 2543.39 2610.98 2543.58 2612.66 2543.54V2543.24C2640.41 2541.45 2651.12 2527.02 2665.26 2515.37C2707.7 2475.21 2707.7 2414.22 2669.85 2373.32C2656.01 2358.44 2647.52 2347.04 2628.03 2333.7C2735.45 2305.34 2841.88 2310.1 2927.9 2323.48C3137.78 2361.42 3281.74 2463.61 3488.18 2509.03C3569.61 2528.31 3679.18 2542.15 3769.7 2542.15C3911.99 2538.43 4052.37 2491.77 4119.57 2404.55C4131.81 2388.74 4134.72 2380.6 4143.58 2369.1C4303.54 2406.29 4538.18 2404.55 4579.47 2402.32C4708 2397.12 4839.2 2372.97 4935.54 2314.21C5005.57 2266.61 5034.86 2209.69 5026.83 2142.75C5134.64 2076.56 5194.27 1994.7 5209.18 1903.22L5216.14 1860.08Z" fill="url(#paint1_linear_1270_1107)"/>
<defs>
<linearGradient id="paint0_linear_1270_1107" x1="0" y1="926.326" x2="5216.1" y2="926.326" gradientUnits="userSpaceOnUse">
<stop stop-color="#968428"/>
<stop offset="0.503741" stop-color="#CDC577"/>
<stop offset="1" stop-color="#968428"/>
</linearGradient>
<linearGradient id="paint1_linear_1270_1107" x1="0" y1="1617.22" x2="5216.1" y2="1617.22" gradientUnits="userSpaceOnUse">
<stop stop-color="#968428"/>
<stop offset="0.503741" stop-color="#CDC577"/>
<stop offset="1" stop-color="#968428"/>
</linearGradient>
</defs>
</svg>
