<?xml version="1.0" encoding="UTF-8"?>
<svg width="2936.67" height="4499.99" id="Layer_2" data-name="Layer 2" xmlns="http://www.w3.org/2000/svg" viewBox="0 0 2936.67 4499.99">
  <g id="Vertical">
    <g id="Rounded_Arch_Label_Border" data-name="Rounded Arch Label Border">
      <path d="M2758.77,3919.33c-195.44,50.56-352.2,207.31-402.75,402.75H580.65c-50.55-195.45-207.31-352.19-402.75-402.75V1468.33c0-711.54,578.88-1290.43,1290.43-1290.43s1290.44,578.88,1290.44,1290.43v2451Z" fill="#F0E4E5"/>
      <path d="M1468.33,0C658.69,0,0,658.69,0,1468.34v2611.16h37.73c211.05,0,382.76,171.7,382.76,382.75v37.74h2095.68v-37.74c0-211.05,171.71-382.75,382.76-382.75h37.73V1468.34C2936.67,658.69,2277.98,0,1468.33,0ZM2861.2,4005.56c-222.63,18.24-400.72,196.32-418.96,418.95H494.43c-18.24-222.63-196.32-400.72-418.96-418.95V1468.34C75.47,700.31,700.31,75.48,1468.33,75.48s1392.87,624.83,1392.87,1392.86v2537.22Z" fill="#af957b"/>
      <path d="M1468.33,156.34c-723.44,0-1312,588.56-1312,1312v2467.9l8.25,1.99c194.26,47.02,350.16,202.92,397.18,397.18l1.99,8.25h1809.16l1.99-8.25c47.02-194.26,202.92-350.16,397.18-397.18l8.25-1.99V1468.33c0-723.44-588.56-1312-1312-1312ZM2758.77,3919.33c-195.44,50.56-352.2,207.31-402.75,402.75H580.65c-50.55-195.45-207.31-352.19-402.75-402.75V1468.33c0-711.54,578.88-1290.43,1290.43-1290.43s1290.44,578.88,1290.44,1290.43v2451Z" fill="#af957b"/>
    </g>
  </g>
</svg>