<?xml version="1.0" encoding="UTF-8"?>
<svg width="2936.67" height="4499.99" id="Layer_2" data-name="Layer 2" xmlns="http://www.w3.org/2000/svg" viewBox="0 0 2936.67 4499.99">
  <g id="Vertical">
    <g id="Rounded_Arch_Label_Border" data-name="Rounded Arch Label Border">
      <path d="M2758.77,3516.58c-148.25,101.12-267.16,414.62-305.5,805.5H483.4c-38.34-390.9-157.25-704.38-305.5-805.5V1468.33c0-711.54,578.88-1290.43,1290.43-1290.43s1290.44,578.88,1290.44,1290.43v2048.25Z" fill="#F0E4E5"/>
      <path d="M1468.33,0C658.69,0,0,658.69,0,1468.34v2228.41h37.73c146.41,0,265.52,343.4,265.52,765.5v37.74h2330.16v-37.74c0-422.1,119.12-765.5,265.52-765.5h37.73V1468.34C2936.67,658.69,2277.98,0,1468.33,0ZM2861.2,3586.61c-179.57,36.48-323.21,392.64-337.92,837.9H413.39c-14.71-445.26-158.35-801.44-337.92-837.9V1468.34C75.47,700.31,700.31,75.48,1468.33,75.48s1392.87,624.83,1392.87,1392.86v2118.27Z" fill="#af957b"/>
      <path d="M1468.33,156.34c-723.44,0-1312,588.56-1312,1312v2070.72l8.25,1.99c143.97,94.04,259.51,405.84,294.36,794.36l1.99,8.25h2014.8l1.99-8.25c34.85-388.52,150.39-700.32,294.36-794.36l8.25-1.99V1468.33c0-723.44-588.56-1312-1312-1312ZM2758.77,3516.58c-148.25,101.12-267.16,414.62-305.5,805.5H483.4c-38.34-390.9-157.25-704.38-305.5-805.5V1468.33c0-711.54,578.88-1290.43,1290.43-1290.43s1290.44,578.88,1290.44,1290.43v2048.25Z" fill="#af957b"/>
    </g>
  </g>
</svg>