<svg width="2274" height="1061" viewBox="0 0 22735 10614" fill="none" xmlns="http://www.w3.org/2000/svg">
<path d="M372.855 9636.89L413.623 9639.89C979.96 9680.52 1432.65 9956.87 1514.53 10312L1520.82 10339.6L21103.1 10339.6L21109.5 10312C21197.9 9930.25 21691.2 9648.39 22309 9626.89L22349.7 9625.39L22351.8 9596.89V1741.02L22349.7 1712.52L22309 1711.02C21691.2 1689.52 21197.9 1407.66 21109.5 1025.93L21103.1 998.308H1520.82L1514.53 1025.93C1432.65 1381.04 979.96 1657.39 413.623 1698.02L372.855 1701.02Z" fill="#D9C7CA"/>
<mask id="mask0_1202_3879" style="mask-type:luminance" maskUnits="userSpaceOnUse" x="323" y="238" width="22089" height="10138">
<path d="M372.855 9636.89L413.623 9639.89C979.96 9680.52 1432.65 9956.87 1514.53 10312L1520.82 10339.6L21103.1 10339.6L21109.5 10312C21197.9 9930.25 21691.2 9648.39 22309 9626.89L22349.7 9625.39L22351.8 9596.89V1741.02L22349.7 1712.52L22309 1711.02C21691.2 1689.52 21197.9 1407.66 21109.5 1025.93L21103.1 998.308H1520.82L1514.53 1025.93C1432.65 1381.04 979.96 1657.39 413.623 1698.02L372.855 1701.02ZM22400.9 9598.39L22396.5 9660.02L22311.3 9663.02C21716.6 9683.77 21242.4 9953.12 21158 10318.1L21144.5 10375.8L1479.37 10375.8L1465.95 10318.1C1387.81 9978.99 953.123 9714.89 408.869 9675.89L323.763 9669.76V1668.15L408.869 1662.02C953.123 1623.02 1387.81 1358.92 1465.95 1019.81L1479.37 962.06H21144.5L21158 1019.81C21242.4 1384.79 21716.6 1654.14 22311.3 1674.89L22396.5 1677.89L22400.9 1739.52Z" fill="white"/>
</mask>
<g mask="url(#mask0_1202_3879)">
<path d="M372.855 9636.89L413.623 9639.89C979.96 9680.52 1432.65 9956.87 1514.53 10312L1520.82 10339.6L21103.1 10339.6L21109.5 10312C21197.9 9930.25 21691.2 9648.39 22309 9626.89L22349.7 9625.39L22351.8 9596.89V1741.02L22349.7 1712.52L22309 1711.02C21691.2 1689.52 21197.9 1407.66 21109.5 1025.93L21103.1 998.308H1520.82L1514.53 1025.93C1432.65 1381.04 979.96 1657.39 413.623 1698.02L372.855 1701.02ZM22400.9 9598.39L22396.5 9660.02L22311.3 9663.02C21716.6 9683.77 21242.4 9953.12 21158 10318.1L21144.5 10375.8L1479.37 10375.8L1465.95 10318.1C1387.81 9978.99 953.123 9714.89 408.869 9675.89L323.763 9669.76V1668.15L408.869 1662.02C953.123 1623.02 1387.81 1358.92 1465.95 1019.81L1479.37 962.06H21144.5L21158 1019.81C21242.4 1384.79 21716.6 1654.14 22311.3 1674.89L22396.5 1677.89L22400.9 1739.52Z" fill="url(#paint0_linear_1202_3879)"/>
</g>
<mask id="mask1_1202_3879" style="mask-type:luminance" maskUnits="userSpaceOnUse" x="0" y="0" width="22735" height="10614">
<path d="M139.291 9792.87L390.863 9811C852.562 9844.12 1219.98 10062 1284.19 10340.7L1323.61 10511.5L21300.3 10511.5L21339.7 10340.8C21409.7 10039.2 21812.8 9816.25 22320 9798.5L22568.5 9789.88V1548.03L22320 1539.41C21812.8 1521.66 21409.7 1298.67 21339.7 997.065L21300.3 826.45H1323.61L1284.19 997.192C1219.98 1275.93 852.562 1493.79 390.863 1526.91L139.291 1545.04ZM22735 9887.62L22707.7 9887.62L22326.6 9900.99C21885.3 9916.37 21535.9 10104.3 21477.1 10358.1L21417.9 10614.1L1205.89 10614.1L1146.77 10357.8C1093.09 10124.6 776.634 9941.62 377.446 9912.99L0 9885.87V1452.04L377.446 1424.92C776.634 1396.29 1093.09 1213.31 1146.77 980.069L1205.89 723.834H21417.9L21477.1 979.82C21535.9 1233.56 21885.3 1421.54 22326.6 1436.92L22707.7 1450.29L22735 1450.29Z" fill="white"/>
</mask>
<g mask="url(#mask1_1202_3879)">
<path d="M139.291 9792.87L390.863 9811C852.562 9844.12 1219.98 10062 1284.19 10340.7L1323.61 10511.5L21300.3 10511.5L21339.7 10340.8C21409.7 10039.2 21812.8 9816.25 22320 9798.5L22568.5 9789.88V1548.03L22320 1539.41C21812.8 1521.66 21409.7 1298.67 21339.7 997.065L21300.3 826.45H1323.61L1284.19 997.192C1219.98 1275.93 852.562 1493.79 390.863 1526.91L139.291 1545.04ZM22735 9887.62L22707.7 9887.62L22326.6 9900.99C21885.3 9916.37 21535.9 10104.3 21477.1 10358.1L21417.9 10614.1L1205.89 10614.1L1146.77 10357.8C1093.09 10124.6 776.634 9941.62 377.446 9912.99L0 9885.87V1452.04L377.446 1424.92C776.634 1396.29 1093.09 1213.31 1146.77 980.069L1205.89 723.834H21417.9L21477.1 979.82C21535.9 1233.56 21885.3 1421.54 22326.6 1436.92L22707.7 1450.29L22735 1450.29Z" fill="url(#paint1_linear_1202_3879)"/>
</g>
<defs>
<linearGradient id="paint0_linear_1202_3879" x1="323.763" y1="5307.06" x2="22411.1" y2="5307.06" gradientUnits="userSpaceOnUse">
<stop stop-color="#968428"/>
<stop offset="0.503741" stop-color="#CDC577"/>
<stop offset="1" stop-color="#968428"/>
</linearGradient>
<linearGradient id="paint1_linear_1202_3879" x1="0" y1="5307.06" x2="22735.2" y2="5307.06" gradientUnits="userSpaceOnUse">
<stop stop-color="#968428"/>
<stop offset="0.503741" stop-color="#CDC577"/>
<stop offset="1" stop-color="#968428"/>
</linearGradient>
</defs>
</svg>
